<?xml version="1.0" encoding="UTF-8"?>
<svg id="Layer_2" data-name="Layer 2" xmlns="http://www.w3.org/2000/svg" viewBox="0 0 209.13 98.77">
  <defs>
    <style>
      .cls-1 {
        fill: #ef67a5;
        fill-rule: evenodd;
      }
    </style>
  </defs>
  <g id="Layer_1-2" data-name="Layer 1">
    <g>
      <path class="cls-1" d="M88.03,63.85v-19.39c0-2.72.32-10.37-9.41-10.37s-16.85,5.35-20.04,8.85c-3.19,3.51-1.83,6.95-1.43,7.9.4.96,1.83,2.8,2.72,3.6.88.8,1.43.08,1.43.08,3.67-7.66,11.09-10.93,13.57-10.93s2.87,1.91,2.87,2.55-.08,4.7-9.81,8.38c-9.74,3.67-12.93,9.74-12.93,9.74-2.55-5.82-9.81-8.3-9.81-8.3,0,0,7.42-5.51,7.42-15.16,0-18.28-20.27-18.12-20.83-18.12s-7.34-.31-18.04,4.95C3.04,32.89,0,42.23,0,47.97s3.51,8.22,3.51,8.22c0,0,4.3,3.35,4.95,3.67.65.32.48-.72.48-.72,0,0-3.28-10.3,3.74-18.27,7.03-7.98,17.08-8.38,18.44-8.38s9.57.31,9.57,8.7c0,11.81-12.85,14.05-14.77,14.6-1.91.56-1.75-2.15-1.75-2.15h0v-13.33l-12.77,7.59h0c1.99,2.87,1.76,7.66,1.76,7.66h0v41.5h0c5.26,1.6,12.69,3.19,25.06-.72,12.37-3.91,16.6-14.92,16.6-14.92,0,0,2.39,4.15,9.1,4.15,9.66,0,14.29-6.7,14.29-6.7,0,0,.95.8.95,1.43s.72,1.2.72,1.2c4.71-.64,10.22-2.87,10.22-2.87-2.64-3.51-2.08-11.81-2.08-14.77h0ZM28.74,88.59c-2.95,0-4.39-.64-4.39-.64h0v-21.87h0c2.39-1.35,6.7-2.55,9.82-2.55s9.74.31,9.74,9.65c0,11.41-12.21,15.4-15.16,15.4h0ZM67.76,75.58c-1.76,0-3.91-.15-3.91-4.47,0-5.98,13.25-11.89,13.25-11.89.65-.3.64.96.64.96,0,14.45-8.22,15.4-9.97,15.4h0Z"/>
      <path class="cls-1" d="M137.94,20.36c-3.71,0-9.81,1.52-13.23,9.9h0V5.27l-12.57,7.5h0s1.97,3.03,1.97,6.47v8.86s-1.65-1.6-3.89-1.6-4.71,1.52-7.34,6.07c0,0-.8-2.87-.64-3.51,0,0,1.16-1.94-11.29,6.12,0,0,.11.99.99,2.02.88,1.04,1.27,4.4,1.27,5.35v26.41s.2,4.32-.96,9.66h0l13.65-3.28h0s-2.31-3.91-2.31-10.46v-17.71s-.58-9.26,10.51-12.93h0v36.47h0s2.34,1.11,8.64,1.11,27.64-1.43,27.64-32.32c0-18.32-8.74-19.16-12.45-19.16h0ZM127.46,62.1c-2.23,0-2.75-.8-2.75-.8h0v-29.05h0c3.75,6.31,5.3,6.79,5.3,6.79,1.44-7.59,4.63-8.7,5.43-8.7s4.47-.16,4.47,9.81c0,16.36-10.21,21.95-12.45,21.95h0Z"/>
      <path class="cls-1" d="M158.03.01c-.35-.03-6.38-.41-6.38,7.34,0,6.15,4.29,6.38,6.06,6.38s5.43-.88,5.43-7.26S158.38.03,158.03.01h0Z"/>
      <path class="cls-1" d="M150.84,22.11s1.84,2.08,1.84,7.43v26.25s.56,4.63-1.2,9.18h0l13.65-3.19h0s-1.84-1.6-1.84-8.46V14.53s-.32-.64-12.45,7.58h0Z"/>
      <path class="cls-1" d="M197.13,30.74c-.15,10.37-5.9,17.71-11.33,17.71s-7.02-3.59-7.02-3.59h0l23.78-21.07h0c-.24-4.47-4.31-14.45-15.01-14.45-21.95,0-22.51,25.45-22.51,28.17s2.88,20.67,17.48,20.67c18.35,0,21.07-15.17,21.07-20.35s-6.47-7.1-6.47-7.1h0ZM179.81,22.04c4.47-5.67,9.5-4.95,11.57-.08h0l-14.92,12.53h0s-1.12-6.79,3.35-12.45h0Z"/>
      <polygon class="cls-1" points="197.86 5.09 202.7 5.09 202.7 5.8 200.69 5.8 200.69 11.05 199.87 11.05 199.87 5.8 197.86 5.8 197.86 5.09 197.86 5.09 197.86 5.09"/>
      <path class="cls-1" d="M203.41,11.05v-5.96h1.16l1.72,5.04,1.7-5.04h1.14v5.96h-.76v-3.52h0c0-.13,0-.32,0-.61,0-.28,0-.58,0-.9h0l-1.7,5.03h-.8l-1.71-5.03v.18h0c0,.15,0,.37,0,.67,0,.29.01.52.01.66h0v3.52h-.78Z"/>
    </g>
  </g>
</svg>