<svg width="652" height="652" viewBox="0 180 652 292" fill="none" xmlns="http://www.w3.org/2000/svg">
<path d="M41.6001 197.2H612.3C620.4 197.2 626.9 203.8 626.9 211.8V441.1C626.9 449.2 620.3 455.7 612.3 455.7H41.6001C33.5001 455.7 27.0001 449.1 27.0001 441.1V211.8C26.9001 203.7 33.5001 197.2 41.6001 197.2Z" fill="#0054A6"/>
<path d="M579 330.2C581.2 332.5 584 334.2 587 335C592 335.2 596.5 332 598.1 327.3C598.8 324.6 598.5 321.8 597.4 319.4C595.5 317.3 593.3 315.7 590.8 314.5C586.4 313 583.2 315.1 580.4 316.6C576.7 320.2 576.1 325.9 579 330.2ZM584.9 309.9C584.9 309.7 584.8 309.9 584.9 309.9C595.3 309.2 605.6 319.1 601.4 330C600.6 331.5 599.6 332.9 598.5 334.1C597.6 335.3 596.4 336.3 595 337C590.8 338.9 586 338.9 581.8 337C580.2 336.2 578.8 335.3 577.5 334.1C576.5 332.7 575.6 331.2 574.8 329.8C574 327.7 573.5 325.5 573.4 323.2C573.7 318.7 576 314.6 579.7 312.1C581.3 311.3 583.1 310.5 584.9 309.9ZM586.3 323.4C591.4 324 590.4 319.3 586.1 319.8C586 321 586.1 322.2 586.3 323.4ZM591.1 325.6C592 327.3 595.7 329.6 593.5 330.9C590 333.1 589.4 327.6 585.8 326.4C587 326.8 585.2 329.6 586 331.3C586.4 332.2 583.7 331.8 582.6 331.6C582.1 326.8 582 321.9 582.4 317.1C584.8 315.8 588.8 316.4 591.6 317.1C592.3 318.4 593.9 319.3 594 321.2C594.1 323.2 592.9 324.9 591.1 325.6ZM272.1 327.4C262.6 327.4 257.3 329 250.8 335.9C247.8 339.1 245.6 342.9 244.5 347.1C252.8 346.9 286.5 347.5 294.9 345.9C292.6 338.3 283.9 327.3 272.1 327.4ZM245.3 369.4C246.2 377.7 251.1 385.1 258.5 389.1C266.3 392.6 275.2 392.5 282.9 388.9C283.9 388.5 290.8 385.7 293.5 379.2C299.2 379.2 325.9 378.6 327 379.1C329.1 379.9 321.9 395.1 318.2 399.3C311 407.6 298.5 412.2 296.3 413.1C294 414 291.6 414.6 289.2 414.9C279.6 416.6 269.8 416.8 260.2 415.5C251.5 414.4 243 412 235.1 408.3C229.1 405.5 224.7 400 220.9 394.3C215.6 386.2 212.2 377.1 210.9 367.6C209.7 358.3 210.4 348.8 213 339.8C214.3 334.8 216.2 330 218.7 325.6C219.4 324.4 236 303.4 255.5 300.8C259.4 300.2 263.4 299.9 267.4 299.7C283.4 299.4 290.2 301.8 297.8 305.9C301.3 307.6 304.5 309.9 307.2 312.8C308.6 314.2 310.2 315.6 311.7 316.9C317.4 322.2 320.7 325.6 324 333.1C325.8 336.7 327.2 340.5 328.1 344.4C329.2 349.9 329.8 355.4 329.9 361C330 363.4 329.6 365.9 328.7 368.1C327.8 369.2 325.8 368.8 324.6 368.8C306.5 369.2 264.2 369.2 261 369.2C254.8 369.1 245.5 368.2 245.4 369.8M424 368.5C426.1 363.3 426.2 353 424.1 346.8C422.3 343.2 420.2 339.7 417.8 336.4C413.6 331.7 407.4 329.3 401.1 329.7C392.8 330.3 383.4 335.1 380 341.3C378.3 344.9 377.1 348.7 376.4 352.6C374.8 360.2 376.6 368.1 381.3 374.3C384.8 378.9 387.3 381.5 393.3 383.2C408.2 387.5 420.7 376.9 424 368.5ZM460.4 238.5C460.8 248.6 461.6 409.9 461.3 412.4C460.8 416.2 432.8 414.9 432 413.9C429.5 410.6 427.4 407.1 425.8 403.3C422.8 405.2 420 407.4 416.6 409.5C415.2 410.3 405.4 418.3 378.7 415.7C374.6 415.3 361.4 408.2 358.4 405.7C353.1 401.6 341.3 384 339.8 367.8C338.9 358.5 339.1 349.1 340.4 339.9C341 336.1 350.5 308.2 370.1 302.6C375.5 301.1 379.2 299.1 386.4 298.5C393.4 298.2 400.3 298.9 407.1 300.6C414.2 302.5 422.5 309 425.5 311C425.5 299.3 425.7 262 425.4 247.7C425.4 244.1 424.8 238.5 426.2 237.9C428 237.1 460.2 236 460.4 238.5ZM567.1 311.1C564.3 315.2 561.2 319 557.9 322.6C554.7 326.3 551.8 330.2 549 334.2C547 333 544.9 331.9 542.8 330.9C538.7 329.1 534.5 327.4 529.6 325.7C527.3 324.7 524.8 324.2 522.3 324.2C520 324.9 518.2 326.9 517.8 329.3C517.8 331.6 520 333.9 522.9 335.4C524.2 336.1 525.8 336.4 527 337C528.2 337.6 532.7 339.3 533.7 339.6C535.6 340.1 553.2 349.2 558.4 354.6C560.3 356.6 562.2 358.8 563.8 361C565.5 363.4 573.9 381.9 561.6 399C556 406.8 544.5 414.9 533 416.1C523 417.1 513 415.8 503.6 412.2C496 409.3 489 405.3 482.7 400.1C480.6 398.5 476.3 396 476 393.7C475.7 391.4 478.1 388 479.2 386C480.3 384 482.6 381.9 484 379.9C485.4 378 486.6 375.9 488.5 373.5C489.7 371.9 492.6 368.8 494.3 368.7C496.7 368.5 500.5 372.5 502.9 374.2C504.4 375.2 509.3 379.3 510.6 380.3C514 382.7 524.4 388.3 527.6 388C531.9 387.3 534.8 383.2 534 378.9C534 378.8 534 378.8 534 378.7C533.4 376.2 531.5 375.7 528.9 374.2C527 373.1 517.6 368.8 514.8 367.5C512.4 366.3 497.8 358.9 494.5 355.8C493.4 354.7 476.7 338.8 486.3 315.6C488.4 310.7 499.1 295.3 524.8 297.4C527.4 297.6 532.4 297.6 536.1 298.2C541.8 299.3 547.5 300.8 553 302.8C557.8 305.2 563.7 307.1 567.1 311.1ZM210.5 399.5C208.1 397.1 202.7 390.2 202.2 389.6C201 387.9 194.4 380.5 192.4 377.9C187.7 371.7 183.4 366.5 178.6 360.8C176.1 357.9 173.5 354.8 171.1 351.9C168.7 349 147.7 323.3 142.9 317.7C151.1 309.2 159.8 300.4 167.9 292.4C168.6 291.7 169.3 290.7 170.1 289.8C174 285.8 178.8 282.1 182.1 278.1C186.2 273.5 190.7 269.2 195.4 265.1C202.5 258.3 209.4 250.9 216.2 244.2C217.9 242.5 222.8 239.1 221.6 238C219.8 236.3 206.7 237 203.5 237.1C202.5 237.1 193.6 237.4 190.1 237.3C187.2 237.2 179.9 236.5 177.2 237.3C175.1 237.9 170.7 244.2 168.5 246.4C163 252.1 158.9 256.8 153.7 261.7C151 264.2 148.5 266.8 146.1 269.2C135.4 279.8 127.2 288.6 118.2 297.7C117.4 281.1 118.2 240 118.2 240C118.4 239.2 118.4 238.4 118.2 237.7C117.6 235.5 85.8003 236.8 85.0003 236.9C83.5003 237.3 83.9003 240.7 84.0003 243.4C84.1003 246.1 84.1003 248.5 84.0003 251.1C84.0003 263.5 84.3003 318.1 84.1003 321.6C84.0003 325.5 84.0003 356.9 84.1003 368.8C84.4003 387.2 83.8003 401.4 84.2003 411C83.6003 413.1 87.5003 413.2 89.3003 413.2C95.8003 413.7 102.4 413.8 108.9 413.3C111.7 413.7 117.9 413.5 118 410.7C118.1 407.5 118.1 397 118 394.7C117.7 377.2 118 357.6 118 341.4C118 341.1 118.3 340.9 118.5 341.1C121.3 344.2 123.8 348.2 126.8 351.6C129.8 355 140 367.4 140.8 368.4C149.5 379.3 157.5 388.7 165.9 399.6C167.2 401.3 169.9 404.5 171.8 406.7C173.7 408.9 175.5 412.1 177 412.7C180.4 414.1 185.4 412.9 188.9 412.8C193.8 412.6 199.7 413.2 205.3 413.2C208.1 413.2 210.7 413 213.3 413.1C215.9 413.2 218.3 414.2 220.6 413.4C222.4 412.1 220.1 410.3 219.4 409.5C216.5 406.3 213.4 402.3 210.5 399.4" fill="white"/>
</svg>
