<svg xmlns="http://www.w3.org/2000/svg" viewBox="0 0 179.5 51.73"><title>Little Caesar logo</title><path d="M506.83,518.89a3.45,3.45,0,0,1-3.27,3.06c-1.6,0-3.08-.78-3.08-3.61l0-8.11h-4l-.05,7.5c0,1.1.37,1.63,1.13,1.63a1.38,1.38,0,0,0,.91-.37c.37-.29.48-.48.83-.48a.36.36,0,0,1,.35.38v0a3.45,3.45,0,0,1-3.38,3.06c-1.5,0-3-.78-3-3.61l0-8.11h-.81c-.83,0-1-.16-1-.68s.13-.68.68-.91a3.15,3.15,0,0,0,1.58-1.31c1-1.44.94-2.87,2.17-2.87a.51.51,0,0,1,.56.57l0,3.22h2.28c1,0,1.58-.05,2.14-.91,1-1.44.94-2.87,2.17-2.87a.52.52,0,0,1,.56.57l0,3.22h2.79c.42,0,.68.11.68.68s-.11,1.31-.94,1.31h-2.49l0,7.5c0,1.1.37,1.63,1.1,1.63a1.4,1.4,0,0,0,.94-.4c.37-.32.48-.45.81-.45a.34.34,0,0,1,.38.37m7.31,2.12c0,.34-.13.6-.53.6-.65,0-1.68-.13-2.62-.13h-1.07c-.91,0-1.93.13-2.54.13-.37,0-.48-.24-.48-.6,0-.65.5-.83,1-1A1.33,1.33,0,0,0,509,518.7l-.05-12.14c0-.68-.4-1.34-1.83-1.52-.4-.05-.62-.24-.62-.56a.64.64,0,0,1,.6-.7c3.53-.73,3.59-1.36,4.39-1.36.34,0,.56.29.56.78,0,.26,0,.73,0,2l-.05,13.47c0,.73.45,1,1.07,1.23s1.14.36,1.14,1.06m-27-16.21a2,2,0,0,1,3.92,0,2,2,0,0,1-3.92,0m33,8.18c.13-.13.13-.37.13-.68,0-1.34-.68-2.62-1.72-2.62s-2,1.36-2,3.83v.4c0,4.32,1.85,5.49,3.11,5.49a2.34,2.34,0,0,0,1.88-.68c.32-.29.5-.68.94-.68s.5.26.5.6c0,1.47-1.77,3.35-4.16,3.35-3.56,0-5.55-3.16-5.55-7,0-4.29,2.65-7.23,5.49-7.23s4.34,2.3,4.34,5.39a2.4,2.4,0,0,1-.24,1.36c-.34.45-.83.45-2,.45h-2.78c-.48,0-.81-.21-.81-.68,0-.7.45-.89,1.39-1s1.24-.17,1.4-.33m-34.43,3c0,.73-.73,2-1.15,3.53a15.94,15.94,0,0,0-.26,2c-.05.32-.26.45-.68.45a28.84,28.84,0,0,0-5.39-.53h-.91c-1.65,0-3.3.21-4.9.21-.86,0-.89-.48-.89-.81,0-1.31,2.51-.6,2.51-3.22V506c0-2.09-2.38-1.58-2.38-2.93a.58.58,0,0,1,.56-.6h0c.45,0,1.69.16,3.4.16h.4c1.72,0,3.19-.16,3.4-.16a.57.57,0,0,1,.56.58v0c0,1.34-2.46.83-2.46,2.9l-.05,11.67c0,1.39.7,1.67,2.09,1.67h1a2.76,2.76,0,0,0,2.33-1.5L484,516c.42-.7.75-.83,1-.83a.71.71,0,0,1,.71.81m7.09,5c0,.34-.11.65-.48.65-.65,0-1.72-.13-2.67-.13h-1.07c-1,0-2,.13-2.67.13-.4,0-.5-.29-.5-.65,0-.6.5-.75,1-.91s1.2-.53,1.2-1.34l-.05-6.75c0-.68-.4-1.36-1.85-1.52-.4-.05-.6-.26-.6-.56a.64.64,0,0,1,.6-.7c3.51-.75,3.27-1.39,4.37-1.39.37,0,.62.29.62.81,0,.26-.05.73-.05,2l-.05,8.09a1.29,1.29,0,0,0,1.07,1.28c.49.17,1.13.3,1.13,1m77.93-3.24a4.15,4.15,0,0,1-4.37,4.21,5.8,5.8,0,0,1-2.79-.75,2.08,2.08,0,0,1-1,.56c-.53,0-.68-.53-.68-1.13a8.74,8.74,0,0,0-.11-1.83,7,7,0,0,1-.26-1.42c0-.62.32-1,.81-1s.6.19.86.83c.83,2.12,1.77,2.78,3.11,2.78a1.38,1.38,0,0,0,1.55-1.26c0-.91-.7-1.5-1.63-2l-.91-.48c-3.06-1.55-3.61-2.62-3.61-4.39a4.13,4.13,0,0,1,4.21-4.13,3.91,3.91,0,0,1,2.33.7c.32-.32.5-.53.81-.53a.62.62,0,0,1,.65.58s0,0,0,0v.86c0,.89.29,1.77.29,2.57,0,.56-.21.94-.7.94s-.86-.45-1.34-1.47-1-1.91-2.09-1.91a1.34,1.34,0,0,0-1.44,1.39c0,.65.24,1.15,1.31,1.72l1.34.7c1.95,1.06,3.67,2,3.67,4.35m21.88-8.52a1.74,1.74,0,0,1-1.6,1.88c-.53,0-.91-.29-1.39-.29-1.36,0-1.91,2.17-2,4.13l0,3.8c0,.7.45,1,1.07,1.23s1.2.29,1.2,1c0,.37-.11.7-.53.7-.65,0-1.72-.13-2.7-.13h-1.07c-1.1,0-3.51.05-5,.05-.73,0-1.44,0-2,.08-.86,0-.81-.57-.81-2.67l0-3.64a3.68,3.68,0,0,0-.89.11,2.82,2.82,0,0,0-2.36,2.57c0,1.23.7,1.85,2,1.75.45-.05.62,0,.62.24,0,1.15-1.58,2-2.77,2a3.19,3.19,0,0,1-3.16-3.32c0-2.57,2-4.53,5.7-5a5.66,5.66,0,0,1,.81-.05v-.42c0-2.57-.48-3.43-1.67-3.43s-1.58.56-2,1.69c-.29.75-.57,1.58-1.2,1.58s-.75-.37-.75-1.1.32-1.75.32-2.59v-.73a.6.6,0,0,1,.56-.65h.07a2.62,2.62,0,0,1,1.13.48,4.85,4.85,0,0,1,2.59-.78,3.58,3.58,0,0,1,3.43,1.88,8.79,8.79,0,0,1,.7,4v2.41c-.05,3.83.53,4.32,1.8,4.32a1.8,1.8,0,0,0,1.88-1.65l-.05-6.59c0-.62-.37-1.23-1.85-1.39a.66.66,0,0,1-.6-.7.64.64,0,0,1,.56-.7c3.24-.68,3-1.39,4-1.39a.72.72,0,0,1,.75.78c0,.29-.05.75-.05,2.06v.56c.81-2.62,2.12-3.72,3.53-3.72a1.67,1.67,0,0,1,1.68,1.77m-62.12,2.25c0,5.55,1.8,8.22,4.1,8.17,1.13,0,2.09-1.15,2.79-2.65s1-1.77,1.55-1.8a.69.69,0,0,1,.73.75,6.64,6.64,0,0,1-.45,1.91c-.48,1.5-.56,2.28-.91,3.3a.88.88,0,0,1-.83.6,1.16,1.16,0,0,1-1-.65,4.08,4.08,0,0,1-2.73.89c-3.51.05-7-3.51-7-9.76,0-5.41,3.45-10,8-10.13a6.32,6.32,0,0,1,3.72,1.13c.53-.45.78-.73,1.28-.73a.66.66,0,0,1,.7.62s0,0,0,.05c0,.7-.37,1-.75,2a10.45,10.45,0,0,0-.53,2.25c-.16.65-.4,1.39-1,1.39a.81.81,0,0,1-.83-.89l0-1.31a2.3,2.3,0,0,0-2.54-2.46c-2.34.05-4.2,3-4.2,7.31m71.18,6.27a4.27,4.27,0,0,1-4.63,4.21,6.11,6.11,0,0,1-2.87-.75,2.08,2.08,0,0,1-1,.56c-.53,0-.68-.53-.68-1.13a8.74,8.74,0,0,0-.11-1.83,7,7,0,0,1-.26-1.42c0-.62.32-1,.81-1s.6.19.86.83c.83,2.12,1.83,2.78,3.19,2.78,1.2,0,1.83-.65,1.83-1.26,0-.89-.73-1.42-1.63-1.93l-1-.54c-2.93-1.63-3.51-2.62-3.51-4.39a4.1,4.1,0,0,1,4.08-4.13h.08a3.91,3.91,0,0,1,2.33.7c.32-.32.5-.53.81-.53a.62.62,0,0,1,.65.58s0,0,0,0v.86c0,.89.29,1.77.29,2.57,0,.56-.21.94-.7.94s-.86-.45-1.34-1.47-1-1.91-2.09-1.91a1.31,1.31,0,0,0-1.39,1.39c0,.65.24,1.15,1.26,1.72l1.34.75c1.91,1.1,3.65,2,3.65,4.32M558,513c.13-.13.13-.37.13-.68,0-1.34-.68-2.62-1.72-2.62s-2,1.36-2,3.83v.4c0,4.32,1.85,5.49,3.11,5.49a2.34,2.34,0,0,0,1.88-.68c.32-.29.5-.68.94-.68s.5.26.5.6c0,1.47-1.77,3.35-4.16,3.35-3.56,0-5.55-3.16-5.55-7,0-4.29,2.65-7.23,5.49-7.23s4.34,2.3,4.34,5.39a2.4,2.4,0,0,1-.24,1.36c-.34.45-.83.45-2,.45H556c-.48,0-.81-.21-.81-.68,0-.7.45-.89,1.39-1s1.24-.17,1.4-.33m-6.15,7.82c0,.37-.16.81-.57.81-.19,0-1-.08-1.6-.08-.75,0-1.47.05-2,.08-.86,0-.81-.57-.81-2.67l0-3.64a3.75,3.75,0,0,0-.91.11A2.82,2.82,0,0,0,543.6,518c0,1.23.68,1.88,2,1.75.45-.05.62,0,.62.24,0,1.15-1.58,2-2.75,2a3.17,3.17,0,0,1-3.16-3.32c0-2.54,2-4.5,5.7-5a5.66,5.66,0,0,1,.81-.05v-.42c0-2.57-.5-3.43-1.65-3.43s-1.58.6-2,1.69c-.29.75-.56,1.58-1.2,1.58s-.75-.37-.75-1.1.29-1.75.29-2.59v-.73a.62.62,0,0,1,.58-.65h0a2.5,2.5,0,0,1,1.13.48,5.19,5.19,0,0,1,2.62-.78,3.67,3.67,0,0,1,3.45,1.91,8.69,8.69,0,0,1,.68,3.94v2.38c0,3.53.4,4.1,1.36,4.34a.56.56,0,0,1,.48.64" transform="translate(-422.25 -486.13)" style="fill:#ff671b"/><path d="M441.18,527.77l.08-9.09a7.5,7.5,0,0,0,4.37-1,24.58,24.58,0,0,0,8.27-7.56l.94-1.28c-.64,4-4.3,8.67-6,11.24a1.56,1.56,0,0,0-.26.61c0,.11,0,.29.09.34a.32.32,0,0,0,.26-.05,1.52,1.52,0,0,0,.3-.28l.33-.38c.36-.44.7-.83,1-1.28,2.46-3.55,4.17-6.15,4.87-9.29,0,.11,0,.21.07.32.65,3.53-.29,5-1.38,7a1.35,1.35,0,0,0-.21.86c.09.38.3.32.65,0a9.85,9.85,0,0,0,1.8-3.68l2.16,12.36Zm12-3,0-.64-1.16.08-.05-.74,1.16-.08,0-.64-1.8.12.13,2Zm-2.42.75-.17-2.59-.64,0,.21,3.23,3.08-.2,0-.64Zm3.81-2.86-.64,0,.21,3.23,3.08-.2,0-.64-2.45.16Zm.78,2,1.8-.12,0-.64-1.16.08-.05-.74,1.16-.08,0-.64-1.8.13Zm-6.15.41,0-.64-1.16.08-.05-.74,1.16-.08,0-.64-1.8.12.13,2Zm-6.39,1-.17-2.59-.64,0,.21,3.23,3.08-.2,0-.64Zm2.41-.74,0-.64-1.16.08-.05-.74,1.16-.08,0-.64-1.8.12.13,2Zm1.58.48-.17-2.59-.64,0,.21,3.23,3.08-.2,0-.64Zm13.32-21.88a.57.57,0,0,0-.17-.4,1.09,1.09,0,0,0-.65-.3c-.34,0-.89.13-.93.53a.63.63,0,0,0,0,.23c-1.79,0-3.81-.23-4.87-1a14.92,14.92,0,0,0,2.42-.64.64.64,0,0,0,.11.41,1,1,0,0,0,1,.38.87.87,0,0,0,.7-.56.56.56,0,0,0-.12-.49,1,1,0,0,0-.34-.26c1.59-.65,3-1.35,3.51-1.55.28.71.73,2.82.85,3.36a.11.11,0,0,1-.06.14h0c-.26,0-.79.11-1.46.15m.24-2.54a.88.88,0,0,0-.52-.12,1.08,1.08,0,0,0-.68.29.55.55,0,0,0,.12.87.84.84,0,0,0,.86,0c.26-.13.57-.44.46-.75a.68.68,0,0,0-.25-.29m-23-8.82c-.5-.23-1.54.25-1.18.89a.61.61,0,0,0,.46.29,1,1,0,0,0,1-.36.58.58,0,0,0,0-.66.78.78,0,0,0-.23-.16m-3.89,1c-.24.15-.66.46-.41.78s.87.11,1.16,0,.66-.44.53-.75a.31.31,0,0,0-.15-.17,1.43,1.43,0,0,0-1.14.19m1.55-3.93a1.22,1.22,0,0,0-.9.45.44.44,0,0,0-.08.48.57.57,0,0,0,.54.19,1.29,1.29,0,0,0,.87-.58c.28-.4-.16-.56-.44-.53m-4.94,5.85c-.12.3-.15.71.25.78a1.47,1.47,0,0,0,1.36-1,.48.48,0,0,0-.3-.6c-.52-.17-1.14.42-1.31.86m-1.52.9c-.26-.11-.69.21-.86.37a1.31,1.31,0,0,0-.45,1,.53.53,0,0,0,.42.56c.64.09,1.32-.94,1.26-1.48a.52.52,0,0,0-.37-.41m-1.3-2a.29.29,0,0,0-.19,0c-.53.08-1.22.91-.91,1.46a.38.38,0,0,0,.26.19.34.34,0,0,0,.23-.05,1.47,1.47,0,0,0,.7-.71,1.12,1.12,0,0,0,.12-.53.34.34,0,0,0-.21-.33m-1.59,3a.59.59,0,0,0-.49.08c-.42.28-1,1.43-.21,1.65a.69.69,0,0,0,.6-.15,1.27,1.27,0,0,0,.4-1.31v0a.51.51,0,0,0-.28-.25m4.24-4.34a.4.4,0,0,0-.36-.13c-.5.05-1.2.64-1.1,1.18a.35.35,0,0,0,.16.26.51.51,0,0,0,.34,0c.33-.08,1-.58,1-1a.48.48,0,0,0-.09-.29m-3.53,6.71c-.79,0-1.77,1.81-.71,2.05a.71.71,0,0,0,.37,0,1.7,1.7,0,0,0,.91-1.65c-.05-.21-.24-.36-.57-.37m14.56-8.44c-1.32,2.58-4.25,3.18-6.51,4.12a13.69,13.69,0,0,0-4.91,3.49c-1.24,1.42-2.09,3.77-4.18,4.1-1.72.28-2.14-1.51-2-3a11.93,11.93,0,0,1,3.94-6.82,22.43,22.43,0,0,1,4.37-3c-.15.89-.28,1.68-.32,2a2,2,0,0,0-.5.62.31.31,0,0,0,.05.34.32.32,0,0,0,.38.07,4,4,0,0,1,1.39-.7c.44-.12.91-.13,1.07-.17a.37.37,0,0,0,.3-.32.38.38,0,0,0-.25-.4,1.1,1.1,0,0,0-.26-.07l-.29-2.14a17.63,17.63,0,0,1,4.32-1.34,8.06,8.06,0,0,0-2,3.3c1.85.73,4,.2,5.4-.11" transform="translate(-422.25 -486.13)" style="fill:#ff671b"/><path d="M437.81,537.19c-.11,0-.19-.08-.09-.15a17.53,17.53,0,0,1,1.72-.82,2.18,2.18,0,0,1,.46.9l-2.09.07m17.37-1s1.56.71,1.72.82,0,.15-.09.15l-2.09-.07a2.18,2.18,0,0,1,.46-.9m-12.68-40.85a12.63,12.63,0,0,0-.74,1.35,4.37,4.37,0,0,0-.08-.6c.25-.25.52-.5.82-.75M440.88,497a2.27,2.27,0,0,0,.46.66,10.17,10.17,0,0,0-.36,1.07c-.25-.75-.48-1-.64-1a8.27,8.27,0,0,1,.53-.71m-1,1.46a1.5,1.5,0,0,0,.85,1.18c-.11.45-.23.85-.33,1.23-.17-.85-.37-1.09-.53-1.11s-.28.07-.38.28a1.38,1.38,0,0,0,.62,1.73c-.16.44-.3.82-.45,1.15-.13-.94-.33-1.2-.5-1.24s-.25,0-.36.2a9,9,0,0,1,1.09-3.41m-1.09,5.76c0-.4-.05-.79-.07-1.19a2,2,0,0,0,.53.65,5.93,5.93,0,0,1-.45.7c0-.05,0-.11,0-.16m-7,2.61a1.47,1.47,0,0,1-.62-.19c-.08-.05-.05-.21,0-.28a2.27,2.27,0,0,1,1.31-.5,3.88,3.88,0,0,0-.69,1m-.26.6-.28.07a.86.86,0,0,0-.38.21.26.26,0,0,0-.07.12.65.65,0,0,0,0,.17.55.55,0,0,0,0,.17.26.26,0,0,0,.08.09.88.88,0,0,0,.4.12h.25a1,1,0,0,1,0-1m.2,3.72a2,2,0,0,1-.49,0,.26.26,0,0,1-.21-.28.28.28,0,0,1,.23-.29,2.24,2.24,0,0,1,.49,0s.79,0,.79.26-.81.33-.81.33m1-1.61a.17.17,0,0,0-.08-.15.7.7,0,0,0-.26-.15l-.34-.09-.19,0-.2,0-.38,0c-.19,0-.36,0-.45.19s-.09.52.15.61a1,1,0,0,0,.3,0h.79l.34-.05a.5.5,0,0,0,.24-.12c.07,0,.08-.07.08-.15m8.29,27.5a2.75,2.75,0,0,0-.5-1.27,7.49,7.49,0,0,1,.86-.37,3,3,0,0,1,.79,1.58Zm2.28-.12a3.51,3.51,0,0,0-.82-2l1-.38a4,4,0,0,1,1,2.32s-.82,0-1.13,0m3.49-.05c-.28,0-1,0-1.16,0a5.83,5.83,0,0,0-1.1-2.7,7.73,7.73,0,0,1,1.1-.24,9.29,9.29,0,0,0,1.15.23v2.69Zm0-3.67c-.09.24-1.22-.15-1.22-.44s-.41-3.94-.42-4.16l1.61-.11c0,1.36.05,3.35,0,4.7m6.33,2.2a7.49,7.49,0,0,1,.86.37,2.75,2.75,0,0,0-.5,1.27l-1.15-.07a2.82,2.82,0,0,1,.79-1.58m-2.06-.82,1,.37a3.57,3.57,0,0,0-.81,2c-.3,0-1.13,0-1.13,0a3.84,3.84,0,0,1,1-2.3m-1.1-.4a5.83,5.83,0,0,0-1.1,2.7c-.2,0-.91,0-1.19,0l0-2.7a9.29,9.29,0,0,0,1.15-.23,8,8,0,0,1,1.11.25m-2.22-5.73c.38,0,1.22-.08,1.61-.09,0,0-.44,4.21-.44,4.41s-1.13.68-1.22.44c0-1.36,0-3.39,0-4.75m17.83-26.6a2.28,2.28,0,0,0-.25.58c-.11.44-1.55,8.63-1.55,8.63s-1.34.4-6.68,1.76l-.52-2c1.85-.36,5.61-1.06,5.69-1.14s.66-2.9.91-4.26c0-.25.16-.75-.08-.54s-1.09.75-1.48.32a.5.5,0,0,1-.05-.56l.52-.08a.65.65,0,0,0,.53-.75v0c.56-.58,2-2.37,1.61-3.89s-2.51-1.26-3.69-.37c-.41.3-.46.21-.5.16a.34.34,0,0,1,0-.16,2.19,2.19,0,0,1,3-1.44,1.07,1.07,0,0,0,.44.15c.62,0-.89-3-.45-3.19s.74.61,1.09,1.46.41,1.56.61,1.55.58-3.49,1.15-3.38,0,3-.07,3.31-.07.44,0,.46.5-.41.83-.93c.48-.77.87-1.31,1-1.16.57.41-1.15,3.73-2.14,5.48m-19.87-5.8a1.72,1.72,0,0,0,.75,1,1.69,1.69,0,0,0,.62.24,1.8,1.8,0,0,0,.7,0,1.47,1.47,0,0,0,.64-.37,1.5,1.5,0,0,0,.37-.6,1.79,1.79,0,0,0,0-1.2V495a.29.29,0,0,0-.26-.19.28.28,0,0,0-.26.28,2.26,2.26,0,0,1-.13.86.83.83,0,0,1-.54.49,1.08,1.08,0,0,1-.78-.08,1.68,1.68,0,0,1-.36-.24,1.41,1.41,0,0,1-.29-.33.23.23,0,0,0-.28-.09.26.26,0,0,0-.17.32Zm-8.4,22a72.05,72.05,0,0,1-4-6.58v-.79l0,0a.34.34,0,0,0,.45-.13c.15-.25-.33-.6-.15-1.93a5.3,5.3,0,0,1,.52-1.4.19.19,0,0,0,0-.12.68.68,0,0,0-.08-.17.31.31,0,0,0-.09-.09c-.12-.09-.3-.13-.7.6-.3.57-.4,1.07-.93.9-.9-.28.32-1.8.61-2.1a2.06,2.06,0,0,1,1.39-.6c.85,0,.73,2.16.58,3.43,0,.21-.17,1.31-.17,1.31s.7,1.55,1.35,2.62c.2.33.7,1.07,1.09,1.6a3.27,3.27,0,0,0,.45.56,8.92,8.92,0,0,0,.85-.7c.26-.23,2.58-2.48,3.1-2.94l.11,0,.15,0h.33c.23,0,.44,0,.64,0h.05a.44.44,0,0,0,.44-.25.46.46,0,0,0-.21-.61,2.17,2.17,0,0,0-.89-.21c-.16,0-.3,0-.46,0l-.26,0-.28.08-.11.05a13.2,13.2,0,0,1-1.92-4c-.08-.28-.15-.57-.2-.86h.41a1.42,1.42,0,0,0,1.24-.81c.09-.21.08-.36,0-.45s-.24-.2-1.14.32A6.56,6.56,0,0,0,440,504a2.81,2.81,0,0,0,.78-.23,1.42,1.42,0,0,0,.94-1.15c0-.23,0-.37-.17-.42s-.3-.12-1,.71c.12-.28.23-.57.34-.9a3.75,3.75,0,0,0,.68-.25,1.43,1.43,0,0,0,.86-1.2c0-.23-.05-.37-.2-.41s-.32-.09-1,.78c.11-.37.21-.78.32-1.2l0-.15a2.47,2.47,0,0,0,.65-.2,1.42,1.42,0,0,0,1-1.14c0-.23,0-.37-.16-.42s-.33-.13-1.18.83a10.74,10.74,0,0,1,.44-1.16,2.88,2.88,0,0,0,.79-.12,1.45,1.45,0,0,0,1.09-1c.05-.23,0-.37-.11-.44s-.33-.19-1.4.83a11,11,0,0,1,.87-1.42h.29a3,3,0,0,0,.46,0,1.43,1.43,0,0,0,1.2-.87c.08-.21.07-.37-.05-.45s-.24-.17-1,.3a4.62,4.62,0,0,1,.68-.57,23.75,23.75,0,0,1,10.6-2.12c3.6,0,4.74.64,4.74,1.13,0,1.61-4.7,4.61-7.77,5.44-.65.2-1.16.32-.83,1l.58,1.35A21.77,21.77,0,0,1,447,500a6.14,6.14,0,0,1,.75-.81h0a.3.3,0,0,0,.08-.29.29.29,0,0,0-.36-.2,2.72,2.72,0,0,0-.64.28,2.64,2.64,0,0,0-.56.44,3.59,3.59,0,0,0-.79,1.15,4.68,4.68,0,0,0-.36,1.32,5.76,5.76,0,0,0,0,.68,3.06,3.06,0,0,0,.09.68.26.26,0,0,0,.23.21.28.28,0,0,0,.33-.21h0v0c0-.19.07-.38.11-.58s.09-.38.13-.57a4.68,4.68,0,0,1,.2-.61c3.07,5,7,4.79,7.94,4.91h.24l.33,1.16c-8.44,11.73-13.49,10.17-13.49,10.17V516c.21-.26,1.35-1.65,1.11-2a.43.43,0,0,0-.68,0,16.52,16.52,0,0,1-4.32,4.12m12.08-23a1.84,1.84,0,0,0,2.06,1.26,1.56,1.56,0,0,0,.69-.32,1.5,1.5,0,0,0,.42-.6.75.75,0,0,0,.05-.16l0-.16a2.57,2.57,0,0,0,0-.32,1.63,1.63,0,0,0-.12-.58l0-.07a.27.27,0,0,0-.52.09,1.77,1.77,0,0,1-.17.85.86.86,0,0,1-.24.29.75.75,0,0,1-.33.15,1.31,1.31,0,0,1-.79-.12,1.68,1.68,0,0,1-.36-.24,1.46,1.46,0,0,1-.3-.33.26.26,0,0,0-.45.23Z" transform="translate(-422.25 -486.13)" style="fill:#fff"/><path d="M436.61,493.75a1,1,0,0,0,1-.36.58.58,0,0,0,0-.66.59.59,0,0,0-.2-.16c-.5-.23-1.54.25-1.18.89a.55.55,0,0,0,.44.29m16.56,31.05,0-.64-1.16.08-.05-.74,1.16-.08,0-.64-1.8.12.13,2Zm-27.23-27.11v0a.47.47,0,0,0-.28-.25.59.59,0,0,0-.49.08c-.42.28-1,1.43-.21,1.65a.69.69,0,0,0,.6-.15,1.28,1.28,0,0,0,.4-1.31m24.8,27.86-.17-2.59-.64,0,.21,3.23,3.08-.2,0-.64Zm3.81-2.86-.64,0,.21,3.23,3.08-.2,0-.64-2.45.16Zm13.71-27.11c-.53-.32-1.27.3-1.6.94.19-1.15.29-2.75-.49-2.9s-1.46,1.79-1.51,2.49c0,0-.83-2.45-1.73-2.16s-.66,1.63-.07,3.36c-2.1-1.1-3.65,1.47-3.49,2.69a30.11,30.11,0,0,1-7.2,2.69l-.11,0,.05.11c.12.21.61,1.48,5.59,1.92a17.43,17.43,0,0,0,3.11,0,1.06,1.06,0,0,0-.05.45,1.12,1.12,0,0,0,.44.79,1.23,1.23,0,0,0,.81.23l.21-.05.08,0a24.34,24.34,0,0,1-.74,2.89,39.47,39.47,0,0,1-5.2.74l-.25-1c-.32-1-.9-3.41-.9-3.41a8.74,8.74,0,0,1-8.09-4.46,26.6,26.6,0,0,0,3.24.5,15.42,15.42,0,0,0,2.59.12c.34,0,.86-.13.79-.58a13.31,13.31,0,0,0-.75-1.85,25.93,25.93,0,0,0,2.62-1c1.47-.73,5.74-3.23,5.73-5.43,0-1-.91-1.38-1.64-1.58-2.48-.7-8.35-.77-12.87.79l-.26.09a1.29,1.29,0,0,0,0-.32c0-.23-.09-.36-.23-.38s-.37-.08-1.15,1.26l-.3.13c.15-.44.11-.65,0-.73s-.26-.11-.46,0a1.22,1.22,0,0,0-.61,1.27l-.28.16c0-.2-.11-.29-.19-.33s-.28,0-.44.16a1.09,1.09,0,0,0-.32.77,10.59,10.59,0,0,0-5,8.87c0,.28,0,.54,0,.79a.29.29,0,0,0-.2-.08c-.15,0-.24.12-.29.34a1.45,1.45,0,0,0,.53,1.39h-.05a.4.4,0,0,0,0,.79h0a1.3,1.3,0,0,0,.3-.05,13,13,0,0,0,2.29,5.25,26.06,26.06,0,0,1-2.55,2.44c-.4-.53-.7-1-1-1.34a16.12,16.12,0,0,1-1.14-2.22c0-.05.08-.58.13-1a13.83,13.83,0,0,0,.19-2c0-.15.09-2.41-1.56-2.41a2.13,2.13,0,0,0-1,.32v-.34c0-1.44,0-4.49,0-4.49a1.55,1.55,0,0,0,.74-1.32,1.46,1.46,0,0,0-.16-.68l.54-.07a.39.39,0,0,0,.3-.28l.13-.54a.31.31,0,0,0-.16-.34l-.62-.34v0l.5-.15c.54-.17,1.07-.37,1.59-.58a20.58,20.58,0,0,0,2-1,12.11,12.11,0,0,0,2-1.36,6,6,0,0,0,1.46-1.76,5,5,0,0,0,.26-.61,3.56,3.56,0,0,0,.19-1.1,23.9,23.9,0,0,1-4,.77,7.28,7.28,0,0,1-1.35-.12c.61-1.6,2.9-3.75,2.86-3.86s-2.82,0-6.55,1.44l-.26-1.65c-.16-.83-.46-.81-.64,0-.07.29-.21,1.2-.38,2.22l-.12.05a40.28,40.28,0,0,0-4.9,3.3,13.68,13.68,0,0,0-3.23,3.94c-.9,1.51-1.71,3.93-1.22,5.7.64,2.29,2.2,2.91,4,1.88a7.39,7.39,0,0,0,2-1.64c.9-1.09,1.67-2.17,2.54-3.14a1.59,1.59,0,0,0,.66,1.23.4.4,0,0,1,0,.13l0,4.87v.19h-.09a1.9,1.9,0,0,0-.68.21,1.06,1.06,0,0,0-.33.28.91.91,0,0,0-.19.45.72.72,0,0,0,0,.24.89.89,0,0,0,.07.25.82.82,0,0,0,.15.23l-.17.13a1.07,1.07,0,0,0-.25.38,1,1,0,0,0-.05.42.93.93,0,0,0,.09.41.88.88,0,0,0,.25.33l0,0a1,1,0,0,0,.15,1.42l.07.05-.08.12a1.09,1.09,0,0,0-.08.44,1.19,1.19,0,0,0,.08.45.89.89,0,0,0,.44.38,1.16,1.16,0,0,0,.45.08h.23v26.08h1.65V513.35c1,1.75,2.67,4.54,3.23,5.32a.78.78,0,0,0,1.32.26,4.64,4.64,0,0,0,.53-.36c.38-.28.74-.58,1.1-.89l.37-.3s.23-.2.23-.2L440,528.93l4.12-.24.75,4.58-.62.2s-.38-.36-.68-.28h0c-.29.09-.38.64-.38.64l-1,.38s-.44-.3-.75-.16-.34.64-.34.64l-.9.44s-.44-.3-.69-.17-.29.71-.29.71c-2.55,1.07-3.77,2.18-2.32,2.18h20.87c1.47,0,.24-1.11-2.32-2.2,0,0,0-.6-.29-.71s-.69.17-.69.17l-.9-.44s0-.5-.34-.64-.75.16-.75.16l-1-.38s-.09-.54-.38-.64-.69.28-.69.28l-.62-.2.82-5,9.28-.6-2.51-13.83,7-2a.54.54,0,0,0,.37-.4c.32-1.65,1.42-8.92,1.42-8.92,2.74-4.86,2.91-6.53,2.17-7m-30.47,41.6c-.11,0-.19-.08-.09-.15a17.53,17.53,0,0,1,1.72-.82,2.18,2.18,0,0,1,.46.9l-2.09.07m17.37-1s1.56.71,1.72.82,0,.15-.09.15l-2.09-.07a2.18,2.18,0,0,1,.46-.9m4.92-32.28a.57.57,0,0,0-.17-.4,1.09,1.09,0,0,0-.65-.3c-.34,0-.89.13-.93.53a.63.63,0,0,0,0,.23c-1.79,0-3.81-.23-4.87-1a14.92,14.92,0,0,0,2.42-.64.64.64,0,0,0,.11.41,1,1,0,0,0,1,.38.87.87,0,0,0,.7-.56.56.56,0,0,0-.12-.49,1,1,0,0,0-.34-.26c1.59-.65,3-1.35,3.51-1.55.28.71.73,2.82.85,3.36a.11.11,0,0,1-.06.14h0c-.26,0-.79.11-1.46.15m1.5-4.28c.7-.2,1.48-.25,1.8.52.46,1.1-.48,2.21-.93,2.74-.29-1.18-.69-2.62-.87-3.26m-19.1-4.29a12.63,12.63,0,0,0-.74,1.35,4.37,4.37,0,0,0-.08-.6c.25-.25.52-.5.82-.75M440.88,497a2.27,2.27,0,0,0,.46.66,10.17,10.17,0,0,0-.36,1.07c-.25-.75-.48-1-.64-1a8.27,8.27,0,0,1,.53-.71m-1,1.46a1.5,1.5,0,0,0,.85,1.18c-.11.45-.23.85-.33,1.23-.17-.85-.37-1.09-.53-1.11s-.28.07-.38.28a1.38,1.38,0,0,0,.62,1.73c-.16.44-.3.82-.45,1.15-.13-.94-.33-1.2-.5-1.24s-.25,0-.36.2a9,9,0,0,1,1.09-3.41m-1.09,5.76c0-.4-.05-.79-.07-1.19a2,2,0,0,0,.53.65,5.93,5.93,0,0,1-.45.7c0-.05,0-.11,0-.16M429.49,499c-1.24,1.42-2.09,3.77-4.18,4.1-1.72.28-2.14-1.51-2-3a11.93,11.93,0,0,1,3.94-6.82,22.43,22.43,0,0,1,4.37-3c-.15.89-.28,1.68-.32,2a2,2,0,0,0-.5.62.31.31,0,0,0,.05.34.32.32,0,0,0,.38.07,4,4,0,0,1,1.39-.7c.44-.12.91-.13,1.07-.17a.37.37,0,0,0,.3-.32.38.38,0,0,0-.25-.4,1.1,1.1,0,0,0-.26-.07l-.29-2.14a17.63,17.63,0,0,1,4.32-1.34,8.06,8.06,0,0,0-2,3.3c1.84.71,4,.2,5.39-.12-1.32,2.58-4.25,3.18-6.51,4.12a13.68,13.68,0,0,0-4.9,3.51m1.68,7.43a2.27,2.27,0,0,1,1.31-.5,4.51,4.51,0,0,0-.68,1,1.47,1.47,0,0,1-.62-.19.22.22,0,0,1,0-.28m-.36,1.46a.21.21,0,0,1,.07-.12.86.86,0,0,1,.38-.21l.28-.07a1,1,0,0,0,0,1h-.25a.88.88,0,0,1-.4-.12.18.18,0,0,1-.08-.09.3.3,0,0,1,0-.17c0-.08,0-.13,0-.19m.93,3.32a2,2,0,0,1-.49,0,.26.26,0,0,1-.21-.28.28.28,0,0,1,.23-.29,2.24,2.24,0,0,1,.49,0s.79,0,.79.26-.81.33-.81.33m1-1.46a.57.57,0,0,1-.24.12l-.34.05h-.79a.94.94,0,0,1-.3,0,.43.43,0,0,1-.15-.61c.09-.17.26-.19.45-.19a2,2,0,0,1,.38,0l.2,0,.19,0,.34.09a.74.74,0,0,1,.25.15.26.26,0,0,1,.08.15.25.25,0,0,1-.07.15m4.61,8.37a72.05,72.05,0,0,1-4-6.58v-.79l0,0a.34.34,0,0,0,.45-.13c.15-.25-.33-.6-.15-1.93a5.3,5.3,0,0,1,.52-1.4.19.19,0,0,0,0-.12.68.68,0,0,0-.08-.17.31.31,0,0,0-.09-.09c-.12-.09-.32-.13-.7.6-.3.57-.4,1.07-.93.9-.9-.28.32-1.8.61-2.1a2.06,2.06,0,0,1,1.39-.6c.85,0,.73,2.16.58,3.43,0,.21-.17,1.31-.17,1.31s.7,1.55,1.35,2.62c.2.33.7,1.07,1.09,1.6a3.27,3.27,0,0,0,.45.56,8.92,8.92,0,0,0,.85-.7c.26-.23,2.58-2.48,3.1-2.94l.11,0,.15,0h.33c.23,0,.44,0,.64,0h.05a.44.44,0,0,0,.44-.25.46.46,0,0,0-.21-.61,2.17,2.17,0,0,0-.89-.21c-.16,0-.3,0-.46,0l-.26,0-.28.08-.11.05a13.2,13.2,0,0,1-1.92-4c-.08-.28-.15-.57-.2-.86h.41a1.42,1.42,0,0,0,1.24-.81c.09-.21.08-.36,0-.45s-.24-.2-1.14.32A6.56,6.56,0,0,0,440,504a2.81,2.81,0,0,0,.78-.23,1.42,1.42,0,0,0,.94-1.15c0-.23,0-.37-.17-.42s-.3-.12-1,.71c.12-.28.23-.57.34-.9a3.75,3.75,0,0,0,.68-.25,1.43,1.43,0,0,0,.86-1.2c0-.23-.05-.37-.2-.41s-.32-.09-1,.78c.11-.37.21-.78.32-1.2l0-.15a2.47,2.47,0,0,0,.65-.2,1.42,1.42,0,0,0,1-1.14c0-.23,0-.37-.16-.42s-.33-.13-1.18.83a10.74,10.74,0,0,1,.44-1.16,2.88,2.88,0,0,0,.79-.12,1.45,1.45,0,0,0,1.09-1c.05-.23,0-.37-.11-.44s-.33-.19-1.4.83a11,11,0,0,1,.87-1.42h.29a3,3,0,0,0,.46,0,1.43,1.43,0,0,0,1.2-.87c.08-.21.07-.36-.05-.45s-.24-.17-1,.3a4.62,4.62,0,0,1,.68-.57,23.75,23.75,0,0,1,10.6-2.12c3.6,0,4.74.64,4.74,1.13,0,1.61-4.7,4.61-7.77,5.44-.65.2-1.16.32-.83,1l.58,1.35A21.71,21.71,0,0,1,447,500a6.14,6.14,0,0,1,.75-.81h0a.3.3,0,0,0,.08-.29.29.29,0,0,0-.36-.2,2.72,2.72,0,0,0-.64.28,2.64,2.64,0,0,0-.56.44,3.59,3.59,0,0,0-.79,1.15,4.25,4.25,0,0,0-.34,1.32,5.76,5.76,0,0,0,0,.68,3.06,3.06,0,0,0,.09.68.26.26,0,0,0,.23.21.28.28,0,0,0,.33-.21h0v0c0-.19.07-.38.11-.58s.09-.38.13-.57a4.68,4.68,0,0,1,.2-.61c3.07,5,7,4.79,7.94,4.91h.24l.33,1.16c-8.44,11.73-13.49,10.17-13.49,10.17V516c.21-.26,1.35-1.65,1.11-2a.43.43,0,0,0-.68,0,16.78,16.78,0,0,1-4.33,4.12m3.73,19a2.75,2.75,0,0,0-.5-1.27,7.49,7.49,0,0,1,.86-.37,3,3,0,0,1,.79,1.58Zm2.28-.12a3.51,3.51,0,0,0-.82-2l1-.38a4,4,0,0,1,1,2.32s-.82,0-1.13,0m3.49-.05c-.28,0-1,0-1.16,0a5.83,5.83,0,0,0-1.1-2.7,7.73,7.73,0,0,1,1.1-.24,9.29,9.29,0,0,0,1.15.23v2.69Zm0-3.67c-.09.24-1.22-.15-1.22-.44s-.41-3.94-.42-4.16l1.61-.11c0,1.36.05,3.35,0,4.7m6.33,2.2a7.49,7.49,0,0,1,.86.37,2.75,2.75,0,0,0-.5,1.27l-1.15-.07a2.82,2.82,0,0,1,.79-1.58m-2.06-.82,1,.37a3.57,3.57,0,0,0-.81,2c-.3,0-1.13,0-1.13,0a3.84,3.84,0,0,1,1-2.3m-1.1-.4a5.83,5.83,0,0,0-1.1,2.7c-.2,0-.91,0-1.19,0l0-2.7a9.29,9.29,0,0,0,1.15-.23,8,8,0,0,1,1.11.25m-2.22-5.73c.38,0,1.22-.08,1.61-.09,0,0-.44,4.21-.44,4.41s-1.13.68-1.22.44c0-1.36,0-3.39,0-4.75m10.72-1.83-17.33,1.14.08-9.09a7.5,7.5,0,0,0,4.37-1,24.58,24.58,0,0,0,8.27-7.56l.94-1.28c-.64,4-4.3,8.67-6,11.24a1.56,1.56,0,0,0-.26.61c0,.11,0,.29.09.34a.32.32,0,0,0,.26-.05,1.52,1.52,0,0,0,.3-.28l.33-.38c.36-.44.7-.83,1-1.28,2.46-3.55,4.17-6.15,4.87-9.29,0,.11,0,.21.07.32.65,3.53-.29,5-1.38,7a1.35,1.35,0,0,0-.21.86c.09.38.3.32.65,0a9.85,9.85,0,0,0,1.8-3.68Zm7.11-24.78a2.28,2.28,0,0,0-.25.58c-.11.44-1.55,8.63-1.55,8.63s-1.34.4-6.68,1.76l-.52-2c1.85-.36,5.61-1.06,5.69-1.14s.66-2.9.91-4.26c0-.25.16-.75-.08-.54s-1.09.75-1.48.32a.5.5,0,0,1-.05-.56l.52-.08a.65.65,0,0,0,.53-.75v0c.56-.58,2-2.37,1.61-3.89s-2.51-1.26-3.69-.37c-.41.3-.46.21-.5.16a.34.34,0,0,1,0-.16,2.19,2.19,0,0,1,3-1.44,1.07,1.07,0,0,0,.44.15c.62,0-.89-3-.45-3.19s.74.61,1.09,1.46.41,1.56.61,1.55.58-3.49,1.15-3.38,0,3-.07,3.31-.07.44,0,.46.5-.41.83-.93c.48-.77.87-1.31,1-1.16.57.41-1.15,3.73-2.14,5.48m-5.28-.46a.88.88,0,0,0-.52-.12,1.08,1.08,0,0,0-.68.29.55.55,0,0,0,.12.87.84.84,0,0,0,.86,0c.26-.13.57-.44.46-.75a.68.68,0,0,0-.25-.29m-5,23.27,1.8-.12,0-.64-1.16.08-.05-.74,1.16-.08,0-.64-1.8.13Zm-29-24.87c-.79,0-1.77,1.81-.71,2.05a.71.71,0,0,0,.37,0,1.7,1.7,0,0,0,.91-1.65c-.05-.21-.24-.36-.57-.37m16.44,26.29-.17-2.59-.64,0,.21,3.23,3.08-.2,0-.64Zm6.39-1,0-.64-1.16.08-.05-.74,1.16-.08,0-.64-1.8.12.13,2Zm-4,.26,0-.64-1.16.08-.05-.74,1.16-.08,0-.64-1.8.12.13,2Zm.54-29.28a1.72,1.72,0,0,0,.75,1,1.69,1.69,0,0,0,.62.24,1.8,1.8,0,0,0,.7,0,1.47,1.47,0,0,0,.64-.37,1.5,1.5,0,0,0,.37-.6,1.79,1.79,0,0,0,0-1.2l0-.05a.29.29,0,0,0-.26-.19.28.28,0,0,0-.26.28,2.26,2.26,0,0,1-.13.86.83.83,0,0,1-.54.49,1.08,1.08,0,0,1-.78-.08,1.68,1.68,0,0,1-.36-.24,1.41,1.41,0,0,1-.29-.33.23.23,0,0,0-.28-.09.26.26,0,0,0-.17.32Zm3.68-1a1.84,1.84,0,0,0,2.06,1.26,1.56,1.56,0,0,0,.69-.32,1.5,1.5,0,0,0,.42-.6.75.75,0,0,0,.05-.16l0-.16a2.57,2.57,0,0,0,0-.32,2,2,0,0,0-.12-.58l0-.07a.27.27,0,0,0-.52.09,1.77,1.77,0,0,1-.17.85.86.86,0,0,1-.24.29.75.75,0,0,1-.33.15,1.29,1.29,0,0,1-.79-.12,1.68,1.68,0,0,1-.36-.24,1.46,1.46,0,0,1-.3-.33.26.26,0,0,0-.45.23Zm-2.65,30.79-.17-2.59-.64,0,.21,3.23,3.08-.2,0-.64Zm-12-32.27a.31.31,0,0,0-.15-.17c-.3-.19-.9,0-1.14.19s-.66.46-.41.78.87.11,1.16,0,.66-.44.53-.75m-6.19,2.83c-.26-.11-.69.21-.86.37a1.31,1.31,0,0,0-.45,1,.53.53,0,0,0,.42.56c.64.09,1.32-.94,1.26-1.48a.52.52,0,0,0-.37-.41m1-3.43c-.5.05-1.2.64-1.1,1.18a.35.35,0,0,0,.16.26.51.51,0,0,0,.34,0c.33-.08,1-.58,1-1a.48.48,0,0,0-.09-.29.4.4,0,0,0-.36-.13m1.84,1.67c-.53-.17-1.14.42-1.31.86s-.15.71.25.78a1.47,1.47,0,0,0,1.36-1,.48.48,0,0,0-.3-.6m3.2-3.88a1.29,1.29,0,0,0,.87-.58c.26-.4-.19-.56-.45-.54a1.22,1.22,0,0,0-.9.45.44.44,0,0,0-.08.48.57.57,0,0,0,.56.2m-7.12,4a.36.36,0,0,0-.21-.33.29.29,0,0,0-.19,0c-.53.08-1.22.91-.91,1.46a.38.38,0,0,0,.26.19.34.34,0,0,0,.23-.05,1.47,1.47,0,0,0,.7-.71,1.08,1.08,0,0,0,.12-.53" transform="translate(-422.25 -486.13)"/><path d="M457.29,533a.89.89,0,1,1-.9.89.89.89,0,0,1,.9-.89h0m0,.15a.72.72,0,0,0-.73.71s0,0,0,0a.71.71,0,0,0,.68.74h0a.74.74,0,0,0,0-1.48m-.19,1.26h-.16v-1h.4c.24,0,.36.09.36.29a.26.26,0,0,1-.25.28h0l.29.45h-.17l-.28-.44h-.17v.44Zm0-.58h.19c.19,0,.25-.05.25-.17s-.05-.15-.23-.15h-.21v.32Z" transform="translate(-422.25 -486.13)"/></svg>