<?xml version="1.0" encoding="utf-8"?>
<!-- Generator: Adobe Illustrator 16.0.0, SVG Export Plug-In . SVG Version: 6.00 Build 0) -->
<!DOCTYPE svg PUBLIC "-//W3C//DTD SVG 1.1//EN" "http://www.w3.org/Graphics/SVG/1.1/DTD/svg11.dtd">
<svg xmlns="http://www.w3.org/2000/svg" viewBox="0 85 200 40">

<g>
    <path fill="#F47937" d="M74.494,96.334c0-3.276-2.886-5.539-6.318-5.539H53.59v18.098h5.538v-6.865h3.9l5.147,6.865h6.241
        l-5.538-7.1C71.92,101.872,74.494,99.376,74.494,96.334z M65.836,99.22h-6.708v-5.538h6.864c1.638,0,2.964,1.325,2.964,2.885
        C68.8,98.128,67.475,99.298,65.836,99.22z"/>
    <path fill="#F47937" d="M98.753,96.334c0-3.276-2.887-5.539-6.319-5.539H77.77v18.098h5.538v-6.865h3.9l5.148,6.865h6.241
        l-5.539-7.1C96.178,101.872,98.675,99.376,98.753,96.334z M90.094,99.22h-6.708v-5.538h6.864c1.638,0,2.964,1.325,2.964,2.885
        C93.058,98.128,91.653,99.298,90.094,99.22z"/>
    <polygon fill="#F47937" points="38.068,100.857 48.675,100.857 48.675,98.206 38.068,98.206 38.068,93.604 50.392,93.604 
        50.392,90.874 32.53,90.874 32.53,108.971 50.547,108.971 50.547,106.161 38.068,106.161 "/>
    <polygon fill="#F47937" points="107.486,100.857 118.098,100.857 118.098,98.206 107.486,98.206 107.486,93.604 119.891,93.604 
        119.891,90.874 101.95,90.874 101.95,108.971 119.969,108.971 119.969,106.161 107.486,106.161 "/>
    <polygon fill="#F47937" points="15.37,104.523 9.675,90.874 2.5,90.874 2.5,108.971 5.854,108.971 5.854,94.072 11.392,108.971 
        17.32,108.971 22.858,94.072 22.858,108.971 28.553,108.971 28.553,90.874 20.519,90.874 "/>
    <polygon fill="#F47937" points="128.547,90.874 123.01,90.874 123.01,108.971 140.402,108.971 140.402,106.161 128.547,106.161 "/>
    <polygon fill="#F47937" points="148.438,90.795 142.9,90.795 142.9,108.971 160.294,108.971 160.294,106.161 148.438,106.161 "/>
    <path fill="#F47937" d="M178.547,83.776c-8.972,0-16.225,7.253-16.225,16.224c0,8.971,7.253,16.225,16.225,16.225
        c8.969,0,16.225-7.254,16.225-16.225C194.771,91.03,187.516,83.776,178.547,83.776z M191.26,104.68l-2.807,0.859V95.71
        l-3.277,10.763l-4.367,1.326l-4.914-12.792v14.196l-6.94,2.105V88.456l10.763,1.638l3.666,10.296l2.652-9.282l5.226,0.859
        L191.26,104.68L191.26,104.68z"/>
    <path fill="#F47937" d="M196.253,92.746c-0.703,0-1.249,0.546-1.249,1.248c0,0.702,0.546,1.249,1.249,1.249
        c0.7,0,1.247-0.546,1.247-1.249C197.5,93.292,196.953,92.746,196.253,92.746z M196.253,95.086c-0.547,0-1.017-0.468-1.017-1.092
        c0-0.545,0.392-1.014,1.017-1.014c0.544,0,1.013,0.39,1.013,1.014C197.266,94.54,196.875,95.008,196.253,95.086z"/>
    <path fill="#F47937" d="M196.875,93.683c0-0.234-0.232-0.391-0.545-0.391h-0.546v1.326h0.313v-0.546h0.232l0.313,0.546h0.312
        l-0.312-0.546C196.797,93.994,196.875,93.917,196.875,93.683z M196.253,93.917h-0.233v-0.39h0.233c0.155,0,0.233,0,0.233,0.156
        C196.486,93.839,196.408,93.917,196.253,93.917z"/>
</g>
</svg>