<?xml version="1.0" encoding="UTF-8"?>
<svg id="Layer_2" data-name="Layer 2" xmlns="http://www.w3.org/2000/svg" viewBox="0 0 377.76 157.77">
  <defs>
    <style>
      .cls-1 {
        fill: #ea0029;
      }
    </style>
  </defs>
  <g id="Capa_1" data-name="Capa 1">
    <g>
      <g>
        <path class="cls-1" d="M50.57,116.87c0,2.99-.55,5.61-1.66,7.88-1.1,2.27-2.66,4.18-4.67,5.73-2.02,1.55-4.4,2.71-7.16,3.49-2.76.77-5.8,1.16-9.1,1.16H10.15v21.66H0v-58.1h28.6c3.12,0,6.04.39,8.74,1.16,2.7.77,5.03,1.92,6.98,3.44,1.95,1.52,3.48,3.42,4.59,5.69,1.11,2.27,1.66,4.89,1.66,7.89ZM40.12,116.87c0-3.21-1.05-5.67-3.16-7.39-2.11-1.71-4.95-2.57-8.51-2.57H10.15v20h18.29c3.89,0,6.81-.89,8.76-2.66,1.95-1.77,2.92-4.23,2.92-7.39Z"/>
        <path class="cls-1" d="M84.34,122.26c-1.11-.5-2.25-.89-3.42-1.16-1.17-.28-2.61-.41-4.3-.41-3.19,0-5.66.94-7.42,2.82-1.75,1.88-2.63,4.68-2.63,8.38v24.9h-10.15v-43.58h10.15v4.15c1.17-1.44,2.78-2.64,4.83-3.61,2.05-.97,4.35-1.45,6.88-1.45,2.08,0,3.79.15,5.13.46,1.33.3,2.52.76,3.56,1.37l-2.64,8.13Z"/>
        <path class="cls-1" d="M132.17,134.8c0,3.6-.59,6.82-1.76,9.67-1.17,2.85-2.8,5.26-4.88,7.22-2.08,1.97-4.53,3.46-7.32,4.48-2.8,1.03-5.86,1.54-9.17,1.54s-6.25-.54-8.98-1.62c-2.73-1.08-5.11-2.62-7.13-4.61-2.02-2-3.6-4.37-4.74-7.14-1.14-2.77-1.71-5.87-1.71-9.3s.59-6.72,1.76-9.54c1.17-2.82,2.78-5.21,4.83-7.18,2.05-1.97,4.46-3.46,7.22-4.48,2.77-1.02,5.77-1.54,9.03-1.54s6.28.54,9.08,1.62c2.8,1.08,5.22,2.58,7.27,4.52,2.05,1.94,3.65,4.31,4.78,7.1,1.14,2.79,1.71,5.88,1.71,9.26ZM122.02,135.04c0-4.48-1.15-8.03-3.46-10.66-2.31-2.63-5.52-3.94-9.62-3.94-3.84,0-6.85,1.31-9.03,3.94-2.18,2.63-3.27,6.1-3.27,10.42,0,4.81,1.17,8.48,3.51,11,2.34,2.52,5.43,3.77,9.27,3.77,1.89,0,3.61-.39,5.18-1.16s2.89-1.81,4-3.11c1.11-1.3,1.95-2.84,2.54-4.61.59-1.77.88-3.65.88-5.65Z"/>
      </g>
      <g>
        <path class="cls-1" d="M283.97,0c7.01,2.23,13.62,5.07,19.81,8.9l7.05-7.71,5.29,15.3c6.16,4.03,12.26,8.92,18.15,14.57l-15.75-1.04,1.44,24.57-12.9-24.08-20.95,1.96,12.35-14.92c-3.93-6.65-8.75-12.51-14.48-17.55"/>
        <path class="cls-1" d="M348.98,75.62l-9.82,2.28-7.93-13.03c.74,5.14.85,10.16.65,14.93l-11.19,3.93,10.93,6.1-1.5,14.97,8.23-10.94,9.03,7.49-4.92-14.62,6.51-11.1Z"/>
        <polygon class="cls-1" points="348 49.11 341.33 51.01 349.7 54.51 352.78 64.12 354.04 58.46 359.54 63 355.06 53.25 356.74 46.74 350.98 48.23 344.04 41.1 348 49.11"/>
        <path class="cls-1" d="M371.01,108.6l6.75-9.17-7.04-4.09c-.45-8.73-1.81-16.16-4.1-22.08.34,6.59-1.88,19.63-1.88,19.63-3.49-1.8-7.52-2.88-12.04-3.39,3.81,3.81,6.87,8.93,9.04,15.23-2.01,7.45-4.57,13.44-7.76,17.86l11.44-8.07s2.88,9.41,3.01,14.67c1.72-5.67,2.59-12.56,2.57-20.59"/>
        <path class="cls-1" d="M356.85,142.98c-1.27,2-3.69,3.92-7.01,5.97,2.65-.51,4.48-.56,5.69-.28-.53,3.21-1.35,6.18-2.37,8.87l5.42-9.13,4.59-.8-1.59-5.9,4.3-9.51c-1.59,2.47-3.32,4.66-5.42,6.73l-2.86-4.89-.75,8.95Z"/>
        <path class="cls-1" d="M304.98,62.7l3.76,9.61,1.98-5.96c3.35,1.85,6.29,3.86,8.87,6l-7.88-9.21.95-5.04h-5.7l-9.06-7.77,4.94,7.75-7.46.26,9.6,4.36Z"/>
        <path class="cls-1" d="M170.5,157.76c-17.99,0-29.43-12.4-29.43-30.03s11.44-30.04,29.43-30.04c11.34,0,18.9,3.85,23.68,10.91l-9.26,4.85c-3.56-4.74-7.25-7.02-14.42-7.02-12.14,0-18.69,8.25-18.69,21.31s6.56,21.31,18.69,21.31c7.26,0,11.73-2.51,15.31-7.25l8.66,4.83c-4.97,7.16-13.42,11.16-23.97,11.16"/>
        <path class="cls-1" d="M232.91,156.85v-24.7c0-8.83-3.98-12.01-10.73-12.01s-10.74,4.11-10.74,11.15v25.56h-10.25v-56.16l10.25-4.49v21.12c2.58-3.17,7.75-5.08,13.11-5.08,12.15,0,18.6,6.68,18.6,19.56v25.06h-10.24Z"/>
        <polygon class="cls-1" points="269.96 156.85 269.96 100.69 280.21 96.2 280.21 156.85 269.96 156.85"/>
        <polygon class="cls-1" points="251.55 113.39 251.55 109.1 261.78 104.62 261.78 113.39 251.55 113.39"/>
        <path class="cls-1" d="M331.08,138.05h-34.51c1.1,8.39,6.78,11.96,13.13,11.96,4.38,0,7.84-1.33,11.31-3.49l6.09,5.49c-4.59,3.66-10.04,5.76-18.01,5.76-12.23,0-22.58-8.25-22.58-22.72s9.34-22.8,22.88-22.8c14.81,0,21.98,10.07,21.98,21.88,0,1.59-.2,3-.29,3.92M308.71,120c-6.87,0-11.05,3.98-11.96,10.97h24.26c-.48-6-3.87-10.97-12.3-10.97"/>
        <rect class="cls-1" x="251.57" y="116.51" width="10.24" height="40.35"/>
      </g>
    </g>
  </g>
</svg>