<svg id="Layer_1" data-name="Layer 1" xmlns="http://www.w3.org/2000/svg" viewBox="0 0 198 40.76"><defs><style>.cls-1{fill:#00a8e1;}</style></defs><title>header-logo</title><path class="cls-1" d="M193.68,27a5,5,0,0,0-2.28-4,4.57,4.57,0,0,0-2.49-.54,6.68,6.68,0,0,0-1.57.36,8.46,8.46,0,0,0-4.22,3.68l-.26.48C187.93,27,191.34,27,193.68,27Zm4.74,4.52-16.5,0c0,.17,0,.32.06.49a5.43,5.43,0,0,0,1.53,3,3.75,3.75,0,0,0,.69.49,4.36,4.36,0,0,0,2.44.55,5.9,5.9,0,0,0,1.14-.19l.55-.18a3.88,3.88,0,0,0,.36-.15A8.53,8.53,0,0,0,191.86,33l4,3.46s-.57.7-1.22,1.36a13,13,0,0,1-1.51,1.28,10,10,0,0,1-1.19.76,10.53,10.53,0,0,1-6.49,1.51h-.15a9.45,9.45,0,0,1-3.79-1.23,10,10,0,0,1-4.81-7.23,14.13,14.13,0,0,1,7.72-14.59,9.82,9.82,0,0,1,.94-.4,10.72,10.72,0,0,1,3.95-.73,9.61,9.61,0,0,1,4.77,1.31C196.57,19.83,200.48,24.07,198.42,31.53Zm-67.15,4-.36.15A4.48,4.48,0,0,1,124.56,32a8.83,8.83,0,0,1,5.15-9.1l.14,0A4.8,4.8,0,0,1,134,23a10,10,0,0,1,2.39,1.83c.8-1.37,1.67-2.9,2.62-4.52a9.16,9.16,0,0,0-2.36-1.92,10,10,0,0,0-8.66-.55c-.32.13-.64.25-.94.4a13.83,13.83,0,0,0-6,5.61,13.66,13.66,0,0,0-1.75,9,10,10,0,0,0,4.81,7.24,9.54,9.54,0,0,0,3.79,1.22,10.56,10.56,0,0,0,4.88-.67,13.08,13.08,0,0,0,4.48-2.88l-2.65-4.56A12.13,12.13,0,0,1,131.27,35.51ZM93.34,25.59A9.78,9.78,0,0,0,79.86,17.8a13.59,13.59,0,0,0-6.9,6,14.07,14.07,0,0,0-1.81,5.33h0l-2,11.39h5.38L76.4,30a9.11,9.11,0,0,1,1.16-3.49,8.27,8.27,0,0,1,4.16-3.69,4.48,4.48,0,0,1,6.35,3.66,7.62,7.62,0,0,1,0,2.69l0,.12s0,0,0,0L86,40.53h5.39l1.75-10c.09-.46.18-.9.23-1.35v-.07A12.19,12.19,0,0,0,93.34,25.59Zm-24,3.7,2-11.32H65.93L64.07,28.48A9.28,9.28,0,0,1,62.91,32a8.27,8.27,0,0,1-4.16,3.69A4.48,4.48,0,0,1,52.4,32a7.62,7.62,0,0,1,.05-2.69l0-.13a.08.08,0,0,1,0,0l2-11.14-5.38,0-1.75,9.9c-.1.45-.18.89-.24,1.35v.06a12.54,12.54,0,0,0,.07,3.57,9.77,9.77,0,0,0,13.47,7.79,13.65,13.65,0,0,0,6.91-6A14.49,14.49,0,0,0,69.33,29.29Zm85.85-2.78a4.48,4.48,0,0,0-6.35-3.66,8.25,8.25,0,0,0-4.17,3.69A8.38,8.38,0,0,0,143.55,32a4.48,4.48,0,0,0,6.35,3.66A8.23,8.23,0,0,0,154.06,32,8.28,8.28,0,0,0,155.18,26.51Zm3.5,8.12a13.7,13.7,0,0,1-6.91,6,9.79,9.79,0,0,1-13.47-7.79,14.08,14.08,0,0,1,8.65-15,9.78,9.78,0,0,1,13.48,7.78A13.68,13.68,0,0,1,158.68,34.63ZM39.93,26.51a4.48,4.48,0,0,0-6.36-3.66,8.27,8.27,0,0,0-4.16,3.69A8.38,8.38,0,0,0,28.3,32a4.74,4.74,0,0,0,2.22,3.48,4.8,4.8,0,0,0,4.13.18A8.27,8.27,0,0,0,38.81,32,8.28,8.28,0,0,0,39.93,26.51Zm5.25-.87a14.08,14.08,0,0,1-8.66,15,9.79,9.79,0,0,1-13.47-7.79,14.08,14.08,0,0,1,8.65-15,9.78,9.78,0,0,1,13.48,7.78ZM126.72,5.07c.2-1.07.76-4.45.76-4.45a31.25,31.25,0,0,0-11.31,5c-.17.92-1,6-1.13,6.52A27,27,0,0,1,126.72,5.07Zm52.94,13.3c-.09-.06-.29-.15-.38-.21-6.57-3.07-9.74,1.65-9.88,1.88l.38-2.06-5.37,0-4,22.61,5.42,0,1.9-11a8.71,8.71,0,0,1,4.77-6.39C175,22,176.63,22.76,177,23,178.24,20.82,178.81,19.86,179.66,18.37Zm-67.5,8.14a4.48,4.48,0,0,0-6.35-3.66,8.29,8.29,0,0,0-4.17,3.69A8.38,8.38,0,0,0,100.53,32a4.48,4.48,0,0,0,6.35,3.66A8.23,8.23,0,0,0,111,32,8.34,8.34,0,0,0,112.16,26.51Zm8.65-16.08c-.63,3.49-3.33,18.85-3.33,18.85a14.35,14.35,0,0,1-1.82,5.35,13.72,13.72,0,0,1-6.9,6,9.79,9.79,0,0,1-13.48-7.79,14.08,14.08,0,0,1,8.65-15,10,10,0,0,1,8.67.55,8.27,8.27,0,0,1,1.2.83l.41-2.29A23.65,23.65,0,0,1,120.81,10.43ZM21.31,33.69c0,4-4.42,7.68-9.77,7.68-5.58,0-8-1.71-10.54-3.74L3.67,33a13.19,13.19,0,0,0,7.06,3c2.95.14,4.33-1.45,4.49-2.32a1.35,1.35,0,0,0,0-.22c0-.46-.11-1.22-3.58-2.15C6,29.83,3,28.08,3.77,24c.77-4.33,5.8-6.83,10.83-6.83,3.18,0,6.48.75,8.58,2.41L20.61,24,20,23.71c-4.6-2.32-9.2-1.95-10.33,0s1.34,2.18,4.52,3C20.21,28.28,21.31,30.52,21.31,33.69Z" transform="translate(-1 -0.62)"/></svg>