<svg width="690" height="379" viewBox="0 0 690 379" fill="none" xmlns="http://www.w3.org/2000/svg">
<g clip-path="url(#clip0_2862_4)">
<path d="M146.2 353.2H154.7V378.6H156.8V353.2H165.2V351.1H146.2V353.2ZM188.2 363.3H175.1V351.1H172.9V378.6H175.1V365.3H188.2V378.6H190.2V351.1H188.2V363.3ZM202.6 365.3H214.4V363.3H202.6V353.2H215.7V351.1H200.4V378.6H215.9V376.6H202.6V365.3ZM248.9 364.9C245.9 364 245.1 363.8 241.6 362.8C240.2 362.4 238.9 361.7 238.9 359.9V356C238.9 354.1 239.9 353.1 241.7 353.1H248.1C250 353.1 250.9 354.1 250.9 356V359.1L253 358.8V355.9C253 353.1 251.1 351.2 248.3 351.2H241.3C238.5 351.2 236.6 353.1 236.6 355.9V360.3C236.6 362.6 238 364 241 364.9L241.6 365.1C244.2 365.8 245.4 366.2 248.3 367C250.3 367.6 251 368.4 251 369.9V373.9C251 375.8 250 376.8 248.2 376.8H241.5C239.6 376.8 238.7 375.8 238.7 373.9V370.7L236.6 371.1V374.1C236.6 376.9 238.5 378.8 241.3 378.8H248.6C251.4 378.8 253.3 376.9 253.3 374.1V369.7C253.4 366.5 251.1 365.5 248.9 364.9ZM274.8 351.1H263V378.6H265.1V366.8H274.6C277.4 366.8 279.3 364.9 279.3 362.1V355.9C279.3 353 277.5 351.1 274.8 351.1ZM265.2 353.2H274.4C276.3 353.2 277.2 354.2 277.2 356.1V362C277.2 363.9 276.2 364.9 274.4 364.9H265.2V353.2ZM287.7 351.1H289.8V378.6H287.7V351.1ZM316.8 362V355.9C316.8 353.1 314.9 351.2 312.1 351.2H300.2V378.7H302.3V366.8H310.5L316.2 378.6V378.7H318.5L312.7 366.8C315.2 366.3 316.8 364.6 316.8 362ZM302.2 353.2H311.7C313.6 353.2 314.5 354.2 314.5 356.1V361.9C314.5 363.8 313.5 364.8 311.7 364.8H302.2V353.2ZM327 351.1H329.1V378.6H327V351.1ZM337 353.2H345.5V378.6H347.5V353.2H356V351.1H337V353.2ZM388.2 351.1H380.1C377.3 351.1 375.4 353 375.4 355.8V373.8C375.4 376.6 377.3 378.5 380.1 378.5H388.2C391 378.5 392.9 376.6 392.9 373.8V355.8C393 353 391 351.1 388.2 351.1ZM390.8 356V373.7C390.8 375.6 389.8 376.6 388 376.6H380.5C378.6 376.6 377.7 375.6 377.7 373.7V356C377.7 354.1 378.7 353.1 380.5 353.1H388C389.8 353.2 390.8 354.1 390.8 356ZM402.8 378.6H405V365.3H417.2V363.3H405V353.2H418.3V351.1H402.8V378.6ZM450.7 351.1H442.9C440.1 351.1 438.2 353 438.2 355.8V373.8C438.2 376.6 440.1 378.5 442.9 378.5H450.7C453.5 378.5 455.4 376.6 455.4 373.8V370.2L453.3 369.8V373.6C453.3 375.5 452.3 376.5 450.5 376.5H443.2C441.3 376.5 440.4 375.5 440.4 373.6V356C440.4 354.1 441.4 353.1 443.2 353.1H450.5C452.4 353.1 453.3 354.1 453.3 356V359.6L455.4 359.3V355.9C455.3 353 453.5 351.1 450.7 351.1ZM480.3 363.3H467.2V351.1H465V378.6H467.2V365.3H480.3V378.6H482.5V351.1H480.3V363.3ZM492.8 351.1H494.9V378.6H492.8V351.1ZM507.3 351.1H505.2V378.6H520V376.6H507.3V351.1ZM530.5 376.6V365.3H542.5V363.3H530.5V353.2H543.6V351.1H528.3V378.6H543.8V376.6H530.5Z" fill="#857A74"/>
<path d="M0 192.9H12.3V174.6L19 173.4V193H41.3L40.2 198.9H19V247.6C19 254.9 22.8 258.8 30.1 258.8H39.7V264.9H29.1C19.1 264.9 12.3 258.2 12.3 247.9V198.9H0V192.9ZM57.9 163.5H64.6V178.5H57.9V163.5ZM57.9 192.9H64.6V264.8H57.9V192.9ZM95.5 228.7V247.3C95.5 254.6 99.3 258.5 106.6 258.5H123.9C131.2 258.5 135 254.6 135 247.3V243.1L141.5 244.2V247.8C141.5 258.1 134.7 264.8 124.7 264.8H105.7C95.7 264.8 88.9 258.1 88.9 247.8V209.9C88.9 199.6 95.7 192.9 105.7 192.9H124.3C134.3 192.9 141.1 199.6 141.1 209.9V228.7H95.5ZM95.5 222.8H134.6V210.1C134.6 202.8 130.8 198.9 123.5 198.9H106.5C99.2 198.9 95.4 202.8 95.4 210.1L95.5 222.8ZM196.5 197.6C191.5 200 187.1 202.3 182.7 204.9C176.5 208.5 171.6 212 171.6 218.5V264.7H165V192.8H171.7V204.8C177.2 200.6 186.6 195.2 196 191.3L196.5 197.6ZM241.7 197.6C236.7 200 232.3 202.3 227.9 204.9C221.7 208.5 216.8 212 216.8 218.5V264.7H210.1V192.8H216.8V204.8C222.3 200.6 231.7 195.2 241.1 191.3L241.7 197.6ZM252.6 241.6C252.6 231.3 259.4 224.6 269.4 224.6C274.7 224.6 282.6 224.9 288.4 226.6C292.6 227.8 295.8 229.3 298.6 231.5V210.4C298.6 203.1 294.8 199.2 287.5 199.2H272C264.7 199.2 260.9 203.1 260.9 210.4V213.4L254.4 212.3V209.9C254.4 199.6 261.2 192.9 271.2 192.9H288.3C298.3 192.9 305.1 199.6 305.1 209.9V264.8H298.4V258.4C295.7 260.5 292.5 262 288.2 263.3C282.3 265.1 274.6 266.3 269.2 266.3C259.2 266.3 252.4 259.6 252.4 249.3V241.6H252.6ZM298.5 244.3C298.5 237.8 294.3 234.7 287.4 232.6C281.6 230.8 274.1 230.6 270.3 230.6C263 230.6 259.2 234.5 259.2 241.8V248.9C259.2 256.2 263 260.1 270.3 260.1C274.1 260.1 281.7 258.9 287.4 257.1C294.2 255 298.5 251.9 298.5 245.4V244.3ZM364.8 191.3C360.2 191.3 354.6 192.3 347 194.3C340.4 196.1 336.5 198.5 333.8 202.1V163.2L331 163.7H330.9V264.8H333.8V210.7C333.8 202 342.1 198.5 345.7 197.4C352.4 195.3 360.3 193.9 364.8 193.9C368.8 193.9 372.2 195 374.5 197.2C376.8 199.4 378.1 202.6 378.1 206.4V264.7H381V206.4C381 201.8 379.4 198 376.5 195.2C373.5 192.7 369.5 191.3 364.8 191.3ZM440.9 192.9H422.6C413.2 192.9 405.8 200.3 405.8 209.8V248C405.8 257.5 413.2 264.9 422.6 264.9H440.9C450.3 264.9 457.7 257.5 457.7 248V209.8C457.7 200.3 450.3 192.9 440.9 192.9ZM454.8 209.6V248.1C454.8 256 448.7 262.1 440.9 262.1H422.6C414.8 262.1 408.7 255.9 408.7 248.1V209.6C408.7 201.7 414.8 195.6 422.6 195.6H440.9C448.7 195.6 454.8 201.8 454.8 209.6ZM490 173.6L487.1 173.9V192.8H474.2V195.6H487.1V248C487.1 257.5 494.5 264.9 503.9 264.9H514.1V262.1H503.9C500.1 262.1 496.6 260.6 494 257.9C491.4 255.2 490 251.6 490 247.8V195.6H515.2L515.5 192.8H490V173.6ZM566.2 192.9H548.8C539.4 192.9 532 200.3 532 209.8V248C532 257.5 539.4 264.9 548.8 264.9H566.2C575.6 264.9 583 257.5 583 248V244L580.2 243.5H580.1V248.2C580.1 256.1 574 262.2 566.2 262.2H548.8C541 262.2 534.9 256 534.9 248.2V228H583V209.9C582.9 200.3 575.6 192.9 566.2 192.9ZM534.9 225.1V209.6C534.9 201.7 541 195.6 548.8 195.6H566.2C574 195.6 580.1 201.8 580.1 209.6V225.1H534.9ZM607.8 163.8V264.9H610.7V163.3L607.8 163.7V163.8ZM669.4 229.2C665.7 228.2 663.2 227.5 660.3 226.7C658.5 226.2 656.5 225.7 654.1 225.1C649.5 223.9 646 222.7 643.5 220.8C640.8 218.8 639.6 216.2 639.6 212.5V208.1C639.6 204.3 640.9 201.1 643.4 198.9C645.9 196.7 649.3 195.6 653.4 195.6H668.1C672 195.6 675.5 197 678.1 199.7C680.6 202.3 682 205.8 682 209.6V213.9L684.8 213.4H684.9V209.7C684.9 200.2 677.5 192.8 668.1 192.8H653.4C643.4 192.8 636.6 199 636.6 208.2V212.4C636.6 216.9 638.2 220.2 641.4 222.7C644.6 225.2 649 226.6 653.4 227.8C656.4 228.6 658.6 229.2 660.8 229.8C662.9 230.4 665.1 230.9 668.1 231.8C677.4 234.3 682.7 237.2 682.7 244.6V249.6C682.7 253.4 681.3 256.5 678.8 258.8C676.3 261 672.9 262.1 668.9 262.1H653C645.2 262.1 639.1 255.9 639.1 248.1V244.5L636.3 245H636.2V248C636.2 257.5 643.6 264.9 653 264.9H669C673.7 264.9 678 263.4 681 260.7C684.1 257.9 685.8 254 685.8 249.5V244.6C685.7 235.5 679.5 232 669.4 229.2Z" fill="#857A74"/>
<path d="M4 304H690V306H4V304Z" fill="#857A74"/>
<path d="M322.4 67.1C322.1 65.7 321.9 64.3 321.9 62.9H311.8C311.9 65.2 312.2 67.5 312.7 69.7L322.4 67.1ZM374.9 99L368.4 91.3C367.2 92.3 365.9 93.2 364.6 94L369.7 102.7C371.5 101.6 373.2 100.4 374.9 99ZM283.4 54.8C283.2 56.9 283 59 283 61H293.2C293.2 59.4 293.3 57.7 293.5 56.1L283.4 54.8ZM312.1 79.9C311.4 78.5 310.7 77.1 310.1 75.7L300.6 79.2C301.4 81.2 302.3 83.1 303.3 85L312.1 79.9ZM290.9 31.8C289.9 33.6 289 35.5 288.1 37.4L297.6 41.3C298.3 39.8 299 38.3 299.8 36.9L290.9 31.8ZM368 103.7L363 95C361.6 95.7 360.2 96.4 358.8 97L362.3 106.5C364.2 105.6 366.2 104.7 368 103.7ZM283 62.9C283 65 283.2 67.1 283.4 69.1L293.5 67.8C293.3 66.2 293.2 64.6 293.2 62.9H283ZM283.7 71C284 73.1 284.4 75.1 284.9 77.1L294.8 74.4C294.4 72.8 294.1 71.2 293.8 69.6L283.7 71ZM287.4 39.1C286.6 41 286 43 285.4 45L295.3 47.6C295.7 46 296.3 44.5 296.9 43L287.4 39.1ZM380.9 93.3L373.2 86.8C372.2 88 371.1 89.1 369.9 90.1L376.4 97.8C377.9 96.4 379.5 94.9 380.9 93.3ZM379.9 75.7C379.3 77.1 378.7 78.6 377.9 79.9L386.6 84.9C387.6 83 388.6 81.1 389.3 79.1L379.9 75.7ZM315.7 46.1C314.6 48.1 313.7 50.2 313.1 52.4L322.9 55C323.3 53.7 323.9 52.4 324.5 51.1L315.7 46.1ZM284.9 46.8C284.4 48.8 284 50.9 283.7 52.9L293.8 54.2C294 52.6 294.4 51 294.8 49.4L284.9 46.8ZM315.7 85.4C314.7 84.2 313.8 82.9 313 81.6L304.2 86.6C305.3 88.4 306.6 90.2 307.9 91.9L315.7 85.4ZM377 81.5C376.2 82.8 375.3 84.1 374.3 85.3L382 91.8C383.3 90.1 384.6 88.4 385.7 86.5L377 81.5ZM360.4 107L356.9 97.5C355.4 98 353.9 98.4 352.4 98.7L354.2 108.6C356.3 108.3 358.4 107.7 360.4 107ZM328 77.7C327 76.7 326.2 75.6 325.4 74.4L316.6 79.5C317.8 81.4 319.2 83.3 320.8 84.9L328 77.7ZM306.5 110.6L312.7 102.5C311.4 101.5 310.2 100.4 309 99.3L301.8 106.5C303.4 107.9 304.9 109.3 306.5 110.6ZM346 28.7V38.8C347.4 38.9 348.8 39 350.1 39.3L352.7 29.5C350.5 29.1 348.3 28.8 346 28.7ZM313.2 115.2L318.3 106.3C316.9 105.4 315.5 104.5 314.2 103.6L308 111.7C309.7 113 311.4 114.1 313.2 115.2ZM296.4 100.5C297.7 102.1 299.1 103.7 300.5 105.2L307.7 97.9C306.6 96.7 305.5 95.5 304.5 94.2L296.4 100.5ZM308 67.6C307.8 66.1 307.6 64.5 307.6 62.9H297.5C297.5 65.1 297.7 67.2 298.1 69.3L308 67.6ZM352.4 15C350.3 14.7 348.1 14.5 346 14.4V24.5C347.6 24.5 349.1 24.7 350.7 24.9L352.4 15ZM346 43.3V53.1C346.9 53.2 347.8 53.4 348.7 53.8L353.6 45.3C351.2 44.1 348.6 43.5 346 43.3ZM324.5 72.8C323.9 71.6 323.3 70.3 322.9 68.9L313.1 71.5C313.8 73.7 314.6 75.8 315.7 77.8L324.5 72.8ZM288.1 86.6C288.9 88.5 289.9 90.4 290.9 92.2L299.8 87.1C299 85.7 298.3 84.2 297.6 82.7L288.1 86.6ZM360.9 91.3L355.8 82.5C354.6 83.2 353.3 83.7 351.9 84.1L354.5 93.9C356.7 93.3 358.9 92.4 360.9 91.3ZM309.5 73.9C309 72.4 308.6 70.9 308.3 69.4L298.4 71.2C298.8 73.3 299.4 75.4 300.1 77.4L309.5 73.9ZM291.8 93.8C292.9 95.6 294 97.3 295.3 99L303.4 92.8C302.4 91.5 301.5 90.1 300.7 88.7L291.8 93.8ZM360.7 72.1L352.2 67.2C351.7 68 351 68.6 350.2 69.2L355.1 77.7C357.4 76.3 359.3 74.3 360.7 72.1ZM285.4 78.9C286 80.9 286.6 82.9 287.4 84.8L296.9 80.9C296.3 79.4 295.8 77.8 295.3 76.3L285.4 78.9ZM348.6 70.1C347.8 70.5 346.9 70.7 345.9 70.8V80.6C348.6 80.5 351.1 79.8 353.5 78.6L348.6 70.1ZM329.2 32.7L334.3 41.5C335.5 40.9 336.8 40.3 338.2 39.9L335.6 30.1C333.3 30.7 331.2 31.6 329.2 32.7ZM350.1 84.6C348.7 84.9 347.3 85.1 345.9 85.1V95.2C348.2 95.1 350.5 94.8 352.7 94.3L350.1 84.6ZM369.6 5.1L365.7 14.6C367.2 15.3 368.6 16 370.1 16.8L375.2 7.9C373.4 6.8 371.5 5.9 369.6 5.1ZM327.1 94.9L322 103.6C323.9 104.6 325.8 105.6 327.8 106.3L331.3 96.8C329.9 96.3 328.5 95.7 327.1 94.9ZM329.6 16.9L333.1 26.4C334.6 25.9 336.1 25.5 337.6 25.2L335.8 15.3C333.8 15.7 331.7 16.3 329.6 16.9ZM376.8 8.8L371.7 17.7C373.1 18.5 374.5 19.4 375.8 20.4L382.1 12.2C380.4 11 378.6 9.8 376.8 8.8ZM329.3 51.8L337.8 56.7C338.3 56 339 55.3 339.8 54.8L334.9 46.3C332.7 47.7 330.8 49.6 329.3 51.8ZM344.1 95.3V85.2C342.7 85.1 341.3 85 339.9 84.7L337.3 94.5C339.5 94.9 341.8 95.2 344.1 95.3ZM357 26.4L360.5 16.9C358.5 16.2 356.4 15.7 354.3 15.2L352.5 25.1C354 25.5 355.5 26 357 26.4ZM346 0V10.2C347.4 10.2 349 10.4 350.9 10.6L352.2 0.4C350.1 0.2 348 0 346 0ZM337.7 109C339.8 109.3 342 109.5 344.1 109.6V99.5C342.5 99.5 341 99.3 339.4 99.1L337.7 109ZM381.8 69.4C381.5 70.9 381.1 72.4 380.6 73.9L390.1 77.4C390.8 75.4 391.4 73.3 391.8 71.2L381.8 69.4ZM362 2.3L359.3 12.3C360.8 12.7 362.4 13.3 363.9 13.9L367.8 4.4C365.9 3.6 364 2.9 362 2.3ZM354 0.6L352.7 10.8C354.3 11 355.9 11.4 357.5 11.8L360.2 1.8C358.2 1.4 356.1 0.9 354 0.6ZM383.5 13.4L377.2 21.6C378.5 22.6 379.7 23.7 380.9 24.8L388.2 17.5C386.7 16 385.1 14.7 383.5 13.4ZM333.1 97.5L329.6 107C331.6 107.7 333.7 108.2 335.8 108.7L337.6 98.8C336.1 98.4 334.6 98 333.1 97.5ZM330.7 12.2L328.1 2.3C326.1 2.9 324.1 3.5 322.2 4.3L326.1 13.7C327.6 13.2 329.2 12.7 330.7 12.2ZM382.1 56.4C382.3 57.9 382.5 59.5 382.5 61.1H392.6C392.6 59 392.4 56.8 392 54.7L382.1 56.4ZM312.8 21.5L306.6 13.4C305 14.7 303.4 16.1 301.9 17.5L309.1 24.7C310.3 23.6 311.5 22.5 312.8 21.5ZM300.5 18.8C299 20.3 297.7 21.9 296.4 23.5L304.5 29.7C305.5 28.4 306.6 27.2 307.7 26L300.5 18.8ZM295.3 25C294.1 26.7 292.9 28.4 291.8 30.2L300.7 35.3C301.6 33.9 302.5 32.5 303.4 31.2L295.3 25ZM382.5 62.9C382.5 64.5 382.3 66 382.1 67.6L392 69.3C392.3 67.2 392.5 65 392.6 62.9H382.5ZM320.2 90.1C319 89.1 317.9 88 316.9 86.8L309.2 93.3C310.6 94.9 312.1 96.4 313.7 97.8L320.2 90.1ZM321.9 61C322 59.6 322.1 58.2 322.4 56.8L312.6 54.2C312.1 56.4 311.8 58.7 311.7 61H321.9ZM337.3 10.8L336 0.7C334 1 331.9 1.4 329.9 1.9L332.5 11.8C334.1 11.3 335.7 11 337.3 10.8ZM393.6 23.5C392.3 21.9 390.9 20.3 389.5 18.8L382.2 26.1C383.3 27.3 384.4 28.5 385.4 29.8L393.6 23.5ZM324.4 14.5L320.5 5.1C318.6 5.9 316.7 6.9 314.9 7.9L320 16.8C321.4 15.9 322.9 15.2 324.4 14.5ZM402 37.4C401.2 35.5 400.2 33.6 399.2 31.8L390.3 36.9C391.1 38.3 391.8 39.7 392.5 41.3L402 37.4ZM318.3 17.6L313.2 8.7C311.4 9.8 309.7 10.9 308 12.2L314.2 20.3C315.6 19.4 316.9 18.5 318.3 17.6ZM398.3 30.2C397.2 28.4 396.1 26.7 394.8 25L386.6 31.3C387.6 32.6 388.4 33.9 389.3 35.4L398.3 30.2ZM321.6 91.3L315.1 99C316.7 100.3 318.5 101.6 320.4 102.7L325.5 94C324.1 93.2 322.9 92.3 321.6 91.3ZM344.1 80.6V70.8C343.2 70.7 342.3 70.5 341.4 70.1L336.5 78.6C338.9 79.8 341.4 80.5 344.1 80.6ZM377 52.5C376.3 50.3 375.5 48.2 374.4 46.2L365.6 51.3C366.2 52.5 366.8 53.8 367.2 55.2L377 52.5ZM362.1 46.3C363.1 47.3 363.9 48.4 364.7 49.6L373.5 44.5C372.3 42.6 370.9 40.7 369.3 39.1L362.1 46.3ZM371.7 106.3L376.8 115.2C378.6 114.1 380.3 113 382 111.7L375.7 103.5C374.5 104.6 373.1 105.5 371.7 106.3ZM336.2 61C336.3 60.1 336.5 59.2 336.9 58.3L328.4 53.4C327.2 55.8 326.5 58.3 326.4 61H336.2ZM377.3 102.5L383.6 110.6C385.2 109.3 386.8 107.9 388.3 106.5L381 99.2C379.7 100.4 378.5 101.4 377.3 102.5ZM357.4 81.6L362.5 90.4C364.4 89.2 366.3 87.8 367.9 86.2L360.7 79C359.7 80 358.6 80.8 357.4 81.6ZM309.2 30.7L316.9 37.2C317.9 36 319 34.9 320.2 33.9L313.7 26.2C312.1 27.6 310.6 29.1 309.2 30.7ZM313 42.4C313.8 41.1 314.7 39.8 315.7 38.6L308 32.1C306.7 33.8 305.4 35.5 304.3 37.4L313 42.4ZM355.8 41.5L360.9 32.7C358.9 31.6 356.8 30.7 354.6 30.1L352 39.9C353.3 40.3 354.6 40.8 355.8 41.5ZM329.3 72.1C330.7 74.3 332.6 76.2 334.9 77.7L339.8 69.2C339.1 68.7 338.4 68 337.8 67.2L329.3 72.1ZM352.7 113.2L354 123.4C356.1 123.1 358.1 122.7 360.1 122.2L357.4 112.3C356 112.6 354.4 112.9 352.7 113.2ZM389.5 105.2C390.9 103.7 392.3 102.1 393.6 100.5L385.4 94.2C384.4 95.5 383.3 96.7 382.2 97.9L389.5 105.2ZM360.7 44.9L367.9 37.7C366.2 36.1 364.4 34.7 362.5 33.5L357.4 42.3C358.6 43.1 359.7 44 360.7 44.9ZM365.7 109.4L369.6 118.9C371.5 118.1 373.4 117.1 375.2 116.1L370.1 107.2C368.7 108 367.2 108.8 365.7 109.4ZM359.3 111.7L362 121.6C364 121 366 120.4 367.9 119.6L364 110.1C362.5 110.7 360.9 111.2 359.3 111.7ZM399.2 92.2C400.2 90.4 401.1 88.5 402 86.6L392.5 82.7C391.8 84.2 391.1 85.7 390.3 87.1L399.2 92.2ZM406.4 53C406.1 51 405.7 48.9 405.2 46.9L395.3 49.6C395.7 51.1 396 52.7 396.3 54.4L406.4 53ZM332.6 42.4L327.5 33.6C325.6 34.8 323.7 36.2 322.1 37.8L329.3 45C330.3 44 331.5 43.1 332.6 42.4ZM405.2 77.1C405.7 75.1 406.1 73 406.4 71L396.2 69.7C396 71.3 395.6 72.9 395.2 74.5L405.2 77.1ZM407 61C407 58.9 406.8 56.9 406.6 54.8L396.4 56.1C396.6 57.6 396.7 59.2 396.7 61H407ZM406.6 69.1C406.8 67 407 64.9 407 62.9H396.7C396.7 64.6 396.6 66.2 396.4 67.8L406.6 69.1ZM404.7 45C404.1 43 403.5 41 402.7 39.1L393.2 43C393.8 44.5 394.3 46 394.8 47.6L404.7 45ZM322.1 20.3L327.1 29C328.5 28.2 329.9 27.6 331.3 27L327.8 17.5C325.9 18.4 323.9 19.3 322.1 20.3ZM315.2 24.9L321.7 32.6C322.9 31.6 324.2 30.7 325.5 29.9L320.4 21.2C318.6 22.4 316.8 23.6 315.2 24.9ZM402.7 84.8C403.5 82.9 404.1 80.9 404.7 78.9L394.8 76.2C394.3 77.8 393.8 79.3 393.2 80.8L402.7 84.8ZM325.4 49.6C326.1 48.4 327 47.3 328 46.3L320.8 39.1C319.2 40.8 317.8 42.6 316.6 44.5L325.4 49.6ZM394.8 99C396 97.3 397.2 95.6 398.3 93.8L389.4 88.7C388.5 90.1 387.7 91.5 386.7 92.8L394.8 99ZM391.7 52.8C391.3 50.7 390.7 48.6 390 46.6L380.5 50.1C381 51.6 381.4 53.1 381.7 54.6L391.7 52.8ZM378 44.1C378.7 45.5 379.4 46.9 380 48.3L389.5 44.8C388.7 42.8 387.8 40.8 386.8 39L378 44.1ZM360.7 51.8C359.3 49.6 357.4 47.7 355.1 46.3L350.2 54.8C351 55.3 351.6 56 352.2 56.8L360.7 51.8ZM364.6 74.4C363.9 75.6 363 76.7 362 77.7L369.2 84.9C370.8 83.2 372.2 81.4 373.4 79.5L364.6 74.4ZM339.9 39.4C341.3 39.1 342.6 38.9 344 38.9V28.7C341.7 28.8 339.4 29.1 337.2 29.6L339.9 39.4ZM329.3 79L322.1 86.2C323.8 87.8 325.6 89.2 327.5 90.4L332.6 81.6C331.5 80.8 330.3 80 329.3 79ZM374.3 38.6C375.3 39.8 376.2 41.1 377 42.4L385.7 37.3C384.6 35.5 383.3 33.7 382 32L374.3 38.6ZM344.1 124V113.7C342.4 113.7 340.8 113.6 339.2 113.4L337.9 123.6C339.9 123.8 342 124 344.1 124ZM367.6 56.9C367.9 58.3 368.1 59.7 368.1 61.1H378.2C378.1 58.8 377.8 56.5 377.3 54.3L367.6 56.9ZM341.4 53.9C342.2 53.5 343.1 53.3 344.1 53.2V43.4C341.4 43.5 338.9 44.2 336.5 45.4L341.4 53.9ZM308.3 54.6C308.6 53.1 309 51.6 309.5 50.1L300 46.6C299.3 48.6 298.7 50.7 298.3 52.8L308.3 54.6ZM369.8 33.9C371 34.9 372.1 36 373.1 37.2L380.8 30.7C379.4 29.1 377.9 27.6 376.3 26.2L369.8 33.9ZM307.6 61C307.6 59.5 307.8 57.9 308 56.3L298.1 54.5C297.8 56.6 297.6 58.8 297.5 60.9L307.6 61ZM363 29.1L368.1 20.4C366.2 19.4 364.3 18.5 362.3 17.7L358.8 27.2C360.2 27.7 361.6 28.3 363 29.1ZM320.4 118.9L324.3 109.4C322.8 108.7 321.3 108 319.9 107.2L314.8 116.1C316.7 117.2 318.5 118.1 320.4 118.9ZM336.9 65.6C336.5 64.8 336.3 63.9 336.2 62.9H326.4C326.5 65.6 327.2 68.1 328.4 70.5L336.9 65.6ZM336 123.3L337.3 113.1C335.7 112.9 334.1 112.5 332.5 112.1L329.8 122C331.9 122.6 333.9 123 336 123.3ZM328.1 121.6L330.8 111.7C329.2 111.3 327.7 110.7 326.2 110.1L322.3 119.6C324.1 120.4 326.1 121.1 328.1 121.6ZM368.2 62.9C368.1 64.3 368 65.7 367.7 67.1L377.5 69.7C378 67.5 378.3 65.2 378.4 62.9H368.2ZM368.4 32.7L374.9 25C373.2 23.7 371.5 22.4 369.6 21.3L364.5 30C365.9 30.8 367.2 31.7 368.4 32.7ZM350.6 99.1C349.1 99.3 347.5 99.5 345.9 99.5V109.6C348 109.6 350.2 109.4 352.3 109L350.6 99.1ZM367.2 68.9C366.8 70.2 366.2 71.5 365.6 72.8L374.4 77.9C375.5 75.9 376.4 73.8 377 71.6L367.2 68.9ZM334.2 82.5L329.1 91.3C331.1 92.4 333.2 93.3 335.4 93.9L338 84.1C336.8 83.7 335.5 83.2 334.2 82.5ZM339.2 10.5C340.8 10.3 342.5 10.2 344.1 10.2V0C342 0 339.9 0.2 337.9 0.4L339.2 10.5ZM310.1 48.3C310.7 46.8 311.3 45.4 312.1 44.1L303.4 39C302.4 40.9 301.5 42.8 300.7 44.8L310.1 48.3ZM339.4 24.9C340.9 24.7 342.5 24.5 344 24.5V14.4C341.9 14.4 339.7 14.6 337.6 15L339.4 24.9ZM346 113.7V124C348.1 124 350.2 123.8 352.2 123.6L350.9 113.4C349.3 113.6 347.7 113.7 346 113.7ZM363.7 61.1C363.6 58.4 362.9 55.9 361.7 53.5L353.2 58.4C353.6 59.2 353.8 60.1 353.9 61.1H363.7ZM353.9 62.9C353.8 63.8 353.6 64.7 353.2 65.6L361.7 70.5C362.9 68.1 363.6 65.6 363.7 62.9H353.9Z" fill="#857A74"/>
</g>
<defs>
<clipPath id="clip0_2862_4">
<rect width="690" height="378.6" fill="white"/>
</clipPath>
</defs>
</svg>
