<?xml version="1.0" encoding="UTF-8"?>
<svg id="Layer_2" data-name="Layer 2" xmlns="http://www.w3.org/2000/svg" viewBox="0 0 4488.04 1070.19">
  <defs>
    <style>
      .cls-1 {
        fill: #00a4e0;
      }
    </style>
  </defs>
  <g id="_图层_1" data-name="图层 1">
    <g>
      <path class="cls-1" d="M4258.46,524.21c102.97-78.9,148.38-161.13,141.04-266.82C4388.79,103.34,4264.25,0,4122.3,0h-407.12v890.62h161.84v-366.41h191.23s228.74,366.41,228.74,366.41h191.05l-229.58-366.41ZM4242.51,258.05c0,68.15-47.99,108.36-121.03,108.36h-244.46s0-208.92,0-208.92h244.46c92.29,0,121.03,63.65,121.03,100.56Z"/>
      <g>
        <polygon class="cls-1" points="2482.51 557.79 2691.27 890.35 2883.85 890.62 2587.26 418.96 2482.51 557.79"/>
        <path class="cls-1" d="M2825.08,0h-205.62l-423.36,562.81L2196.03,0h-162.55v811.71c0,29.88,17.33,66.78,63.86,77.45,18.53,4.25,55.4-.3,77.61-29.42C2177.67,856.19,2825.08,0,2825.08,0Z"/>
      </g>
      <g>
        <path class="cls-1" d="M3185.41,524.15l319.68.06v-157.8h-319.68v157.74Z"/>
        <path class="cls-1" d="M3587.4,0h-634.53v811.45c0,43.73,35.45,79.17,79.17,79.17h555.36v-157.4h-472.25V157.71h472.25V0Z"/>
      </g>
      <path class="cls-1" d="M1708.36,0l-.06,562.81L1284.94,0h-206.69v890.16h162.3V213.22c191.94,253.83,487.07,644.12,488.9,646.53,22.21,29.11,59.08,33.67,77.61,29.42,46.53-10.67,63.86-47.58,63.86-77.45V0h-162.55Z"/>
      <path class="cls-1" d="M416.36,47.98L0,890.62h181.42L494.97,258.05l313.39,632.57h179.82L574.97,50.74C559.69,19.68,528.08,0,493.46,0h0C460.72,0,430.82,18.61,416.36,47.98Z"/>
      <path class="cls-1" d="M642.08,764.63h-107.27c-1.02,0-1.82-.88-1.73-1.9l20.9-228.9c.16-1.74-2.05-2.6-3.11-1.21l-231,302.08c-.88,1.14-.06,2.8,1.38,2.8h107.27c1.02,0,1.82.88,1.73,1.9l-20.9,228.9c-.16,1.74,2.05,2.6,3.11,1.21l231-302.08c.88-1.14.06-2.8-1.38-2.8Z"/>
    </g>
  </g>
</svg>