<svg width="264" height="264" viewBox="0 0 264 264" fill="none" xmlns="http://www.w3.org/2000/svg">
<g clip-path="url(#clip0_23_3)">
<path d="M70.7622 103.336C70.903 103.456 71.0503 103.568 71.2037 103.671C73.3224 105.26 80.6669 105.543 86.8817 103.671C104.007 98.0217 114.706 78.5124 112.853 69.6673C112.252 67.5309 110.328 63.2934 101.518 60.8394C98.9404 62.6933 90.0949 74.081 82.5384 85.5571C78.6543 91.1891 74.6993 97.1036 70.7622 103.336Z" fill="white"/>
<path d="M236.475 125.902C218.308 131.322 211.263 133.388 192.884 139.656C175.228 146.718 142.954 158.282 113.434 174.966C86.157 190.574 71.6441 201.273 47.315 221.065C30.7176 234.272 15.0605 248.619 0.457642 264.002H263.999V118.416C253.618 121.047 247.527 122.671 236.475 125.902Z" fill="white"/>
<path d="M77.4365 180.773C105.759 165.798 134.828 152.28 164.531 140.272C178.46 135.24 213.118 124.876 220.816 121.999C215.608 120.763 213.153 120.604 209.393 117.655C206.926 115.857 204.963 113.456 203.69 110.682C199.927 114.481 195.941 118.053 191.755 121.381C184.693 126.413 175.106 132.204 168.379 128.672C165.502 127.189 164.478 125.053 163.295 121.999C157.68 128.972 141.79 146.716 134.834 140.996C133.598 140.272 132.451 136.458 132.451 133.934C129.372 138.747 125.518 143.019 121.045 146.575C115.025 151.324 108.175 149.859 105.897 147.829C104.52 146.699 103.284 144.297 104.008 137.747C105.049 128.196 114.601 113.295 119.898 106.709C127.066 97.8815 133.598 92.5848 139.213 92.938C142.62 93.0439 145.074 94.1386 146.275 97.2459L146.434 96.9103C146.434 96.9103 148.093 94.1738 149.347 91.6139L159.516 90.2898C155.668 98.5348 143.732 124.4 146.822 126.271C149.912 128.143 158.775 119.368 162.624 114.972C163.088 109.51 164.386 104.151 166.473 99.0821C170.697 88.7172 175.943 78.799 182.133 69.4739C191.702 56.1264 203.019 42.2318 210.593 41.0136C211.259 40.7692 211.97 40.6774 212.675 40.7452C213.381 40.8126 214.062 41.0379 214.669 41.4037C215.275 41.7698 215.792 42.2676 216.181 42.8601C216.569 43.4523 216.82 44.1247 216.914 44.8269C216.914 45.4274 217.532 49.241 214.407 56.1264C211.067 63.1233 207.263 69.8887 203.019 76.3773C197.28 85.6222 190.722 94.3319 183.422 102.401C181.656 104.273 178.867 107.221 174.594 111.229C174.276 116.031 175.618 119.915 183.422 118.397C189.036 117.461 192.779 115.007 202.966 103.567C204.281 95.2582 206.834 87.1942 210.541 79.6435C213.858 71.7121 217.851 64.0804 222.475 56.8327C226.561 50.385 231.678 44.653 237.624 39.8658C240.837 37.0058 250.177 32.2564 254.132 35.452C255.897 36.7761 255.368 41.1899 253.937 45.6215C251.096 52.9933 247.322 59.9711 242.709 66.3843C237.486 73.6619 231.795 80.5916 225.671 87.1294C222.246 90.6605 217.497 96.6278 214.372 99.1349V99.5233C213.648 107.716 221.257 117.55 239.53 116.225C247.246 115.66 255.562 113.1 263.948 110.717V0H0V231.727C10.8581 222.158 49.8411 195.463 77.4365 180.773ZM56.6914 66.5078C37.041 75.9358 26.3772 89.2126 24.488 92.9908C21.9104 97.3694 20.6745 103.584 22.7225 107.451C23.9584 110.046 27.0833 113.718 34.0396 113.718C30.1907 118.238 25.8475 118.238 21.3807 118.238C18.5291 118.307 15.7254 117.497 13.3501 115.918C10.9748 114.339 9.14317 112.067 8.1038 109.41C6.33829 104.273 7.57416 97.9698 9.42797 93.5205C15.7663 78.4074 35.911 66.4019 46.0806 62.5882C65.5896 55.5262 75.6709 53.125 97.7577 54.4667C101.763 50.546 106.234 47.1307 111.07 44.2974C115.509 41.2963 120.945 40.1497 126.218 41.1019C129.961 41.7196 130.597 44.9152 129.961 47.4578C129.084 49.3859 127.808 51.1066 126.218 52.507C125.494 49.947 122.987 46.2396 117.92 48.0756C115.413 49.3293 112.942 51.2711 106.603 56.2147C112.253 57.7509 116.225 59.5341 118.733 61.8291C120.214 63.118 121.447 64.668 122.37 66.4019C124.115 69.9051 124.856 73.8235 124.51 77.7222C124.164 81.6209 122.745 85.3474 120.41 88.4887C117.267 92.2671 109.71 103.567 86.9704 107.38C92.6731 111.194 102.754 116.843 98.3758 133.863C97.14 140.131 90.1836 158.581 72.546 167.267C69.0815 168.857 65.3145 169.68 61.5026 169.68C57.6907 169.68 53.9238 168.857 50.4592 167.267C46.6743 165.376 43.3852 162.625 40.8546 159.234C38.1181 165.519 35.5579 171.981 32.1681 179.891L6.95622 188.136C14.3538 174.982 18.8559 166.649 26.3772 154.732C49.082 120.622 52.8601 109.322 77.4365 77.6659C80.0495 75.1766 90.0956 61.935 92.5848 60.0107C78.1604 58.8808 61.6525 64.6187 56.6914 66.5078Z" fill="white"/>
<path d="M75.5653 110.681C71.7649 110.46 67.9817 111.343 64.6718 113.223C59.8872 121.238 55.2437 129.607 50.9713 138.435C47.9345 144.014 45.498 148.922 43.291 153.707C43.2728 153.859 43.2728 154.013 43.291 154.166C45.904 158.686 54.0962 160.363 59.7637 160.628C63.5533 160.826 67.295 159.709 70.3569 157.467C82.0092 149.116 93.3087 124.999 86.741 116.948C84.3929 112.993 80.6675 111.228 75.5653 110.681Z" fill="white"/>
<path d="M240.201 58.8817C242.814 54.1678 246.557 46.8582 243.432 46.3464C238.965 44.4042 228.301 60.0999 223.923 67.7269C220.016 74.6868 217.228 82.2175 215.66 90.0434V90.4672C222.793 84.888 233.157 71.3111 240.201 58.8817Z" fill="white"/>
<path d="M135.911 102.932C134.093 104.18 132.417 105.625 130.915 107.24C128.333 110.037 125.971 113.029 123.853 116.192C119.545 122.777 117.214 129.786 119.81 132.788C121.328 134.783 125.106 133.67 128.637 130.616C130.5 129.076 132.108 127.253 133.404 125.213C137.836 118.699 141.72 110.03 142.497 105.263C142.797 103.409 142.62 102.138 141.808 101.838C140.078 100.814 137.977 101.485 135.911 102.932Z" fill="white"/>
<path d="M201.801 68.3455C203.691 64.6202 208.034 56.3224 205.544 54.5744C203.691 53.2327 196.081 59.4827 187.271 73.9954C182.804 80.8808 175.954 96.7179 176.572 101.132C186.035 93.5751 193.504 82.3287 201.801 68.3455Z" fill="white"/>
</g>
<defs>
<clipPath id="clip0_23_3">
<rect width="264" height="264" fill="white"/>
</clipPath>
</defs>
</svg>