<?xml version="1.0" encoding="UTF-8"?>
<svg id="Layer_2" data-name="Layer 2" xmlns="http://www.w3.org/2000/svg" viewBox="0 0 30.06 30.06">
  <defs>
    <style>
      .cls-1 {
        fill: #fff;
      }

      .cls-1, .cls-2 {
        fill-rule: evenodd;
      }

      .cls-2 {
        fill: #ef67a5;
      }
    </style>
  </defs>
  <g id="Layer_1-2" data-name="Layer 1">
    <g>
      <polygon class="cls-1" points="0 0 30.06 0 30.06 30.06 0 30.06 0 0 0 0"/>
      <path class="cls-2" d="M12.72,17.05v-2.71c0-.38.04-1.45-1.31-1.45s-2.35.75-2.8,1.24c-.45.49-.26.97-.2,1.1.06.13.26.39.38.5.12.11.2.01.2.01.51-1.07,1.55-1.53,1.89-1.53s.4.27.4.36-.01.66-1.37,1.17c-1.36.51-1.8,1.36-1.8,1.36-.36-.81-1.37-1.16-1.37-1.16,0,0,1.04-.77,1.04-2.12,0-2.55-2.83-2.53-2.91-2.53s-1.02-.04-2.52.69c-1.49.74-1.92,2.04-1.92,2.84s.49,1.15.49,1.15c0,0,.6.47.69.51.09.04.07-.1.07-.1,0,0-.46-1.44.52-2.55.98-1.11,2.38-1.17,2.57-1.17s1.34.04,1.34,1.21c0,1.65-1.79,1.96-2.06,2.04-.27.08-.24-.3-.24-.3h0v-1.86l-1.78,1.06h0c.28.4.25,1.07.25,1.07h0v5.79h0c.73.22,1.77.45,3.5-.1,1.73-.55,2.32-2.08,2.32-2.08,0,0,.33.58,1.27.58,1.35,0,1.99-.94,1.99-.94,0,0,.13.11.13.2s.1.17.1.17c.66-.09,1.43-.4,1.43-.4-.37-.49-.29-1.65-.29-2.06h0ZM4.45,20.5c-.41,0-.61-.09-.61-.09h0v-3.05h0c.33-.19.94-.36,1.37-.36s1.36.04,1.36,1.35c0,1.59-1.7,2.15-2.12,2.15h0ZM9.9,18.69c-.25,0-.55-.02-.55-.62,0-.83,1.85-1.66,1.85-1.66.09-.04.09.13.09.13,0,2.02-1.15,2.15-1.39,2.15h0Z"/>
      <path class="cls-2" d="M19.69,10.98c-.52,0-1.37.21-1.85,1.38h0v-3.49l-1.75,1.05h0s.28.42.28.9v1.24s-.23-.22-.54-.22-.66.21-1.02.85c0,0-.11-.4-.09-.49,0,0,.16-.27-1.58.85,0,0,.02.14.14.28.12.15.18.61.18.75v3.69s.03.6-.13,1.35h0l1.9-.46h0s-.32-.54-.32-1.46v-2.47s-.08-1.29,1.47-1.8h0v5.09h0s.33.16,1.21.16,3.86-.2,3.86-4.51c0-2.56-1.22-2.67-1.74-2.67h0ZM18.23,16.81c-.31,0-.38-.11-.38-.11h0v-4.05h0c.52.88.74.95.74.95.2-1.06.65-1.21.76-1.21s.62-.02.62,1.37c0,2.28-1.42,3.06-1.74,3.06h0Z"/>
      <path class="cls-2" d="M22.49,8.14s-.89-.06-.89,1.02c0,.86.6.89.85.89s.76-.12.76-1.01-.66-.9-.71-.9h0Z"/>
      <path class="cls-2" d="M21.49,11.23s.26.29.26,1.04v3.66s.08.65-.17,1.28h0l1.9-.45h0s-.26-.22-.26-1.18v-5.41s-.04-.09-1.74,1.06h0Z"/>
      <path class="cls-2" d="M27.95,12.43c-.02,1.45-.82,2.47-1.58,2.47s-.98-.5-.98-.5h0l3.32-2.94h0c-.03-.62-.6-2.02-2.09-2.02-3.06,0-3.14,3.55-3.14,3.93s.4,2.88,2.44,2.88c2.56,0,2.94-2.12,2.94-2.84s-.9-.99-.9-.99h0ZM25.53,11.22c.62-.79,1.33-.69,1.61-.01h0l-2.08,1.75h0s-.16-.95.47-1.74h0Z"/>
      <polygon class="cls-2" points="28.05 8.85 28.72 8.85 28.72 8.95 28.44 8.95 28.44 9.68 28.33 9.68 28.33 8.95 28.05 8.95 28.05 8.85 28.05 8.85 28.05 8.85"/>
      <path class="cls-2" d="M28.82,9.68v-.83h.16l.24.7.24-.7h.16v.83h-.11v-.49h0s0-.04,0-.08c0-.04,0-.08,0-.13h0l-.24.7h-.11l-.24-.7v.03h0s0,.05,0,.09c0,.04,0,.07,0,.09h0v.49h-.11Z"/>
    </g>
  </g>
</svg>