<svg xmlns="http://www.w3.org/2000/svg" width="123" height="43"><path d="M 10.284 24.743 C 10.526 23.723 10.791 23.092 11.075 22.84 C 11.358 22.584 11.847 22.461 12.538 22.461 C 13.946 22.461 15.039 22.955 15.821 23.943 C 16.598 24.926 16.987 26.312 16.987 28.106 C 16.987 30.041 16.712 31.966 16.164 33.892 C 15.624 35.809 14.92 37.355 14.07 38.522 C 13.525 39.258 12.862 39.816 12.067 40.196 C 11.28 40.58 10.393 40.772 9.419 40.772 C 8.391 40.772 7.746 40.662 7.49 40.452 C 7.229 40.242 7.106 39.853 7.106 39.295 C 7.106 39.029 7.142 38.705 7.238 38.311 C 7.247 38.256 7.257 38.215 7.266 38.179 L 10.288 24.743 Z M 2.931 38.357 C 2.643 39.615 2.236 40.342 1.71 40.534 C 1.605 40.58 1.495 40.621 1.376 40.649 C 1.262 40.681 1.148 40.713 1.038 40.731 C 1.02 40.731 0.997 40.745 0.969 40.768 C 0.325 40.964 0 41.257 0 41.641 C 0 41.866 0.032 42.016 0.087 42.099 C 0.137 42.181 0.265 42.222 0.462 42.222 C 0.53 42.222 0.7 42.209 0.969 42.186 C 2.131 42.071 3.256 42.016 4.335 42.016 C 4.806 42.016 5.565 42.039 6.612 42.099 C 7.654 42.154 8.459 42.186 9.031 42.186 C 11.166 42.186 12.89 41.971 14.188 41.527 C 15.492 41.088 16.644 40.37 17.65 39.359 C 18.775 38.224 19.694 36.756 20.38 34.958 C 21.065 33.165 21.408 31.34 21.408 29.478 C 21.408 26.765 20.695 24.679 19.282 23.225 C 17.865 21.765 15.825 21.038 13.164 21.038 C 12.817 21.038 12.172 21.061 11.244 21.107 C 10.316 21.157 9.552 21.18 8.962 21.18 C 7.924 21.18 6.827 21.129 5.679 21.038 C 5.409 21.015 5.236 21.006 5.167 21.006 C 4.865 21.006 4.655 21.047 4.554 21.139 C 4.454 21.226 4.399 21.386 4.399 21.614 C 4.399 21.834 4.458 22.012 4.577 22.136 C 4.701 22.269 4.929 22.374 5.263 22.451 C 5.67 22.561 5.935 22.689 6.054 22.822 C 6.168 22.959 6.237 23.147 6.237 23.385 C 6.237 23.595 6.219 23.801 6.2 23.998 C 6.177 24.194 6.15 24.4 6.104 24.606 L 2.977 38.105 C 2.968 38.16 2.945 38.247 2.917 38.352 Z M 28.788 29.633 C 29.598 28.357 30.393 27.721 31.184 27.721 C 31.459 27.721 31.678 27.863 31.847 28.133 C 32.007 28.403 32.09 28.764 32.09 29.194 C 32.09 30.64 31.591 31.916 30.595 33.019 C 29.589 34.121 28.4 34.674 27.001 34.674 L 26.831 34.674 C 27.33 32.584 27.979 30.901 28.784 29.624 Z M 34.079 33.997 C 35.4 33.151 36.072 31.884 36.072 30.21 C 36.072 29.084 35.711 28.183 35.002 27.515 C 34.289 26.852 33.324 26.514 32.09 26.514 C 31.047 26.514 30.005 26.729 28.958 27.154 C 27.901 27.579 26.918 28.197 25.999 28.993 C 24.845 30.014 23.917 31.265 23.274 32.666 C 22.634 34.037 22.303 35.531 22.305 37.044 C 22.305 38.828 22.748 40.251 23.658 41.321 C 24.559 42.387 25.748 42.922 27.215 42.922 C 28.281 42.922 29.355 42.648 30.412 42.108 C 31.468 41.568 32.396 40.813 33.215 39.844 C 33.567 39.395 33.832 39.006 34.028 38.677 C 34.216 38.343 34.317 38.082 34.317 37.899 C 34.317 37.758 34.285 37.648 34.221 37.57 C 34.155 37.493 34.057 37.451 33.955 37.456 C 33.804 37.456 33.544 37.671 33.183 38.096 C 33.032 38.284 32.904 38.435 32.803 38.544 C 32.204 39.203 31.596 39.72 30.979 40.081 C 30.37 40.457 29.808 40.635 29.296 40.635 C 28.459 40.635 27.805 40.301 27.325 39.629 C 26.836 38.956 26.598 38.028 26.598 36.843 C 26.598 36.619 26.607 36.454 26.607 36.335 C 26.607 36.225 26.621 36.106 26.63 35.996 C 30.27 35.516 32.762 34.853 34.088 34.002 Z M 45.784 20.841 L 41.111 38.49 C 41.075 38.599 41.056 38.714 41.038 38.833 C 41.024 38.952 41.011 39.107 41.011 39.295 C 41.011 39.482 41.034 39.633 41.079 39.711 C 41.125 39.793 41.203 39.839 41.308 39.839 C 41.514 39.839 41.747 39.716 42.007 39.478 C 42.264 39.235 42.561 38.86 42.899 38.361 C 43.023 38.174 43.173 37.941 43.356 37.657 C 43.622 37.186 43.85 36.953 44.033 36.953 C 44.129 36.953 44.207 36.985 44.243 37.049 C 44.285 37.117 44.312 37.227 44.312 37.378 C 44.312 37.529 44.189 37.849 43.942 38.316 C 43.699 38.787 43.398 39.276 43.036 39.784 C 42.328 40.726 41.642 41.436 40.983 41.907 C 40.32 42.378 39.671 42.611 39.04 42.611 C 38.409 42.611 37.874 42.364 37.494 41.866 C 37.119 41.367 36.923 40.681 36.923 39.816 C 36.923 39.391 36.991 38.814 37.124 38.096 C 37.252 37.378 37.449 36.564 37.7 35.64 L 41.02 23.161 C 41.034 23.096 41.052 23 41.093 22.881 C 41.216 22.323 41.285 21.935 41.285 21.715 C 41.285 21.39 40.988 21.134 40.389 20.946 L 40.357 20.946 C 40.037 20.86 39.836 20.777 39.73 20.699 C 39.636 20.632 39.581 20.523 39.584 20.407 C 39.584 20.123 39.648 19.922 39.772 19.807 C 39.9 19.693 40.197 19.629 40.677 19.629 C 42.478 19.629 44.065 19.304 45.441 18.655 C 45.72 18.522 45.908 18.458 45.981 18.458 C 46.068 18.458 46.15 18.499 46.228 18.591 C 46.306 18.678 46.342 18.769 46.342 18.87 C 46.342 18.938 46.274 19.194 46.127 19.647 C 45.986 20.1 45.871 20.503 45.784 20.85 Z M 52.689 32.547 L 51.038 37.593 C 50.906 37.991 50.805 38.329 50.732 38.618 C 50.659 38.901 50.622 39.139 50.622 39.331 C 50.622 39.523 50.645 39.67 50.695 39.748 C 50.746 39.83 50.823 39.876 50.933 39.876 C 51.399 39.876 51.921 39.386 52.501 38.416 C 53.091 37.447 53.494 36.966 53.713 36.966 C 53.8 36.966 53.869 36.998 53.91 37.062 C 53.96 37.131 53.978 37.241 53.978 37.392 C 53.978 37.62 53.837 38.009 53.535 38.554 C 53.242 39.103 52.863 39.656 52.401 40.21 C 51.719 41.051 51.024 41.692 50.302 42.126 C 49.584 42.556 48.852 42.78 48.125 42.78 C 47.485 42.78 47.001 42.593 46.671 42.227 C 46.333 41.861 46.168 41.335 46.168 40.658 C 46.168 39.981 46.415 38.897 46.914 37.392 C 47.005 37.104 47.074 36.889 47.115 36.747 L 49.291 29.972 C 49.333 29.839 49.36 29.72 49.374 29.62 C 49.383 29.514 49.387 29.409 49.387 29.299 C 49.387 29.13 49.369 28.998 49.328 28.92 C 49.291 28.837 49.237 28.796 49.159 28.796 C 48.939 28.796 48.674 28.924 48.359 29.19 C 48.052 29.45 47.723 29.816 47.385 30.297 C 47.266 30.457 47.133 30.672 46.978 30.933 C 46.667 31.44 46.388 31.696 46.136 31.696 C 46.059 31.696 46.004 31.669 45.972 31.614 C 45.935 31.564 45.917 31.481 45.917 31.372 C 45.917 31.093 46.068 30.695 46.37 30.191 C 46.676 29.693 47.078 29.167 47.581 28.622 C 48.199 27.923 48.852 27.406 49.534 27.076 C 50.215 26.742 50.956 26.573 51.733 26.573 C 52.355 26.573 52.826 26.751 53.132 27.099 C 53.443 27.447 53.603 27.964 53.603 28.654 C 53.603 29.048 53.548 29.501 53.434 30.009 C 53.324 30.516 53.077 31.358 52.693 32.538 Z M 53.109 20.388 C 53.74 20.388 54.253 20.599 54.646 21.02 C 55.034 21.441 55.227 21.989 55.227 22.662 C 55.227 23.449 54.998 24.107 54.536 24.643 C 54.074 25.178 53.521 25.439 52.863 25.439 C 52.286 25.439 51.811 25.228 51.445 24.794 C 51.079 24.364 50.896 23.801 50.896 23.101 C 50.896 22.36 51.116 21.724 51.573 21.189 C 52.017 20.658 52.538 20.388 53.109 20.388 Z M 64.673 26.408 C 65.848 26.408 66.777 26.655 67.467 27.154 C 68.158 27.653 68.505 28.307 68.505 29.13 C 68.505 29.697 68.34 30.159 68.007 30.512 C 67.682 30.869 67.248 31.042 66.713 31.042 C 66.26 31.042 65.894 30.923 65.592 30.681 C 65.295 30.439 64.975 29.981 64.623 29.304 C 64.573 29.171 64.49 28.988 64.39 28.76 C 64.184 28.179 63.896 27.891 63.521 27.891 C 62.858 27.891 62.044 28.847 61.088 30.754 C 60.124 32.662 59.644 34.638 59.644 36.683 C 59.644 37.799 59.886 38.686 60.371 39.336 C 60.851 39.985 61.505 40.31 62.314 40.31 C 62.835 40.31 63.37 40.15 63.91 39.834 C 64.458 39.519 65.108 38.961 65.876 38.169 C 65.954 38.101 66.054 38 66.187 37.877 C 66.498 37.538 66.717 37.369 66.854 37.369 C 66.969 37.369 67.056 37.405 67.12 37.483 C 67.179 37.561 67.225 37.671 67.225 37.808 C 67.225 37.996 67.129 38.256 66.932 38.586 C 66.74 38.924 66.475 39.313 66.118 39.761 C 65.304 40.731 64.372 41.486 63.315 42.03 C 62.259 42.565 61.198 42.84 60.128 42.84 C 58.656 42.84 57.472 42.3 56.571 41.23 C 55.67 40.159 55.217 38.737 55.217 36.966 C 55.217 35.64 55.473 34.35 55.986 33.087 C 56.493 31.829 57.225 30.686 58.171 29.67 C 59.081 28.696 60.142 27.909 61.354 27.31 C 62.561 26.706 63.672 26.404 64.678 26.404 Z M 75.885 32.547 L 74.234 37.593 C 74.106 37.991 74.001 38.329 73.928 38.618 C 73.855 38.901 73.818 39.139 73.818 39.331 C 73.818 39.523 73.841 39.67 73.891 39.748 C 73.942 39.83 74.024 39.876 74.134 39.876 C 74.596 39.876 75.117 39.386 75.698 38.416 C 76.278 37.447 76.681 36.966 76.905 36.966 C 76.996 36.966 77.056 36.998 77.11 37.062 C 77.147 37.131 77.174 37.241 77.174 37.392 C 77.174 37.62 77.028 38.009 76.726 38.554 C 76.434 39.103 76.054 39.656 75.597 40.21 C 74.911 41.051 74.212 41.692 73.494 42.126 C 72.776 42.556 72.049 42.78 71.317 42.78 C 70.677 42.78 70.192 42.593 69.863 42.227 C 69.525 41.861 69.36 41.335 69.36 40.658 C 69.36 39.981 69.607 38.897 70.105 37.392 C 70.192 37.104 70.261 36.889 70.307 36.747 L 72.474 29.972 C 72.524 29.839 72.552 29.72 72.556 29.62 C 72.575 29.514 72.579 29.409 72.579 29.299 C 72.579 29.13 72.556 28.998 72.52 28.92 C 72.483 28.837 72.424 28.796 72.351 28.796 C 72.126 28.796 71.866 28.924 71.55 29.19 C 71.235 29.45 70.915 29.816 70.576 30.297 C 70.458 30.457 70.32 30.672 70.165 30.933 C 69.859 31.44 69.58 31.696 69.333 31.696 C 69.26 31.696 69.2 31.669 69.163 31.614 C 69.131 31.564 69.118 31.481 69.118 31.372 C 69.118 31.093 69.269 30.695 69.566 30.191 C 69.868 29.693 70.265 29.167 70.773 28.622 C 71.395 27.923 72.044 27.406 72.735 27.076 C 73.411 26.742 74.152 26.573 74.939 26.573 C 75.556 26.573 76.022 26.751 76.333 27.099 C 76.644 27.447 76.8 27.964 76.8 28.654 C 76.8 29.048 76.745 29.501 76.64 30.009 C 76.525 30.516 76.278 31.358 75.894 32.538 Z M 76.306 20.388 C 76.946 20.388 77.449 20.599 77.838 21.02 C 78.231 21.441 78.423 21.989 78.423 22.662 C 78.423 23.449 78.19 24.107 77.737 24.643 C 77.28 25.178 76.722 25.439 76.063 25.439 C 75.487 25.439 75.016 25.228 74.65 24.794 C 74.28 24.364 74.102 23.801 74.102 23.101 C 74.102 22.36 74.321 21.724 74.769 21.189 C 75.213 20.658 75.73 20.388 76.306 20.388 Z M 88.615 34.853 C 88.341 36.125 87.929 37.364 87.399 38.576 C 86.909 39.619 86.448 40.37 85.99 40.836 C 85.528 41.298 85.021 41.532 84.481 41.532 C 83.818 41.532 83.329 41.266 82.995 40.722 C 82.661 40.182 82.497 39.391 82.497 38.348 C 82.497 37.094 82.639 35.818 82.927 34.537 C 83.213 33.271 83.627 32.037 84.161 30.855 C 84.646 29.812 85.126 29.048 85.615 28.563 C 86.095 28.074 86.617 27.831 87.161 27.831 C 87.737 27.831 88.19 28.119 88.528 28.696 C 88.866 29.272 89.031 30.063 89.031 31.084 C 89.031 32.332 88.894 33.586 88.61 34.857 Z M 81.093 29.373 C 79.333 31.276 78.45 33.535 78.45 36.147 C 78.45 38.137 78.985 39.757 80.06 40.992 C 81.134 42.227 82.538 42.849 84.266 42.849 C 86.612 42.849 88.651 41.898 90.398 39.999 C 92.145 38.101 93.018 35.887 93.018 33.357 C 93.018 31.289 92.483 29.629 91.409 28.38 C 90.339 27.136 88.926 26.509 87.179 26.509 C 84.888 26.509 82.863 27.465 81.098 29.368 Z M 101.326 32.598 L 102.611 33.984 C 103.206 34.629 103.626 35.237 103.882 35.814 C 104.134 36.394 104.257 37.007 104.257 37.666 C 104.257 39.121 103.709 40.342 102.616 41.335 C 101.514 42.318 100.119 42.812 98.432 42.812 C 96.836 42.812 95.611 42.52 94.756 41.934 C 93.896 41.349 93.471 40.507 93.471 39.418 C 93.471 38.586 93.553 37.986 93.713 37.62 C 93.878 37.25 94.138 37.067 94.495 37.067 C 94.705 37.067 94.925 37.19 95.167 37.433 C 95.41 37.671 95.798 38.197 96.347 39.006 C 96.932 39.889 97.44 40.548 97.874 40.969 C 98.313 41.39 98.693 41.605 99.013 41.605 C 99.397 41.605 99.721 41.431 99.982 41.083 C 100.247 40.726 100.38 40.283 100.38 39.752 C 100.38 39.313 100.266 38.842 100.032 38.339 C 99.808 37.831 99.488 37.341 99.072 36.856 L 97.851 35.539 C 96.928 34.519 96.31 33.673 95.986 32.996 C 95.661 32.323 95.496 31.623 95.496 30.896 C 95.496 29.579 95.999 28.531 96.992 27.735 C 97.998 26.948 99.333 26.55 101.002 26.55 C 102.369 26.55 103.457 26.742 104.271 27.127 C 105.085 27.506 105.487 28.037 105.487 28.705 C 105.487 29.569 105.41 30.246 105.245 30.731 C 105.08 31.216 104.852 31.463 104.555 31.463 C 104.189 31.463 103.677 31.01 103.009 30.105 L 102.977 30.073 C 102.191 29.034 101.646 28.385 101.326 28.119 C 101.006 27.854 100.705 27.721 100.412 27.721 C 100.069 27.721 99.808 27.84 99.616 28.069 C 99.429 28.302 99.333 28.613 99.333 29.011 C 99.333 29.514 99.479 30.036 99.767 30.576 C 100.055 31.106 100.572 31.783 101.313 32.598 Z M 117.344 28.147 C 117.55 28.403 117.646 28.819 117.646 29.391 C 117.646 29.963 117.431 30.832 117.001 31.911 C 116.567 32.986 115.949 34.212 115.154 35.599 C 114.299 37.081 113.576 38.133 112.986 38.759 C 112.396 39.382 111.834 39.693 111.308 39.693 C 110.961 39.693 110.695 39.551 110.513 39.258 C 110.334 38.97 110.243 38.54 110.243 37.982 C 110.243 37.245 110.435 36.312 110.81 35.173 C 111.189 34.039 111.701 32.881 112.36 31.71 C 113.087 30.393 113.782 29.405 114.459 28.746 C 115.126 28.092 115.775 27.758 116.402 27.758 C 116.832 27.758 117.143 27.886 117.344 28.147 Z M 118.729 26.404 C 118.62 26.468 118.528 26.596 118.455 26.784 L 118.171 27.396 C 117.833 27.108 117.476 26.898 117.106 26.774 C 116.736 26.646 116.32 26.582 115.862 26.582 C 114.724 26.582 113.535 26.962 112.296 27.73 C 111.061 28.499 109.882 29.583 108.77 30.992 C 107.787 32.245 107.047 33.545 106.557 34.871 C 106.068 36.198 105.821 37.552 105.821 38.933 C 105.821 40.104 106.086 41.056 106.621 41.788 C 107.156 42.515 107.842 42.881 108.674 42.881 C 109.836 42.881 111.038 42.282 112.264 41.083 C 113.498 39.88 114.834 38.009 116.283 35.475 L 115.675 38.384 C 115.492 39.203 115.369 39.812 115.314 40.205 C 115.259 40.598 115.231 40.955 115.231 41.271 C 115.231 41.71 115.364 42.067 115.634 42.35 C 115.899 42.634 116.246 42.78 116.676 42.78 C 117.403 42.78 118.162 42.556 118.926 42.103 C 119.694 41.655 120.412 41.015 121.08 40.182 C 121.528 39.633 121.903 39.075 122.214 38.512 C 122.515 37.941 122.671 37.566 122.671 37.396 C 122.671 37.241 122.652 37.131 122.602 37.067 C 122.556 37.003 122.488 36.971 122.387 36.971 C 122.223 36.971 121.875 37.378 121.349 38.183 C 120.823 38.988 120.348 39.391 119.927 39.391 C 119.776 39.391 119.662 39.336 119.603 39.226 C 119.548 39.112 119.511 38.906 119.511 38.581 C 119.511 38.384 119.529 38.174 119.566 37.945 C 119.603 37.726 119.635 37.52 119.68 37.332 L 122.323 27.566 C 122.364 27.41 122.406 27.259 122.424 27.104 C 122.442 26.948 122.46 26.793 122.46 26.623 C 122.46 26.518 122.392 26.436 122.268 26.386 C 122.145 26.335 121.944 26.312 121.683 26.312 L 119.511 26.312 C 119.1 26.312 118.834 26.344 118.729 26.413 Z M 40.206 0.48 C 39.328 0.142 37.737 -0.174 36.681 0.11 C 35.679 0.384 34.385 0.691 33.132 1.958 C 32.328 1.747 30.969 1.587 29.941 1.757 C 28.825 1.94 28.345 2.219 28.253 2.296 C 28.162 2.379 28.066 2.859 28.285 3.111 C 28.381 3.225 28.445 3.184 28.532 3.143 C 28.688 3.06 30.325 2.575 31.651 2.813 C 31.921 2.864 32.062 2.891 32.204 2.973 L 32.181 3.138 C 30.622 5.48 29.973 7.31 29.826 9.03 C 29.579 11.912 30.398 13.641 31.18 14.679 C 32.629 16.605 34.691 17.369 36.333 17.255 C 37.627 17.163 38.446 16.733 40.092 15.558 L 40.654 12.077 L 39.863 11.971 C 38.752 14.474 36.594 15.389 35.761 15.389 C 33.978 15.389 31.582 12.795 33.338 7.164 C 33.983 5.091 34.765 3.879 34.998 3.907 C 35.428 3.952 36.534 4.675 38.395 5.091 C 39.579 5.357 40.339 5.146 41.056 4.698 C 41.683 4.305 42.136 3.724 42.186 3.065 C 42.259 2.173 41.504 0.984 40.21 0.485 Z M 39.058 3.6 C 38.103 3.481 36.507 2.813 36.264 2.621 C 36.027 2.429 36.196 2.338 36.315 2.237 C 36.863 1.926 37.055 1.546 38.628 1.569 C 40.201 1.592 40.581 2.617 40.558 2.909 C 40.535 3.243 39.872 3.701 39.054 3.6 Z M 93.325 8.971 C 93.498 7.896 93.279 6.962 92.392 6.624 C 91.656 6.34 91.015 6.258 90.33 6.313 C 89.282 6.395 88.857 6.564 87.865 6.907 L 87.504 8.714 L 88.405 8.829 L 88.83 8.01 C 89.168 7.813 89.639 7.612 89.987 7.612 C 90.334 7.612 90.897 7.813 91.089 8.092 C 91.299 8.376 91.207 8.71 91.148 9.08 L 90.974 9.506 L 90.384 9.538 C 88.757 9.538 86.85 10.238 86.617 12.228 C 86.461 13.582 87.316 14.716 88.651 14.679 C 89.726 14.652 90.746 13.714 90.746 13.714 C 91.143 14.391 91.678 14.739 92.213 14.647 C 92.588 14.583 93.402 14.336 94.39 13.627 L 93.882 12.722 C 93.828 12.735 93.311 13.033 93.261 13.033 C 92.68 13.033 92.671 12.607 92.794 11.953 L 93.315 8.961 Z M 90.581 12.424 C 90.293 12.726 89.657 13.083 89.292 13.083 C 88.807 13.083 88.61 12.575 88.688 12.081 C 88.843 11.093 90.028 10.782 90.727 10.782 L 90.846 10.782 Z M 85.332 12.09 C 84.577 13.783 83.622 14.181 83.064 14.181 C 81.861 14.181 81.633 12.177 81.985 10.393 C 82.273 8.952 83.375 6.413 84.436 6.413 C 84.724 6.413 85.346 6.276 85.606 7.401 C 85.606 7.401 85.556 8.289 85.414 8.865 L 86.077 9.025 L 86.854 6.638 C 86.347 5.714 85.35 5.014 84.532 4.982 C 83.649 4.95 82.785 5.032 81.774 6.262 C 80.563 7.731 80.169 9.245 79.968 10.398 C 79.721 11.825 80.032 13.216 80.531 14.167 C 80.983 15.045 81.834 15.604 82.78 15.672 C 83.507 15.722 84.308 15.379 85.414 14.588 L 85.963 12.209 Z M 70.142 12.301 C 69.47 13.664 68.953 13.65 68.455 13.65 C 67.38 13.65 67.092 12.067 67.449 10.407 C 67.696 9.245 68.491 7.488 69.438 7.488 C 69.694 7.488 70.133 7.292 70.361 8.197 L 70.142 9.08 L 70.855 9.387 L 71.752 7.164 C 71.043 6.532 70.316 6.212 69.625 6.212 C 68.839 6.212 67.76 6.391 67.005 7.164 C 65.894 8.312 65.574 9.561 65.396 10.489 C 65.176 11.637 65.451 12.758 65.894 13.522 C 66.297 14.227 67.115 14.638 67.956 14.689 C 68.61 14.73 69.456 14.561 70.133 14.414 L 70.613 12.443 L 70.133 12.301 Z M 45.67 3.147 L 42.826 3.166 L 42.698 3.888 L 43.324 4.058 L 41.637 14.378 L 43.731 14.378 L 44.669 9.195 C 44.756 7.818 45.519 7.9 45.912 7.9 C 46.04 7.9 46.338 7.978 46.383 8.138 C 46.438 8.326 46.443 8.76 46.402 8.993 L 45.83 12.287 C 45.83 12.287 45.501 14.483 47.238 14.67 C 47.622 14.711 48.409 14.647 49.314 13.572 L 48.981 12.877 C 48.981 12.877 48.578 13.17 48.267 13.097 C 47.956 13.024 47.888 12.831 47.965 12.314 C 48.103 11.413 48.473 9.222 48.473 9.222 C 48.619 8.435 48.702 7.781 48.432 7.214 C 48.208 6.734 47.837 6.432 47.412 6.381 C 46.548 6.281 45.524 6.514 45.085 6.866 L 45.675 3.152 Z" fill="hsl(0, 0.00%, 0.00%)"></path><path d="M 60.86 6.34 L 58.304 6.34 L 58.135 7.104 L 58.761 7.273 L 58.5 8.664 L 57.568 14.378 L 59.758 14.378 L 60.485 9.067 C 60.622 8.001 61.445 7.9 61.843 7.9 C 61.971 7.9 62.268 7.978 62.314 8.138 C 62.373 8.326 62.46 8.769 62.414 9.003 L 61.98 11.756 L 61.747 13.348 C 61.747 13.348 61.313 15.288 62.876 16.235 C 63.704 16.738 64.865 16.898 66.164 15.741 L 65.826 15.045 C 65.826 15.045 65.085 15.567 64.504 15.375 C 64.202 15.274 63.507 14.844 63.741 13.522 C 63.901 12.621 64.399 9.222 64.399 9.222 C 64.545 8.435 64.623 7.781 64.358 7.214 C 64.134 6.734 63.759 6.432 63.338 6.381 C 62.474 6.281 62.081 6.217 60.892 6.976 L 60.823 6.848 L 60.86 6.345 Z M 78.441 8.971 C 78.615 7.896 78.395 6.962 77.508 6.624 C 76.772 6.34 76.132 6.258 75.446 6.313 C 74.399 6.395 73.978 6.564 72.986 6.907 L 72.62 8.714 L 73.526 8.829 L 73.951 8.01 C 74.294 7.813 74.76 7.612 75.108 7.612 C 75.455 7.612 76.018 7.813 76.214 8.092 C 76.425 8.376 76.329 8.71 76.269 9.08 L 76.095 9.506 L 75.506 9.538 C 73.882 9.538 71.971 10.238 71.738 12.228 C 71.582 13.582 72.437 14.716 73.777 14.679 C 74.852 14.652 75.867 13.714 75.867 13.714 C 76.265 14.391 76.8 14.739 77.339 14.647 C 77.709 14.583 78.528 14.336 79.516 13.627 L 79.008 12.722 C 78.953 12.735 78.441 13.033 78.386 13.033 C 77.81 13.033 77.796 12.607 77.92 11.953 L 78.441 8.961 Z M 75.698 12.424 C 75.41 12.726 74.769 13.083 74.408 13.083 C 73.928 13.083 73.727 12.575 73.805 12.081 C 73.965 11.093 75.144 10.782 75.844 10.782 L 75.963 10.782 Z M 56.31 8.971 C 56.484 7.896 56.264 6.962 55.377 6.624 C 54.641 6.34 53.997 6.258 53.315 6.313 C 52.268 6.395 51.847 6.564 50.855 6.907 L 50.489 8.714 L 51.39 8.829 L 51.815 8.01 C 52.154 7.813 52.625 7.612 52.972 7.612 C 53.32 7.612 53.882 7.813 54.079 8.092 C 54.289 8.376 54.193 8.71 54.134 9.08 L 53.96 9.506 L 53.375 9.538 C 51.747 9.538 49.836 10.238 49.607 12.228 C 49.451 13.582 50.307 14.716 51.646 14.679 C 52.721 14.652 53.74 13.714 53.74 13.714 C 54.138 14.391 54.673 14.739 55.208 14.647 C 55.579 14.583 56.397 14.336 57.385 13.627 L 56.873 12.722 C 56.818 12.735 56.306 13.033 56.251 13.033 C 55.675 13.033 55.661 12.607 55.784 11.953 L 56.306 8.961 Z M 53.567 12.424 C 53.279 12.726 52.643 13.083 52.277 13.083 C 51.793 13.083 51.591 12.575 51.674 12.081 C 51.834 11.093 53.009 10.782 53.708 10.782 L 53.832 10.782 Z" fill="hsl(0, 0.00%, 0.00%)"></path></svg>