<?xml version="1.0" encoding="UTF-8"?>
<svg id="Layer_2" data-name="Layer 2" xmlns="http://www.w3.org/2000/svg" xmlns:xlink="http://www.w3.org/1999/xlink" viewBox="0 0 553 271.83">
  <defs>
    <style>
      .cls-1 {
        fill: #ffeb00;
      }

      .cls-2 {
        stroke: #5c3327;
        stroke-miterlimit: 10;
        stroke-width: .81px;
      }

      .cls-2, .cls-3 {
        fill: #5c3327;
      }

      .cls-4 {
        stroke: #fff;
        stroke-linecap: round;
        stroke-linejoin: round;
        stroke-width: 4.85px;
      }

      .cls-4, .cls-5 {
        fill: #fff;
      }

      .cls-5 {
        filter: url(#drop-shadow-1);
      }
    </style>
    <filter id="drop-shadow-1" x="0" y="103.83" width="553" height="168" filterUnits="userSpaceOnUse">
      <feOffset dx="1.93" dy="0"/>
      <feGaussianBlur result="blur" stdDeviation="5.79"/>
      <feFlood flood-color="#5c3327" flood-opacity=".98"/>
      <feComposite in2="blur" operator="in"/>
      <feComposite in="SourceGraphic"/>
    </filter>
  </defs>
  <g id="Capa_12" data-name="Capa 12">
    <g>
      <g>
        <g id="_7" data-name="7">
          <path class="cls-1" d="M476.87,241.63c1.03-1.23,2.23-2.77,3.53-4.58,2.91-4.04,12.39-7.41,16.71-14.17,4.33-6.75,4.42-12.25,4.32-15.38-.11-3.13-1.07-21.31-1.79-27.1-.72-5.79-3.72-7.02-3.72-7.02,0,0-4.5-2.84-6.73-4.11-2.23-1.26-2.58-2.32-6.94,1.63-3.32,3-18.79,15.42-25.49,20.77l12-36.74c1.38-2.53,3.02-7.38,4.45-8.64,3-2.63,22.54-19.93,25.92-22.82,3.37-2.88,6.49-7.26,8.78-4.12,2.3,3.15,5.96,7.5,8.37,9.69,2.41,2.18,6.96,5.84,10.75,9.23,3.78,3.39,5.92,4.87,6.69,5.13.77.27,4.78,2.51.9-2.25-3.89-4.77-12.69-17.61-13.78-19.66-1.09-2.06-6.33-11.14-6.98-12.37-.65-1.23-5.87-5.34-9.18-3.72-3.31,1.63-11.45,6.98-16.48,10.29-4.04,2.66-7.72,5.73-11.1,7.69l9.92-34.84c2.9-3.68,7.84-9.61,11.53-12.12,5.54-3.77,8.49-5.58,9.64-5.54,1.15.04,2.59.28,3.3,1.33.71,1.05,1.45,2.61,1.6,4.3.16,1.7,1.63,10.6,5.74,18.95,4.09,8.35,8.44,14.91,9.38,15.57.95.65,3.51,1.12,1.96-1.94-1.77-3.47-4.11-9.57-5.55-14.27-1.13-3.68-4.1-14.8-5.35-20.63-1.25-5.82-.65-10.56-3.97-12.85-3.32-2.28-4.19-3.18-7.57-3.44-3.37-.26-4.97,1.16-8.95,3.3-1.68.9-3.33,1.81-4.7,2.57l9.16-32.17s4.1-.81,6.22-7.44c1.4-4.38.12-8.75-.3-12.72-.46-4.38.15-9.86.15-9.86,0,0,.27-1.66-2.15-.21-2.42,1.45-8.28,9.95-11.41,16.82-2.4,5.27,1.58,10.46,1.58,10.46l-11.77,36.92c-1.7-4.29-5.88-14.76-7.33-17.3-1.82-3.22-3.6-6.22-5.11-6.8-1.92-.74-6.56-1.58-11.19-.49-1.42.33-33.12,23.32-36.63,24.82-5.98,2.54-10.89,5.25-23.02,4.38-1.62-.12-.75,1.57-1.09,2.63,8.7,1.08,19.62-.06,23.55-.73,3.92-.67,11.98-4.04,23.46-10.28,11.49-6.24,16.74-8.44,18.28-8.5,1.54-.06,2.66,1.44,3.93,3.56,1.37,2.31,6.42,10.97,7.1,22.6.34,5.73-.17,10.48-.77,13.8l-9.98,31.32c-2.95-7.77-9.74-18.59-15.64-24.13-7.17-6.73-13.95-2.67-18.32-.84-4.38,1.82-17.96,11.49-22.53,14.89-4.56,3.4-7.01,3.05-12.62,4.49-5.61,1.44-7.8,2.97-10.38,5.17-2.58,2.2-2.11,2.45-.03,1.78,2.08-.67,8.33-1.43,10.7-1.67,2.38-.23,6.14-.13,11.73-.49,5.59-.36,6.26-2.16,8.66-3.71,2.4-1.54,12.49-8.31,15.37-9.6,2.87-1.29,5.57-2.75,10.5-1.34,2.32.67,5.41,3.22,9.42,10.85,4.9,9.36,6.73,17.12,7.5,21.87l-12.63,37.54c-5.07-8.71-12.67-25.97-17.57-31.84-3.5-4.19-5.45-2.93-8.44-2.49-2.99.43-7.19,2.01-10.32,5.14-3.14,3.13-12.4,10.64-16.01,13.73-3.6,3.09-19.34,11.41-22.46,12.88-3.13,1.47-1.78,2.11.4,2.22,2.16.11,17.12-2.39,23.3-4.79,6.18-2.4,21.23-12.92,24.83-15.16,3.6-2.24,3.98.8,3.98.8,0,0,1.05,3.22,1.68,5.05.64,1.83,6.17,20.66,9.86,34.32,1.25,4.6,1.55,7.22-.14,13.81l-7.13,12.99,11.83,3.46,7.68-10.92c2.06-5.3,10.44-12.66,14.71-15.64,4.54-3.15,14.13-12.59,19.03-16.23,4.17-3.11,4.82.53,5.74,3.11.92,2.58,2.02,6.13,3.21,15.3,1.19,9.16-.16,9.33-2.14,15.49-1.82,5.66-12.77,14.82-16.07,20.47l2.4.56Z"/>
          <path class="cls-2" d="M502.97,57.78c-3.98,1.92-7.48,2.1-9.93,6.17-4.76,7.88-5.55,13.84-6.91,22.99,3.61-5.97,7.56-7.69,12.71-12.05,2.86-2.48,4.56-5.31,8.09-5.69,3.12-.35,4.89,2.17,8.05,2.08l-5.48-3.78c-3.28-2.26-6.21-.48-10.08,0l-1.64-1.14c1.58-3.58,3.14-5.21,5.18-8.57Z"/>
          <path class="cls-2" d="M505.26,105.32c-13.53,3.46-19.49,11.4-30.89,20.33l-13.66,49.56c3.47-10.08,2.57-17.08,8.03-26.12,6.2-10.26,13.36-13.12,19.56-23.38,1.61-2.68,5.02.53,7.52-.89,4.92-2.68,6.88-6.1,11.96-8.24-6.36-1.67-10.37,3.37-16.87,2.24.56-1.24.56-2.21,1.3-3.44,3.42-5.66,7.73-6.7,13.06-10.07Z"/>
          <path class="cls-2" d="M496.42,176.22l-3.75-3.32c-3.51,8.54-4.73,12.22-4.73,12.22,4.95,5.4,5.61,11.38,5.61,11.38,7.3,17.25-15.79,41.9-15.79,41.9.7-1.79,23.52-19.03,20.74-42.53.77,2.91,1.87-9.99-2.09-19.65Z"/>
          <path class="cls-2" d="M422.04,144.22c-10.88,3.89-15.06,11.3-24.47,18.69-8.84,6.92-15.78,7.33-24.82,14.12l1.65,1.13c12.05-4.05,20.04-3.97,31.21-10.58,7.26-4.32,12.52-14.78,19.3-10.11,3.08,2.12,2.19,5.84,3.61,9.42,2.73,6.87,3.6,11.37,7.04,17.86,1.3-1.82,2.19-2.83,3.51-4.53-2.05-2.06.05-6.03-2.34-7.68-.61-.42-1.21.9-1.83.47-6.16-4.25-3.92-13.1-10.07-17.35-6.85-4.72-12.91,5.96-21.01,4.6l2.22-3.67c6.57-4.15,9.44-8.24,16.01-12.38Z"/>
          <path class="cls-2" d="M443.67,202.1l-5.88-16.83c6.3,17.52-3.32,24.05-6.61,40.41,1.27-1.61,1.5-.08,3.33.43,1.26-3.69.08,7.74,2.07,4.45.37-.62,1.28.45,1.65-.17,4.76-7.88,2.69-14.73,7.46-22.61.74-1.23-.77-2.26-2.02-5.68Z"/>
          <path class="cls-2" d="M461.23,54.09c2.45-.84,5.1-1.53,8.02-1.97,5.93,15.48,7.89,38.96,2.29,55.11-2.63,7.4-1.54,12.82-5.6,19.55-.74,1.23-2.3,1.88-3.4,1.13-2.6-1.79-2.86-4.58-5.45-6.37-2.81-1.93-6.4-14.44-6.4-14.44l-.79,5.33c4.6,9.24,11.73,15.72,11.94,26.28.06,5.03-2.74,7.75-4.47,12.53-2.35,6.62-2.56,10.81-5.04,17.33l.12.09c-3.96,12.61-9.32,28.07-11.87,37.44l1.58,1.51c-3.67,11.34-7.91,9.53-10.08,17.56l3.38,3.25c-.25-.63-.54-1.09-.98-1.57.66-.13,1.05-.22,1.73-.16-.45-.72-.8-1.13-1.39-1.64.65-.11,1.05-.22,1.73-.16-.21-.85-.44,12.99-.89,12.27.65-.12,1.05-.22,1.72-.16-.35-.41-.65-.75-1.06-1.12.39-.4.85-.61,1.4-.69,0-.57-.68-.88-.57-1.5.09-.5.89-.25.99-.76.1-.5-.47-.6-.66-1.04.51-.14.8-.26,1.32-.23-.19-.68-.53-1.15-.98-1.57.61-.42,1.13-.61,1.81-.61,0-.59-.68-.88-.56-1.5.09-.51.9-.25.99-.75.09-.52-.47-.61-.65-1.05.51-.14.79-.26,1.32-.23-.35-.41-.65-.75-1.06-1.12.84-.49,1.42-.8,2.31-.98-.76-.48-1.25-.98-1.8-1.72.8-.03,1.33-.05,2.14-.09-.34-.4-.65-.75-1.06-1.11.51-.15.8-.26,1.32-.23l.6-3.15c-.04-.35-2.2.15-2.13-.24.09-.46,2.25-.44,2.34-.88.12-.62-.68-.88-.57-1.5.11-.56.91-.3,1.36-.46-.4-.42-.66-.7-1.07-1.12.39-.4.86-.6,1.4-.68-.18-.44-.35-.7-.65-1.05.39-.39.86-.61,1.4-.68-.18-.44-.35-.7-.65-1.05.32-.34.64-.61,1-.84l.57.56c-.11-.26-.22-.48-.34-.7.08-.05.16-.1.26-.14-.28-.29-.48-.52-.73-.77.56-.1.95-.18,1.56-.13-.25-.4-.48-.71-.73-1-.08-.25-.18-.48-.3-.71.46-.08.82-.14,1.37-.09-.08-.34-.17-.61-.27-.85.07,0,.13,0,.19,0-.2-.44-.45-.81-.71-1.2.6-.11.99-.2,1.62-.14-.23-.28-.45-.53-.7-.78.19-.04.4-.07.62-.07-.15-.24-.36-.43-.56-.61.29-.18.61-.31.97-.35,0-.47-.45-.76-.55-1.18.19-.03.39-.06.56-.11-.08-.2-.16-.37-.26-.52.27-.1.61-.11.68-.44.05-.27-.09-.43-.26-.58.32-.12.61-.26.67-.64,0-.02,0-.04,0-.06.08,0,.16,0,.25,0-.16-.59-.45-1.01-.81-1.39.04-.14.08-.25.14-.37.48-.28.94-.42,1.5-.42,0-.36-.25-.6-.42-.88.25-.29.46-.63.55-1.06.15-.05.26-.13.3-.31.1-.51-.47-.6-.65-1.05.5-.14.8-.26,1.32-.23-.35-.41-.65-.76-1.06-1.12.83-.49,1.42-.79,2.31-.98-.76-.48-1.25-.98-1.8-1.72.8-.03,1.34-.05,2.14-.08-.35-.41-.65-.76-1.06-1.12.5-.14.79-.26,1.32-.23l.6-3.15c-.04-.36-2.2.15-2.13-.24.08-.45,2.26-.43,2.34-.89.12-.62-.68-.88-.56-1.5.11-.56.91-.31,1.36-.45-.4-.42-.66-.7-1.06-1.12.39-.4.86-.6,1.4-.68-.18-.44-.35-.7-.65-1.04.39-.4.86-.61,1.4-.68-.18-.44-.35-.7-.65-1.04.47-.5.9-.83,1.49-1.13-.4-.43-.66-.7-1.06-1.13.5-.14.79-.26,1.32-.23-.21-.85-.45-1.3-.89-2.02.66-.12,1.05-.22,1.73-.16-.26-.57-.6-1.04-.98-1.58.61-.41,1.13-.61,1.81-.6-.37-.59-1.12-.84-.98-1.58.11-.61.9-.53,1.4-.68-.18-.44-.34-.71-.65-1.05.37-.57,1.35-.4,1.49-1.13.07-.4-.34-.6-.53-.9l.31.29c-.11-.28-.23-.52-.37-.75.09-.4.3-.72.53-.99.18,0,.37,0,.59.02-.09-.14-.17-.27-.25-.39.4-.42.82-.83.94-1.5h-.37c-.2-.8-.44-1.25-.87-1.95.66-.11,1.05-.22,1.73-.16-.35-.41-.65-.76-1.06-1.12.39-.39.86-.6,1.4-.68,0-.58-.68-.88-.57-1.5.09-.51.9-.25.99-.76.09-.51-.47-.61-.65-1.05.5-.14.8-.27,1.32-.23-.19-.67-.53-1.14-.98-1.58.61-.41,1.13-.61,1.82-.6,0-.59-.68-.88-.57-1.5.1-.51.89-.24.99-.75.1-.51-.47-.61-.65-1.05.5-.14.79-.27,1.32-.23-.35-.41-.65-.76-1.06-1.12.83-.49,1.42-.79,2.31-.99-.76-.48-1.25-.98-1.79-1.72.8-.03,1.33-.05,2.14-.08-.35-.41-.66-.75-1.07-1.12.5-.14.79-.26,1.32-.22l.59-3.16c-.02-.24-1-.09-1.63-.08l.15-.5c.67-.16,1.63-.25,1.68-.54.12-.62-.68-.89-.56-1.5.1-.56.91-.3,1.36-.46-.4-.42-.66-.7-1.06-1.12.39-.4.86-.61,1.4-.69-.18-.43-.34-.69-.65-1.04.4-.4.86-.6,1.4-.68-.18-.44-.34-.7-.65-1.05.46-.5.9-.82,1.49-1.13-.4-.42-.67-.7-1.07-1.12.51-.14.8-.27,1.32-.23-.21-.85-.44-1.3-.89-2.02.66-.11,1.05-.22,1.73-.15-.26-.57-.6-1.04-.98-1.57.61-.42,1.12-.61,1.81-.61-.37-.59-1.11-.84-.98-1.57.11-.61.89-.54,1.4-.68-.19-.44-.35-.7-.65-1.05.37-.57,1.35-.39,1.49-1.13.1-.56-.72-.71-.61-1.27.14-.73.62-1.16,1.06-1.62l.26.25c-.05-.13-.11-.24-.16-.36.3-.33.58-.69.67-1.21l-1.42-.02c.61-.11,1-.2,1.65-.15-.45-.72-.8-1.13-1.39-1.64.66-.11,1.05-.22,1.73-.16-.21-.85-.44-1.3-.89-2.02.66-.12,1.05-.22,1.73-.16-.34-.41-.65-.76-1.06-1.12.39-.4.86-.61,1.4-.68,0-.58-.68-.87-.56-1.5.09-.5.89-.25.99-.75.09-.51-.47-.61-.65-1.05.51-.14.79-.26,1.32-.23-.19-.67-.53-1.14-.98-1.57.61-.41,1.12-.61,1.81-.6,0-.59-.68-.88-.56-1.51.09-.5.89-.24.99-.75.1-.51-.47-.6-.65-1.04.5-.14.79-.27,1.32-.23-.35-.41-.66-.76-1.06-1.12.83-.49,1.42-.79,2.31-.98-.76-.49-1.25-.98-1.8-1.72.8-.04,1.33-.06,2.14-.09-.35-.41-.65-.76-1.07-1.12.51-.14.79-.27,1.32-.23l.59-3.15c-.03-.26-1.16-.06-1.76-.08l.14-.45c.67-.18,1.78-.27,1.84-.59.11-.62-.68-.88-.57-1.5.11-.56.9-.31,1.36-.46-.4-.42-.67-.7-1.07-1.12.4-.4.86-.6,1.4-.68-.18-.44-.35-.7-.65-1.05.39-.4.86-.6,1.4-.68-.18-.45-.35-.71-.65-1.05.46-.5.9-.83,1.49-1.13-.4-.42-.67-.7-1.06-1.12.5-.14.79-.27,1.32-.23-.21-.85-.44-1.3-.9-2.02.66-.11,1.05-.22,1.73-.16-.27-.57-.6-1.04-.98-1.57.61-.41,1.12-.62,1.81-.61-.36-.6-1.12-.84-.98-1.58.07-.36.37-.48.7-.55l.75.72c-.12-.29-.25-.54-.39-.78.12-.02.23-.04.33-.07-.14-.33-.27-.57-.45-.81.4-.07.75-.12,1.25-.07-.18-.28-.34-.52-.5-.73.26-.11.48-.26.54-.58.04-.22-.06-.38-.19-.52.15,0,.31,0,.5.02-.16-.65-.33-1.06-.6-1.53.15-.23.34-.44.53-.63.28-.03.55-.05.9-.01-.15-.18-.29-.34-.43-.5.23-.29.43-.61.51-1.03h-.58c.26-.14.54-.23.84-.28,0-.58-.68-.89-.57-1.5.1-.51.89-.25.99-.76.1-.5-.46-.6-.65-1.05.5-.14.79-.26,1.32-.23-.19-.67-.53-1.14-.98-1.57.61-.42,1.12-.62,1.81-.61,0-.58-.68-.88-.57-1.5.1-.51.89-.24.99-.76.09-.5-.47-.6-.65-1.04.51-.14.8-.27,1.32-.23-.35-.42-.65-.76-1.07-1.13.84-.49,1.42-.79,2.31-.98-.75-.48-1.24-.98-1.8-1.72.8-.03,1.34-.05,2.14-.08-.35-.41-.65-.75-1.06-1.12.51-.15.79-.27,1.32-.23l.59-3.15c-.04-.34-2,.11-2.12-.19l.04-.14c.33-.36,2.21-.38,2.29-.79.05-.24-.05-.43-.17-.6,0,0,0-.01,0-.02.24-.4.05-.81-.11-1.2.3-.11.76-.03,1.07-.14-.38-.4-.64-.68-1.02-1.07.45-.45,1.26.14,1.73-.34-.26-.58-.46-1.17-.59-1.77.29-.18.61-.3.97-.35-.18-.43-.34-.7-.65-1.04.47-.5.9-.83,1.49-1.13-.4-.42-.66-.7-1.06-1.12.5-.14.79-.26,1.31-.23-.2-.81-.42-1.26-.83-1.92.02-.04.04-.08.06-.12.58-.11.97-.19,1.61-.13-.26-.57-.6-1.03-.97-1.57,0,0,0,0,0-.01.6-.41,1.11-.61,1.8-.6-.37-.6-1.11-.84-.97-1.58.12-.62.89-.54,1.4-.68-.18-.44-.34-.7-.66-1.05.38-.57,1.35-.4,1.49-1.13.1-.56-.72-.71-.61-1.27.25-1.3,1.58-1.64,1.82-2.93l-2.12-.04c-.07-.56-.06-1.12.29-1.7.51-.84,1.7-.24,2.21-1.08,1.48-2.45-2.02-4.53-1.06-7.24,2.37-6.82,4.91-10.7,5.42-17.94-1.38,1-2.39,1.39-3.32,2.92l-7.4,12.24c-2.03,3.37.65,6.3.86,10.13.34,5.95-2.46,9.8-2.98,15.18-1,3.11-2.05,6.31-3.09,9.48-.81,1-1.65,2.06-2.34,3.36-3.15,5.85-3.93,9.87-5.22,16.35-1.79.07-3.16.42-4.67-.62-1.92-1.32-6.17-23.52-8.61-21.84l-11.03-.65c-1.72-3.07,2.54-4.58,3.58-6.78-10.6,4.07-14.85,10.47-24.28,17.08-8.9,6.23-9.01,8.59-19.41,11.76l1.57,2.37c15.95-1.36,23.83-10.27,35.69-15.81l4.72-1.92Z"/>
        </g>
        <g id="_7-2" data-name="7">
          <path class="cls-1" d="M438.27,210.92l1.44-38.62c.63-2.81.87-7.93,1.9-9.53,2.16-3.35,16.19-25.35,18.64-29.06,2.45-3.7,4.24-8.77,7.32-6.38,3.07,2.39,7.8,5.57,10.72,7.01,2.92,1.43,8.3,3.7,12.87,5.92,4.57,2.23,7.03,3.05,7.84,3.1.82.05,5.29,1.1.24-2.41-5.05-3.51-17.04-13.44-18.65-15.12-1.61-1.68-9.15-8.97-10.11-9.98-.97-1-7.11-3.53-9.85-1.05-2.74,2.48-9.08,9.86-13.01,14.42-3.15,3.67-5.85,7.63-8.56,10.45l-.04-36.22c1.77-4.34,4.9-11.4,7.76-14.83,4.29-5.15,6.62-7.7,7.74-7.97,1.11-.28,2.57-.44,3.53.38.97.81,2.11,2.11,2.73,3.68.62,1.59,4.48,9.74,10.72,16.64,6.23,6.91,12.21,12.02,13.3,12.39,1.09.37,3.69.11,1.35-2.4-2.65-2.85-6.58-8.07-9.26-12.19-2.1-3.23-8.01-13.1-10.82-18.36-2.81-5.25-3.53-9.97-7.35-11.26-3.82-1.28-4.9-1.91-8.22-1.23-3.31.68-4.46,2.48-7.7,5.63-1.37,1.33-2.71,2.66-3.81,3.77l-.03-33.45s3.72-1.9,3.93-8.86c.14-4.59-2.28-8.45-3.78-12.14-1.65-4.08-2.56-9.52-2.56-9.52,0,0-.19-1.67-2.13.39-1.93,2.06-5.22,11.84-6.34,19.31-.86,5.73,4.4,9.62,4.4,9.62l-1.17,38.73c-2.81-3.66-9.71-12.57-11.8-14.61-2.64-2.6-5.17-4.99-6.79-5.14-2.05-.18-6.73.29-10.89,2.6-1.27.71-25.43,31.53-28.4,33.93-5.05,4.09-9.03,8.04-20.93,10.55-1.6.33-.29,1.71-.32,2.82,8.66-1.35,18.85-5.45,22.44-7.18,3.59-1.72,10.4-7.18,19.73-16.33,9.33-9.16,13.77-12.72,15.24-13.2,1.47-.48,2.95.66,4.75,2.34,1.96,1.84,9.19,8.78,13.04,19.78,1.9,5.42,2.72,10.12,3.05,13.48l-.99,32.86c-4.97-6.66-14.47-15.19-21.67-18.91-8.74-4.5-14.14,1.27-17.85,4.23-3.71,2.95-14.11,15.98-17.57,20.5-3.45,4.52-5.9,4.85-10.89,7.78-5.01,2.92-6.68,5-8.56,7.82-1.88,2.82-1.36,2.94.46,1.72,1.81-1.22,7.61-3.67,9.83-4.55,2.22-.88,5.87-1.82,11.15-3.7,5.28-1.88,5.42-3.8,7.3-5.95,1.89-2.14,9.72-11.43,12.13-13.46,2.41-2.03,4.6-4.17,9.73-4.17,2.41,0,6.09,1.6,12.04,7.85,7.28,7.65,11.18,14.6,13.23,18.96l-1.82,39.57c-7.26-6.98-19.33-21.49-25.65-25.79-4.52-3.07-6.04-1.31-8.8-.07-2.76,1.24-6.35,3.9-8.51,7.78-2.15,3.87-9,13.64-11.61,17.6-2.61,3.96-15.46,16.28-18.05,18.56-2.6,2.28-1.13,2.51.99,2.02,2.11-.49,15.8-7.01,21.09-11.02,5.28-4,16.86-18.25,19.7-21.39,2.85-3.14,4.05-.32,4.05-.32,0,0,1.9,2.8,3,4.39,1.12,1.58,11.61,18.17,18.92,30.29,2.47,4.08,3.47,6.52,3.66,13.32l-1.6.45,14.27-.71.74-12.13-.89-13.41Z"/>
          <path class="cls-2" d="M445.88,69.46c-3.3,2.94-6.62,4.08-7.86,8.66-2.41,8.89-1.53,14.83-.32,24,1.83-6.73,5.15-9.48,8.91-15.08,2.06-3.17,2.93-6.36,6.22-7.7,2.9-1.19,5.3.74,8.31-.22l-6.3-2.13c-3.78-1.27-6.1,1.25-9.69,2.77l-1.89-.64c.53-3.87,1.59-5.87,2.62-9.67Z"/>
          <path class="cls-2" d="M461.16,114.54c-12.06,7.05-15.6,16.32-24.12,28.04l.49,51.4c.57-10.64-2.22-17.13.54-27.32,3.14-11.57,9.23-16.29,12.37-27.86.82-3.02,4.97-.87,6.99-2.92,3.99-3.93,4.94-7.75,9.23-11.2-6.58.14-9.05,6.09-15.61,6.8.19-1.35-.07-2.28.31-3.66,1.74-6.38,5.59-8.57,9.79-13.28Z"/>
          <path class="cls-2" d="M391.83,174.82c-9.39,6.73-11.38,15.01-18.39,24.69-6.59,9.08-13.15,11.39-19.98,20.4l1.89.63c10.47-7.21,18.18-9.32,27.1-18.75,5.8-6.15,7.97-17.66,15.77-15.03,3.54,1.19,3.7,5.01,6.06,8.07,4.52,5.85,6.58,9.94,11.68,15.23.74-2.1,1.33-3.32,2.13-5.31-2.54-1.41-1.6-5.81-4.37-6.73-.7-.24-.92,1.19-1.63.95-7.09-2.39-7.37-11.52-14.45-13.91-7.88-2.65-10.77,9.28-18.93,10.2l1.13-4.14c5.18-5.79,6.81-10.52,11.99-16.31Z"/>
          <path class="cls-2" d="M429.55,239.53c.18-.7,1.35.08,1.54-.61,2.41-8.89-1.46-.6.96-9.49.37-1.38-1.36-1.97-3.5-4.9l-10.28-14.57"/>
          <path class="cls-2" d="M431.71,241.39c-.05-.51-.62-.45-.92-.82.45-.27.69-.47,1.21-.58-.37-.6-.83-.95-1.38-1.24.47-.57.91-.9,1.58-1.08-.16-.56-.9-.66-.96-1.28-.05-.51.8-.49.75-.99-.05-.52-.62-.46-.91-.83.44-.27.69-.47,1.2-.58-.45-.3-.83-.54-1.33-.78.67-.7,1.15-1.16,1.95-1.58-.87-.26-1.47-.6-2.21-1.16.77-.25,1.27-.42,2.04-.67-.44-.29-.84-.54-1.33-.78.45-.28.69-.48,1.2-.58l-.29-3.2c-.14-.33-2.07.75-2.11.36-.04-.46,2.05-1.04,2.01-1.5-.06-.63-.9,13.64-.96,13.01-.05-.57.79-.54,1.18-.81-.5-.29-.83-.49-1.33-.78.27-.49.66-.81,1.16-1.04-.3-.37-.53-.58-.92-.83.27-.49.66-.82,1.16-1.04-.3-.37-.53-.58-.92-.83.21-.42.45-.76.72-1.08l.71.38c-.17-.22-.35-.41-.52-.58.07-.07.13-.14.21-.21-.34-.2-.61-.36-.91-.54.51-.25.86-.43,1.46-.55-.35-.32-.66-.55-.97-.76-.15-.22-.31-.42-.48-.6.42-.21.76-.36,1.29-.46-.17-.3-.33-.54-.5-.75.06-.02.13-.03.19-.04-.31-.36-.65-.65-1.02-.96.55-.26.89-.46,1.53-.58-.3-.21-.58-.39-.89-.56.18-.09.37-.17.58-.23-.21-.19-.47-.31-.7-.43.23-.26.5-.46.84-.61-.13-.45-.64-.61-.86-.99.18-.09.36-.16.51-.26-.14-.17-.26-.31-.39-.43.23-.17.56-.27.53-.61-.02-.27-.21-.39-.41-.49.27-.2.51-.41.48-.8,0-.02-.01-.04-.01-.05.08-.02.15-.05.24-.07-.32-.52-.71-.84-1.17-1.11,0-.14.01-.27.04-.39.39-.4.78-.67,1.33-.81-.1-.35-.41-.51-.65-.74.16-.35.27-.73.24-1.16.12-.09.22-.2.2-.38-.05-.52-.62-.45-.92-.83.45-.28.7-.47,1.2-.58-.45-.3-.84-.55-1.33-.79.67-.7,1.15-1.15,1.95-1.58-.86-.26-1.47-.6-2.2-1.17.76-.25,1.27-.41,2.03-.66-.44-.3-.84-.55-1.33-.79.44-.27.69-.47,1.2-.59l-.29-3.19c-.13-.33-2.07.75-2.11.35-.04-.45,2.05-1.04,2-1.49-.06-.63-.9-.66-.95-1.29-.06-.57.79-.55,1.18-.81-.5-.29-.83-.49-1.33-.79.27-.48.66-.82,1.16-1.04-.3-.37-.53-.58-.91-.82.27-.49.65-.82,1.16-1.04-.3-.38-.53-.58-.92-.83.31-.61.64-1.05,1.12-1.5-.5-.3-.83-.49-1.33-.79.44-.27.69-.47,1.21-.58-.44-.76-.79-1.12-1.41-1.7.6-.29.95-.5,1.62-.62-.41-.48-.86-.83-1.37-1.25.47-.56.91-.9,1.58-1.08-.52-.47-1.3-.51-1.38-1.25-.05-.62.72-.76,1.17-1.04-.3-.38-.53-.58-.92-.83.2-.66,1.19-.76,1.12-1.5-.04-.42-.49-.49-.75-.72l.37.2c-.18-.23-.37-.44-.56-.62-.02-.41.09-.77.23-1.1.17-.06.35-.11.57-.15-.13-.11-.23-.21-.35-.3.27-.51.56-1.02.49-1.7l-.36.1c-.42-.72-.77-1.08-1.37-1.63.61-.29.95-.5,1.62-.62-.45-.3-.84-.55-1.33-.79.27-.48.66-.81,1.16-1.04-.16-.56-.9-.66-.96-1.28-.05-.51.79-.48.74-1-.05-.51-.62-.46-.91-.83.45-.27.69-.47,1.2-.58-.37-.6-.82-.96-1.38-1.24.48-.57.91-.9,1.58-1.08-.16-.56-.9-.66-.96-1.29-.05-.52.79-.48.75-.99-.05-.52-.62-.46-.92-.83.45-.28.69-.47,1.21-.58-.45-.3-.83-.55-1.33-.78.67-.7,1.15-1.15,1.95-1.58-.86-.26-1.47-.6-2.2-1.16.76-.25,1.27-.41,2.03-.66-.45-.3-.84-.54-1.33-.79.45-.27.69-.47,1.21-.58l-.29-3.2c-.09-.23-.99.19-1.59.37v-.52c.61-.33,1.51-.69,1.48-.99-.06-.63-.9-.66-.95-1.29-.06-.57.79-.54,1.18-.81-.5-.3-.83-.49-1.33-.78.26-.49.65-.82,1.16-1.05-.3-.37-.52-.57-.92-.82.27-.49.66-.81,1.16-1.04-.3-.37-.52-.58-.91-.83.31-.6.63-1.04,1.12-1.5-.5-.3-.83-.49-1.33-.79.45-.28.69-.47,1.21-.58-.44-.77-.78-1.13-1.42-1.7.6-.29.95-.5,1.62-.62-.41-.48-.86-.84-1.37-1.24.47-.57.91-.89,1.57-1.09-.52-.46-1.3-.5-1.37-1.24-.06-.63.71-.77,1.16-1.04-.29-.37-.52-.58-.91-.83.2-.65,1.19-.75,1.12-1.5-.06-.57-.89-.49-.94-1.06-.07-.74.28-1.28.57-1.84l.32.16c-.08-.11-.17-.2-.25-.3.2-.4.36-.82.31-1.34l-1.37.37c.56-.27.9-.47,1.55-.59-.63-.57-1.08-.87-1.79-1.2.6-.29.95-.5,1.62-.63-.44-.76-.78-1.12-1.41-1.7.6-.29.95-.5,1.62-.63-.44-.3-.83-.55-1.33-.79.27-.49.66-.82,1.16-1.04-.16-.56-.9-.66-.96-1.28-.05-.51.79-.48.75-1-.05-.52-.62-.46-.92-.83.44-.28.69-.47,1.2-.58-.37-.59-.82-.95-1.37-1.24.47-.56.91-.89,1.57-1.07-.16-.56-.89-.66-.95-1.29-.05-.51.79-.48.74-1-.05-.51-.61-.45-.91-.82.45-.28.69-.48,1.2-.59-.45-.3-.84-.55-1.33-.78.66-.7,1.15-1.15,1.95-1.58-.87-.26-1.47-.6-2.2-1.16.76-.25,1.27-.42,2.03-.67-.45-.3-.83-.55-1.33-.79.44-.28.69-.47,1.2-.58l-.3-3.19c-.09-.24-1.13.26-1.71.4v-.48c.6-.36,1.64-.75,1.61-1.07-.06-.63-.9-.66-.96-1.28-.05-.57.78-.55,1.18-.82-.5-.29-.83-.49-1.33-.78.27-.49.66-.82,1.16-1.04-.3-.38-.53-.58-.91-.83.27-.49.66-.81,1.16-1.04-.29-.38-.53-.58-.91-.83.31-.61.64-1.05,1.12-1.5-.49-.29-.83-.49-1.33-.78.44-.28.69-.47,1.2-.58-.43-.76-.78-1.13-1.41-1.7.6-.29.95-.5,1.62-.63-.42-.47-.87-.83-1.37-1.24.47-.57.91-.9,1.57-1.08-.51-.47-1.3-.51-1.37-1.25-.03-.37.22-.57.52-.72l.92.48c-.2-.25-.39-.46-.59-.64.11-.05.21-.1.3-.16-.22-.28-.41-.47-.66-.66.37-.18.69-.32,1.19-.41-.25-.22-.47-.4-.69-.56.22-.18.39-.38.36-.7-.02-.22-.16-.35-.33-.45.15-.05.3-.09.49-.12-.33-.58-.61-.93-1-1.31.08-.26.21-.51.34-.75.26-.11.52-.2.86-.26-.19-.13-.37-.25-.55-.36.15-.34.25-.7.21-1.13l-.56.15c.21-.2.45-.37.73-.49-.16-.56-.9-.66-.96-1.28-.05-.52.8-.48.75-1-.05-.51-.62-.45-.91-.83.44-.27.69-.47,1.2-.58-.37-.59-.83-.95-1.37-1.24.47-.57.91-.91,1.57-1.09-.15-.56-.9-.66-.96-1.28-.05-.51.79-.48.74-1-.05-.51-.61-.45-.91-.82.45-.28.69-.48,1.21-.58-.45-.31-.83-.55-1.33-.79.67-.7,1.15-1.16,1.95-1.58-.86-.26-1.47-.6-2.2-1.16.76-.25,1.27-.42,2.03-.67-.45-.3-.84-.55-1.33-.78.45-.28.69-.48,1.2-.58l-.29-3.19c-.13-.31-1.89.65-2.09.4v-.14c.23-.44,2.02-.97,1.99-1.39-.02-.24-.16-.4-.33-.53,0,0,0,0,0-.02.13-.45-.17-.79-.43-1.12.26-.19.72-.24.99-.42-.48-.28-.81-.48-1.28-.75.31-.55,1.26-.21,1.57-.8-.41-.48-.76-1-1.05-1.54.23-.26.51-.45.84-.6-.29-.37-.53-.58-.91-.82.31-.61.64-1.05,1.12-1.5-.5-.29-.83-.49-1.33-.79.44-.27.69-.47,1.2-.58-.41-.73-.75-1.1-1.32-1.62.01-.05.02-.09.03-.13.53-.27.88-.45,1.51-.57-.41-.48-.86-.83-1.36-1.24,0,0,0,0,0-.02.46-.56.9-.89,1.56-1.07-.51-.47-1.3-.5-1.37-1.25-.06-.63.71-.77,1.16-1.04-.3-.37-.53-.58-.92-.83.21-.65,1.19-.75,1.13-1.49-.06-.57-.89-.49-.94-1.06-.12-1.32,1.07-2.01.95-3.32l-2.05.55c-.22-.52-.37-1.06-.19-1.72.26-.95,1.56-.7,1.82-1.65.75-2.76-3.19-3.8-3.01-6.67.41-7.2,1.78-11.64.27-18.74-1.05,1.34-1.92,1.99-2.39,3.72l-3.75,13.8c-1.03,3.8,2.36,5.88,3.61,9.5,1.97,5.63.33,10.11,1.31,15.42-.1,3.26-.24,6.63-.36,9.96-.51,1.18-1.01,2.44-1.32,3.87-1.42,6.49-1.07,10.57-.53,17.16-1.7.56-2.93,1.27-4.66.69-2.21-.75-12.4-20.92-14.29-18.63l-10.78,2.41c-2.49-2.48,1.19-5.1,1.58-7.5-9.08,6.83-11.41,14.14-18.65,23.1-6.85,8.43-6.31,10.73-15.43,16.64l2.16,1.85c14.96-5.69,20.08-16.42,29.97-25l4.01-3.14c2.12-1.49,4.48-2.87,7.17-4.1,9.96,13.26,18.3,35.29,17.35,52.35-.49,7.84,2.04,12.75-.01,20.34-.37,1.38-1.69,2.44-2.96,2.02-2.99-1.01-4.01-3.61-6.99-4.62-3.23-1.09-10.12-12.13-10.12-12.13l.71,5.34c6.96,7.62,15.6,11.89,18.7,21.98,1.45,4.82-.51,8.21-.85,13.27-.44,7.01.51,11.1-.08,18.05l.14.05c-.34,13.21-1.25,29.54-1.12,39.26l1.94,1.02"/>
        </g>
        <g>
          <path class="cls-4" d="M463.49,215.14v-4.83c0-.24.02-1.27.02-2.05h-.02l-2.3,6.88h-1.1l-2.3-6.86h-.02c0,.75.02,1.79.02,2.03v4.83h-1.07v-8.18h1.59l2.34,6.92h.02l2.33-6.92h1.57v8.18h-1.07Z"/>
          <path class="cls-4" d="M466.99,213.94h-1.19v1.2h1.19v-1.2Z"/>
          <path class="cls-4" d="M469.53,207.91h2.75c.55,0,1.47.1,1.47,1.37,0,1.2-.85,1.41-1.66,1.41h-2.56v-2.78ZM469.53,211.64h2.68c1.32,0,1.45.78,1.45,1.46,0,.31.04,1.55.19,2.05h1.36v-.19c-.34-.19-.4-.36-.41-.81l-.07-1.49c-.05-1.14-.51-1.35-.98-1.54.52-.31,1.14-.75,1.14-1.96,0-1.73-1.34-2.2-2.69-2.2h-3.79v8.18h1.11v-3.51Z"/>
          <path class="cls-4" d="M477.26,215.14h-1.19v-1.2h1.19v1.2Z"/>
        </g>
      </g>
      <path class="cls-5" d="M529.49,202.54c-1.03-1.48-2.25-2.79-3.63-3.89l5.05-18.66c.28-1.02.67-2.55.89-4.38v-.03s0-.03,0-.03c.14-1.15.26-2.42.26-3.97,0-7.74-4.71-14.56-12-17.41-2.59-1.02-5.46-1.51-8.75-1.51h-8.53c-2.63,0-5.88.2-9.2,1.46-1.66-.25-3.38-.37-5.14-.37-7.81,0-15.67,2.41-23.34,7.17h-.02s-.02.02-.02.02c-1.78,1.11-3.52,2.34-5.24,3.67-2.43-2.87-5.59-5.29-9.38-7.06-5.64-2.65-12.3-3.94-20.36-3.94-10.59,0-19.57,2.84-26.7,8.43l-.06.04-.06.05c-.43.34-.85.7-1.26,1.06-7.12-6.37-16.12-9.72-26.32-9.72-5.8,0-11.4,1.03-16.71,3.03,0-.16,0-.31,0-.47,0-7.15-2.43-13.55-7.02-18.49-4.86-5.25-11.6-8.13-18.99-8.13s-14.51,3.37-19.63,9.49c-4.42,5.28-6.75,11.8-6.75,18.87,0,.08,0,.17,0,.25-5.39-3.28-11.89-4.95-19.33-4.95-6.26,0-12.81,1.58-19.48,4.71.03-.58.05-1.15.05-1.74,0-7.11-2.4-13.48-6.94-18.42l-.05-.05-.05-.05c-4.87-5.22-11.61-8.09-18.97-8.09-3.93,0-7.71.93-11.15,2.68-.71-1.34-1.58-2.6-2.6-3.76-3.64-4.15-8.83-6.53-14.26-6.53-3.87,0-7.03,1.23-9.61,2.44l-.04.02-.04.02c-2.97,1.41-6.72,2.12-11.14,2.12-2.36,0-9.55,0-15.38,5.22l-.19.17-.18.17c-4.03,3.82-6.25,9.22-6.25,15.2,0,3.18.78,6.22,2.21,8.92-3.77-1.54-8.38-2.61-13.95-2.61-6.36,0-12.74,1.28-18.98,3.82-3,1.21-5.92,2.71-8.75,4.47-2.23-6.04-5.53-11.33-9.89-15.82-9-9.26-21.36-13.95-36.74-13.95-1.61,0-4.04.09-8.39.29h-.05s-.05,0-.05,0c-3.12.17-5.89.25-8.02.25-3.46,0-7.32-.17-11.47-.49-1.71-.14-2.61-.19-3.44-.19-5.66,0-10.42,1.67-14.13,4.96-4.25,3.75-6.59,9.12-6.59,15.14,0,5.4,1.97,10.44,5.54,14.21.04.04.08.08.12.12l-10.53,45.46c-9.08,4.31-12.43,12.29-12.43,18.86,0,4.33,1.07,8.18,3.19,11.43,3.47,5.37,9.54,8.56,16.32,8.56.89,0,1.64-.06,2.76-.14l.57-.04.2-.02.2-.02c3.91-.39,7.77-.58,11.49-.58.79,0,3.14.03,7.94.3,4.53.25,7.96.37,10.51.37,10.45,0,18.93-1.15,25.92-3.5,5.85-1.96,11.22-4.91,16.04-8.79.64.9,1.31,1.78,2.03,2.63,6.93,8.19,16.44,12.53,27.46,12.53,7.01,0,13.94-1.73,20.6-5.13,2.47-1.25,4.82-2.72,7.07-4.38,4.8,5.35,11.39,8.27,18.8,8.27,6.22,0,12.24-2.03,17.88-6.04l.04-.03.04-.03s.01-.01.02-.02c4.59,4.41,10.8,6.82,17.69,6.82,6.07,0,12-1.7,17.63-5.06l.03-.02.03-.02c1.81-1.09,3.58-2.37,5.31-3.81,6.54,6.01,14.82,9.18,24.21,9.18,6.98,0,13.89-1.72,20.54-5.1l.04-.02.04-.02c1.64-.85,3.24-1.79,4.78-2.8,4.65,4.95,11.21,7.68,18.54,7.68,6.08,0,12.01-1.7,17.64-5.06l.03-.02.03-.02c2.2-1.33,4.35-2.93,6.44-4.78,7.22,6.65,16.37,10.14,26.73,10.14s19.83-3.1,28.21-9.04c.95.83,1.96,1.62,3.03,2.35,6.34,4.34,14.56,6.54,24.44,6.54,8.41,0,16.12-2.11,22.66-6.15,4.91,4.17,10.97,6.41,17.59,6.41,6,0,11.82-1.68,17.39-5.01,4,3.01,8.87,4.63,14.05,4.63,6.1,0,12.09-1.72,17.83-5.12,4.83-2.84,9.28-6.76,13.22-11.64,2.39-2.93,4.48-6.02,6.22-9.19l.06-.11.06-.11c2.33-4.38,3.88-8.21,3.88-12.7s-1.15-8.11-3.41-11.38Z"/>
      <g id="deli">
        <path class="cls-3" d="M73.56,166.28c.96-4.01,1.99-6.48,3.11-7.47,1.11-1,3.04-1.49,5.75-1.49,5.53,0,9.84,1.93,12.89,5.81,3.06,3.86,4.59,9.31,4.59,16.35,0,7.61-1.08,15.17-3.24,22.73-2.12,7.53-4.88,13.6-8.24,18.19-2.13,2.89-4.74,5.08-7.87,6.58-3.1,1.5-6.57,2.26-10.41,2.26-4.04,0-6.57-.42-7.58-1.27-1.02-.84-1.51-2.35-1.51-4.55,0-1.03.15-2.33.52-3.86.03-.22.08-.37.12-.51l11.87-52.77ZM44.67,219.75c-1.13,4.94-2.73,7.79-4.79,8.56-.41.19-.85.34-1.32.45-.46.13-.9.25-1.33.32-.07,0-.16.06-.26.14-2.53.77-3.8,1.93-3.8,3.43,0,.88.13,1.48.34,1.8.2.32.71.49,1.47.49.27,0,.93-.06,2-.14,4.57-.45,8.98-.67,13.23-.67,1.85,0,4.83.1,8.94.33,4.09.22,7.27.34,9.51.34,8.4,0,15.16-.85,20.27-2.58,5.13-1.72,9.65-4.55,13.61-8.52,4.42-4.46,8.03-10.22,10.74-17.28,2.7-7.04,4.05-14.21,4.05-21.53,0-10.66-2.8-18.85-8.35-24.56-5.57-5.72-13.58-8.59-24.05-8.59-1.37,0-3.89.1-7.55.27-3.65.19-6.65.28-8.97.28-4.08,0-8.39-.19-12.91-.55-1.06-.09-1.74-.13-2-.13-1.19,0-2.01.16-2.41.52-.4.34-.62.96-.62,1.87,0,.86.23,1.56.71,2.05.48.52,1.38.94,2.7,1.24,1.6.43,2.64.93,3.12,1.46.46.54.72,1.28.72,2.22,0,.82-.06,1.63-.15,2.4-.08.77-.2,1.58-.37,2.38l-12.28,53.03c-.04.22-.12.55-.24.98Z"/>
        <path class="cls-3" d="M146.29,185.48c3.17-5.01,6.31-7.51,9.42-7.51,1.08,0,1.93.55,2.6,1.62.63,1.06.96,2.47.96,4.17,0,5.67-1.96,10.68-5.87,15.03-3.96,4.33-8.63,6.51-14.12,6.51h-.66c1.96-8.21,4.52-14.81,7.68-19.83ZM167.08,202.62c5.2-3.33,7.83-8.29,7.83-14.88,0-4.43-1.41-7.96-4.2-10.59-2.8-2.61-6.6-3.94-11.44-3.94-4.09,0-8.19.84-12.31,2.51-4.15,1.68-8.01,4.09-11.63,7.22-4.61,4.09-8.16,8.91-10.72,14.42-2.55,5.52-3.8,11.26-3.8,17.2,0,7,1.75,12.6,5.32,16.8,3.54,4.18,8.2,6.29,13.97,6.29,4.19,0,8.41-1.08,12.56-3.2,4.16-2.11,7.81-5.08,11.01-8.9,1.38-1.75,2.43-3.29,3.2-4.59.74-1.31,1.13-2.34,1.13-3.06,0-.55-.13-.99-.38-1.29-.27-.3-.6-.45-1.05-.45-.59,0-1.61.85-3.04,2.52-.6.73-1.1,1.33-1.48,1.76-2.36,2.58-4.74,4.61-7.16,6.04-2.38,1.47-4.6,2.17-6.62,2.17-3.28,0-5.86-1.3-7.75-3.95-1.93-2.64-2.86-6.29-2.86-10.94,0-.88.03-1.52.03-2,.01-.43.06-.9.09-1.33,14.31-1.88,24.09-4.48,29.3-7.83Z"/>
        <path class="cls-3" d="M213.06,150.94l-18.36,69.33c-.14.43-.21.88-.29,1.35-.05.46-.1,1.07-.1,1.81s.09,1.32.26,1.64c.19.33.48.49.91.49.81,0,1.73-.48,2.74-1.42,1-.96,2.18-2.42,3.5-4.39.49-.74,1.08-1.65,1.81-2.77,1.05-1.85,1.94-2.77,2.66-2.77.37,0,.68.13.83.38.16.27.27.69.27,1.29s-.49,1.85-1.46,3.68c-.96,1.86-2.14,3.77-3.56,5.76-2.79,3.7-5.49,6.48-8.06,8.33-2.61,1.86-5.15,2.77-7.63,2.77s-4.59-.96-6.08-2.93c-1.47-1.95-2.24-4.65-2.24-8.05,0-1.67.28-3.93.8-6.75.51-2.82,1.28-6.02,2.26-9.64l13.05-49.01c.05-.26.13-.62.28-1.1.49-2.19.75-3.72.75-4.59,0-1.28-1.17-2.29-3.53-3.03h-.12c-1.26-.34-2.05-.67-2.45-.97-.39-.3-.58-.68-.58-1.15,0-1.11.25-1.9.73-2.36.51-.45,1.67-.7,3.56-.7,7.07,0,13.32-1.27,18.72-3.83,1.1-.51,1.83-.77,2.11-.77.34,0,.66.17.97.52.31.35.44.7.44,1.09,0,.27-.28,1.28-.84,3.06-.55,1.78-1,3.36-1.34,4.73Z"/>
        <path class="cls-3" d="M240.2,196.93l-6.49,19.82c-.53,1.56-.92,2.9-1.21,4.02-.29,1.12-.43,2.05-.43,2.8s.1,1.33.3,1.64c.2.33.51.51.93.51,1.82,0,3.88-1.92,6.16-5.73,2.32-3.81,3.9-5.7,4.75-5.7.35,0,.62.13.77.38.2.27.26.7.26,1.3,0,.89-.56,2.43-1.75,4.57-1.15,2.15-2.64,4.33-4.45,6.51-2.67,3.31-5.41,5.82-8.24,7.53-2.83,1.69-5.69,2.56-8.56,2.56-2.51,0-4.41-.73-5.72-2.18-1.33-1.43-1.98-3.5-1.98-6.16s.97-6.91,2.93-12.83c.36-1.13.62-1.97.79-2.54l8.55-26.61c.16-.52.27-.98.32-1.38.03-.41.06-.83.06-1.26,0-.67-.08-1.18-.23-1.49-.14-.32-.36-.48-.66-.48-.86,0-1.91.51-3.14,1.54-1.21,1.02-2.5,2.45-3.83,4.36-.48.64-1,1.47-1.6,2.5-1.23,2-2.32,3.01-3.3,3.01-.31,0-.52-.11-.65-.33-.14-.19-.21-.52-.21-.95,0-1.1.59-2.66,1.77-4.63,1.2-1.96,2.78-4.03,4.76-6.16,2.43-2.75,5-4.78,7.68-6.07,2.68-1.32,5.58-1.97,8.64-1.97,2.45,0,4.29.7,5.5,2.07,1.23,1.37,1.84,3.39,1.84,6.1,0,1.55-.21,3.32-.66,5.32-.42,2-1.4,5.31-2.91,9.94ZM241.85,149.16c2.49,0,4.5.83,6.03,2.47,1.52,1.65,2.28,3.81,2.28,6.45,0,3.1-.9,5.69-2.71,7.79-1.82,2.1-4,3.13-6.57,3.13-2.27,0-4.13-.83-5.57-2.53-1.44-1.68-2.15-3.9-2.15-6.65,0-2.91.86-5.41,2.65-7.52,1.75-2.09,3.78-3.14,6.04-3.14Z"/>
        <path class="cls-3" d="M287.3,172.81c4.61,0,8.27.98,10.98,2.93,2.72,1.95,4.07,4.53,4.07,7.76,0,2.23-.64,4.05-1.95,5.43-1.28,1.4-2.97,2.09-5.09,2.09-1.78,0-3.22-.48-4.4-1.41-1.16-.94-2.43-2.75-3.81-5.41-.2-.53-.51-1.24-.91-2.13-.81-2.28-1.95-3.42-3.42-3.42-2.61,0-5.81,3.75-9.56,11.26-3.78,7.5-5.67,15.26-5.67,23.3,0,4.39.95,7.87,2.85,10.42,1.89,2.55,4.45,3.83,7.63,3.83,2.05,0,4.16-.63,6.28-1.87,2.15-1.23,4.7-3.43,7.72-6.54.31-.26.71-.66,1.23-1.15,1.22-1.33,2.09-1.99,2.63-1.99.45,0,.78.15,1.04.45.24.3.41.73.41,1.28,0,.74-.37,1.75-1.14,3.06-.75,1.33-1.81,2.85-3.19,4.61-3.2,3.81-6.86,6.77-11.01,8.91-4.15,2.11-8.32,3.18-12.52,3.18-5.79,0-10.44-2.11-13.98-6.33-3.54-4.2-5.33-9.79-5.33-16.74,0-5.21,1-10.29,3.01-15.24,1.99-4.95,4.86-9.44,8.59-13.43,3.58-3.83,7.75-6.92,12.5-9.28,4.75-2.38,9.1-3.56,13.05-3.56Z"/>
        <path class="cls-3" d="M331.35,196.93l-6.49,19.82c-.51,1.56-.92,2.9-1.2,4.02-.28,1.12-.42,2.05-.42,2.8s.09,1.33.29,1.64c.2.33.53.51.95.51,1.81,0,3.87-1.92,6.15-5.73,2.29-3.81,3.87-5.7,4.74-5.7.36,0,.6.13.81.38.14.27.25.7.25,1.3,0,.89-.58,2.43-1.75,4.57-1.16,2.15-2.64,4.33-4.44,6.51-2.69,3.31-5.44,5.82-8.26,7.53-2.82,1.69-5.68,2.56-8.56,2.56-2.51,0-4.42-.73-5.72-2.18-1.32-1.43-1.97-3.5-1.97-6.16s.97-6.91,2.93-12.83c.34-1.13.61-1.97.78-2.54l8.51-26.61c.2-.52.31-.98.32-1.38.07-.41.09-.83.09-1.26,0-.67-.09-1.18-.24-1.49-.15-.32-.37-.48-.66-.48-.88,0-1.91.51-3.15,1.54-1.23,1.02-2.49,2.45-3.83,4.36-.46.64-1.01,1.47-1.62,2.5-1.2,2-2.3,3.01-3.28,3.01-.3,0-.53-.11-.66-.33-.13-.19-.18-.52-.18-.95,0-1.1.59-2.66,1.77-4.63,1.19-1.96,2.75-4.03,4.75-6.16,2.45-2.75,5-4.78,7.7-6.07,2.67-1.32,5.56-1.97,8.66-1.97,2.43,0,4.26.7,5.48,2.07,1.22,1.37,1.83,3.39,1.83,6.1,0,1.55-.22,3.32-.64,5.32-.44,2-1.41,5.31-2.93,9.94ZM333,149.16c2.51,0,4.49.83,6.01,2.47,1.54,1.65,2.29,3.81,2.29,6.45,0,3.1-.91,5.69-2.69,7.79-1.8,2.1-4,3.13-6.58,3.13-2.27,0-4.11-.83-5.56-2.53-1.45-1.68-2.15-3.9-2.15-6.65,0-2.91.87-5.41,2.63-7.52,1.75-2.09,3.77-3.14,6.04-3.14Z"/>
        <path class="cls-3" d="M381.38,205.98c-1.08,4.99-2.69,9.87-4.79,14.63-1.91,4.09-3.74,7.04-5.53,8.87-1.82,1.82-3.8,2.73-5.93,2.73-2.6,0-4.53-1.05-5.83-3.18-1.31-2.12-1.95-5.23-1.95-9.33,0-4.93.56-9.93,1.69-14.98,1.15-5.05,2.77-9.86,4.85-14.47,1.9-4.09,3.8-7.09,5.72-8.99,1.89-1.91,3.93-2.88,6.07-2.88,2.27,0,4.05,1.14,5.37,3.39,1.32,2.26,1.97,5.37,1.97,9.38,0,4.9-.54,9.83-1.65,14.82ZM351.82,184.45c-6.92,7.48-10.39,16.34-10.39,26.62,0,7.82,2.1,14.17,6.32,19.03,4.22,4.85,9.73,7.29,16.53,7.29,9.22,0,17.23-3.74,24.1-11.19,6.87-7.46,10.3-16.16,10.3-26.09,0-8.12-2.1-14.64-6.33-19.55-4.2-4.89-9.76-7.35-16.62-7.35-8.99,0-16.96,3.75-23.89,11.23Z"/>
        <path class="cls-3" d="M431.33,197.13l5.05,5.45c2.34,2.54,3.98,4.93,4.99,7.19.99,2.28,1.48,4.68,1.48,7.27,0,5.72-2.16,10.52-6.45,14.41-4.33,3.87-9.8,5.8-16.45,5.8-6.27,0-11.08-1.15-14.45-3.45-3.37-2.29-5.05-5.6-5.05-9.88,0-3.27.32-5.62.96-7.06.65-1.45,1.67-2.17,3.08-2.17.82,0,1.69.48,2.64,1.43.95.93,2.48,3.01,4.64,6.19,2.31,3.48,4.3,6.06,6,7.71,1.72,1.66,3.21,2.49,4.48,2.49,1.5,0,2.78-.69,3.82-2.06,1.05-1.39,1.57-3.14,1.57-5.24,0-1.73-.45-3.58-1.36-5.55-.88-1.99-2.14-3.91-3.77-5.81l-4.79-5.18c-3.62-4.01-6.06-7.34-7.34-9.99-1.28-2.65-1.91-5.39-1.91-8.25,0-5.17,1.98-9.29,5.88-12.41,3.95-3.1,9.2-4.65,15.76-4.65,5.37,0,9.65.76,12.85,2.27,3.19,1.49,4.79,3.57,4.79,6.19,0,3.4-.31,6.05-.96,7.97-.64,1.91-1.55,2.88-2.71,2.88-1.43,0-3.44-1.79-6.07-5.33l-.13-.12c-3.08-4.07-5.23-6.62-6.49-7.67-1.26-1.04-2.45-1.57-3.6-1.57-1.34,0-2.37.47-3.12,1.37-.74.91-1.11,2.14-1.11,3.7,0,1.97.58,4.03,1.7,6.14,1.13,2.09,3.17,4.74,6.08,7.94Z"/>
        <path class="cls-3" d="M494.28,179.64c.8,1.01,1.18,2.64,1.18,4.89s-.84,5.66-2.53,9.9c-1.7,4.22-4.13,9.04-7.26,14.49-3.36,5.82-6.2,9.95-8.52,12.42-2.32,2.45-4.53,3.67-6.59,3.67-1.37,0-2.41-.57-3.13-1.71-.7-1.14-1.05-2.81-1.05-5.01,0-2.9.75-6.57,2.22-11.04,1.48-4.45,3.51-9.01,6.09-13.61,2.86-5.17,5.59-9.05,8.24-11.64,2.63-2.58,5.18-3.88,7.64-3.88,1.69,0,2.92.51,3.71,1.52ZM499.71,172.8c-.43.25-.79.75-1.07,1.48l-1.11,2.41c-1.32-1.13-2.72-1.95-4.18-2.44-1.46-.51-3.1-.75-4.89-.75-4.48,0-9.15,1.5-14.01,4.51-4.85,3.03-9.49,7.28-13.86,12.8-3.86,4.93-6.78,10.02-8.7,15.23-1.93,5.21-2.89,10.53-2.89,15.95,0,4.61,1.04,8.34,3.14,11.2,2.1,2.86,4.8,4.3,8.06,4.3,4.57,0,9.28-2.36,14.1-7.06,4.85-4.72,10.1-12.07,15.79-22.04l-2.4,11.43c-.72,3.22-1.21,5.61-1.41,7.16-.21,1.55-.32,2.94-.32,4.19,0,1.72.52,3.12,1.59,4.24,1.05,1.11,2.41,1.7,4.1,1.7,2.85,0,5.83-.88,8.83-2.67,3.01-1.76,5.84-4.28,8.47-7.55,1.75-2.15,3.24-4.35,4.46-6.56,1.19-2.24,1.8-3.71,1.8-4.39,0-.6-.08-1.03-.27-1.3-.17-.25-.44-.38-.85-.38-.64,0-2.02,1.59-4.08,4.76-2.07,3.17-3.94,4.74-5.59,4.74-.6,0-1.03-.21-1.27-.64-.22-.44-.36-1.27-.36-2.54,0-.77.08-1.6.21-2.5.14-.86.27-1.67.46-2.4l10.38-38.37c.17-.6.32-1.21.39-1.81.07-.61.14-1.23.14-1.89,0-.41-.26-.74-.76-.93-.49-.19-1.27-.29-2.29-.29h-8.53c-1.62,0-2.65.13-3.08.39Z"/>
      </g>
    </g>
  </g>
</svg>