<svg width="258" height="196" fill="black" xmlns="http://www.w3.org/2000/svg"><g clip-path="url(#a)"><path d="M35.474 142.426v13.118c0 1.002.09 1.61.262 1.825.196.197.762.292 1.691.292h5.02c2.28 0 4.085-.131 5.407-.393 1.173-.239 1.936-.555 2.281-.949.346-.394.661-1.306.947-2.744.107-.543.381-.805.816-.781.41.024.62.316.62.883 0 .155-.013.393-.03.715a71.499 71.499 0 0 0-.263 5.775c0 1.33.066 2.642.197 3.949.042.435.065.751.065.948 0 .543-.208.817-.619.817-.459 0-.727-.238-.816-.715l-.196-.913c-.262-1.456-.78-2.446-1.567-2.971-.78-.525-2.108-.781-3.971-.781h-7.2c-1.066 0-1.78.107-2.15.328-.345.221-.524.65-.524 1.306l.03 1.08v12.008c0 1.849.327 3.001.977 3.46.672.459 2.358.686 5.05.686 8.533 0 14.017-1.927 16.453-5.774.238-.37.476-.567.715-.585.393-.024.583.262.583.847 0 1.414-.792 3.102-2.376 5.059-1.911 2.35-4.323 3.525-7.235 3.525a31.96 31.96 0 0 1-2.543-.131c-4.15-.394-7.58-.585-10.296-.585-3.8 0-6.485.131-8.045.394-.828.149-1.394.227-1.698.227-.696 0-1.042-.239-1.042-.716 0-.37.28-.633.846-.782l1.239-.358c1.566-.435 2.346-1.956 2.346-4.569l.03-2.124V146.22c0-3.108-.346-5.202-1.043-6.263-.672-1.086-2-1.629-3.977-1.635-.632 0-.947-.209-.947-.62 0-.609.488-.913 1.465-.913.542 0 1.268.054 2.185.161 3.103.346 6.842.525 11.207.525 2.65 0 4.997-.042 7.04-.131l4.626-.227c1.28-.042 2.06-.089 2.346-.131.584-.09 1.019-.131 1.305-.131.714 0 1.078.316 1.078.948 0 .197-.03.447-.096.752-.065.304-.155 1.175-.262 2.612l-.13 1.927c-.108 1.265-.221 2.058-.328 2.38-.108.305-.346.466-.715.49-.41.023-.62-.305-.62-.979v-.847c0-.698-.13-1.36-.392-1.992-.411-.979-1.25-1.635-2.507-1.957-1.263-.328-3.573-.489-6.938-.489H38.66c-1.346 0-2.215.173-2.608.525-.394.328-.584 1.068-.584 2.219l.006-.018Z" fill="#000"/><path fill-rule="evenodd" clip-rule="evenodd" d="M82.197 152.054c.87.459 1.703 1.086 2.507 1.891v-10.379c0-1.325-.155-2.243-.459-2.745-.286-.501-.976-.751-2.084-.751-.262 0-.488.012-.685.03-.196.024-.631.065-1.304.131v-1.08l2.674-.686a134.98 134.98 0 0 0 2.93-.817c.976-.28 1.834-.555 2.572-.817a35.6 35.6 0 0 0 1.727-.621l.197.066-.066 3.424c-.024 1.241-.041 2.523-.065 3.854-.024 1.306-.03 2.6-.03 3.883l-.066 26.665c0 1.413.173 2.404.524 2.97.346.567 1.269.847 2.77.847h.714c.238-.024.477-.053.715-.095v1.08c-.131.041-1.703.584-4.723 1.634l-5.115 1.927-.226-.292v-4.015c-1.215 1.33-2.27 2.273-3.162 2.839-1.584.979-3.418 1.468-5.509 1.468-3.692 0-6.687-1.426-8.992-4.277-2.28-2.87-3.418-6.192-3.418-9.956 0-4.719 1.37-8.769 4.103-12.139 2.757-3.395 6.122-5.095 10.1-5.095 1.584 0 3.043.346 4.365 1.044l.006.012Zm.947 25.394c1.042-1.002 1.566-1.945 1.566-2.839v-14.001c0-2.827-.762-4.82-2.281-5.971-1.5-1.175-2.966-1.76-4.4-1.76-2.74 0-4.866 1.217-6.385 3.657-1.518 2.416-2.28 5.398-2.28 8.942 0 3.543.804 6.627 2.411 9.365 1.632 2.744 4.05 4.11 7.266 4.11 1.697 0 3.06-.501 4.103-1.503Z" fill="#000"/><path d="M106.696 151.631v20.89c0 1.479.208 2.666.619 3.555.804 1.652 2.281 2.482 4.43 2.482 1.477 0 2.924-.49 4.336-1.468.804-.543 1.619-1.294 2.441-2.255v-17.884c0-1.676-.327-2.773-.976-3.298-.65-.525-1.954-.835-3.913-.949v-1.079h10.523v22.978c0 1.479.262 2.505.78 3.066.542.543 1.673.781 3.388.716v.912c-1.197.328-2.072.579-2.638.752-.566.155-1.513.447-2.835.883-.565.197-1.804.662-3.715 1.402-.108 0-.173-.054-.197-.161a1.307 1.307 0 0 1-.03-.329v-5.255c-1.477 1.76-2.822 3.066-4.037 3.919-1.846 1.307-3.8 1.957-5.866 1.957-1.888 0-3.674-.674-5.342-2.022-1.691-1.325-2.542-3.556-2.542-6.693v-16.942c0-1.742-.37-2.905-1.108-3.489-.476-.37-1.5-.633-3.06-.782v-.912h9.742v.006Zm27.464 19.941h1.078c.5 2.482 1.173 4.385 2.019 5.709 1.518 2.44 3.745 3.657 6.681 3.657 1.632 0 2.912-.448 3.847-1.336.953-.913 1.435-2.088 1.435-3.526 0-.913-.274-1.795-.816-2.643-.542-.847-1.5-1.676-2.864-2.481l-3.65-2.088c-2.674-1.438-4.639-2.881-5.896-4.343-1.262-1.455-1.888-3.173-1.888-5.154 0-2.433.87-4.438 2.609-6.007 1.739-1.568 3.918-2.35 6.55-2.35 1.149 0 2.412.221 3.782.65 1.387.436 2.173.651 2.346.651.393 0 .673-.054.845-.162.173-.107.328-.28.459-.524h.78l.226 9.103h-1.012c-.435-2.112-1.024-3.753-1.757-4.928-1.346-2.177-3.293-3.263-5.83-3.263-1.518 0-2.715.466-3.585 1.402-.869.937-1.304 2.034-1.304 3.299 0 2.004 1.501 3.788 4.496 5.351l4.3 2.314c4.627 2.523 6.937 5.464 6.937 8.811 0 2.571-.964 4.665-2.9 6.299-1.911 1.635-4.418 2.446-7.527 2.446-1.304 0-2.781-.221-4.43-.65-1.65-.436-2.626-.651-2.93-.651a.934.934 0 0 0-.685.293 1.85 1.85 0 0 0-.459.65h-.845V171.56l-.012.012Z" fill="#000"/><path fill-rule="evenodd" clip-rule="evenodd" d="M163.453 155.747c2.757-3.001 6.3-4.504 10.623-4.504 4.324 0 7.861 1.414 10.69 4.241 2.822 2.828 4.234 6.592 4.234 11.292 0 4.331-1.37 8.095-4.103 11.292-2.74 3.198-6.277 4.797-10.624 4.797s-7.7-1.534-10.588-4.6c-2.888-3.066-4.335-6.919-4.335-11.554 0-4.331 1.369-7.988 4.103-10.964Zm5.246-.848c-2.174 1.981-3.257 5.399-3.257 10.249 0 3.871.869 7.486 2.608 10.833 1.757 3.352 4.192 5.028 7.301 5.028 2.429 0 4.299-1.121 5.603-3.364 1.322-2.243 1.989-5.178 1.989-8.811 0-3.764-.839-7.307-2.507-10.642-1.673-3.328-4.097-4.993-7.265-4.993-1.715 0-3.204.567-4.466 1.695l-.006.005Z" fill="#000"/><path d="M193.293 180.938c2.305-.108 3.811-.531 4.532-1.271.738-.763 1.107-2.35 1.107-4.766v-20.95h-5.573v-2.189h5.573c0-3.436.465-6.341 1.4-8.715 1.78-4.546 5.05-6.819 9.808-6.819 1.911 0 3.614.382 5.115 1.14 1.519.763 2.281 1.783 2.281 3.066 0 .716-.262 1.36-.78 1.927-.524.566-1.15.847-1.888.847-.631 0-1.173-.185-1.632-.555-.458-.394-1-1.068-1.631-2.022l-.554-.847a4.37 4.37 0 0 0-1.078-1.14c-.411-.328-.989-.489-1.727-.489-1.649 0-2.769.817-3.359 2.446-.327.871-.488 2.016-.488 3.424v7.737h8.176v2.189h-8.11v20.95c0 2.458.327 4.038.976 4.73.673.674 2.412 1.11 5.211 1.307v.912h-17.365v-.912h.006Zm38.874-29.176v2.35h-6.646l-.065 18.797c0 1.652.143 2.905.423 3.752.524 1.503 1.542 2.255 3.061 2.255.78 0 1.453-.185 2.018-.555.584-.37 1.251-.955 1.989-1.76l.846.716-.715.978c-1.131 1.521-2.322 2.601-3.585 3.233-1.262.633-2.477.943-3.65.949-2.567 0-4.299-1.14-5.211-3.424-.5-1.241-.75-2.959-.75-5.154v-19.781h-3.549a1.415 1.415 0 0 1-.262-.197.47.47 0 0 1-.066-.262c0-.215.042-.382.131-.489.108-.132.423-.412.947-.848 1.501-1.24 2.573-2.242 3.228-3 .673-.781 2.239-2.828 4.692-6.138.28 0 .447.024.489.065.065.042.095.209.095.489v8.03h6.58v-.006Z" fill="#000"/><path fill-rule="evenodd" clip-rule="evenodd" d="M30.055 192.457H24.95c0 .429.066.799.191 1.115.131.316.304.573.53.776.214.196.47.346.762.447.298.101.625.149.983.149.47 0 .947-.095 1.417-.28.482-.191.822-.376 1.024-.561h.06v1.271a9.514 9.514 0 0 1-1.203.417c-.41.114-.84.167-1.292.167-1.15 0-2.049-.31-2.692-.93-.643-.627-.965-1.51-.965-2.661s.31-2.034.923-2.702c.62-.668 1.436-1.002 2.442-1.002.935 0 1.655.274 2.156.817.506.549.762 1.324.762 2.332v.633l.006.012Zm-1.138-.895c0-.615-.16-1.086-.464-1.42-.304-.334-.762-.501-1.382-.501-.619 0-1.12.185-1.494.555-.37.37-.578.823-.626 1.372h3.966v-.006Zm11.065 4.247h-1.167v-.728a4.091 4.091 0 0 1-1.048.674 2.887 2.887 0 0 1-1.186.245c-.827 0-1.482-.316-1.97-.954-.483-.639-.727-1.522-.727-2.655 0-.591.083-1.109.25-1.569.167-.459.399-.853.685-1.175.28-.316.607-.555.982-.722a2.84 2.84 0 0 1 1.168-.25 3.6 3.6 0 0 1 .964.119c.28.072.578.191.888.352v-3.007h1.167v9.664l-.006.006Zm-1.167-1.706v-3.979a4.239 4.239 0 0 0-.846-.292 3.815 3.815 0 0 0-.81-.084c-.655 0-1.161.227-1.524.686-.364.454-.548 1.104-.548 1.939s.143 1.45.423 1.885c.28.43.732.638 1.351.638a2.57 2.57 0 0 0 1.007-.214c.34-.149.655-.34.947-.573v-.006Z" fill="#000"/><path d="M50.558 195.809H49.39v-.769a5.69 5.69 0 0 1-1.132.715 2.785 2.785 0 0 1-1.19.251c-.727 0-1.293-.221-1.698-.662-.405-.448-.607-1.104-.607-1.963v-4.503h1.167v3.948c0 .352.018.657.047.907.036.251.102.46.209.638a.996.996 0 0 0 .435.4c.178.084.434.125.774.125.303 0 .631-.077.988-.238a4.532 4.532 0 0 0 1.007-.603v-5.177h1.167v6.937-.006Zm9.957-.435a7.25 7.25 0 0 1-1.108.435 3.929 3.929 0 0 1-1.108.155c-.5 0-.958-.071-1.375-.215a2.83 2.83 0 0 1-1.072-.668 2.977 2.977 0 0 1-.703-1.133c-.167-.453-.25-.99-.25-1.599 0-1.133.31-2.022.929-2.672.625-.644 1.447-.967 2.465-.967.4 0 .786.054 1.168.167.387.114.738.251 1.054.412v1.3h-.06a4.437 4.437 0 0 0-1.102-.638 2.974 2.974 0 0 0-1.101-.22c-.661 0-1.185.22-1.567.668-.38.441-.571 1.097-.571 1.956s.184 1.48.56 1.933c.375.447.905.668 1.584.668.238 0 .476-.03.72-.095a2.85 2.85 0 0 0 .655-.245 4.323 4.323 0 0 0 .828-.531h.06v1.289h-.006Z" fill="#000"/><path fill-rule="evenodd" clip-rule="evenodd" d="M69.93 195.809h-1.162v-.74c-.101.072-.244.167-.422.299-.173.125-.346.22-.507.298a3.69 3.69 0 0 1-.667.239 3.55 3.55 0 0 1-.887.101 2.231 2.231 0 0 1-1.59-.62c-.435-.412-.649-.943-.649-1.587 0-.525.113-.949.333-1.271.227-.328.548-.584.965-.769.423-.185.93-.311 1.519-.382.59-.066 1.226-.113 1.905-.149v-.179c0-.263-.047-.483-.143-.656a.98.98 0 0 0-.399-.412 1.604 1.604 0 0 0-.595-.191 4.753 4.753 0 0 0-1.75.078 8.161 8.161 0 0 0-1.168.346h-.06v-1.187c.227-.06.554-.132.989-.203a7.666 7.666 0 0 1 1.268-.114 5.6 5.6 0 0 1 1.269.126c.363.077.679.214.94.411.263.191.46.436.596.74.137.304.203.68.203 1.121v4.707l.011-.006Zm-1.162-1.706v-1.933c-.357.018-.774.054-1.256.096a6.58 6.58 0 0 0-1.144.179c-.333.095-.607.244-.81.447-.208.197-.31.477-.31.829 0 .4.12.698.358.901.238.197.608.298 1.096.298.41 0 .786-.077 1.12-.238.339-.161.654-.352.94-.579h.006Z" fill="#000"/><path d="M78.308 195.744a5.86 5.86 0 0 1-.72.143 5.182 5.182 0 0 1-.691.053c-.709 0-1.245-.191-1.614-.572-.37-.382-.554-.991-.554-1.832v-3.692h-.786v-.984h.786v-1.993h1.167v1.993h2.406v.984h-2.406v3.161c0 .364.006.651.024.859.018.203.072.394.173.573.09.167.214.286.37.364.16.072.404.113.732.113.19 0 .387-.024.595-.083a5.68 5.68 0 0 0 .447-.143h.06v1.05l.011.006Z" fill="#000"/><path fill-rule="evenodd" clip-rule="evenodd" d="M83.513 187.708h-1.316v-1.211h1.316v1.211Zm-.078 8.101h-1.167v-6.937h1.167v6.937Zm10.749-3.466c0 1.134-.292 2.023-.87 2.679-.577.656-1.351.978-2.328.984-.982 0-1.756-.328-2.34-.984-.578-.656-.864-1.545-.864-2.679 0-1.133.286-2.022.864-2.678.578-.656 1.358-.99 2.34-.99.983 0 1.745.328 2.329.99.577.656.87 1.545.87 2.678Zm-1.203 0c0-.9-.178-1.563-.53-1.998-.351-.441-.84-.656-1.465-.656-.63 0-1.125.22-1.477.656-.345.435-.518 1.104-.518 1.998 0 .895.173 1.533.53 1.981.352.447.84.668 1.471.668.632 0 1.108-.221 1.46-.662.356-.448.535-1.11.535-1.987h-.006Z" fill="#000"/><path d="M104.326 195.809h-1.168v-3.949c0-.316-.018-.614-.053-.895-.036-.28-.107-.501-.203-.656a.924.924 0 0 0-.446-.388c-.197-.089-.447-.131-.757-.131a2.42 2.42 0 0 0-1 .239 5.158 5.158 0 0 0-1 .602v5.178H98.53v-6.937h1.167v.769a4.717 4.717 0 0 1 1.132-.71 2.999 2.999 0 0 1 1.197-.256c.75 0 1.316.226 1.709.68.393.453.59 1.103.59 1.95v4.504Zm15.512-8.536h-.059a5.5 5.5 0 0 0-.5-.114 2.843 2.843 0 0 0-.548-.059c-.501 0-.864.113-1.09.334-.226.221-.334.62-.334 1.199v.239h2.103v.984h-2.067v5.959h-1.167v-5.959h-.786v-.984h.786v-.233c0-.823.202-1.456.613-1.897.411-.442 1.001-.662 1.775-.662a6.177 6.177 0 0 1 1.28.125v1.068h-.006Z" fill="#000"/><path fill-rule="evenodd" clip-rule="evenodd" d="M129.021 192.343c0 1.134-.292 2.023-.87 2.679-.577.656-1.351.978-2.322.984-.983 0-1.757-.328-2.34-.984-.578-.656-.864-1.545-.864-2.679 0-1.133.286-2.022.864-2.678.577-.656 1.357-.99 2.34-.99.983 0 1.745.328 2.322.99.578.656.87 1.545.87 2.678Zm-1.203 0c0-.9-.179-1.563-.53-1.998-.351-.441-.84-.656-1.465-.656-.631 0-1.125.22-1.477.656-.345.435-.518 1.104-.518 1.998 0 .895.173 1.533.53 1.981.351.447.84.668 1.471.668.631 0 1.108-.221 1.459-.662.357-.448.536-1.11.536-1.987h-.006Z" fill="#000"/><path d="M137.685 190.142h-.059a4.116 4.116 0 0 0-.506-.089 5.2 5.2 0 0 0-.578-.03c-.357 0-.709.083-1.042.244a4.666 4.666 0 0 0-.965.615v4.927h-1.167v-6.937h1.167v1.026c.465-.37.87-.639 1.221-.788a2.695 2.695 0 0 1 1.084-.238c.202 0 .351.005.44.017.09.006.227.03.411.054v1.199h-.006Z" fill="#000"/><path fill-rule="evenodd" clip-rule="evenodd" d="M154.127 192.457h-5.103c0 .429.065.799.19 1.115.125.316.304.573.53.776.215.196.471.346.762.447.298.101.626.149.983.149.47 0 .947-.095 1.417-.28.483-.191.822-.376 1.025-.561h.059v1.271a9.505 9.505 0 0 1-1.203.417 4.797 4.797 0 0 1-1.292.167c-1.149 0-2.049-.31-2.692-.93-.643-.627-.964-1.51-.964-2.661s.309-2.034.923-2.702c.619-.668 1.435-1.002 2.441-1.002.935 0 1.656.274 2.156.817.506.549.762 1.324.762 2.332v.633l.006.012Zm-1.137-.895c0-.615-.161-1.086-.465-1.42-.303-.334-.762-.501-1.381-.501-.62 0-1.12.185-1.495.555-.369.37-.578.823-.625 1.372h3.966v-.006Z" fill="#000"/><path d="M164.429 195.809h-1.465l-1.971-2.666-1.977 2.666h-1.358l2.704-3.46-2.68-3.483h1.471l1.953 2.624 1.96-2.624h1.363l-2.721 3.418 2.721 3.525Zm9.183-.435a7.263 7.263 0 0 1-1.108.435 3.922 3.922 0 0 1-1.107.155 4.19 4.19 0 0 1-1.376-.215 2.83 2.83 0 0 1-1.072-.668 2.978 2.978 0 0 1-.703-1.133c-.166-.453-.25-.99-.25-1.599 0-1.133.31-2.022.929-2.672.625-.644 1.447-.967 2.466-.967.399 0 .786.054 1.167.167.387.114.738.251 1.054.412v1.3h-.06a4.325 4.325 0 0 0-1.101-.638 2.98 2.98 0 0 0-1.102-.22c-.661 0-1.185.22-1.566.668-.381.441-.572 1.097-.572 1.956s.185 1.48.56 1.933c.375.447.905.668 1.584.668.238 0 .476-.03.72-.095.245-.06.465-.144.655-.245a7.12 7.12 0 0 0 .477-.274c.149-.102.268-.185.351-.257h.06v1.289h-.006Z" fill="#000"/><path fill-rule="evenodd" clip-rule="evenodd" d="M183.443 192.457h-5.103c0 .429.066.799.191 1.115a2.083 2.083 0 0 0 1.292 1.223c.298.101.625.149.982.149a3.87 3.87 0 0 0 1.418-.28c.482-.191.822-.376 1.024-.561h.06v1.271a9.505 9.505 0 0 1-1.203.417c-.411.114-.84.167-1.293.167-1.149 0-2.048-.31-2.691-.93-.643-.627-.965-1.51-.965-2.661s.31-2.034.923-2.702c.619-.668 1.435-1.002 2.442-1.002.935 0 1.655.274 2.155.817.506.549.763 1.324.763 2.332v.633l.005.012Zm-1.137-.895c0-.615-.161-1.086-.464-1.42-.304-.334-.763-.501-1.382-.501-.619 0-1.119.185-1.495.555-.369.37-.577.823-.625 1.372h3.966v-.006Z" fill="#000"/><path d="M188.928 195.809h-1.161v-9.67h1.161v9.67Zm6.027 0h-1.168v-9.67h1.168v9.67Z" fill="#000"/><path fill-rule="evenodd" clip-rule="evenodd" d="M205.602 192.457h-5.103c0 .429.065.799.19 1.115.131.316.304.573.53.776.215.196.471.346.762.447.298.101.626.149.983.149.47 0 .947-.095 1.417-.28.483-.191.822-.376 1.025-.561h.059v1.271a9.505 9.505 0 0 1-1.203.417 4.797 4.797 0 0 1-1.292.167c-1.149 0-2.049-.31-2.692-.93-.643-.627-.964-1.51-.964-2.661s.309-2.034.923-2.702c.619-.668 1.435-1.002 2.441-1.002.935 0 1.656.274 2.156.817.506.549.762 1.324.762 2.332v.633l.006.012Zm-1.137-.895c0-.615-.161-1.086-.465-1.42-.304-.334-.762-.501-1.381-.501-.62 0-1.12.185-1.495.555-.369.37-.578.823-.625 1.372h3.966v-.006Z" fill="#000"/><path d="M215.702 195.809h-1.167v-3.949c0-.316-.018-.614-.054-.895-.036-.28-.107-.501-.203-.656a.924.924 0 0 0-.446-.388c-.197-.089-.447-.131-.756-.131-.31 0-.65.078-1.001.239a5.14 5.14 0 0 0-1 .602v5.178h-1.168v-6.937h1.168v.769a4.705 4.705 0 0 1 1.131-.71 2.999 2.999 0 0 1 1.197-.256c.75 0 1.316.226 1.709.68.393.453.59 1.103.59 1.95v4.504Zm9.903-.435a7.223 7.223 0 0 1-1.108.435 3.922 3.922 0 0 1-1.107.155 4.19 4.19 0 0 1-1.376-.215 2.83 2.83 0 0 1-1.072-.668 2.978 2.978 0 0 1-.703-1.133c-.166-.453-.25-.99-.25-1.599 0-1.133.31-2.022.929-2.672.626-.644 1.447-.967 2.466-.967.399 0 .786.054 1.167.167.387.114.738.251 1.054.412v1.3h-.06a4.43 4.43 0 0 0-1.101-.638 2.98 2.98 0 0 0-1.102-.22c-.661 0-1.185.22-1.566.668-.381.441-.572 1.097-.572 1.956s.185 1.48.56 1.933c.375.447.905.668 1.584.668.238 0 .476-.03.72-.095.245-.06.465-.144.656-.245a7.35 7.35 0 0 0 .476-.274c.149-.102.268-.185.351-.257h.06v1.289h-.006Z" fill="#000"/><path fill-rule="evenodd" clip-rule="evenodd" d="M235.437 192.457h-5.104c0 .429.066.799.191 1.115.125.316.303.573.53.776.214.196.47.346.762.447.298.101.625.149.982.149a3.87 3.87 0 0 0 1.418-.28c.476-.191.822-.376 1.024-.561h.06v1.271a9.505 9.505 0 0 1-1.203.417c-.411.114-.84.167-1.293.167-1.149 0-2.048-.31-2.691-.93-.643-.627-.965-1.51-.965-2.661s.31-2.034.923-2.702c.619-.668 1.435-1.002 2.442-1.002.935 0 1.655.274 2.155.817.507.549.763 1.324.763 2.332v.633l.006.012Zm-1.138-.895c0-.615-.161-1.086-.464-1.42-.304-.334-.763-.501-1.382-.501-.619 0-1.119.185-1.495.555-.369.37-.577.823-.625 1.372h3.966v-.006Z" fill="#000"/><path d="m128.175 59.909 23.778 10.105 1.894-2.434s2.251-6.86 5.765-12.903c3.513-6.042 4.686-8.75 7.384-10.648 2.703-1.897 3.603-3.34 8.468-4.688 4.865-1.354 24.588-7.04 24.588-7.04s10.898-1.986 11.981-1.986h3.514l-1.084-1.354-28.911-4.873s-4.592-1.712-8.468-1.175c-3.871.542-25.94 5.231-25.94 5.231l-5.223 1.623-1.352.81-13.958-1.896s-5.586-8.393-7.837-11.728c-2.251-3.34-9.909-11.28-11.797-12.634-1.893-1.354-9.456-3.251-11.981-3.251-2.525 0-18.913-1.086-18.913-1.086s4.412 6.043 5.496 7.397c1.078 1.354 7.295 7.94 10.088 9.025 2.793 1.086 6.396 2.076 10.177 5.685 3.781 3.61 19.634 24.088 19.634 24.088s1.351 6.586 1.619 8.483c.268 1.897 1.084 5.231 1.084 5.231l-.006.018Z" fill="#000"/><path d="M141.056 7.671s-2.519 5.864-3.061 6.765c-.542.9-1.352 4.152-1.084 5.231.268 1.08 2.793 2.709 5.223 3.245 2.429.543 5.496 0 7.116-3.787 1.62-3.788 2.162-6.318 1.352-7.672-.81-1.354-3.603-5.231-3.603-5.231l-2.972-1.354-2.971 2.797v.006Z" fill="#000"/><path d="M0 137.177c28.548-13.249 74.253-21.833 125.763-21.833 55.602 0 104.439 10.004 132.237 25.078-32.776-10.827-80.815-17.657-134.351-17.657-47.973 0-91.528 5.482-123.649 14.412Z" fill="#DDD"/><path d="m68.911 121.715 7.658.268s5.133-4.694 10.088-6.585c4.955-1.897 10.987-3.245 14.232-3.245h4.955l11.981-16.966 9.278-9.562 2.972-2.708 4.412-1.712 9.546 7.397 9.01 10.916 4.145 4.689 4.865 6.86s6.485 11.37 9.004 13.356c2.525 1.986 9.909 8.841 11.261 9.652 1.352.811 2.972 2.165 2.972 2.165l-5.223-15.611s-5.401-10.284-5.675-11.728c-.268-1.443-1.709-2.529-1.709-2.529s0-6.043-2.704-9.294c-2.703-3.25-9.546-11.459-9.546-11.459l-9.819-11.549-20.539-8.482s-13.238 9.652-14.953 10.194c-1.709.543-10.177 7.672-11.529 8.209-1.352.542-6.217 7.039-6.217 7.039l-12.88 13.982-15.585 16.691v.012Z" fill="#000"/></g><defs><clipPath id="a"><path fill="#000" d="M0 0h258v196H0z"/></clipPath></defs></svg>