<?xml version="1.0" encoding="UTF-8"?><svg id="Layer_1" xmlns="http://www.w3.org/2000/svg" viewBox="0 0 1080 949.81"><defs><style>.cls-1{fill-rule:evenodd;}.cls-1,.cls-2{fill:#1a212b;stroke-width:0px;}</style></defs><path class="cls-2" d="M148.49,595.19v54.82c0,4.19.37,6.73,1.09,7.63.82.83,3.18,1.24,7.1,1.24h21c9.54,0,17.09-.55,22.64-1.64,4.91-1,8.09-2.32,9.54-3.96,1.45-1.64,2.78-5.45,3.95-11.45.46-2.28,1.6-3.37,3.42-3.27,1.72.09,2.58,1.31,2.59,3.68,0,.63-.05,1.64-.14,3-.73,8.82-1.09,16.87-1.09,24.14,0,5.55.27,11.05.82,16.5.18,1.82.26,3.14.27,3.95,0,2.28-.87,3.41-2.59,3.41-1.92,0-3.05-.99-3.42-3l-.82-3.82c-1.09-6.1-3.27-10.22-6.54-12.42-3.27-2.18-8.82-3.27-16.64-3.27h-30.14c-4.46,0-7.46.46-9.01,1.36-1.45.92-2.18,2.73-2.18,5.45l.14,4.51v50.19c0,7.73,1.37,12.55,4.1,14.46,2.81,1.91,9.85,2.86,21.14,2.86,35.73,0,58.69-8.05,68.87-24.14.99-1.55,2-2.37,3-2.45,1.64-.1,2.45,1.09,2.45,3.54,0,5.91-3.32,12.95-9.96,21.14-7.99,9.82-18.09,14.72-30.27,14.72-2.64,0-6.18-.19-10.63-.55-17.37-1.64-31.73-2.45-43.1-2.45-15.92,0-27.14.55-33.69,1.64-3.46.64-5.82.95-7.09.95-2.91,0-4.36-1-4.36-3,0-1.54,1.18-2.63,3.54-3.27l5.18-1.5c6.54-1.82,9.82-8.18,9.82-19.1l.14-8.86v-115.25c0-13-1.45-21.72-4.36-26.18-2.82-4.54-8.36-6.82-16.64-6.82-2.63,0-3.95-.87-3.95-2.59,0-2.55,2.04-3.82,6.14-3.82,2.27,0,5.31.22,9.13.68,13,1.45,28.64,2.18,46.92,2.18,11.09,0,20.91-.19,29.46-.55l19.37-.95c5.37-.19,8.64-.37,9.83-.55,2.45-.37,4.27-.55,5.45-.55,3,0,4.5,1.31,4.5,3.95,0,.82-.14,1.87-.41,3.14-.27,1.28-.63,4.91-1.09,10.91l-.55,8.05c-.46,5.28-.91,8.59-1.36,9.95-.46,1.28-1.46,1.96-3,2.04-1.73.1-2.59-1.27-2.59-4.09v-3.54c0-2.91-.55-5.69-1.64-8.32-1.73-4.1-5.23-6.83-10.51-8.19-5.27-1.36-14.96-2.04-29.05-2.04h-21.41c-5.64,0-9.27.73-10.91,2.18-1.65,1.36-2.46,4.46-2.46,9.28"/><path class="cls-1" d="M344.06,635.43c3.64,1.91,7.14,4.55,10.51,7.91v-43.37c0-5.55-.64-9.37-1.91-11.46-1.19-2.08-4.09-3.13-8.73-3.14-1.09,0-2.04.05-2.86.14-.82.1-2.64.27-5.45.55v-4.5l11.18-2.86c4.1-1.09,8.19-2.23,12.28-3.41s7.68-2.32,10.78-3.41c1.45-.46,3.86-1.32,7.23-2.6l.82.28-.27,14.31c-.1,5.18-.19,10.55-.27,16.1-.1,5.45-.14,10.87-.14,16.23l-.27,111.43c0,5.91.72,10.05,2.18,12.41,1.45,2.37,5.32,3.55,11.59,3.55h3.01c.99-.1,2-.23,3-.42v4.51c-.55.18-7.14,2.45-19.78,6.82l-21.41,8.04-.95-1.23v-16.77c-5.09,5.54-9.5,9.5-13.23,11.86-6.64,4.09-14.31,6.13-23.05,6.13-15.45,0-28-5.95-37.64-17.86-9.54-12.01-14.31-25.87-14.31-41.6,0-19.74,5.73-36.64,17.19-50.74,11.54-14.18,25.63-21.28,42.28-21.28,6.63,0,12.73,1.46,18.27,4.37ZM348.03,741.53c4.36-4.18,6.54-8.13,6.54-11.86v-58.51c0-11.82-3.18-20.14-9.55-24.96-6.27-4.91-12.41-7.36-18.4-7.36-11.46,0-20.37,5.09-26.74,15.27-6.37,10.1-9.54,22.55-9.54,37.37s3.36,27.68,10.09,39.14c6.83,11.45,16.96,17.19,30.42,17.19,7.09,0,12.81-2.09,17.19-6.28"/><path class="cls-2" d="M446.63,633.65v87.29c0,6.18.87,11.15,2.59,14.87,3.37,6.91,9.54,10.37,18.55,10.37,6.18,0,12.23-2.05,18.14-6.14,3.36-2.27,6.77-5.4,10.22-9.41v-74.73c0-7-1.36-11.6-4.09-13.78s-8.18-3.5-16.37-3.95v-4.51h44.05v96.02c0,6.18,1.1,10.46,3.28,12.81,2.27,2.28,6.99,3.28,14.18,3.01v3.82c-5.01,1.36-8.69,2.41-11.04,3.14-2.37.64-6.32,1.87-11.87,3.68-2.37.82-7.55,2.78-15.54,5.86-.46,0-.73-.22-.83-.68-.09-.36-.14-.82-.14-1.36v-21.96c-6.18,7.36-11.82,12.82-16.9,16.37-7.73,5.45-15.92,8.18-24.55,8.18-7.92,0-15.38-2.81-22.38-8.45-7.09-5.54-10.63-14.86-10.63-27.96v-70.79c0-7.26-1.55-12.13-4.64-14.59-2.01-1.55-6.27-2.64-12.82-3.27v-3.83h40.78"/><path class="cls-2" d="M561.6,716.98h4.51c2.08,10.37,4.9,18.33,8.45,23.87,6.36,10.19,15.68,15.28,27.96,15.28,6.83,0,12.18-1.86,16.1-5.59,4-3.82,6-8.73,6-14.73,0-3.82-1.14-7.5-3.41-11.04-2.28-3.55-6.27-7-12-10.37l-15.28-8.72c-11.19-6-19.42-12.05-24.68-18.14-5.28-6.1-7.92-13.27-7.92-21.55,0-10.19,3.64-18.54,10.92-25.09,7.27-6.54,16.41-9.83,27.41-9.83,4.82,0,10.09.92,15.82,2.73,5.81,1.82,9.09,2.74,9.82,2.74,1.64,0,2.82-.23,3.54-.69.73-.45,1.36-1.18,1.91-2.18h3.28l.95,38.05h-4.24c-1.81-8.81-4.27-15.68-7.36-20.59-5.64-9.09-13.77-13.63-24.41-13.63-6.37,0-11.36,1.95-15.01,5.86-3.63,3.91-5.45,8.5-5.45,13.78,0,8.36,6.28,15.81,18.82,22.36l18,9.69c19.37,10.55,29.05,22.82,29.05,36.83,0,10.73-4.05,19.5-12.14,26.32-8,6.82-18.5,10.22-31.5,10.22-5.45,0-11.64-.91-18.55-2.73-6.91-1.81-11-2.73-12.27-2.73-1.09,0-2.04.41-2.86,1.23-.82.73-1.46,1.64-1.92,2.73h-3.54v-44.05"/><path class="cls-1" d="M684.21,650.83c11.55-12.54,26.37-18.82,44.46-18.82s32.91,5.91,44.73,17.73,17.72,27.55,17.73,47.19c0,18.1-5.73,33.83-17.19,47.19-11.46,13.37-26.28,20.05-44.46,20.05s-32.23-6.41-44.32-19.23c-12.09-12.81-18.14-28.91-18.14-48.28,0-18.09,5.73-33.36,17.19-45.82ZM706.17,647.29c-9.09,8.28-13.64,22.55-13.64,42.83,0,16.18,3.64,31.28,10.92,45.28,7.36,14,17.55,21,30.55,21,10.19,0,18-4.68,23.46-14.05,5.55-9.36,8.32-21.64,8.33-36.82,0-15.73-3.51-30.55-10.51-44.46-7-13.91-17.14-20.87-30.41-20.87-7.19,0-13.42,2.37-18.69,7.09"/><path class="cls-2" d="M809.14,756.12c9.63-.45,15.95-2.22,18.95-5.32,3.1-3.18,4.64-9.82,4.64-19.91v-87.56h-23.32v-9.14h23.32c0-14.36,1.95-26.5,5.86-36.41,7.46-19,21.14-28.5,41.05-28.51,7.99,0,15.13,1.6,21.41,4.78,6.36,3.18,9.54,7.46,9.54,12.81,0,3-1.09,5.69-3.27,8.05s-4.82,3.54-7.91,3.54c-2.64,0-4.91-.77-6.83-2.32-1.91-1.64-4.18-4.46-6.82-8.46l-2.32-3.54c-1.28-1.91-2.78-3.5-4.5-4.77-1.73-1.36-4.14-2.04-7.23-2.04-6.9,0-11.59,3.41-14.04,10.22-1.36,3.64-2.04,8.41-2.04,14.32v32.32h34.23v9.14h-33.95v87.56c0,10.27,1.36,16.87,4.09,19.78,2.81,2.82,10.09,4.64,21.82,5.45v3.82h-72.69v-3.82"/><path class="cls-2" d="M971.85,634.19v9.83h-27.82l-.27,78.56c0,6.9.58,12.13,1.77,15.68,2.18,6.28,6.46,9.42,12.81,9.42,3.28,0,6.1-.78,8.46-2.33,2.45-1.54,5.23-3.99,8.32-7.36l3.55,3-3.01,4.09c-4.73,6.37-9.73,10.88-15,13.51-5.28,2.64-10.37,3.95-15.28,3.95-10.73,0-18-4.77-21.82-14.31-2.09-5.19-3.14-12.37-3.14-21.55v-82.65h-14.87c-.46-.27-.82-.55-1.09-.82-.19-.27-.27-.63-.27-1.09,0-.91.19-1.59.55-2.04.45-.55,1.77-1.73,3.95-3.54,6.28-5.19,10.78-9.37,13.51-12.55,2.81-3.27,9.36-11.82,19.64-25.64,1.18,0,1.86.09,2.04.27.27.19.41.87.41,2.04v33.55h27.55"/><path class="cls-2" d="M536.54,250.36l99.54,42.22,7.92-10.18s9.43-28.66,24.14-53.92c14.7-25.26,19.6-36.57,30.92-44.49,11.31-7.92,15.07-13.95,35.43-19.61,20.36-5.65,102.93-29.41,102.93-29.41,0,0,45.62-8.3,50.15-8.3h14.7l-4.53-5.65-121.03-20.36s-19.23-7.17-35.44-4.91c-16.21,2.27-108.58,21.87-108.58,21.87l-21.87,6.79-5.66,3.4-58.43-7.92s-23.38-35.07-32.81-49.02c-9.43-13.95-41.47-47.13-49.39-52.79-7.92-5.66-39.59-13.57-50.15-13.57S335.2,0,335.2,0c0,0,18.48,25.27,23,30.92,4.53,5.66,30.55,33.19,42.23,37.7,11.68,4.53,26.77,8.68,42.61,23.76,15.83,15.08,82.18,100.67,82.18,100.67,0,0,5.66,27.53,6.8,35.44,1.13,7.92,4.52,21.87,4.52,21.87"/><path class="cls-2" d="M590.46,32.06s-10.56,24.51-12.81,28.28c-2.27,3.77-5.66,17.34-4.53,21.87,1.13,4.52,11.68,11.31,21.87,13.56,10.18,2.27,23,0,29.79-15.83s9.05-26.39,5.66-32.05c-3.4-5.66-15.08-21.87-15.08-21.87l-12.44-5.66-12.44,11.69"/><path class="cls-2" d="M0,573.24c119.5-55.38,310.82-91.24,526.46-91.24,232.76,0,437.19,41.78,553.54,104.78-137.21-45.23-338.31-73.78-562.41-73.78-200.81,0-383.15,22.92-517.59,60.24"/><path class="cls-2" d="M288.45,508.63l32.05,1.13s21.49-19.6,42.23-27.52c20.74-7.92,46-13.57,59.57-13.57h20.74l50.14-70.89,38.84-39.96,12.43-11.31,18.47-7.16,39.97,30.92,37.7,45.62,17.34,19.6,20.36,28.66s27.15,47.51,37.7,55.81,41.47,36.94,47.13,40.34c5.66,3.39,12.44,9.05,12.44,9.05l-21.87-65.22s-22.62-42.99-23.75-49.02c-1.14-6.04-7.17-10.56-7.17-10.56,0,0,0-25.27-11.31-38.84-11.31-13.56-39.96-47.88-39.96-47.88l-41.09-48.26-85.97-35.44s-55.43,40.34-62.58,42.61c-7.17,2.26-42.61,32.05-48.27,34.31-5.65,2.26-26.01,29.41-26.01,29.41l-53.92,58.44-65.23,69.75"/><path class="cls-2" d="M176.81,928.46l-8.43-21.24h-37.09l-8.43,21.24h-10.23l31.92-78.67h11.01l32.03,78.67h-10.79ZM134.67,898.57h30.34l-15.17-38.44-15.17,38.44ZM202.85,895.53v32.93h-9.44v-58.22h9.33v8.65c3.37-5.84,9.89-10,18.54-10,12.59,0,20.9,7.64,20.9,23.04v36.53h-9.44v-35.4c0-10.34-5.62-15.96-14.27-15.96-8.2,0-15.62,6.18-15.62,18.43Z"/><path class="cls-2" d="M539.83,929.7c-15.96,0-28.43-12.36-28.43-30.79s13.04-30.01,28.55-30.01c13.15,0,24.5,8.43,26.07,20.79h-9.33c-2.02-7.64-8.65-12.47-16.86-12.47-10.68,0-18.77,8.88-18.77,21.69s7.98,22.48,18.88,22.48c8.09,0,14.5-4.61,16.75-12.81h9.33c-2.14,13.15-13.37,21.13-26.19,21.13ZM600.13,929.7c-16.3,0-29.33-12.03-29.33-30.79s13.04-30.01,29.33-30.01,29.22,11.91,29.22,30.01-13.15,30.79-29.22,30.79ZM600.13,921.38c11.35,0,19.55-9.1,19.55-22.48s-8.32-21.69-19.55-21.69-19.67,8.99-19.67,21.69,8.32,22.48,19.67,22.48ZM648.19,894.86v33.6h-9.44v-58.22h9.22v8.54c3.15-5.84,9.1-9.89,17.76-9.89,7.19,0,14.27,3.26,17.76,11.01,3.48-6.52,10.11-11.01,18.99-11.01,11.13,0,20.68,6.18,20.68,22.14v37.42h-9.44v-36.08c0-10.34-5.73-15.28-13.37-15.28s-14.72,6.29-14.72,17.76v33.6h-9.44v-36.08c0-10.34-5.73-15.28-13.26-15.28s-14.72,6.18-14.72,17.76ZM765.02,929.7c-9.33,0-16.52-4.94-19.78-11.35v31.47h-9.44v-79.57h9.44v9.67c3.15-6.29,10.11-11.01,19.89-11.01,14.72,0,26.86,10.68,26.86,30.01s-12.47,30.79-26.97,30.79ZM763.67,921.6c10.34,0,18.54-8.43,18.54-22.7s-8.2-21.92-18.54-21.92-18.66,7.64-18.66,21.92,8.77,22.7,18.66,22.7ZM838.89,928.46l-.11-9.44c-3.48,6.29-10,10.68-19.89,10.68-10.45,0-20.79-5.62-20.79-17.31,0-12.81,11.46-16.75,28.32-19.44l11.69-1.8v-1.57c0-9.33-5.28-13.04-13.82-13.04s-13.82,4.16-15.17,11.35h-9.22c1.46-11.69,11.91-18.99,24.72-18.99s22.81,5.51,22.81,20.9l-.22,26.19c0,1.8.11,4.61.56,12.47h-8.88ZM807.42,911.94c0,6.63,5.96,10,13.15,10,10,0,17.53-6.41,17.53-17.87v-5.39c-21.58,2.7-30.68,5.06-30.68,13.26ZM869.65,895.53v32.93h-9.44v-58.22h9.33v8.65c3.37-5.84,9.89-10,18.54-10,12.59,0,20.9,7.64,20.9,23.04v36.53h-9.44v-35.4c0-10.34-5.62-15.96-14.27-15.96-8.2,0-15.62,6.18-15.62,18.43ZM967.36,870.24l-31.69,79.57h-9.77l10.23-24.84-23.71-54.73h10.12l18.32,43.72,16.85-43.72h9.66Z"/><path class="cls-2" d="M386.69,905.84c.47,0,.8.46.66.91-.9,2.82-2.21,5.27-3.93,7.32-1.91,2.28-4.13,4.17-6.66,5.66-2.54,1.5-5.28,2.6-8.23,3.3-2.95.71-5.92,1.07-8.91,1.07-4.11,0-7.99-.69-11.65-2.07-3.66-1.38-6.87-3.4-9.63-6.05-2.76-2.65-4.95-5.88-6.55-9.69-1.61-3.81-2.41-8.1-2.41-12.88s.82-8.68,2.46-12.38c1.64-3.7,3.83-6.85,6.55-9.47,2.72-2.61,5.9-4.61,9.52-5.99,3.62-1.38,7.34-2.07,11.15-2.07s7.6.67,11.14,2.02c3.55,1.34,6.65,3.3,9.3,5.88,2.65,2.58,4.76,5.82,6.33,9.75,1.57,3.92,2.35,8.46,2.35,13.61v2.44c0,.38-.31.69-.69.69h-43.55c.52,4.56,2.31,8.18,5.38,10.87,3.06,2.69,6.65,4.03,10.75,4.03,2.69,0,5.27-.52,7.73-1.57,2.35-1,4.19-2.67,5.52-5.02.13-.22.35-.36.61-.36h12.77ZM358.84,874.7c-3.81,0-7.13,1.16-9.97,3.47-2.84,2.32-4.52,5.49-5.04,9.52h29.57c-.3-3.88-1.79-7.02-4.48-9.41-2.69-2.39-6.05-3.59-10.08-3.59h0Z"/><path class="cls-2" d="M413.86,922.98c-4.93,0-8.85-1.03-11.76-3.08-2.91-2.05-4.37-6.25-4.37-12.6v-31.48h-9.05c-.38,0-.69-.31-.69-.69v-9.59c0-.38.31-.69.69-.69h9.05v-13.42c0-.38.31-.69.69-.69h12.84c.38,0,.69.31.69.69v13.42h12.75c.38,0,.69.31.69.69v9.59c0,.38-.31.69-.69.69h-12.75v28.68c0,3.06.5,5.02,1.51,5.88,1.01.86,2.67,1.29,4.98,1.29h6.25c.38,0,.69.31.69.69v9.73c0,.37-.3.68-.67.69-1.82.06-3.42.11-4.82.15-1.57.04-3.59.06-6.05.06h0Z"/><path class="cls-2" d="M454.46,924.21c-3.44,0-6.66-.39-9.69-1.18-3.02-.78-5.71-2-8.07-3.64-2.35-1.64-4.28-3.7-5.77-6.16-1.38-2.27-2.27-4.91-2.7-7.94-.06-.42.26-.8.69-.8h12.19c.32,0,.61.22.68.54.59,2.79,2.02,4.87,4.27,6.24,2.39,1.46,5.27,2.18,8.63,2.18,2.76,0,5.24-.54,7.45-1.62,2.2-1.08,3.3-2.78,3.3-5.1,0-2.09-.99-3.66-2.97-4.7-1.98-1.04-4.87-1.91-8.68-2.58l-5.82-1.01c-5.82-.97-10.4-2.84-13.72-5.6-3.33-2.76-4.98-6.39-4.98-10.87,0-2.91.61-5.53,1.85-7.84,1.23-2.32,2.93-4.26,5.1-5.82,2.17-1.57,4.69-2.78,7.56-3.64,2.87-.86,5.96-1.29,9.24-1.29s6.14.39,9.02,1.18c2.87.78,5.39,1.96,7.56,3.53,2.17,1.57,3.98,3.47,5.43,5.71,1.32,2.03,2.19,4.33,2.62,6.91.07.43-.25.82-.68.82h-12.01c-.3,0-.57-.19-.66-.47-.71-2.23-2.03-3.92-3.95-5.07-2.05-1.23-4.61-1.85-7.67-1.85-2.76,0-5.1.6-7,1.79-1.91,1.19-2.86,2.76-2.86,4.71s.82,3.25,2.46,4.14c1.64.9,4.11,1.61,7.39,2.13l5.82,1.01c6.35,1.12,11.39,3.04,15.12,5.77,3.73,2.73,5.6,6.59,5.6,11.59,0,3.06-.69,5.77-2.07,8.12-1.38,2.35-3.19,4.33-5.43,5.94-2.24,1.61-4.87,2.82-7.9,3.64-3.02.82-6.14,1.23-9.35,1.23h0Z"/><path class="cls-1" d="M282.96,883.88l37.95-37.95c.16-.18.22-.44.14-.67l-2.24-6.85c-.16-.49-.78-.64-1.16-.26l-13.43,13.43v-15.73c0-.26-.15-.5-.38-.62l-6.42-3.26c-.46-.23-1,.11-1,.63v18.99l-11.13-11.13c-.18-.18-.46-.25-.71-.17l-6.85,2.24c-.49.16-.64.78-.26,1.16l13.43,13.43h-15.73c-.26,0-.5.15-.62.38l-3.26,6.42c-.23.46.11,1,.63,1h18.99l-11.13,11.13c-.18.18-.25.46-.17.71l2.24,6.85c.16.48.74.62,1.12.3h0Z"/><path class="cls-1" d="M328.74,857.11h-13.18c-.18,0-.36.07-.49.2l-18.44,18.44c-.13.13-.21.31-.21.49v9.93c0,.26.15.5.38.62l6.42,3.26c.46.23,1-.11,1-.63v-18.99l11.13,11.13c.18.18.46.25.71.17l6.85-2.24c.49-.16.63-.78.26-1.16l-13.43-13.43h15.73c.26,0,.5-.15.62-.38l3.26-6.42c.23-.46-.11-1-.63-1h0Z"/></svg>