<svg xmlns="http://www.w3.org/2000/svg" viewBox="0 0 172.5 92.62"><defs><style>.a{fill:#e3000f;}.b{fill:#fff;}.c{fill:#00a650;}</style></defs><title>Heineken logo</title><path class="a" d="M501.87,498.82l-6.12,18.81a.07.07,0,0,0,0,.09l.09.08.1.07a.08.08,0,0,0,.09,0l16-11.63,16,11.63a.08.08,0,0,0,.09,0l.1-.07.09-.08a.08.08,0,0,0,0-.09l-6.12-18.8,16-11.61a.07.07,0,0,0,0-.09,1,1,0,0,0,0-.12.89.89,0,0,0,0-.11.08.08,0,0,0-.08-.05H518.35L512.26,468a.08.08,0,0,0-.08-.05h-.24a.08.08,0,0,0-.08.05l-6.1,18.81H486a.08.08,0,0,0-.08.05.89.89,0,0,0,0,.11l0,.12a.07.07,0,0,0,0,.09Z" transform="translate(-425.75 -465.69)"/><path class="b" d="M528.42,520.11a1.56,1.56,0,0,1-.84-.25h0s-.64-.4-1.62-1.06c-2.87-1.94-9.92-6.72-13.89-9.53-3.8,2.7-10.32,7.12-13.89,9.53-1,.67-1.63,1.07-1.64,1.07a1.5,1.5,0,0,1-.83.24,1.56,1.56,0,0,1-.77-.2c-.2-.12-.36-.24-.4-.27a3.18,3.18,0,0,1-.38-.3,1.57,1.57,0,0,1-.45-1.55s.18-.71.51-1.87c1.19-4.14,3.38-11.69,4.78-16.16-3.74-2.79-10-7.61-13.36-10.26-.95-.74-1.52-1.22-1.52-1.23a1.56,1.56,0,0,1-.53-1.51c.05-.21.11-.4.13-.46a3.19,3.19,0,0,1,.17-.46,1.56,1.56,0,0,1,1.33-.91h0s.73-.05,1.94-.1c4.31-.15,12.18-.4,16.84-.45,1.49-4.41,4.16-11.82,5.63-15.88.41-1.14.69-1.82.7-1.83a1.58,1.58,0,0,1,1.27-1l.42,0h.12l.43,0a1.56,1.56,0,0,1,1.28,1h0c.07.16.34.85.69,1.81,1.47,4.06,4.15,11.48,5.63,15.88,4.67.05,12.53.3,16.84.45,1.21,0,1.94.1,2,.1a1.55,1.55,0,0,1,1.32.91c.08.18.14.36.16.44a2.76,2.76,0,0,1,.14.48,1.55,1.55,0,0,1-.54,1.52c-.1.08-.65.54-1.51,1.21-3.4,2.65-9.62,7.48-13.36,10.27,1.39,4.46,3.58,12,4.77,16.16.34,1.18.51,1.89.51,1.89a1.55,1.55,0,0,1-.46,1.53c-.16.14-.31.25-.37.29a2.82,2.82,0,0,1-.41.28A1.48,1.48,0,0,1,528.42,520.11Z" transform="translate(-425.75 -465.69)"/><path class="a" d="M501.87,498.82l-6.12,18.81a.07.07,0,0,0,0,.09l.09.08.1.07a.08.08,0,0,0,.09,0l16-11.63,16,11.63a.08.08,0,0,0,.09,0l.1-.07.09-.08a.08.08,0,0,0,0-.09l-6.12-18.8,16-11.61a.07.07,0,0,0,0-.09,1,1,0,0,0,0-.12.89.89,0,0,0,0-.11.08.08,0,0,0-.08-.05H518.35L512.26,468a.08.08,0,0,0-.08-.05h-.24a.08.08,0,0,0-.08.05l-6.1,18.81H486a.08.08,0,0,0-.08.05.89.89,0,0,0,0,.11l0,.12a.07.07,0,0,0,0,.09Z" transform="translate(-425.75 -465.69)"/><path class="c" d="M549,513.8v-.18h-1.17a1.56,1.56,0,0,0,1.66,1.76,1.72,1.72,0,0,0,1.86-1.86,1.38,1.38,0,0,0-1-1.49v0a1.45,1.45,0,0,0,.77-1.48,1.49,1.49,0,0,0-1.6-1.64c-1.15,0-1.51.84-1.48,1.86h1.09v-.13c0-.28.06-.65.42-.65s.43.36.43.64c0,.7-.28.83-1,.83v1.09c.71,0,.95.17.95.88,0,.37,0,.89-.54.89a.47.47,0,0,1-.46-.49" transform="translate(-425.75 -465.69)"/><polygon class="c" points="120.81 43.3 117.41 43.3 117.41 44.38 119.1 44.38 117.14 49.59 118.44 49.59 120.81 43.3"/><path class="c" d="M540.06,511.89v0a1.32,1.32,0,0,0,.86-1.33,1.58,1.58,0,1,0-3.15,0,1.34,1.34,0,0,0,.86,1.33v0a1.57,1.57,0,0,0-1.09,1.66,1.81,1.81,0,1,0,3.61,0,1.55,1.55,0,0,0-1.09-1.66m-.73-2c.34,0,.38.44.38.67s0,.71-.38.71-.35-.48-.35-.71.05-.66.35-.66m0,4.43c-.43,0-.52-.57-.52-.89s.09-.91.51-.91.55.6.55.91-.12.89-.55.89" transform="translate(-425.75 -465.69)"/><polygon class="c" points="109.61 43.3 107.8 43.3 107.8 44.38 108.41 44.38 108.41 49.59 109.61 49.59 109.61 43.3"/><polygon class="c" points="51.09 43.3 48.34 43.3 48.34 49.59 51.11 49.59 51.11 48.42 49.7 48.42 49.7 47 50.92 47 50.92 45.83 49.7 45.83 49.7 44.46 51.09 44.46 51.09 43.3"/><path class="c" d="M490,513.79a.79.79,0,0,0-.8.78.8.8,0,0,0,.8.8.79.79,0,0,0,0-1.59" transform="translate(-425.75 -465.69)"/><polygon class="c" points="62.49 43.3 58.97 43.3 58.97 44.46 60.04 44.46 60.04 49.59 61.41 49.59 61.41 44.46 62.49 44.46 62.49 43.3"/><path class="c" d="M482.35,510.4v-1.21a2.67,2.67,0,0,0-1.22-.3,1.73,1.73,0,0,0-1.8,1.85,2.07,2.07,0,0,0,1.27,1.86c.38.26.81.44.81.92a.71.71,0,0,1-.8.69,1.8,1.8,0,0,1-1-.34v1.2a2.33,2.33,0,0,0,1.18.32,1.86,1.86,0,0,0,2-2c0-1.71-2.08-1.77-2.08-2.8a.61.61,0,0,1,.68-.62,1.64,1.64,0,0,1,1,.4" transform="translate(-425.75 -465.69)"/><path class="c" d="M470.32,551.11a11.08,11.08,0,0,1-4.1,2.76c-1.38.45-5.32.79-6.48-2.47-.25-.71,0-.92.59-1.11,1-.28,3.4-1,6-2a31.29,31.29,0,0,0,5.09-2.39,2.22,2.22,0,0,0,.83-3c-1.65-3.7-5.37-7.58-11.56-6.4A10.56,10.56,0,0,0,452.23,547c0,6.27,3.78,9.95,8.59,11.08a11.56,11.56,0,0,0,11.92-4.72C473.63,551.91,471.13,550.26,470.32,551.11Zm-11.14-4.94c-.48-1.33-.1-5.4,2.15-6.17s3.81.41,4.51,2.79a2.77,2.77,0,0,1-.08,2.17,4.08,4.08,0,0,1-1.84,1l-1.77.59C460.41,547.16,459.58,547.28,459.18,546.17Z" transform="translate(-425.75 -465.69)"/><path class="c" d="M528,551.11a11.08,11.08,0,0,1-4.1,2.76c-1.38.45-5.32.79-6.48-2.47-.25-.71,0-.92.59-1.11,1-.28,3.4-1,6-2a31.29,31.29,0,0,0,5.09-2.39,2.22,2.22,0,0,0,.83-3c-1.65-3.7-5.37-7.58-11.56-6.4A10.56,10.56,0,0,0,509.88,547c0,6.27,3.78,9.95,8.59,11.08a11.57,11.57,0,0,0,11.92-4.72C531.27,551.91,528.78,550.26,528,551.11Zm-11.15-4.94a7,7,0,0,1,.28-4A3.36,3.36,0,0,1,519,540a3,3,0,0,1,2.72.1,4.37,4.37,0,0,1,1.79,2.69,2.77,2.77,0,0,1-.08,2.17,4,4,0,0,1-1.84,1c-.76.28-1.45.49-1.77.6C518,547.13,517.23,547.28,516.82,546.17Z" transform="translate(-425.75 -465.69)"/><path class="c" d="M571.91,551.11a11.08,11.08,0,0,1-4.1,2.76c-1.38.45-5.32.79-6.48-2.47-.25-.71,0-.92.59-1.11,1-.28,3.4-1,6-2a31.29,31.29,0,0,0,5.09-2.39,2.22,2.22,0,0,0,.83-3c-1.65-3.7-5.37-7.58-11.56-6.4A10.56,10.56,0,0,0,553.82,547c0,6.27,3.78,9.95,8.59,11.08a11.56,11.56,0,0,0,11.92-4.72C575.22,551.91,572.72,550.26,571.91,551.11Zm-11.15-4.94a7,7,0,0,1,.28-4,3.36,3.36,0,0,1,1.87-2.14,3,3,0,0,1,2.72.1,4.37,4.37,0,0,1,1.79,2.69,2.77,2.77,0,0,1-.08,2.17,4,4,0,0,1-1.84,1c-.76.28-1.44.49-1.77.6C562,547.13,561.17,547.28,560.76,546.17Z" transform="translate(-425.75 -465.69)"/><path class="c" d="M442.28,552.31a2.19,2.19,0,0,1-.91,2.05L440,555a.55.55,0,0,0-.32.58,1,1,0,0,0,0,.21l.17,1.59c.08.43.37.5.94.5h10.17c.58,0,.87-.07.94-.5l.17-1.59a1.46,1.46,0,0,0,0-.21.55.55,0,0,0-.32-.58l-1.4-.63a2.2,2.2,0,0,1-.91-2.05V534.7a2.19,2.19,0,0,1,.91-2.05l1.4-.63a.54.54,0,0,0,.32-.58,1,1,0,0,0,0-.21l-.17-1.2c-.08-.43-.37-.5-.94-.5h-9.7c-.58,0-.87.07-.94.5l-.17,1.2a1.46,1.46,0,0,0,0,.21.55.55,0,0,0,.32.58l1.14.63c.65.38.7,1.21.7,2.05v4.91a.62.62,0,0,1-.62.62h-5.51a.62.62,0,0,1-.62-.62V534.7c0-.84,0-1.68.7-2.05l1.14-.63a.54.54,0,0,0,.32-.58,1,1,0,0,0,0-.21l-.17-1.2c-.08-.43-.37-.5-.94-.5h-9.68c-.58,0-.87.07-.94.5l-.17,1.2a1.46,1.46,0,0,0,0,.21.55.55,0,0,0,.32.58l1.4.63a2.21,2.21,0,0,1,.91,2.05v17.61a2.19,2.19,0,0,1-.91,2.05l-1.4.63a.55.55,0,0,0-.32.58,1,1,0,0,0,0,.21l.17,1.59c.08.43.37.5.94.5H437c.58,0,.87-.07.94-.5l.17-1.59a1.46,1.46,0,0,0,0-.21.55.55,0,0,0-.32-.58l-1.4-.63a2.2,2.2,0,0,1-.91-2.05v-7.16a.62.62,0,0,1,.62-.62h5.51a.62.62,0,0,1,.62.62v7.16Z" transform="translate(-425.75 -465.69)"/><path class="c" d="M482.35,532.48a3.67,3.67,0,1,1-3.67-3.54A3.61,3.61,0,0,1,482.35,532.48Z" transform="translate(-425.75 -465.69)"/><path class="c" d="M474.67,557.87c-.55,0-.83-.07-.91-.48l-.16-1.59a1.22,1.22,0,0,1,0-.2.55.55,0,0,1,.3-.55l1.09-.61a2.17,2.17,0,0,0,.88-2V542.41c0-.84-.15-1.91-.88-2.29l-.7-.4a.54.54,0,0,1-.32-.58,1,1,0,0,1,0-.21l.17-1.2c.08-.43.37-.5.94-.5H482a.62.62,0,0,1,.62.62v14.61a2.16,2.16,0,0,0,.88,2l1.09.61a.54.54,0,0,1,.3.55.87.87,0,0,1,0,.2l-.16,1.59c-.07.42-.35.48-.91.48h-9.09Z" transform="translate(-425.75 -465.69)"/><path class="c" d="M495.45,538.31l1.08-.53c1.38-.65,4.07-1.8,6.29-1.09,1.93.62,3.59,2,3.59,5.69V553.5c0,.48,0,.67.24.79s.81-.32,1.3-.58.77,0,1.08.38a1.09,1.09,0,0,1,.33,1.26,5.12,5.12,0,0,1-4.82,2.71c-2,0-4.63-1.17-4.63-4.22V543.14a1.89,1.89,0,0,0-2.11-2.09c-1.39.17-2.41,1.34-2.41,3.42v8a2.16,2.16,0,0,0,.88,2l1.09.61a.54.54,0,0,1,.3.55.87.87,0,0,1,0,.2l-.16,1.59c-.07.42-.35.48-.91.48h-9.1c-.55,0-.83-.07-.91-.48l-.16-1.59a1.22,1.22,0,0,1,0-.2.55.55,0,0,1,.3-.55l1.09-.61a2.17,2.17,0,0,0,.88-2V542.41c0-.84-.14-1.91-.88-2.29l-.7-.4a.54.54,0,0,1-.32-.58,1,1,0,0,1,0-.21l.17-1.2c.08-.43.37-.5.94-.5h6.47a.86.86,0,0,1,.85.62Z" transform="translate(-425.75 -465.69)"/><path class="c" d="M584.24,538.31l1.08-.53c1.38-.65,4.07-1.8,6.29-1.09,1.93.62,3.59,2,3.59,5.69V553.5c0,.48,0,.67.24.79s.81-.32,1.3-.58.77,0,1.08.38a1.09,1.09,0,0,1,.33,1.26,5.12,5.12,0,0,1-4.82,2.71c-2,0-4.63-1.17-4.63-4.22V543.14A1.89,1.89,0,0,0,586.6,541c-1.39.17-2.41,1.34-2.41,3.42v8a2.16,2.16,0,0,0,.88,2l1.09.61a.54.54,0,0,1,.3.55.87.87,0,0,1,0,.2l-.16,1.59c-.07.42-.35.48-.91.48h-9.1c-.55,0-.83-.07-.91-.48l-.16-1.59a1.22,1.22,0,0,1,0-.2.55.55,0,0,1,.3-.55l1.09-.61a2.17,2.17,0,0,0,.88-2V542.41c0-.84-.14-1.91-.88-2.29l-.7-.4a.54.54,0,0,1-.32-.58,1,1,0,0,1,0-.21l.17-1.2c.08-.43.37-.5.94-.5h6.47a.86.86,0,0,1,.85.62Z" transform="translate(-425.75 -465.69)"/><path class="c" d="M551.3,552.75a4.52,4.52,0,0,0,1.68,1.69l1.09.61a.54.54,0,0,1,.3.55,1.19,1.19,0,0,1,0,.2l-.16,1.59c-.07.42-.35.48-.91.48h-5.49c-.94,0-1-.27-1.44-1l-4.61-8.39L540,550.12v2.36a2.22,2.22,0,0,0,1,2l1.09.61a.54.54,0,0,1,.3.55.87.87,0,0,1,0,.2l-.16,1.59c-.07.42-.35.48-.91.48h-9.09c-.55,0-.83-.07-.91-.48l-.16-1.59a1.22,1.22,0,0,1,0-.2.55.55,0,0,1,.3-.55l1.09-.61a2.17,2.17,0,0,0,.88-2v-18a2.15,2.15,0,0,0-.88-2l-1.09-.61a.54.54,0,0,1-.3-.55.88.88,0,0,1,0-.2l.16-1.13c.07-.42.35-.48.91-.48h6.6a1.17,1.17,0,0,1,1.17,1.17v13.67l2.93-2.65c.42-.36,1.1-1,1.37-1.23s.32-.66-.06-.82l-1-.47a.49.49,0,0,1-.3-.53,1.19,1.19,0,0,1,0-.19l.15-1.45c.07-.4.34-.46.86-.46h7.9c.52,0,.79.06.86.46l.15,1.45a1.19,1.19,0,0,1,0,.19c0,.31-.35.47-.58.57a5.56,5.56,0,0,0-1.07.45,10.59,10.59,0,0,0-1.74,1.34l-3,2.92Z" transform="translate(-425.75 -465.69)"/></svg>