<svg xmlns="http://www.w3.org/2000/svg" width="99" height="52"><path d="M 96.695 33.672 C 95.421 33.676 94.39 34.706 94.389 35.976 C 94.39 37.247 95.421 38.278 96.695 38.281 C 97.969 38.278 99 37.247 99 35.977 C 99.002 35.366 98.761 34.779 98.328 34.346 C 97.895 33.914 97.307 33.671 96.695 33.672 Z M 96.695 37.811 C 95.676 37.811 94.844 36.98 94.844 35.977 C 94.845 35.489 95.04 35.021 95.388 34.677 C 95.735 34.332 96.205 34.14 96.695 34.142 C 97.183 34.141 97.651 34.334 97.995 34.678 C 98.34 35.023 98.532 35.49 98.529 35.977 C 98.529 36.988 97.709 37.808 96.695 37.811 Z" fill="hsl(0, 0.00%, 0.00%)"></path><path d="M 97.306 35.961 C 97.495 35.898 97.683 35.663 97.683 35.334 C 97.683 34.801 97.212 34.644 96.93 34.644 L 95.738 34.644 L 95.738 37.121 L 96.303 37.121 L 96.303 36.15 L 96.522 36.15 C 96.805 36.15 96.977 36.228 97.056 36.495 C 97.118 36.682 97.149 36.855 97.26 37.121 L 97.871 37.121 C 97.808 36.981 97.683 36.792 97.636 36.51 C 97.604 36.26 97.526 36.102 97.306 35.962 Z M 96.773 35.663 L 96.318 35.663 L 96.318 35.099 L 96.726 35.099 C 96.899 35.099 97.103 35.177 97.103 35.365 C 97.103 35.538 96.961 35.663 96.773 35.663 Z M 25.373 47.326 C 24.715 47.984 23.868 48.627 23.037 48.894 C 22.253 49.144 20.01 49.348 19.351 47.483 C 19.211 47.074 19.32 46.965 19.681 46.855 C 20.831 46.527 21.966 46.15 23.083 45.727 C 24.417 45.226 25.609 44.614 25.985 44.363 C 26.659 43.924 26.753 43.313 26.455 42.639 C 25.514 40.538 23.398 38.327 19.869 39.002 C 17.062 39.535 15.055 42.059 15.055 44.943 C 15.055 48.517 17.203 50.602 19.947 51.245 C 22.488 51.841 25.467 50.618 26.738 48.549 C 27.255 47.781 25.844 46.84 25.373 47.326 Z M 19.038 44.52 C 18.756 43.768 18.975 41.447 20.261 41.008 C 21.61 40.554 22.425 41.243 22.833 42.592 C 22.99 43.094 22.943 43.627 22.786 43.83 C 22.551 44.112 22.127 44.284 21.735 44.426 L 20.732 44.755 C 19.728 45.084 19.257 45.147 19.038 44.52 Z M 58.211 47.326 C 57.553 47.984 56.706 48.627 55.875 48.894 C 55.091 49.144 52.848 49.348 52.189 47.483 C 52.048 47.074 52.158 46.965 52.519 46.855 C 53.668 46.527 54.804 46.15 55.922 45.727 C 57.255 45.226 58.446 44.614 58.823 44.363 C 59.497 43.924 59.591 43.313 59.293 42.639 C 58.353 40.538 56.235 38.327 52.707 39.002 C 49.9 39.535 47.893 42.059 47.893 44.943 C 47.893 48.517 50.041 50.602 52.785 51.245 C 55.326 51.841 58.306 50.618 59.576 48.549 C 60.093 47.781 58.666 46.84 58.211 47.326 Z M 51.86 44.52 C 51.703 44.066 51.703 43.062 52.017 42.216 C 52.221 41.651 52.535 41.212 53.083 40.993 C 53.695 40.742 54.228 40.821 54.636 41.056 C 55.106 41.322 55.435 41.855 55.655 42.592 C 55.812 43.094 55.765 43.627 55.608 43.83 C 55.373 44.112 54.996 44.269 54.558 44.426 C 54.119 44.582 53.742 44.708 53.554 44.771 C 52.55 45.069 52.096 45.147 51.86 44.52 Z M 83.224 47.326 C 82.565 47.984 81.719 48.627 80.888 48.894 C 80.104 49.144 77.861 49.348 77.202 47.483 C 77.061 47.074 77.17 46.965 77.532 46.855 C 78.681 46.527 79.816 46.15 80.934 45.727 C 82.268 45.226 83.459 44.614 83.836 44.363 C 84.51 43.924 84.604 43.313 84.306 42.639 C 83.365 40.538 81.248 38.327 77.72 39.002 C 74.913 39.535 72.906 42.059 72.906 44.943 C 72.906 48.517 75.054 50.602 77.798 51.245 C 80.338 51.841 83.318 50.618 84.588 48.549 C 85.122 47.781 83.695 46.84 83.224 47.326 Z M 76.889 44.52 C 76.732 44.066 76.732 43.062 77.045 42.216 C 77.249 41.651 77.563 41.212 78.112 40.993 C 78.723 40.742 79.257 40.821 79.664 41.056 C 80.135 41.322 80.464 41.855 80.684 42.592 C 80.84 43.094 80.793 43.627 80.636 43.83 C 80.401 44.112 80.025 44.269 79.586 44.426 C 79.147 44.582 78.77 44.708 78.582 44.771 C 77.578 45.069 77.108 45.147 76.889 44.52 Z M 9.409 48.016 C 9.409 48.502 9.253 49.019 8.892 49.191 L 8.092 49.552 C 7.951 49.615 7.904 49.725 7.904 49.881 C 7.904 49.928 7.903 49.944 7.919 50.006 L 8.014 50.916 C 8.06 51.166 8.218 51.198 8.547 51.198 L 14.333 51.198 C 14.663 51.198 14.835 51.151 14.867 50.916 L 14.961 50.006 C 14.961 49.959 14.976 49.928 14.976 49.881 C 14.976 49.725 14.929 49.615 14.788 49.552 L 13.988 49.191 C 13.612 49.019 13.471 48.502 13.471 48.016 L 13.471 37.983 C 13.471 37.497 13.628 36.98 13.988 36.807 L 14.788 36.447 C 14.929 36.384 14.976 36.274 14.976 36.118 C 14.976 36.07 14.976 36.054 14.961 35.993 L 14.867 35.318 C 14.82 35.068 14.663 35.036 14.333 35.036 L 8.813 35.036 C 8.484 35.036 8.311 35.083 8.28 35.318 L 8.186 35.992 C 8.186 36.039 8.17 36.071 8.17 36.117 C 8.17 36.274 8.218 36.384 8.358 36.446 L 9.017 36.807 C 9.393 37.027 9.409 37.497 9.409 37.983 L 9.409 40.773 C 9.408 40.963 9.254 41.116 9.064 41.118 L 5.927 41.118 C 5.737 41.116 5.584 40.963 5.582 40.773 L 5.582 37.982 C 5.582 37.497 5.613 37.027 5.974 36.807 L 6.633 36.447 C 6.774 36.384 6.821 36.274 6.821 36.118 C 6.821 36.07 6.821 36.054 6.805 35.993 L 6.711 35.318 C 6.665 35.068 6.508 35.036 6.178 35.036 L 0.643 35.036 C 0.313 35.036 0.141 35.083 0.11 35.318 L 0.016 35.992 C 0.016 36.039 0 36.071 0 36.117 C 0 36.274 0.047 36.384 0.188 36.446 L 0.988 36.807 C 1.364 36.98 1.505 37.497 1.505 37.983 L 1.505 48.016 C 1.505 48.502 1.348 49.019 0.988 49.191 L 0.188 49.552 C 0.047 49.615 0 49.725 0 49.881 C 0 49.928 0 49.944 0.016 50.006 L 0.11 50.916 C 0.157 51.166 0.314 51.198 0.643 51.198 L 6.43 51.198 C 6.759 51.198 6.931 51.151 6.963 50.916 L 7.057 50.006 C 7.057 49.959 7.073 49.928 7.073 49.881 C 7.073 49.725 7.026 49.615 6.884 49.552 L 6.085 49.191 C 5.708 49.019 5.567 48.502 5.567 48.016 L 5.567 43.94 C 5.567 43.752 5.724 43.595 5.912 43.595 L 9.049 43.595 C 9.237 43.595 9.393 43.752 9.393 43.94 L 9.393 48.016 Z M 32.226 36.729 C 32.226 37.842 31.285 38.751 30.141 38.751 C 28.98 38.751 28.055 37.842 28.055 36.729 C 28.055 35.616 28.996 34.707 30.141 34.707 C 31.285 34.707 32.226 35.615 32.226 36.729 Z M 27.851 51.182 C 27.537 51.182 27.381 51.151 27.333 50.899 L 27.24 49.991 L 27.24 49.881 C 27.24 49.725 27.286 49.63 27.412 49.568 L 28.039 49.223 C 28.385 49.05 28.541 48.565 28.541 48.094 L 28.541 42.372 C 28.541 41.886 28.462 41.275 28.039 41.071 L 27.647 40.836 C 27.506 40.773 27.459 40.663 27.459 40.507 C 27.459 40.46 27.459 40.444 27.474 40.382 L 27.569 39.708 C 27.616 39.457 27.773 39.425 28.102 39.425 L 32.007 39.425 C 32.195 39.425 32.352 39.582 32.352 39.77 L 32.352 48.094 C 32.352 48.548 32.508 49.05 32.853 49.223 L 33.48 49.568 C 33.606 49.63 33.653 49.725 33.653 49.881 L 33.653 49.991 L 33.559 50.899 C 33.513 51.135 33.356 51.182 33.042 51.182 L 27.852 51.182 Z M 39.691 40.037 C 39.691 40.037 39.91 39.927 40.303 39.739 C 41.087 39.378 42.623 38.72 43.878 39.112 C 44.976 39.457 45.917 40.256 45.917 42.357 L 45.917 48.69 C 45.917 48.956 45.932 49.066 46.058 49.144 C 46.23 49.239 46.513 48.956 46.795 48.815 C 47.077 48.674 47.234 48.846 47.406 49.035 C 47.564 49.207 47.736 49.443 47.595 49.756 C 47.124 50.743 46.073 51.292 44.85 51.292 C 43.69 51.292 42.216 50.634 42.216 48.894 L 42.216 42.796 C 42.216 41.871 41.541 41.541 41.008 41.605 C 40.209 41.698 39.644 42.373 39.644 43.548 L 39.644 48.11 C 39.644 48.564 39.801 49.066 40.145 49.239 L 40.773 49.584 C 40.898 49.646 40.946 49.74 40.946 49.897 L 40.946 50.007 L 40.851 50.916 C 40.804 51.151 40.647 51.198 40.334 51.198 L 35.159 51.198 C 34.845 51.198 34.688 51.167 34.641 50.916 L 34.547 50.007 L 34.547 49.897 C 34.547 49.74 34.595 49.646 34.72 49.584 L 35.347 49.239 C 35.692 49.066 35.849 48.581 35.849 48.11 L 35.849 42.388 C 35.849 41.902 35.771 41.291 35.347 41.087 L 34.955 40.852 C 34.814 40.789 34.767 40.679 34.767 40.522 C 34.767 40.476 34.767 40.46 34.783 40.397 L 34.876 39.723 C 34.924 39.473 35.081 39.441 35.41 39.441 L 39.095 39.441 C 39.393 39.441 39.503 39.613 39.581 39.786 Z M 90.25 40.037 C 90.25 40.037 90.469 39.927 90.861 39.739 C 91.645 39.378 93.182 38.72 94.437 39.112 C 95.534 39.457 96.476 40.256 96.476 42.357 L 96.476 48.69 C 96.476 48.956 96.491 49.066 96.616 49.144 C 96.789 49.239 97.071 48.956 97.353 48.815 C 97.636 48.674 97.792 48.846 97.965 49.035 C 98.122 49.207 98.294 49.443 98.153 49.756 C 97.683 50.743 96.632 51.292 95.409 51.292 C 94.249 51.292 92.774 50.634 92.774 48.894 L 92.774 42.796 C 92.774 41.871 92.1 41.541 91.567 41.605 C 90.767 41.698 90.202 42.373 90.202 43.548 L 90.202 48.11 C 90.202 48.564 90.359 49.066 90.704 49.239 L 91.331 49.584 C 91.457 49.646 91.504 49.74 91.504 49.897 L 91.504 50.007 L 91.41 50.916 C 91.363 51.151 91.206 51.198 90.893 51.198 L 85.718 51.198 C 85.404 51.198 85.247 51.167 85.2 50.916 L 85.106 50.007 L 85.106 49.897 C 85.106 49.74 85.153 49.646 85.279 49.584 L 85.906 49.239 C 86.251 49.066 86.407 48.581 86.407 48.11 L 86.407 42.388 C 86.407 41.902 86.329 41.291 85.906 41.087 L 85.514 40.852 C 85.372 40.789 85.325 40.679 85.325 40.522 C 85.325 40.476 85.325 40.46 85.341 40.397 L 85.435 39.723 C 85.483 39.473 85.639 39.441 85.968 39.441 L 89.654 39.441 C 89.951 39.441 90.062 39.613 90.14 39.786 Z" fill="hsl(0, 0.00%, 0.00%)"></path><path d="M 71.494 48.267 C 71.776 48.706 72.106 49.066 72.45 49.223 L 73.078 49.567 C 73.203 49.63 73.25 49.725 73.25 49.881 L 73.25 49.99 L 73.156 50.9 C 73.109 51.135 72.952 51.182 72.639 51.182 L 69.518 51.182 C 68.985 51.182 68.938 51.025 68.703 50.587 L 66.084 45.805 L 65.096 46.746 L 65.096 48.094 C 65.096 48.548 65.315 49.035 65.676 49.223 L 66.303 49.567 C 66.428 49.63 66.476 49.725 66.476 49.881 L 66.476 49.99 L 66.381 50.9 C 66.335 51.135 66.178 51.182 65.864 51.182 L 60.69 51.182 C 60.375 51.182 60.218 51.151 60.172 50.9 L 60.077 49.991 C 60.062 49.944 60.077 49.912 60.077 49.881 C 60.077 49.725 60.125 49.63 60.25 49.567 L 60.877 49.223 C 61.222 49.05 61.379 48.565 61.379 48.094 L 61.379 37.842 C 61.379 37.387 61.238 36.902 60.877 36.729 L 60.25 36.384 C 60.125 36.305 60.077 36.227 60.077 36.07 L 60.077 35.961 L 60.172 35.318 C 60.218 35.083 60.375 35.036 60.689 35.036 L 64.437 35.036 C 64.813 35.036 65.111 35.334 65.111 35.71 L 65.111 43.485 L 66.774 41.98 C 67.009 41.776 67.401 41.431 67.558 41.275 C 67.715 41.118 67.746 40.898 67.527 40.805 L 66.931 40.538 C 66.805 40.475 66.758 40.382 66.758 40.24 C 66.758 40.209 66.758 40.178 66.774 40.131 L 66.852 39.299 C 66.883 39.08 67.04 39.034 67.338 39.034 L 71.839 39.034 C 72.137 39.034 72.294 39.065 72.325 39.299 L 72.403 40.131 C 72.403 40.178 72.419 40.209 72.419 40.24 C 72.435 40.413 72.215 40.507 72.09 40.569 C 72.09 40.569 71.776 40.663 71.478 40.821 C 71.18 40.992 70.882 41.228 70.49 41.588 L 68.75 43.25 L 71.494 48.266 Z" fill="hsl(0, 0.00%, 0.00%)"></path><path d="M 67.542 26.289 L 67.542 26.21 L 67.024 26.21 C 67.009 26.665 67.291 26.979 67.746 26.979 C 68.248 26.979 68.561 26.665 68.561 26.163 C 68.561 25.866 68.452 25.584 68.138 25.521 L 68.138 25.505 C 68.404 25.396 68.483 25.113 68.483 24.863 C 68.483 24.424 68.232 24.141 67.777 24.141 C 67.276 24.141 67.119 24.502 67.135 24.957 L 67.605 24.957 L 67.605 24.894 C 67.605 24.768 67.636 24.612 67.793 24.612 C 67.95 24.612 67.981 24.768 67.981 24.894 C 67.981 25.207 67.856 25.254 67.558 25.254 L 67.558 25.725 C 67.871 25.709 67.965 25.803 67.965 26.117 C 67.965 26.273 67.95 26.508 67.731 26.508 C 67.605 26.493 67.542 26.367 67.542 26.289 Z M 66.664 24.173 L 65.174 24.173 L 65.174 24.643 L 65.927 24.643 L 65.064 26.931 L 65.629 26.931 Z M 64.029 25.442 C 64.28 25.348 64.405 25.113 64.405 24.847 C 64.405 24.439 64.139 24.125 63.716 24.125 C 63.292 24.125 63.025 24.439 63.025 24.847 C 63.025 25.113 63.151 25.348 63.402 25.427 L 63.402 25.442 C 63.057 25.552 62.916 25.818 62.916 26.18 C 62.916 26.634 63.246 26.979 63.716 26.979 C 64.17 26.979 64.5 26.634 64.5 26.179 C 64.5 25.834 64.374 25.552 64.029 25.442 Z M 63.7 24.564 C 63.841 24.564 63.872 24.753 63.872 24.863 C 63.872 24.957 63.872 25.176 63.701 25.176 C 63.559 25.176 63.543 24.972 63.543 24.863 C 63.543 24.753 63.575 24.564 63.7 24.564 Z M 63.716 26.493 C 63.528 26.493 63.481 26.242 63.481 26.101 C 63.481 25.96 63.512 25.693 63.7 25.693 C 63.872 25.693 63.935 25.96 63.935 26.101 C 63.951 26.242 63.904 26.493 63.716 26.493 Z M 62.163 24.173 L 61.379 24.173 L 61.379 24.643 L 61.646 24.643 L 61.646 26.931 L 62.163 26.931 Z M 31.333 24.173 L 30.125 24.173 L 30.125 26.931 L 31.333 26.931 L 31.333 26.414 L 30.721 26.414 L 30.721 25.803 L 31.254 25.803 L 31.254 25.285 L 30.721 25.285 L 30.721 24.69 L 31.333 24.69 Z M 36.664 26.273 C 36.572 26.271 36.483 26.307 36.418 26.372 C 36.353 26.437 36.317 26.526 36.319 26.618 C 36.319 26.806 36.476 26.963 36.664 26.963 C 36.854 26.961 37.008 26.808 37.01 26.618 C 37.008 26.428 36.854 26.275 36.664 26.273 Z M 35.912 24.173 L 34.359 24.173 L 34.359 24.69 L 34.83 24.69 L 34.83 26.931 L 35.441 26.931 L 35.441 24.69 L 35.912 24.69 Z M 33.528 24.799 L 33.528 24.266 C 33.362 24.186 33.18 24.143 32.995 24.141 C 32.477 24.141 32.211 24.517 32.211 24.956 C 32.211 25.348 32.415 25.568 32.76 25.772 C 32.932 25.881 33.12 25.959 33.12 26.179 C 33.12 26.367 32.964 26.477 32.775 26.477 C 32.603 26.477 32.461 26.414 32.32 26.336 L 32.32 26.853 C 32.461 26.947 32.665 26.994 32.838 26.994 C 33.403 26.994 33.716 26.618 33.716 26.132 C 33.716 25.379 32.807 25.363 32.807 24.909 C 32.807 24.737 32.932 24.643 33.104 24.643 C 33.261 24.611 33.403 24.705 33.528 24.799 Z M 59.341 29.079 C 59.403 29.329 59.293 29.581 59.168 29.69 C 59.074 29.784 58.964 29.847 58.964 29.847 C 58.964 29.847 58.87 29.926 58.76 29.988 C 58.619 30.067 58.353 30.113 58.133 29.972 C 58.133 29.972 57.788 29.753 57.207 29.361 C 55.404 28.139 51.359 25.395 49.147 23.827 C 46.936 25.395 42.89 28.139 41.086 29.361 C 40.522 29.753 40.162 29.957 40.162 29.957 C 39.942 30.098 39.66 30.067 39.535 29.972 C 39.424 29.91 39.33 29.832 39.33 29.832 C 39.33 29.832 39.236 29.768 39.126 29.675 C 39.001 29.565 38.875 29.314 38.955 29.063 C 38.955 29.063 38.97 28.985 39.001 28.859 C 39.032 28.923 39.08 28.984 39.126 29.032 C 39.22 29.126 39.331 29.188 39.331 29.188 C 39.331 29.188 39.424 29.267 39.534 29.33 C 39.675 29.408 39.942 29.455 40.161 29.314 C 40.161 29.314 40.506 29.095 41.086 28.718 C 42.89 27.495 46.936 24.753 49.147 23.185 C 51.358 24.753 55.404 27.496 57.207 28.718 C 57.772 29.11 58.133 29.33 58.133 29.33 C 58.353 29.471 58.634 29.439 58.76 29.346 C 58.87 29.283 58.964 29.204 58.964 29.204 C 58.964 29.204 59.058 29.142 59.168 29.048 C 59.225 29.003 59.269 28.943 59.293 28.875 C 59.325 29 59.341 29.079 59.341 29.079 Z M 42.012 17.996 C 39.832 16.381 35.975 13.387 34.249 12.039 C 33.7 11.616 33.387 11.349 33.387 11.349 C 33.323 11.301 33.274 11.236 33.246 11.161 C 33.215 11.237 33.194 11.316 33.183 11.397 C 33.152 11.553 33.199 11.836 33.403 11.992 C 33.403 11.992 33.716 12.259 34.265 12.682 C 35.943 13.999 39.659 16.867 41.855 18.513 C 41.902 18.341 41.949 18.153 42.012 17.996 Z M 65.05 11.161 C 65.013 11.231 64.965 11.294 64.908 11.349 C 64.908 11.349 64.595 11.616 64.046 12.039 C 62.32 13.387 58.463 16.381 56.283 17.996 C 56.33 18.168 56.393 18.341 56.44 18.529 C 58.636 16.884 62.352 14.014 64.03 12.697 C 64.579 12.274 64.893 12.008 64.893 12.008 C 65.063 11.86 65.146 11.635 65.112 11.412 C 65.081 11.287 65.05 11.193 65.05 11.161 Z" fill="rgb(0, 0, 0)"></path><path d="M 43.345 17.557 L 39.863 28.264 C 39.863 28.28 39.863 28.296 39.879 28.312 C 39.879 28.312 39.91 28.327 39.926 28.358 L 39.989 28.39 C 40.005 28.406 40.02 28.406 40.036 28.39 L 49.147 21.775 L 58.258 28.389 C 58.274 28.405 58.29 28.405 58.306 28.389 L 58.368 28.358 C 58.399 28.342 58.415 28.311 58.415 28.311 C 58.431 28.295 58.431 28.279 58.431 28.264 L 54.95 17.557 L 64.061 10.942 C 64.076 10.926 64.076 10.911 64.076 10.895 C 64.076 10.895 64.076 10.863 64.061 10.832 L 64.029 10.769 C 64.029 10.753 63.998 10.738 63.982 10.738 L 52.723 10.738 L 49.257 0.032 C 49.257 0.016 49.241 0 49.21 0 L 49.084 0 C 49.069 0 49.053 0.016 49.038 0.032 L 45.556 10.738 L 34.296 10.738 C 34.281 10.738 34.265 10.753 34.249 10.769 L 34.218 10.832 C 34.203 10.863 34.203 10.895 34.203 10.895 C 34.203 10.911 34.203 10.942 34.218 10.942 Z" fill="rgb(0, 0, 0)"></path></svg>