<svg xmlns="http://www.w3.org/2000/svg" width="100" height="32"><path d="M 0 0.038 L 5.811 0.038 L 5.811 31.873 L 0 31.873 Z" fill="rgb(255,255,255)"></path><path d="M 8.149 6.487 C 8.149 2.066 10.22 0.04 14.626 0.04 L 20.194 0.04 C 24.603 0.04 26.674 2.068 26.674 6.487 L 26.674 8.049 L 20.929 8.049 L 20.929 7.485 C 20.929 5.492 20.229 4.76 18.191 4.76 L 16.631 4.76 C 14.593 4.76 13.894 5.492 13.894 7.485 L 13.894 24.562 C 13.894 26.558 14.596 27.289 16.631 27.289 L 18.39 27.289 C 20.428 27.289 21.128 26.558 21.128 24.562 L 21.128 18.099 L 17.671 18.099 L 17.671 13.779 L 26.671 13.779 L 26.671 25.428 C 26.671 29.849 24.6 31.875 20.191 31.875 L 14.624 31.875 C 10.217 31.875 8.147 29.847 8.147 25.428 L 8.147 6.489 Z" fill="rgb(255,255,255)"></path><path d="M 34.752 27.153 L 44.771 27.153 L 44.771 31.873 L 29.007 31.873 L 29.007 0.038 L 44.437 0.038 L 44.437 4.758 L 34.752 4.758 L 34.752 13.795 L 43.102 13.795 L 43.102 18.115 L 34.752 18.115 Z" fill="rgb(255,255,255)"></path><path d="M 67.967 0.038 L 73.778 0.038 L 73.778 31.873 L 67.967 31.873 Z" fill="rgb(255,255,255)"></path><path d="M 60.279 0 L 65.631 0 L 65.631 31.873 L 61.156 31.873 L 52.461 13.932 L 52.461 31.873 L 47.111 31.873 L 47.111 0 L 51.82 0 L 60.284 17.44 L 60.284 0 Z" fill="rgb(255,255,255)"></path><path d="M 76.099 31.861 L 82.057 15.612 L 76.338 0 L 82.392 0 L 85.246 9.24 L 88.78 0 L 94.525 0 L 88.806 15.612 L 94.766 31.861 L 88.712 31.861 L 85.265 22.031 L 81.818 31.861 Z" fill="rgb(221,221,221)"></path><path d="M 99.827 2.165 C 99.827 2.452 99.778 2.715 99.671 2.962 C 99.567 3.207 99.428 3.421 99.253 3.605 C 99.078 3.788 98.87 3.932 98.636 4.035 C 98.402 4.139 98.151 4.191 97.889 4.191 C 97.626 4.191 97.376 4.139 97.139 4.035 C 96.903 3.932 96.697 3.788 96.522 3.605 C 96.345 3.421 96.208 3.207 96.104 2.962 C 96 2.718 95.948 2.452 95.948 2.165 C 95.948 1.878 96 1.619 96.104 1.369 C 96.208 1.122 96.345 0.908 96.522 0.722 C 96.697 0.539 96.903 0.395 97.139 0.294 C 97.376 0.191 97.624 0.139 97.889 0.139 C 98.154 0.139 98.4 0.191 98.636 0.294 C 98.87 0.398 99.076 0.539 99.253 0.722 C 99.428 0.906 99.567 1.12 99.671 1.369 C 99.775 1.616 99.827 1.88 99.827 2.165 Z M 96.333 2.165 C 96.333 2.402 96.376 2.621 96.461 2.826 C 96.546 3.031 96.66 3.207 96.801 3.358 C 96.941 3.508 97.106 3.626 97.296 3.713 C 97.485 3.8 97.683 3.842 97.891 3.842 C 98.099 3.842 98.296 3.8 98.48 3.713 C 98.667 3.626 98.832 3.508 98.974 3.358 C 99.118 3.207 99.232 3.031 99.317 2.826 C 99.402 2.624 99.444 2.402 99.444 2.165 C 99.444 1.927 99.402 1.708 99.317 1.504 C 99.232 1.299 99.116 1.122 98.974 0.972 C 98.83 0.821 98.664 0.704 98.48 0.616 C 98.293 0.529 98.097 0.487 97.891 0.487 C 97.686 0.487 97.485 0.529 97.296 0.616 C 97.106 0.704 96.941 0.821 96.799 0.972 C 96.657 1.122 96.544 1.299 96.459 1.504 C 96.374 1.708 96.331 1.927 96.331 2.165 Z M 98.652 1.786 C 98.652 1.908 98.626 2.007 98.577 2.082 C 98.527 2.158 98.47 2.221 98.411 2.268 C 98.338 2.32 98.26 2.36 98.18 2.388 L 98.719 3.209 L 98.338 3.209 L 97.83 2.449 L 97.574 2.449 L 97.574 3.209 L 97.227 3.209 L 97.227 1.12 L 97.957 1.12 C 98.05 1.12 98.139 1.139 98.225 1.174 C 98.31 1.209 98.383 1.259 98.447 1.32 C 98.511 1.381 98.56 1.452 98.6 1.532 C 98.638 1.612 98.657 1.696 98.657 1.786 Z M 97.953 2.134 C 98.05 2.134 98.132 2.101 98.201 2.033 C 98.27 1.965 98.303 1.882 98.303 1.786 C 98.303 1.689 98.27 1.607 98.201 1.539 C 98.132 1.471 98.05 1.438 97.953 1.438 L 97.57 1.438 L 97.57 2.136 L 97.953 2.136 Z" fill="rgb(221,221,221)"></path></svg>