<svg xmlns="http://www.w3.org/2000/svg" width="164" height="164"><path d="M 42.61 74.429 C 42.61 74.278 42.56 74.152 42.459 74.052 C 42.283 73.901 42.082 73.775 41.83 73.75 C 41.503 73.725 40.975 73.875 40.95 74.253 L 40.95 74.479 C 39.239 74.479 37.302 74.278 36.296 73.523 C 37.076 73.398 37.856 73.171 38.61 72.92 C 38.61 73.045 38.636 73.171 38.711 73.297 C 38.937 73.599 39.34 73.75 39.717 73.674 C 40.019 73.649 40.271 73.423 40.396 73.146 C 40.421 72.97 40.396 72.819 40.296 72.668 C 40.195 72.567 40.094 72.467 39.969 72.417 C 41.478 71.788 42.811 71.134 43.339 70.933 C 43.591 71.612 44.044 73.624 44.144 74.152 C 44.169 74.202 44.119 74.278 44.069 74.278 L 44.044 74.278 C 43.742 74.328 43.239 74.379 42.61 74.429 Z M 24.298 62.406 C 23.04 64.871 20.248 65.424 18.085 66.329 C 16.299 67.084 14.69 68.216 13.407 69.675 C 12.225 71.033 11.42 73.272 9.407 73.599 C 7.772 73.85 7.345 72.165 7.546 70.756 C 7.747 69.021 8.955 66.279 11.294 64.242 C 12.552 63.135 13.96 62.154 15.444 61.374 C 15.318 62.229 15.193 62.984 15.142 63.286 C 14.941 63.437 14.79 63.638 14.664 63.864 C 14.614 63.965 14.639 64.091 14.715 64.191 C 14.815 64.292 14.966 64.317 15.092 64.242 C 15.494 63.94 15.922 63.713 16.425 63.563 C 16.853 63.462 17.306 63.437 17.456 63.387 C 17.658 63.361 17.783 63.185 17.758 62.984 C 17.733 62.858 17.633 62.733 17.507 62.682 C 17.431 62.657 17.356 62.632 17.255 62.632 L 16.979 60.594 C 18.287 59.991 19.67 59.563 21.079 59.312 C 20.198 60.192 19.544 61.274 19.192 62.456 C 20.928 63.185 22.965 62.682 24.298 62.406 Z M 24.55 97.167 L 24.625 88.49 C 26.059 88.64 27.14 88.364 28.801 87.584 C 31.09 86.502 34.158 83.887 36.699 80.365 L 37.604 79.133 C 37.001 82.931 33.504 87.408 31.844 89.848 C 31.718 90.024 31.618 90.225 31.593 90.426 C 31.593 90.527 31.567 90.703 31.693 90.753 C 31.794 90.779 31.869 90.753 31.945 90.703 C 32.045 90.628 32.146 90.527 32.221 90.426 C 32.322 90.301 32.448 90.175 32.548 90.049 C 32.901 89.647 33.228 89.244 33.529 88.817 C 35.894 85.421 37.504 82.956 38.183 79.937 C 38.208 80.038 38.233 80.139 38.233 80.239 C 38.837 83.61 37.956 84.968 36.925 86.955 C 36.774 87.207 36.699 87.483 36.724 87.785 C 36.799 88.163 37.001 88.087 37.353 87.76 C 38.158 86.729 38.761 85.521 39.063 84.239 L 41.126 96.036 C 41.101 96.086 24.55 97.167 24.55 97.167 Z" fill="hsl(0, 0.00%, 0.00%)"></path><path d="M 156.404 78.906 C 155.85 78.906 155.423 79.359 155.423 79.912 C 155.423 80.466 155.875 80.893 156.429 80.893 C 156.982 80.893 157.41 80.44 157.41 79.887 C 157.41 79.334 156.957 78.906 156.404 78.906 Z M 156.404 80.717 C 155.951 80.717 155.574 80.34 155.574 79.887 C 155.574 79.434 155.951 79.057 156.404 79.057 C 156.856 79.057 157.209 79.409 157.209 79.862 L 157.209 79.887 C 157.234 80.34 156.882 80.692 156.429 80.717 Z M 156.856 79.636 C 156.856 79.409 156.731 79.309 156.454 79.309 L 156.026 79.309 L 156.026 80.44 L 156.228 80.44 L 156.228 79.963 L 156.429 79.963 L 156.731 80.466 L 156.932 80.466 L 156.605 79.963 C 156.756 79.937 156.882 79.812 156.856 79.636 Z M 156.202 79.837 L 156.202 79.46 L 156.454 79.46 C 156.655 79.46 156.706 79.535 156.706 79.636 C 156.706 79.736 156.63 79.812 156.429 79.812 Z M 83.182 87.333 C 83.182 88.364 82.025 89.647 80.717 89.647 C 79.51 89.647 78.378 89.068 78.378 86.905 L 78.378 80.767 L 75.385 80.767 L 75.334 86.452 C 75.334 87.282 75.611 87.685 76.19 87.685 C 76.441 87.685 76.693 87.584 76.869 87.408 C 77.145 87.182 77.246 87.031 77.498 87.031 C 77.648 87.031 77.774 87.156 77.774 87.307 L 77.774 87.333 C 77.774 88.364 76.642 89.647 75.209 89.647 C 74.077 89.647 72.97 89.068 72.97 86.905 L 72.97 80.742 L 72.366 80.742 C 71.737 80.742 71.587 80.617 71.587 80.239 C 71.587 79.862 71.687 79.736 72.09 79.56 C 72.593 79.384 73.02 79.032 73.297 78.579 C 74.026 77.472 74.001 76.416 74.932 76.416 C 75.133 76.391 75.334 76.542 75.334 76.743 L 75.334 76.844 L 75.309 79.283 L 77.045 79.283 C 77.799 79.283 78.227 79.233 78.655 78.604 C 79.409 77.498 79.359 76.441 80.29 76.441 C 80.516 76.416 80.692 76.592 80.717 76.793 L 80.717 76.844 L 80.692 79.283 L 82.805 79.283 C 83.132 79.283 83.308 79.359 83.308 79.787 C 83.308 80.214 83.233 80.767 82.604 80.767 L 80.742 80.767 L 80.717 86.452 C 80.717 87.282 80.994 87.685 81.547 87.685 C 81.824 87.685 82.075 87.559 82.252 87.383 C 82.528 87.131 82.629 87.031 82.855 87.031 C 83.056 87.056 83.182 87.182 83.182 87.333 Z M 88.716 88.942 C 88.716 89.219 88.615 89.395 88.313 89.395 C 87.836 89.395 87.031 89.294 86.326 89.294 L 85.521 89.294 C 84.842 89.294 84.063 89.395 83.61 89.395 C 83.333 89.395 83.233 89.219 83.233 88.942 C 83.233 88.464 83.61 88.313 83.987 88.163 C 84.465 88.062 84.792 87.66 84.792 87.182 L 84.742 78.001 C 84.742 77.498 84.44 76.994 83.358 76.844 C 83.056 76.793 82.88 76.667 82.88 76.416 C 82.855 76.139 83.056 75.913 83.308 75.888 C 85.999 75.334 86.025 74.856 86.653 74.856 C 86.905 74.856 87.081 75.083 87.081 75.435 C 87.081 75.636 87.056 75.988 87.056 76.969 L 87.006 87.156 C 87.006 87.71 87.358 87.936 87.81 88.087 C 88.238 88.263 88.716 88.414 88.716 88.942 Z M 68.291 76.667 C 68.417 75.863 69.172 75.284 69.977 75.41 C 70.631 75.51 71.159 76.013 71.234 76.667 C 71.109 77.472 70.354 78.051 69.549 77.925 C 68.92 77.85 68.392 77.321 68.291 76.667 Z M 93.294 82.855 C 93.394 82.755 93.394 82.579 93.394 82.352 C 93.394 81.346 92.891 80.365 92.112 80.365 C 91.332 80.365 90.628 81.396 90.628 83.258 L 90.628 83.56 C 90.628 86.829 92.036 87.71 92.992 87.71 C 93.52 87.76 94.048 87.584 94.401 87.207 C 94.652 86.98 94.778 86.704 95.105 86.704 C 95.432 86.704 95.482 86.905 95.482 87.156 C 95.482 88.288 94.149 89.697 92.338 89.697 C 89.647 89.697 88.137 87.307 88.137 84.415 C 88.137 81.17 90.15 78.931 92.288 78.931 C 94.501 78.931 95.558 80.667 95.558 83.006 C 95.608 83.358 95.533 83.71 95.382 84.037 C 95.105 84.39 94.753 84.39 93.898 84.39 L 91.81 84.39 C 91.433 84.39 91.206 84.239 91.206 83.887 C 91.206 83.358 91.558 83.207 92.263 83.132 C 92.942 83.031 93.168 82.981 93.294 82.855 Z M 67.235 85.094 C 67.235 85.647 66.682 86.628 66.355 87.76 C 66.254 88.263 66.179 88.741 66.153 89.244 C 66.103 89.496 65.952 89.596 65.65 89.596 C 65.122 89.596 64.317 89.194 61.575 89.194 L 60.896 89.194 C 59.639 89.194 58.406 89.345 57.174 89.345 C 56.52 89.37 56.494 88.993 56.494 88.766 C 56.494 87.785 58.406 88.313 58.406 86.326 L 58.406 77.548 C 58.406 75.963 56.595 76.34 56.595 75.334 C 56.595 75.083 56.771 74.907 57.023 74.882 C 57.375 74.882 58.306 75.007 59.588 75.007 L 59.89 75.007 C 61.198 75.007 62.305 74.882 62.456 74.882 C 62.707 74.882 62.883 75.083 62.883 75.309 C 62.883 76.315 61.022 75.938 61.022 77.498 L 60.972 86.326 C 60.947 87.383 61.5 87.584 62.556 87.584 L 63.311 87.584 C 64.066 87.559 64.72 87.131 65.072 86.452 L 65.877 85.044 C 66.204 84.515 66.455 84.415 66.656 84.415 C 67.134 84.49 67.235 84.817 67.235 85.094 Z M 72.618 88.892 C 72.618 89.169 72.542 89.37 72.24 89.37 C 71.763 89.37 70.933 89.269 70.203 89.269 L 69.423 89.269 C 68.669 89.269 67.889 89.37 67.386 89.37 C 67.084 89.37 67.009 89.144 67.009 88.892 C 67.009 88.439 67.386 88.313 67.788 88.213 C 68.191 88.087 68.694 87.81 68.694 87.207 L 68.644 82.075 C 68.618 81.572 68.342 81.044 67.235 80.918 C 66.933 80.868 66.782 80.717 66.782 80.491 C 66.757 80.214 66.958 79.988 67.21 79.963 C 69.876 79.384 69.675 78.906 70.505 78.906 C 70.782 78.906 70.983 79.133 70.983 79.51 C 70.983 79.711 70.933 80.063 70.933 81.044 L 70.882 87.156 C 70.882 87.634 71.234 88.037 71.687 88.137 C 72.14 88.313 72.618 88.414 72.618 88.892 Z M 131.577 86.427 C 131.602 88.163 130.219 89.596 128.483 89.621 L 128.257 89.621 C 127.528 89.621 126.798 89.42 126.144 89.043 C 125.943 89.244 125.691 89.395 125.39 89.471 C 124.987 89.471 124.886 89.068 124.886 88.615 C 124.912 88.163 124.886 87.685 124.811 87.232 C 124.71 86.88 124.635 86.528 124.61 86.15 C 124.61 85.672 124.861 85.396 125.213 85.396 C 125.515 85.396 125.666 85.547 125.867 86.025 C 126.496 87.634 127.201 88.137 128.232 88.137 C 129.012 88.137 129.414 87.66 129.414 87.182 C 129.414 86.502 128.886 86.05 128.182 85.698 L 127.502 85.32 C 125.188 84.138 124.761 83.333 124.761 82 C 124.761 80.264 126.169 78.881 127.88 78.881 L 127.93 78.881 C 128.559 78.881 129.163 79.057 129.691 79.434 C 129.942 79.183 130.068 79.032 130.294 79.032 C 130.546 79.007 130.772 79.208 130.772 79.46 L 130.772 80.139 C 130.772 80.818 130.999 81.472 130.999 82.075 C 130.999 82.503 130.848 82.78 130.471 82.78 C 130.018 82.78 129.817 82.428 129.464 81.648 C 129.087 80.969 128.685 80.214 127.88 80.214 C 127.326 80.164 126.823 80.591 126.798 81.17 L 126.798 81.296 C 126.798 81.774 126.974 82.176 127.779 82.604 L 128.785 83.132 C 130.294 83.937 131.577 84.666 131.577 86.427 Z M 148.153 79.988 C 148.204 80.717 147.675 81.346 146.946 81.396 C 146.544 81.396 146.267 81.17 145.89 81.17 C 144.858 81.17 144.456 82.805 144.406 84.289 L 144.38 87.156 C 144.38 87.685 144.733 87.936 145.185 88.087 C 145.588 88.238 146.091 88.313 146.091 88.842 C 146.091 89.118 146.015 89.37 145.688 89.37 C 145.21 89.37 144.406 89.269 143.651 89.269 L 142.846 89.269 C 142.016 89.269 140.18 89.32 139.098 89.32 C 138.545 89.32 137.991 89.345 137.614 89.37 C 136.96 89.37 137.01 88.942 137.01 87.333 L 136.985 84.566 C 136.759 84.566 136.533 84.591 136.306 84.641 C 135.3 84.842 134.52 85.698 134.52 86.578 C 134.52 87.458 135.048 87.987 136.08 87.886 C 136.432 87.836 136.558 87.911 136.558 88.062 C 136.558 88.942 135.35 89.546 134.47 89.546 C 133.137 89.546 132.055 88.439 132.08 87.106 L 132.08 87.031 C 132.08 85.094 133.615 83.61 136.407 83.233 C 136.608 83.207 136.809 83.182 137.01 83.182 L 137.01 82.855 C 137.01 80.918 136.633 80.239 135.753 80.239 C 134.973 80.239 134.545 80.667 134.218 81.522 C 133.992 82.101 133.791 82.729 133.313 82.729 C 132.936 82.729 132.734 82.453 132.734 81.899 C 132.734 81.245 132.986 80.591 132.986 79.937 L 132.986 79.485 C 132.961 79.233 133.162 79.007 133.388 79.007 L 133.439 79.007 C 133.74 79.057 134.042 79.183 134.294 79.384 C 134.872 79.007 135.552 78.806 136.256 78.806 C 137.513 78.806 138.394 79.334 138.847 80.214 C 139.249 80.994 139.375 82.025 139.375 83.207 L 139.375 85.044 C 139.325 87.936 139.777 88.313 140.733 88.313 C 141.463 88.339 142.091 87.785 142.142 87.056 L 142.117 82.075 C 142.117 81.598 141.84 81.145 140.708 81.019 C 140.431 80.994 140.23 80.767 140.255 80.491 C 140.23 80.239 140.431 79.988 140.683 79.963 C 143.148 79.46 142.947 78.906 143.701 78.906 C 144.003 78.881 144.255 79.107 144.28 79.409 L 144.28 79.485 C 144.28 79.711 144.229 80.063 144.229 81.044 L 144.229 81.472 C 144.833 79.485 145.839 78.655 146.896 78.655 C 147.6 78.655 148.179 79.233 148.179 79.937 C 148.153 79.937 148.153 79.963 148.153 79.988 Z M 101.142 81.698 C 101.142 85.899 102.5 87.911 104.236 87.886 C 105.091 87.886 105.82 87.006 106.348 85.874 C 106.877 84.742 107.103 84.54 107.531 84.515 C 107.807 84.49 108.059 84.717 108.084 84.993 L 108.084 85.069 C 108.034 85.572 107.933 86.05 107.732 86.502 C 107.355 87.634 107.304 88.213 107.053 88.993 C 106.952 89.269 106.701 89.445 106.424 89.445 C 106.097 89.42 105.82 89.244 105.669 88.967 C 105.091 89.445 104.361 89.672 103.607 89.647 C 100.94 89.697 98.325 86.98 98.325 82.277 C 98.325 78.177 100.94 74.68 104.336 74.605 C 105.342 74.58 106.323 74.882 107.153 75.46 C 107.556 75.108 107.732 74.907 108.134 74.907 C 108.411 74.882 108.637 75.083 108.663 75.36 L 108.663 75.41 C 108.663 75.938 108.386 76.19 108.084 76.944 C 107.883 77.498 107.757 78.076 107.682 78.655 C 107.556 79.133 107.38 79.711 106.902 79.711 C 106.575 79.736 106.298 79.46 106.273 79.133 L 106.273 79.032 L 106.248 78.026 C 106.248 76.894 105.569 76.164 104.311 76.164 C 102.55 76.19 101.142 78.403 101.142 81.698 Z M 155.02 86.427 C 155.02 88.012 153.813 89.621 151.499 89.621 C 150.744 89.621 149.99 89.42 149.336 89.043 C 149.134 89.244 148.883 89.395 148.581 89.471 C 148.179 89.471 148.078 89.068 148.078 88.615 C 148.103 88.163 148.078 87.685 148.002 87.232 C 147.902 86.88 147.826 86.528 147.801 86.15 C 147.801 85.672 148.053 85.396 148.405 85.396 C 148.707 85.396 148.858 85.547 149.059 86.025 C 149.688 87.634 150.442 88.137 151.474 88.137 C 152.379 88.137 152.857 87.66 152.857 87.182 C 152.857 86.502 152.304 86.1 151.625 85.723 L 150.87 85.32 C 148.656 84.088 148.204 83.333 148.204 82 C 148.204 80.29 149.587 78.906 151.298 78.906 L 151.373 78.906 C 152.002 78.906 152.631 79.082 153.134 79.434 C 153.385 79.183 153.511 79.032 153.737 79.032 C 153.989 79.032 154.215 79.208 154.215 79.485 L 154.215 80.164 C 154.215 80.843 154.442 81.497 154.442 82.101 C 154.442 82.528 154.266 82.805 153.914 82.805 C 153.461 82.805 153.26 82.453 152.907 81.673 C 152.53 80.994 152.128 80.239 151.323 80.239 C 150.769 80.214 150.291 80.617 150.266 81.17 L 150.266 81.296 C 150.266 81.774 150.442 82.176 151.222 82.604 L 152.228 83.182 C 153.687 84.012 155.02 84.666 155.02 86.427 Z M 121.893 82.855 C 121.994 82.755 121.994 82.579 121.994 82.352 C 121.994 81.346 121.491 80.365 120.686 80.365 C 119.906 80.365 119.202 81.396 119.202 83.258 L 119.202 83.56 C 119.202 86.829 120.61 87.71 121.566 87.71 C 122.094 87.76 122.623 87.584 122.975 87.207 C 123.226 86.98 123.352 86.704 123.679 86.704 C 124.006 86.704 124.056 86.905 124.056 87.156 C 124.056 88.288 122.723 89.697 120.912 89.697 C 118.221 89.697 116.712 87.307 116.712 84.415 C 116.712 81.17 118.724 78.931 120.862 78.931 C 123.075 78.931 124.132 80.667 124.132 83.006 C 124.182 83.358 124.107 83.71 123.956 84.037 C 123.704 84.39 123.327 84.39 122.472 84.39 L 120.359 84.39 C 119.982 84.39 119.755 84.239 119.755 83.887 C 119.755 83.358 120.107 83.207 120.812 83.132 C 121.541 83.031 121.793 82.981 121.893 82.855 Z M 117.24 88.791 C 117.24 89.068 117.114 89.395 116.812 89.395 C 116.661 89.395 116.033 89.345 115.605 89.345 C 115.026 89.345 114.473 89.395 114.121 89.395 C 113.467 89.395 113.517 88.967 113.517 87.358 L 113.517 84.591 C 113.291 84.591 113.064 84.616 112.838 84.666 C 111.882 84.817 111.153 85.622 111.077 86.603 C 111.077 87.534 111.58 88.012 112.612 87.911 C 112.964 87.861 113.09 87.936 113.09 88.087 C 113.09 88.967 111.882 89.571 111.002 89.571 C 109.669 89.571 108.612 88.49 108.612 87.156 L 108.612 87.056 C 108.612 85.119 110.121 83.66 112.939 83.258 C 113.14 83.233 113.341 83.207 113.542 83.207 L 113.542 82.88 C 113.542 80.944 113.165 80.264 112.285 80.264 C 111.48 80.264 111.102 80.717 110.75 81.547 C 110.524 82.126 110.323 82.755 109.845 82.755 C 109.467 82.755 109.266 82.478 109.266 81.925 C 109.266 81.271 109.493 80.617 109.493 79.963 L 109.493 79.485 C 109.467 79.233 109.669 79.007 109.92 79.007 L 109.945 79.007 C 110.247 79.057 110.549 79.183 110.801 79.384 C 111.404 79.007 112.083 78.806 112.788 78.806 C 114.071 78.806 114.926 79.359 115.404 80.239 C 115.806 81.019 115.907 82.025 115.907 83.233 L 115.907 85.044 C 115.907 87.71 116.209 88.137 116.938 88.313 C 117.114 88.339 117.265 88.565 117.24 88.791 Z M 35.994 94.35 L 35.944 93.747 L 34.812 93.822 L 34.762 93.118 L 35.894 93.042 L 35.869 92.439 L 34.158 92.564 L 34.284 94.476 C 34.259 94.451 35.994 94.35 35.994 94.35 Z M 33.68 95.055 L 33.529 92.564 L 32.926 92.615 L 33.127 95.709 L 36.07 95.507 L 36.02 94.904 Z M 37.328 92.338 L 36.724 92.363 L 36.925 95.457 L 39.868 95.256 L 39.843 94.652 L 37.504 94.803 C 37.479 94.803 37.328 92.338 37.328 92.338 Z M 38.057 94.199 L 39.767 94.099 L 39.742 93.495 L 38.61 93.571 L 38.585 92.866 L 39.717 92.791 L 39.667 92.187 L 37.956 92.288 Z M 32.196 94.577 L 32.146 93.973 L 31.014 94.048 L 30.964 93.344 L 32.096 93.269 L 32.045 92.665 L 30.335 92.766 L 30.461 94.677 Z M 26.084 95.533 L 25.933 93.042 L 25.329 93.093 L 25.531 96.187 L 28.474 95.985 L 28.448 95.382 Z M 28.398 94.828 L 28.348 94.225 L 27.216 94.3 L 27.166 93.596 L 28.298 93.52 L 28.247 92.917 L 26.537 93.017 L 26.663 94.929 Z M 29.882 95.281 L 29.731 92.791 L 29.128 92.841 L 29.329 95.935 L 32.272 95.734 L 32.272 95.155 C 32.247 95.155 29.882 95.281 29.882 95.281 Z M 42.836 71.989 C 42.685 71.913 42.509 71.863 42.358 71.863 C 42.107 71.888 41.88 71.989 41.704 72.14 C 41.503 72.341 41.503 72.668 41.704 72.869 C 41.729 72.894 41.78 72.945 41.83 72.97 C 42.082 73.121 42.409 73.121 42.66 72.97 C 42.912 72.844 43.213 72.567 43.088 72.24 C 43.037 72.14 42.937 72.039 42.836 71.989 Z M 20.877 63.563 C 20.399 63.336 19.418 63.789 19.745 64.418 C 19.846 64.569 19.997 64.669 20.173 64.694 C 20.525 64.745 20.877 64.619 21.104 64.342 C 21.229 64.141 21.204 63.89 21.079 63.713 C 21.028 63.663 20.953 63.613 20.877 63.563 Z M 17.18 64.518 C 16.953 64.669 16.551 64.971 16.802 65.273 C 17.054 65.575 17.633 65.374 17.934 65.223 C 18.211 65.072 18.563 64.82 18.437 64.493 C 18.412 64.418 18.362 64.367 18.287 64.342 C 17.985 64.166 17.406 64.367 17.18 64.518 Z M 18.664 60.745 C 18.337 60.771 18.01 60.921 17.809 61.173 C 17.708 61.299 17.658 61.475 17.733 61.626 C 17.859 61.777 18.06 61.827 18.261 61.802 C 18.613 61.752 18.915 61.55 19.091 61.248 C 19.343 60.896 18.915 60.745 18.664 60.745 Z M 13.96 66.329 C 13.834 66.631 13.809 67.009 14.212 67.084 C 14.74 67.185 15.394 66.556 15.52 66.078 C 15.595 65.852 15.469 65.6 15.243 65.525 C 14.69 65.348 14.111 65.927 13.96 66.329 Z M 12.501 67.185 C 12.25 67.084 11.847 67.386 11.671 67.562 C 11.394 67.788 11.244 68.14 11.244 68.493 C 11.244 68.744 11.394 68.971 11.646 69.021 C 12.25 69.096 12.904 68.14 12.853 67.612 C 12.828 67.411 12.677 67.235 12.501 67.185 C 12.476 67.185 12.501 67.185 12.501 67.185 Z M 11.269 65.323 C 11.218 65.298 11.143 65.298 11.093 65.323 C 10.59 65.399 9.936 66.204 10.212 66.707 C 10.263 66.807 10.363 66.858 10.464 66.883 C 10.539 66.883 10.615 66.858 10.69 66.833 C 10.992 66.682 11.218 66.43 11.344 66.128 C 11.42 65.977 11.47 65.801 11.47 65.625 C 11.47 65.499 11.369 65.374 11.269 65.323 Z M 9.734 68.191 C 9.583 68.14 9.407 68.166 9.282 68.266 C 8.879 68.518 8.351 69.625 9.08 69.851 C 9.282 69.901 9.508 69.851 9.659 69.7 C 10.011 69.398 10.162 68.895 10.036 68.442 L 10.036 68.417 C 9.961 68.317 9.86 68.241 9.734 68.191 Z M 13.784 64.04 C 13.709 63.94 13.558 63.89 13.432 63.915 C 12.954 63.965 12.275 64.518 12.375 65.047 C 12.401 65.147 12.451 65.248 12.526 65.298 C 12.627 65.348 12.753 65.348 12.853 65.323 C 13.18 65.248 13.834 64.77 13.86 64.317 C 13.86 64.217 13.834 64.116 13.784 64.04 Z M 10.413 70.455 C 9.659 70.429 8.728 72.19 9.734 72.417 C 9.86 72.442 9.986 72.442 10.112 72.391 C 10.59 72.24 11.143 71.335 10.967 70.807 C 10.891 70.58 10.665 70.429 10.413 70.455 Z" fill="hsl(0, 0.00%, 0.00%)"></path><path d="M 21.33 106.172 C 21.229 106.172 21.154 106.097 21.229 106.047 C 21.758 105.745 22.311 105.493 22.864 105.242 C 23.066 105.493 23.217 105.795 23.292 106.097 Z M 37.906 105.242 C 37.906 105.217 39.39 105.921 39.541 106.021 C 39.617 106.097 39.541 106.172 39.44 106.172 L 37.453 106.097 C 37.554 105.77 37.705 105.493 37.906 105.242 Z M 25.807 66.254 C 25.531 66.682 25.304 67.109 25.103 67.562 C 25.103 67.361 25.053 67.185 25.028 66.983 C 25.254 66.707 25.531 66.48 25.807 66.254 Z M 24.248 67.813 C 24.348 68.04 24.499 68.266 24.701 68.442 C 24.575 68.769 24.449 69.121 24.348 69.474 C 24.097 68.744 23.896 68.543 23.745 68.493 C 23.896 68.291 24.072 68.04 24.248 67.813 Z M 23.342 69.222 C 23.418 69.7 23.72 70.128 24.147 70.354 C 24.047 70.782 23.946 71.159 23.82 71.536 C 23.669 70.731 23.468 70.53 23.292 70.48 C 23.116 70.455 23.04 70.555 22.915 70.731 C 22.537 71.436 23.066 72.064 23.493 72.391 C 23.342 72.794 23.191 73.171 23.066 73.473 C 22.94 72.567 22.739 72.316 22.588 72.291 C 22.437 72.266 22.336 72.316 22.236 72.492 C 22.387 71.335 22.764 70.228 23.342 69.222 Z M 22.286 74.706 C 22.261 74.328 22.236 73.951 22.236 73.574 C 22.361 73.825 22.537 74.026 22.739 74.202 C 22.613 74.429 22.462 74.655 22.311 74.882 C 22.311 74.806 22.286 74.756 22.286 74.706 Z M 15.595 77.221 C 15.394 77.196 15.193 77.145 14.991 77.045 C 14.916 76.994 14.941 76.844 14.991 76.768 C 15.193 76.491 15.872 76.315 16.249 76.29 C 15.998 76.567 15.771 76.869 15.595 77.221 Z M 15.369 77.774 C 15.268 77.799 15.193 77.825 15.092 77.85 C 14.941 77.875 14.815 77.95 14.715 78.051 C 14.69 78.076 14.664 78.126 14.664 78.177 L 14.664 78.353 C 14.664 78.403 14.69 78.453 14.715 78.504 C 14.74 78.529 14.765 78.579 14.79 78.604 C 14.916 78.68 15.042 78.705 15.167 78.705 L 15.394 78.705 C 15.218 78.403 15.193 78.051 15.369 77.774 Z M 15.545 81.321 C 15.394 81.346 15.218 81.346 15.067 81.321 C 14.941 81.296 14.866 81.195 14.866 81.069 C 14.866 80.944 14.941 80.818 15.067 80.793 C 15.218 80.767 15.369 80.767 15.545 80.767 C 15.545 80.767 16.299 80.742 16.299 81.019 C 16.299 81.296 15.545 81.321 15.545 81.321 Z M 16.576 79.787 C 16.576 79.736 16.551 79.686 16.501 79.661 C 16.425 79.61 16.35 79.56 16.249 79.535 C 16.148 79.485 16.023 79.46 15.922 79.434 L 15.746 79.409 L 15.545 79.384 C 15.419 79.384 15.293 79.359 15.167 79.359 C 14.991 79.359 14.84 79.359 14.74 79.535 C 14.639 79.711 14.639 80.038 14.891 80.113 C 14.991 80.139 15.092 80.164 15.193 80.164 L 15.947 80.164 C 16.048 80.164 16.174 80.139 16.274 80.113 C 16.35 80.088 16.425 80.063 16.501 80.013 C 16.551 79.912 16.576 79.837 16.576 79.787 Z M 24.474 106.021 C 24.424 105.594 24.248 105.166 23.996 104.814 C 24.273 104.663 24.525 104.537 24.826 104.437 C 25.229 104.839 25.48 105.367 25.581 105.921 Z M 26.637 105.921 C 26.562 105.242 26.31 104.588 25.858 104.06 L 26.788 103.682 C 27.342 104.286 27.669 105.066 27.719 105.896 C 27.719 105.871 26.914 105.921 26.637 105.921 C 26.612 105.921 26.637 105.921 26.637 105.921 Z M 29.983 105.871 C 29.731 105.896 29.052 105.896 28.851 105.896 C 28.725 104.965 28.373 104.085 27.794 103.305 C 28.147 103.204 28.499 103.129 28.851 103.079 C 29.203 103.179 29.58 103.229 29.958 103.28 Z M 29.983 102.374 C 29.882 102.601 28.826 102.223 28.826 101.947 C 28.826 101.771 28.448 98.174 28.423 97.972 L 29.958 97.872 C 29.983 99.18 29.983 101.066 29.983 102.374 C 29.958 102.374 29.983 102.374 29.983 102.374 Z M 35.994 104.462 C 36.271 104.563 36.548 104.688 36.825 104.839 C 36.573 105.191 36.422 105.594 36.372 106.021 L 35.24 105.946 C 35.315 105.393 35.592 104.89 35.994 104.462 Z M 34.007 103.682 L 34.938 104.06 C 34.485 104.588 34.234 105.242 34.158 105.921 C 33.856 105.921 33.077 105.896 33.077 105.896 C 33.152 105.066 33.479 104.286 34.007 103.682 C 34.033 103.682 34.007 103.682 34.007 103.682 Z M 32.976 103.305 C 32.423 104.06 32.045 104.94 31.945 105.871 C 31.769 105.871 31.064 105.871 30.813 105.845 L 30.838 103.28 C 31.215 103.229 31.593 103.154 31.97 103.079 C 32.322 103.129 32.674 103.204 33.026 103.305 Z M 30.838 97.847 C 31.215 97.796 31.995 97.771 32.372 97.746 C 32.372 97.746 31.97 101.771 31.97 101.947 C 31.97 102.223 30.888 102.601 30.813 102.374 C 30.813 101.066 30.813 99.129 30.838 97.847 C 30.863 97.821 30.838 97.847 30.838 97.847 Z M 47.867 72.442 C 47.766 72.618 47.691 72.794 47.64 72.995 C 47.54 73.423 46.182 81.245 46.182 81.245 C 46.182 81.245 44.899 81.623 39.793 82.931 L 39.315 81.069 C 41.101 80.742 44.672 80.063 44.748 79.988 C 44.823 79.912 45.377 77.221 45.628 75.913 C 45.679 75.661 45.779 75.183 45.553 75.385 C 45.201 75.687 44.521 76.114 44.144 75.687 C 44.018 75.536 43.993 75.334 44.094 75.158 L 44.597 75.083 C 44.949 75.033 45.175 74.706 45.1 74.353 L 45.1 74.328 C 45.628 73.775 47.062 72.064 46.634 70.606 C 46.232 69.121 44.245 69.373 43.113 70.228 C 42.736 70.505 42.66 70.429 42.635 70.379 C 42.61 70.329 42.61 70.279 42.61 70.228 C 42.635 69.725 43.842 67.99 45.502 68.845 C 45.628 68.92 45.779 68.971 45.905 68.996 C 46.509 68.996 45.05 66.128 45.477 65.952 C 45.804 65.801 46.182 66.531 46.509 67.336 C 46.785 68.04 46.911 68.82 47.087 68.82 C 47.364 68.794 47.64 65.474 48.194 65.6 C 48.747 65.726 48.194 68.467 48.144 68.744 C 48.093 69.046 48.068 69.147 48.169 69.197 C 48.37 69.272 48.647 68.794 48.974 68.317 C 49.426 67.562 49.804 67.084 49.98 67.185 C 50.458 67.587 48.823 70.756 47.867 72.442 Z M 28.901 66.908 C 29.027 67.285 29.279 67.612 29.631 67.813 C 29.807 67.939 30.008 68.015 30.234 68.04 C 30.461 68.065 30.687 68.065 30.913 68.015 C 31.14 67.939 31.341 67.839 31.517 67.663 C 31.693 67.512 31.819 67.31 31.894 67.084 C 32.02 66.707 32.02 66.304 31.894 65.927 L 31.894 65.877 C 31.844 65.751 31.718 65.675 31.567 65.701 C 31.467 65.726 31.391 65.852 31.391 65.952 C 31.417 66.229 31.366 66.506 31.266 66.782 C 31.165 67.009 30.989 67.185 30.737 67.26 C 30.486 67.336 30.234 67.31 29.983 67.185 C 29.857 67.134 29.756 67.059 29.656 66.958 C 29.555 66.858 29.455 66.757 29.379 66.656 C 29.329 66.581 29.203 66.531 29.102 66.556 C 28.977 66.581 28.901 66.732 28.952 66.858 Z M 20.877 87.911 C 19.494 85.899 18.211 83.786 17.054 81.623 L 17.054 80.868 L 17.104 80.893 C 17.255 80.969 17.456 80.918 17.532 80.767 C 17.658 80.541 17.205 80.189 17.381 78.906 C 17.482 78.428 17.633 77.975 17.884 77.573 C 17.909 77.548 17.909 77.498 17.884 77.447 L 17.809 77.296 C 17.783 77.271 17.758 77.246 17.708 77.221 C 17.582 77.12 17.406 77.095 17.054 77.774 C 16.777 78.328 16.677 78.78 16.174 78.629 C 15.318 78.353 16.475 76.919 16.752 76.617 C 17.104 76.265 17.582 76.064 18.06 76.039 C 18.865 76.039 18.739 78.101 18.613 79.309 C 18.563 79.736 18.513 80.139 18.463 80.566 C 18.84 81.421 19.267 82.252 19.745 83.056 C 19.947 83.358 20.425 84.088 20.777 84.591 C 20.902 84.792 21.053 84.968 21.204 85.119 C 21.481 84.918 21.758 84.691 22.009 84.44 C 22.261 84.239 24.474 82.075 24.977 81.648 C 25.002 81.648 25.053 81.623 25.078 81.623 C 25.128 81.623 25.179 81.598 25.229 81.598 L 25.531 81.598 C 25.757 81.598 25.933 81.623 26.134 81.648 L 26.185 81.648 C 26.386 81.673 26.562 81.572 26.637 81.396 C 26.738 81.195 26.663 80.918 26.436 80.818 C 26.16 80.692 25.883 80.617 25.581 80.617 L 25.128 80.617 C 25.053 80.617 24.952 80.617 24.877 80.642 C 24.776 80.667 24.701 80.692 24.625 80.717 L 24.525 80.767 C 23.694 79.61 23.091 78.328 22.688 76.969 C 22.613 76.693 22.537 76.416 22.487 76.139 L 22.864 76.139 C 23.367 76.114 23.845 75.837 24.047 75.36 C 24.122 75.158 24.122 75.007 24.021 74.932 C 23.921 74.856 23.795 74.756 22.94 75.234 C 23.116 74.982 23.292 74.706 23.443 74.454 C 23.694 74.404 23.946 74.353 24.198 74.228 C 24.675 74.052 25.028 73.624 25.103 73.121 C 25.128 72.92 25.078 72.769 24.952 72.718 C 24.826 72.668 24.675 72.618 23.971 73.398 C 24.072 73.121 24.198 72.844 24.298 72.542 C 24.525 72.492 24.751 72.417 24.952 72.291 C 25.43 72.09 25.757 71.637 25.782 71.134 C 25.782 70.907 25.732 70.782 25.606 70.756 C 25.48 70.731 25.304 70.656 24.65 71.511 C 24.751 71.134 24.852 70.756 24.952 70.354 L 24.977 70.228 C 25.179 70.203 25.405 70.128 25.581 70.052 C 26.059 69.901 26.411 69.474 26.487 68.971 C 26.512 68.744 26.461 68.618 26.336 68.568 C 26.21 68.518 26.034 68.442 25.204 69.373 C 25.329 68.971 25.48 68.593 25.631 68.241 C 25.883 68.241 26.134 68.191 26.386 68.115 C 26.889 67.99 27.291 67.612 27.392 67.109 C 27.442 66.908 27.392 66.757 27.291 66.707 C 27.191 66.631 26.964 66.531 25.933 67.487 C 26.185 67.009 26.461 66.556 26.763 66.128 L 27.04 66.128 C 27.191 66.128 27.342 66.128 27.493 66.103 C 27.996 66.053 28.448 65.751 28.65 65.273 C 28.725 65.072 28.7 64.921 28.599 64.845 C 28.499 64.77 28.373 64.669 27.618 65.147 C 27.82 64.946 28.046 64.77 28.272 64.594 C 30.712 63.387 34.007 62.582 38.409 62.582 C 41.855 62.582 42.937 63.185 42.937 63.663 C 42.937 65.198 38.46 68.065 35.517 68.845 C 34.888 69.046 34.385 69.147 34.737 69.826 L 35.29 71.109 C 33.982 71.26 31.417 70.882 30.159 70.606 C 30.385 70.329 30.612 70.077 30.888 69.826 C 30.964 69.75 30.989 69.65 30.964 69.549 C 30.913 69.398 30.763 69.323 30.637 69.373 C 30.41 69.423 30.209 69.524 30.033 69.65 C 29.933 69.7 29.857 69.775 29.756 69.851 C 29.656 69.926 29.58 70.002 29.505 70.077 C 29.178 70.404 28.926 70.782 28.75 71.209 C 28.474 71.813 28.373 72.467 28.398 73.121 C 28.398 73.347 28.423 73.548 28.474 73.775 C 28.499 73.875 28.574 73.951 28.675 73.976 C 28.826 74.001 28.977 73.901 29.002 73.75 L 29.002 73.699 C 29.027 73.523 29.077 73.322 29.102 73.146 C 29.128 72.97 29.178 72.769 29.228 72.593 C 29.279 72.417 29.354 72.215 29.404 72.014 C 32.322 76.743 36.12 76.592 36.975 76.718 L 37.202 76.718 L 37.504 77.85 C 29.455 89.043 24.65 87.559 24.65 87.559 L 24.65 85.974 C 24.852 85.723 25.933 84.415 25.707 84.037 C 25.581 83.861 25.329 83.811 25.153 83.937 L 25.078 84.012 C 24.047 85.245 22.261 87.207 20.877 87.911 Z M 32.423 65.902 C 32.699 66.732 33.529 67.235 34.385 67.109 C 34.636 67.059 34.837 66.958 35.039 66.807 C 35.215 66.656 35.366 66.455 35.441 66.229 C 35.441 66.179 35.466 66.128 35.491 66.078 C 35.542 65.927 35.542 65.776 35.542 65.625 C 35.542 65.424 35.491 65.248 35.441 65.072 L 35.416 64.996 C 35.366 64.871 35.215 64.795 35.089 64.845 C 34.988 64.896 34.938 64.971 34.938 65.072 C 34.938 65.348 34.888 65.625 34.787 65.877 C 34.737 65.977 34.661 66.078 34.561 66.153 C 34.46 66.229 34.36 66.279 34.234 66.279 C 33.982 66.329 33.706 66.279 33.479 66.153 C 33.353 66.103 33.228 66.028 33.127 65.927 C 33.026 65.826 32.926 65.726 32.85 65.625 C 32.775 65.525 32.624 65.499 32.498 65.575 C 32.423 65.625 32.398 65.726 32.398 65.826 C 32.423 65.852 32.423 65.902 32.423 65.902 Z" fill="rgb(0, 0, 0)"></path><path d="M 20.198 64.694 C 20.55 64.745 20.902 64.619 21.129 64.342 C 21.255 64.141 21.229 63.89 21.104 63.713 C 21.053 63.638 20.978 63.588 20.902 63.563 C 20.425 63.336 19.444 63.789 19.771 64.418 C 19.846 64.569 20.022 64.669 20.198 64.694 Z M 35.994 94.35 L 35.944 93.747 L 34.812 93.822 L 34.762 93.118 L 35.894 93.042 L 35.869 92.439 L 34.158 92.564 L 34.284 94.476 C 34.259 94.451 35.994 94.35 35.994 94.35 Z M 10.011 68.467 L 10.011 68.442 C 9.961 68.342 9.86 68.241 9.734 68.216 C 9.583 68.166 9.407 68.191 9.282 68.291 C 8.879 68.543 8.351 69.65 9.08 69.876 C 9.282 69.926 9.508 69.876 9.659 69.725 C 10.011 69.398 10.137 68.92 10.011 68.467 Z M 33.706 95.055 L 33.555 92.564 L 32.951 92.615 L 33.152 95.709 L 36.095 95.507 L 36.045 94.904 C 36.02 94.904 33.706 95.055 33.706 95.055 Z M 37.328 92.338 L 36.724 92.363 L 36.925 95.457 L 39.868 95.256 L 39.843 94.652 L 37.504 94.803 Z M 50.407 66.455 C 49.904 66.153 49.2 66.757 48.873 67.361 C 49.049 66.254 49.15 64.72 48.395 64.594 C 47.64 64.468 47.012 66.304 46.961 66.983 C 46.961 66.983 46.156 64.644 45.301 64.921 C 44.446 65.198 44.672 66.48 45.226 68.14 C 43.213 67.084 41.729 69.549 41.88 70.706 C 41.151 71.134 39.264 72.09 35.013 73.272 L 34.913 73.297 C 34.913 73.322 34.938 73.372 34.963 73.398 C 35.064 73.599 35.542 74.806 40.296 75.234 C 41.277 75.309 42.283 75.309 43.264 75.234 C 43.213 75.385 43.213 75.51 43.213 75.661 C 43.239 75.963 43.39 76.215 43.616 76.416 C 43.842 76.567 44.119 76.642 44.396 76.617 C 44.471 76.617 44.521 76.592 44.597 76.567 C 44.597 76.567 44.672 76.542 44.672 76.517 C 44.496 77.447 44.245 78.378 43.968 79.283 C 43.742 79.334 43.591 79.46 38.988 79.988 L 38.761 79.107 C 38.46 78.177 37.906 75.837 37.906 75.837 C 34.737 75.988 31.744 74.328 30.184 71.561 C 31.215 71.788 32.247 71.939 33.278 72.039 C 34.108 72.14 34.913 72.19 35.743 72.165 C 36.07 72.14 36.573 72.039 36.498 71.612 C 36.296 71.008 36.07 70.404 35.768 69.851 C 36.623 69.599 37.453 69.272 38.258 68.92 C 39.642 68.241 43.742 65.852 43.742 63.739 C 43.742 62.783 42.861 62.431 42.182 62.255 C 39.818 61.575 34.209 61.5 29.907 63.009 L 29.656 63.11 C 29.681 63.009 29.681 62.909 29.681 62.808 C 29.681 62.582 29.58 62.456 29.455 62.431 C 29.329 62.406 29.077 62.355 28.348 63.638 L 28.046 63.764 C 28.172 63.336 28.147 63.135 28.071 63.06 C 27.996 62.984 27.82 62.959 27.618 63.06 C 27.191 63.286 26.964 63.789 27.04 64.267 L 26.788 64.418 C 26.788 64.292 26.713 64.166 26.612 64.116 C 26.487 64.04 26.336 64.116 26.185 64.267 C 25.983 64.468 25.883 64.745 25.883 65.021 C 22.261 67.512 21.154 70.832 21.154 73.498 L 21.154 74.253 C 21.104 74.202 21.053 74.177 20.978 74.177 C 20.852 74.177 20.752 74.303 20.701 74.504 C 20.601 75.007 20.802 75.51 21.204 75.812 L 21.154 75.812 C 20.953 75.812 20.777 75.988 20.777 76.19 C 20.777 76.391 20.928 76.567 21.129 76.567 L 21.154 76.567 C 21.255 76.567 21.355 76.542 21.456 76.517 C 21.808 78.328 22.537 80.063 23.644 81.572 C 22.89 82.402 22.06 83.182 21.204 83.912 C 20.877 83.484 20.575 83.056 20.299 82.629 C 19.871 81.95 19.519 81.245 19.217 80.516 C 19.217 80.466 19.293 79.963 19.343 79.585 C 19.444 78.956 19.494 78.328 19.519 77.699 C 19.519 77.573 19.594 75.41 18.035 75.41 C 17.683 75.435 17.331 75.536 17.029 75.712 L 17.029 71.109 C 17.683 70.706 17.909 69.876 17.582 69.197 C 17.708 69.197 17.934 69.147 18.11 69.121 C 18.261 69.096 18.362 68.996 18.387 68.845 L 18.513 68.317 C 18.538 68.191 18.488 68.065 18.362 67.99 L 17.758 67.663 L 17.758 67.637 C 17.909 67.587 18.085 67.562 18.236 67.512 C 18.739 67.336 19.267 67.16 19.745 66.958 C 20.425 66.682 21.053 66.38 21.707 66.028 C 22.387 65.65 23.015 65.223 23.619 64.72 C 24.198 64.242 24.65 63.688 25.002 63.034 C 25.103 62.858 25.179 62.657 25.254 62.456 C 25.355 62.129 25.43 61.777 25.43 61.425 C 25.355 61.374 23.091 62.179 21.607 62.179 C 21.179 62.179 20.752 62.154 20.324 62.079 C 20.902 60.519 23.091 58.482 23.066 58.381 C 23.015 58.28 20.374 58.331 16.828 59.739 L 16.601 58.104 C 16.45 57.325 16.174 57.325 15.998 58.104 C 15.947 58.381 15.796 59.261 15.62 60.242 L 15.52 60.293 C 15.268 60.418 12.275 62.154 10.841 63.437 C 9.583 64.493 8.527 65.751 7.747 67.185 C 6.892 68.644 6.112 70.958 6.59 72.618 C 7.194 74.806 8.678 75.385 10.439 74.404 C 11.168 74.001 11.797 73.473 12.325 72.844 C 13.18 71.813 13.91 70.756 14.765 69.851 C 14.79 70.329 15.017 70.756 15.419 71.008 C 15.444 71.058 15.444 71.083 15.444 71.134 L 15.469 75.787 L 15.469 75.963 L 15.369 75.963 C 15.142 75.988 14.916 76.064 14.715 76.164 C 14.589 76.24 14.488 76.315 14.388 76.416 C 14.237 76.592 14.187 76.844 14.212 77.07 C 14.212 77.145 14.237 77.221 14.287 77.321 C 14.312 77.397 14.363 77.472 14.438 77.523 C 14.237 77.623 14.111 77.799 14.036 78.026 C 13.985 78.152 13.985 78.302 13.985 78.428 C 13.985 78.554 14.01 78.705 14.086 78.831 C 14.136 78.956 14.212 79.057 14.312 79.158 L 14.287 79.183 C 14.136 79.359 14.061 79.56 14.086 79.787 C 14.061 80.088 14.187 80.365 14.413 80.541 L 14.488 80.591 C 14.463 80.617 14.438 80.667 14.413 80.717 C 14.363 80.843 14.337 80.994 14.337 81.12 C 14.337 81.271 14.363 81.421 14.413 81.547 C 14.513 81.723 14.664 81.849 14.84 81.925 C 14.966 81.975 15.117 82 15.268 82 L 15.469 82 L 15.469 106.902 L 17.054 106.902 L 17.054 83.459 C 18.06 85.119 19.62 87.785 20.123 88.54 C 20.248 88.716 20.425 88.993 20.676 89.043 C 20.928 89.043 21.204 88.967 21.406 88.817 C 21.582 88.716 21.733 88.59 21.909 88.49 C 22.286 88.213 22.613 87.936 22.965 87.634 L 23.317 87.333 L 23.544 87.156 L 23.443 98.35 L 27.367 98.123 L 28.096 102.5 L 27.493 102.701 C 27.493 102.701 27.115 102.374 26.839 102.425 C 26.562 102.525 26.461 103.028 26.461 103.028 L 25.48 103.406 C 25.48 103.406 25.053 103.129 24.751 103.255 C 24.449 103.38 24.424 103.858 24.424 103.858 L 23.569 104.286 C 23.569 104.286 23.141 104.009 22.915 104.11 C 22.663 104.236 22.638 104.789 22.638 104.789 C 20.198 105.82 19.041 106.877 20.425 106.877 L 40.346 106.877 C 41.755 106.877 40.572 105.82 38.133 104.789 C 38.133 104.789 38.107 104.21 37.856 104.11 C 37.629 103.984 37.202 104.286 37.202 104.286 L 36.347 103.858 C 36.347 103.858 36.321 103.38 36.02 103.255 C 35.718 103.129 35.29 103.406 35.29 103.406 L 34.309 103.028 C 34.309 103.028 34.234 102.525 33.932 102.425 C 33.655 102.324 33.278 102.701 33.278 102.701 L 32.699 102.5 L 33.479 97.721 L 42.333 97.167 L 39.944 83.962 L 46.634 82.101 C 46.81 82.05 46.936 81.899 46.987 81.723 C 47.288 80.164 48.345 73.196 48.345 73.196 C 50.961 68.467 51.137 66.883 50.407 66.455 Z M 21.33 106.172 C 21.229 106.172 21.154 106.097 21.229 106.047 C 21.758 105.745 22.311 105.493 22.864 105.267 C 23.066 105.518 23.217 105.82 23.292 106.122 Z M 37.906 105.242 C 37.906 105.217 39.39 105.921 39.541 106.021 C 39.617 106.097 39.541 106.172 39.44 106.172 L 37.453 106.097 C 37.554 105.77 37.705 105.493 37.906 105.242 Z M 42.61 74.429 C 42.61 74.278 42.56 74.152 42.459 74.052 C 42.283 73.901 42.082 73.775 41.83 73.75 C 41.503 73.725 40.975 73.875 40.95 74.253 L 40.95 74.479 C 39.239 74.479 37.302 74.278 36.296 73.523 C 37.076 73.398 37.856 73.171 38.61 72.92 C 38.61 73.045 38.636 73.171 38.711 73.297 C 38.937 73.599 39.34 73.75 39.717 73.674 C 40.019 73.649 40.271 73.423 40.396 73.146 C 40.421 72.97 40.396 72.819 40.296 72.668 C 40.195 72.567 40.094 72.467 39.969 72.417 C 41.478 71.788 42.811 71.134 43.339 70.933 C 43.591 71.612 44.044 73.624 44.144 74.152 C 44.169 74.202 44.119 74.278 44.069 74.278 L 44.044 74.278 C 43.742 74.328 43.239 74.379 42.61 74.429 Z M 44.018 70.329 C 44.698 70.128 45.427 70.077 45.729 70.832 C 46.156 71.888 45.276 72.945 44.848 73.448 C 44.597 72.316 44.194 70.933 44.018 70.329 Z M 25.807 66.229 C 25.531 66.656 25.304 67.084 25.103 67.537 C 25.103 67.336 25.053 67.16 25.028 66.958 C 25.254 66.707 25.531 66.48 25.807 66.229 C 25.807 66.254 25.807 66.229 25.807 66.229 Z M 24.248 67.813 C 24.348 68.04 24.499 68.266 24.701 68.442 C 24.575 68.769 24.449 69.121 24.348 69.474 C 24.097 68.744 23.896 68.543 23.745 68.493 C 23.896 68.291 24.072 68.04 24.248 67.813 Z M 23.342 69.222 C 23.418 69.7 23.72 70.128 24.147 70.354 C 24.047 70.782 23.946 71.159 23.82 71.536 C 23.669 70.731 23.468 70.53 23.292 70.48 C 23.116 70.455 23.04 70.555 22.915 70.731 C 22.537 71.436 23.066 72.064 23.493 72.391 C 23.342 72.794 23.191 73.171 23.066 73.473 C 22.94 72.567 22.739 72.316 22.588 72.291 C 22.437 72.266 22.336 72.316 22.236 72.492 C 22.387 71.335 22.764 70.228 23.342 69.222 Z M 22.286 74.706 C 22.261 74.328 22.236 73.951 22.236 73.574 C 22.361 73.825 22.537 74.026 22.739 74.202 C 22.613 74.429 22.462 74.655 22.311 74.882 C 22.311 74.806 22.286 74.756 22.286 74.706 Z M 13.407 69.675 C 12.225 71.033 11.42 73.272 9.407 73.599 C 7.772 73.85 7.345 72.165 7.546 70.756 C 7.747 69.021 8.955 66.279 11.294 64.242 C 12.552 63.135 13.96 62.154 15.444 61.374 C 15.318 62.229 15.193 62.984 15.142 63.286 C 14.941 63.437 14.79 63.638 14.664 63.864 C 14.614 63.965 14.639 64.091 14.715 64.191 C 14.815 64.292 14.966 64.317 15.092 64.242 C 15.494 63.94 15.922 63.713 16.425 63.563 C 16.853 63.462 17.306 63.437 17.456 63.387 C 17.658 63.361 17.783 63.185 17.758 62.984 C 17.733 62.858 17.633 62.733 17.507 62.682 C 17.431 62.657 17.356 62.632 17.255 62.632 L 16.979 60.594 C 18.287 59.991 19.67 59.563 21.079 59.312 C 20.198 60.192 19.544 61.274 19.192 62.456 C 20.953 63.135 22.99 62.657 24.323 62.355 C 23.066 64.82 20.274 65.374 18.11 66.279 C 16.299 67.059 14.69 68.216 13.407 69.675 Z M 14.991 76.768 C 15.193 76.491 15.872 76.315 16.249 76.29 C 15.998 76.567 15.771 76.869 15.595 77.221 C 15.394 77.196 15.193 77.145 14.991 77.045 C 14.941 76.969 14.941 76.818 14.991 76.768 Z M 14.664 78.152 C 14.664 78.101 14.69 78.076 14.715 78.026 C 14.815 77.925 14.941 77.85 15.092 77.825 C 15.167 77.799 15.268 77.774 15.369 77.749 C 15.218 78.051 15.218 78.403 15.394 78.68 L 15.167 78.68 C 15.042 78.68 14.916 78.629 14.79 78.579 C 14.765 78.554 14.74 78.529 14.715 78.479 C 14.69 78.428 14.664 78.378 14.664 78.328 C 14.639 78.277 14.639 78.202 14.664 78.152 Z M 15.545 81.321 C 15.394 81.346 15.218 81.346 15.067 81.321 C 14.941 81.296 14.866 81.195 14.866 81.069 C 14.866 80.944 14.941 80.818 15.067 80.793 C 15.218 80.767 15.369 80.767 15.545 80.767 C 15.545 80.767 16.299 80.742 16.299 81.019 C 16.299 81.296 15.545 81.321 15.545 81.321 Z M 16.475 79.937 C 16.4 79.988 16.325 80.038 16.249 80.038 C 16.148 80.063 16.023 80.088 15.922 80.088 L 15.167 80.088 C 15.067 80.088 14.966 80.063 14.866 80.038 C 14.639 79.937 14.614 79.661 14.715 79.46 C 14.815 79.258 14.966 79.283 15.142 79.283 C 15.268 79.283 15.369 79.309 15.52 79.309 L 15.721 79.334 L 15.897 79.359 C 16.023 79.384 16.123 79.409 16.224 79.46 C 16.325 79.485 16.4 79.535 16.475 79.585 C 16.526 79.61 16.551 79.661 16.551 79.711 C 16.551 79.812 16.526 79.887 16.475 79.937 Z M 20.877 87.911 C 19.494 85.899 18.211 83.786 17.054 81.623 L 17.054 80.868 L 17.104 80.893 C 17.255 80.969 17.456 80.918 17.532 80.767 C 17.658 80.541 17.205 80.189 17.381 78.906 C 17.482 78.428 17.633 77.975 17.884 77.573 C 17.909 77.548 17.909 77.498 17.884 77.447 L 17.809 77.296 C 17.783 77.271 17.758 77.246 17.708 77.221 C 17.582 77.12 17.406 77.095 17.054 77.774 C 16.777 78.328 16.677 78.78 16.174 78.629 C 15.318 78.353 16.475 76.919 16.752 76.617 C 17.104 76.265 17.582 76.064 18.06 76.039 C 18.865 76.039 18.739 78.101 18.613 79.309 C 18.563 79.736 18.513 80.139 18.463 80.566 C 18.84 81.421 19.267 82.252 19.745 83.056 C 19.947 83.358 20.425 84.088 20.777 84.591 C 20.902 84.792 21.053 84.968 21.204 85.119 C 21.481 84.918 21.758 84.691 22.009 84.44 C 22.261 84.239 24.474 82.075 24.977 81.648 C 25.002 81.648 25.053 81.623 25.078 81.623 C 25.128 81.623 25.179 81.598 25.229 81.598 L 25.531 81.598 C 25.757 81.598 25.933 81.623 26.134 81.648 L 26.185 81.648 C 26.386 81.673 26.562 81.572 26.637 81.396 C 26.738 81.195 26.663 80.918 26.436 80.818 C 26.16 80.692 25.883 80.617 25.581 80.617 L 25.128 80.617 C 25.053 80.617 24.952 80.617 24.877 80.642 C 24.776 80.667 24.701 80.692 24.625 80.717 L 24.525 80.767 C 23.694 79.61 23.091 78.328 22.688 76.969 C 22.613 76.693 22.537 76.416 22.487 76.139 L 22.864 76.139 C 23.367 76.114 23.845 75.837 24.047 75.36 C 24.122 75.158 24.122 75.007 24.021 74.932 C 23.921 74.856 23.795 74.756 22.94 75.234 C 23.116 74.982 23.292 74.706 23.443 74.454 C 23.694 74.404 23.946 74.353 24.198 74.228 C 24.675 74.052 25.028 73.624 25.103 73.121 C 25.128 72.92 25.078 72.769 24.952 72.718 C 24.826 72.668 24.675 72.618 23.971 73.398 C 24.072 73.121 24.198 72.844 24.298 72.542 C 24.525 72.492 24.751 72.417 24.952 72.291 C 25.43 72.09 25.757 71.637 25.782 71.134 C 25.782 70.907 25.732 70.782 25.606 70.756 C 25.48 70.731 25.304 70.656 24.65 71.511 C 24.751 71.134 24.852 70.756 24.952 70.354 L 24.977 70.228 C 25.179 70.203 25.405 70.128 25.581 70.052 C 26.059 69.901 26.411 69.474 26.487 68.971 C 26.512 68.744 26.461 68.618 26.336 68.568 C 26.21 68.518 26.034 68.442 25.204 69.373 C 25.329 68.971 25.48 68.593 25.631 68.241 C 25.883 68.241 26.134 68.191 26.386 68.115 C 26.889 67.99 27.291 67.612 27.392 67.109 C 27.442 66.908 27.392 66.757 27.291 66.707 C 27.191 66.631 26.964 66.531 25.933 67.487 C 26.185 67.009 26.461 66.556 26.763 66.128 L 27.04 66.128 C 27.191 66.128 27.342 66.128 27.493 66.103 C 27.996 66.053 28.448 65.751 28.65 65.273 C 28.725 65.072 28.7 64.921 28.599 64.845 C 28.499 64.77 28.373 64.669 27.618 65.147 C 27.82 64.946 28.046 64.77 28.272 64.594 C 30.712 63.387 34.007 62.582 38.409 62.582 C 41.855 62.582 42.937 63.185 42.937 63.663 C 42.937 65.198 38.46 68.065 35.517 68.845 C 34.888 69.046 34.385 69.147 34.737 69.826 L 35.29 71.109 C 33.982 71.26 31.417 70.882 30.159 70.606 C 30.385 70.329 30.612 70.077 30.888 69.826 C 30.964 69.75 30.989 69.65 30.964 69.549 C 30.913 69.398 30.763 69.323 30.637 69.373 C 30.41 69.423 30.209 69.524 30.033 69.65 C 29.933 69.7 29.857 69.775 29.756 69.851 C 29.656 69.926 29.58 70.002 29.505 70.077 C 29.178 70.404 28.926 70.782 28.75 71.209 C 28.474 71.813 28.373 72.467 28.398 73.121 C 28.398 73.347 28.423 73.548 28.474 73.775 C 28.499 73.875 28.574 73.951 28.675 73.976 C 28.826 74.001 28.977 73.901 29.002 73.75 L 29.002 73.699 C 29.027 73.523 29.077 73.322 29.102 73.146 C 29.128 72.97 29.178 72.769 29.228 72.593 C 29.279 72.417 29.354 72.215 29.404 72.014 C 32.322 76.743 36.12 76.592 36.975 76.718 L 37.202 76.718 L 37.504 77.85 C 29.455 89.043 24.65 87.559 24.65 87.559 L 24.65 85.974 C 24.852 85.723 25.933 84.415 25.707 84.037 C 25.581 83.861 25.329 83.811 25.153 83.937 L 25.078 84.012 C 24.047 85.245 22.261 87.207 20.877 87.911 Z M 24.449 106.021 C 24.399 105.594 24.223 105.166 23.971 104.814 C 24.248 104.663 24.499 104.537 24.801 104.437 C 25.204 104.839 25.455 105.367 25.556 105.921 Z M 26.612 105.921 C 26.537 105.242 26.285 104.588 25.833 104.06 L 26.763 103.682 C 27.317 104.286 27.644 105.066 27.694 105.896 C 27.694 105.871 26.914 105.921 26.612 105.921 Z M 29.958 105.871 C 29.706 105.896 29.027 105.896 28.826 105.896 C 28.7 104.965 28.348 104.085 27.769 103.305 C 28.121 103.204 28.474 103.129 28.826 103.079 C 29.178 103.179 29.555 103.229 29.933 103.28 Z M 29.958 102.374 C 29.857 102.601 28.801 102.223 28.801 101.947 C 28.801 101.771 28.423 98.174 28.398 97.972 L 29.933 97.872 C 29.983 99.18 29.983 101.066 29.958 102.374 Z M 35.994 104.462 C 36.271 104.563 36.548 104.688 36.825 104.839 C 36.573 105.191 36.422 105.594 36.372 106.021 L 35.24 105.946 C 35.315 105.393 35.592 104.89 35.994 104.462 Z M 34.007 103.682 L 34.938 104.06 C 34.485 104.588 34.234 105.242 34.158 105.921 C 33.856 105.921 33.077 105.896 33.077 105.896 C 33.152 105.066 33.479 104.286 34.007 103.682 C 34.033 103.682 34.007 103.682 34.007 103.682 Z M 32.976 103.305 C 32.423 104.06 32.045 104.94 31.945 105.871 C 31.769 105.871 31.064 105.871 30.813 105.845 L 30.838 103.28 C 31.215 103.229 31.593 103.154 31.97 103.079 C 32.322 103.129 32.674 103.204 33.026 103.305 Z M 30.838 97.847 C 31.215 97.796 31.995 97.771 32.372 97.746 C 32.372 97.746 31.97 101.771 31.97 101.947 C 31.97 102.223 30.888 102.601 30.813 102.374 C 30.813 101.066 30.813 99.129 30.838 97.847 C 30.863 97.821 30.838 97.847 30.838 97.847 Z M 41.075 96.086 L 24.525 97.167 L 24.6 88.49 C 26.034 88.64 27.115 88.364 28.775 87.584 C 31.064 86.502 34.133 83.887 36.674 80.365 L 37.579 79.133 C 36.975 82.931 33.479 87.408 31.819 89.848 C 31.693 90.024 31.593 90.225 31.567 90.426 C 31.567 90.527 31.542 90.703 31.668 90.753 C 31.769 90.779 31.844 90.753 31.92 90.703 C 32.02 90.628 32.121 90.527 32.196 90.426 C 32.297 90.301 32.423 90.175 32.523 90.049 C 32.875 89.647 33.202 89.244 33.504 88.817 C 35.869 85.421 37.479 82.956 38.158 79.937 C 38.183 80.038 38.208 80.139 38.208 80.239 C 38.812 83.61 37.931 84.968 36.9 86.955 C 36.749 87.207 36.674 87.483 36.699 87.785 C 36.774 88.163 36.975 88.087 37.328 87.76 C 38.133 86.729 38.736 85.521 39.038 84.239 Z M 47.867 72.442 C 47.766 72.618 47.691 72.794 47.64 72.995 C 47.54 73.423 46.182 81.245 46.182 81.245 C 46.182 81.245 44.899 81.623 39.793 82.931 L 39.315 81.069 C 41.101 80.742 44.672 80.063 44.748 79.988 C 44.823 79.912 45.377 77.221 45.628 75.913 C 45.679 75.661 45.779 75.183 45.553 75.385 C 45.201 75.687 44.521 76.114 44.144 75.687 C 44.018 75.536 43.993 75.334 44.094 75.158 L 44.597 75.083 C 44.949 75.033 45.175 74.706 45.1 74.353 L 45.1 74.328 C 45.628 73.775 47.062 72.064 46.634 70.606 C 46.232 69.121 44.245 69.398 43.113 70.228 C 42.736 70.505 42.66 70.429 42.635 70.379 C 42.61 70.329 42.61 70.279 42.61 70.228 C 42.635 69.725 43.842 67.99 45.502 68.845 C 45.628 68.92 45.779 68.971 45.905 68.996 C 46.509 68.996 45.05 66.128 45.477 65.952 C 45.804 65.801 46.182 66.531 46.509 67.336 C 46.785 68.04 46.911 68.82 47.087 68.82 C 47.364 68.794 47.64 65.474 48.194 65.6 C 48.747 65.726 48.194 68.467 48.144 68.744 C 48.093 69.046 48.068 69.147 48.169 69.197 C 48.37 69.272 48.647 68.794 48.974 68.317 C 49.426 67.562 49.804 67.084 49.98 67.185 C 50.458 67.587 48.823 70.756 47.867 72.442 C 47.867 72.417 47.867 72.442 47.867 72.442 Z M 42.836 71.989 C 42.685 71.913 42.509 71.863 42.358 71.863 C 42.107 71.888 41.88 71.989 41.704 72.14 C 41.503 72.341 41.503 72.668 41.704 72.869 C 41.729 72.894 41.78 72.945 41.83 72.97 C 42.082 73.121 42.409 73.121 42.66 72.97 C 42.912 72.844 43.213 72.567 43.088 72.24 C 43.037 72.14 42.937 72.039 42.836 71.989 Z M 38.082 94.199 L 39.793 94.099 L 39.742 93.495 L 38.61 93.571 L 38.585 92.866 L 39.717 92.791 L 39.667 92.187 L 37.956 92.288 Z M 10.413 70.455 C 9.659 70.429 8.728 72.19 9.734 72.417 C 9.86 72.442 9.986 72.442 10.112 72.391 C 10.59 72.24 11.143 71.335 10.967 70.807 C 10.891 70.58 10.64 70.429 10.413 70.455 Z M 26.084 95.558 L 25.933 93.067 L 25.329 93.118 L 25.531 96.212 L 28.474 96.01 L 28.423 95.407 Z M 32.196 94.602 L 32.146 93.998 L 31.014 94.074 L 30.964 93.369 L 32.096 93.294 L 32.045 92.69 L 30.335 92.791 L 30.461 94.702 Z M 28.398 94.853 L 28.348 94.25 L 27.216 94.325 L 27.166 93.621 L 28.298 93.545 L 28.247 92.942 L 26.537 93.042 L 26.663 94.954 Z M 28.901 66.908 C 29.027 67.285 29.279 67.612 29.631 67.813 C 29.807 67.939 30.008 68.015 30.234 68.04 C 30.461 68.065 30.687 68.065 30.913 68.015 C 31.14 67.939 31.341 67.839 31.517 67.663 C 31.693 67.512 31.819 67.31 31.894 67.084 C 32.02 66.707 32.02 66.304 31.894 65.927 L 31.894 65.877 C 31.844 65.751 31.718 65.675 31.567 65.701 C 31.467 65.726 31.391 65.852 31.391 65.952 C 31.417 66.229 31.366 66.506 31.266 66.782 C 31.165 67.009 30.989 67.185 30.737 67.26 C 30.486 67.336 30.234 67.31 29.983 67.185 C 29.857 67.134 29.756 67.059 29.656 66.958 C 29.555 66.858 29.455 66.757 29.379 66.656 C 29.329 66.581 29.203 66.531 29.102 66.556 C 28.977 66.581 28.901 66.732 28.952 66.858 Z M 32.423 65.902 C 32.699 66.732 33.529 67.235 34.385 67.109 C 34.636 67.059 34.837 66.958 35.039 66.807 C 35.215 66.656 35.366 66.455 35.441 66.229 C 35.441 66.179 35.466 66.128 35.491 66.078 C 35.542 65.927 35.542 65.776 35.542 65.625 C 35.542 65.424 35.491 65.248 35.441 65.072 L 35.416 64.996 C 35.366 64.871 35.215 64.795 35.089 64.845 C 34.988 64.896 34.938 64.971 34.938 65.072 C 34.938 65.348 34.888 65.625 34.787 65.877 C 34.737 65.977 34.661 66.078 34.561 66.153 C 34.46 66.229 34.36 66.279 34.234 66.279 C 33.982 66.329 33.706 66.279 33.479 66.153 C 33.353 66.103 33.228 66.028 33.127 65.927 C 33.026 65.826 32.926 65.726 32.85 65.625 C 32.775 65.525 32.624 65.499 32.498 65.575 C 32.423 65.625 32.398 65.726 32.398 65.826 Z M 29.882 95.306 L 29.731 92.816 L 29.128 92.866 L 29.329 95.96 L 32.272 95.759 L 32.247 95.155 Z M 18.387 64.518 C 18.362 64.443 18.312 64.393 18.261 64.367 C 17.985 64.191 17.406 64.393 17.18 64.544 C 16.953 64.669 16.551 64.996 16.802 65.298 C 17.054 65.6 17.633 65.399 17.934 65.248 C 18.211 65.097 18.513 64.795 18.387 64.518 Z M 12.476 67.185 C 12.225 67.084 11.822 67.386 11.646 67.562 C 11.369 67.788 11.218 68.14 11.218 68.493 C 11.218 68.744 11.369 68.971 11.621 69.021 C 12.225 69.096 12.879 68.14 12.828 67.612 C 12.803 67.411 12.677 67.26 12.476 67.185 Z M 13.432 63.915 C 12.954 63.965 12.275 64.518 12.375 65.047 C 12.401 65.147 12.451 65.248 12.526 65.298 C 12.627 65.348 12.753 65.348 12.853 65.323 C 13.18 65.248 13.834 64.77 13.86 64.317 C 13.86 64.217 13.834 64.116 13.759 64.04 C 13.683 63.94 13.558 63.915 13.432 63.915 Z M 15.193 65.525 C 14.69 65.348 14.111 65.927 13.96 66.355 C 13.834 66.656 13.809 67.034 14.212 67.109 C 14.74 67.21 15.394 66.581 15.52 66.103 C 15.57 65.852 15.444 65.6 15.193 65.525 Z M 18.236 61.827 C 18.588 61.777 18.89 61.575 19.066 61.274 C 19.318 60.896 18.89 60.745 18.639 60.771 C 18.312 60.796 17.985 60.947 17.783 61.198 C 17.683 61.324 17.633 61.5 17.708 61.651 C 17.859 61.777 18.06 61.852 18.236 61.827 Z M 11.445 65.625 C 11.445 65.499 11.369 65.374 11.244 65.323 C 11.193 65.298 11.118 65.298 11.067 65.323 C 10.564 65.399 9.91 66.204 10.187 66.707 C 10.237 66.807 10.338 66.858 10.439 66.883 C 10.514 66.883 10.59 66.858 10.665 66.833 C 10.967 66.682 11.193 66.43 11.344 66.153 C 11.42 65.977 11.445 65.801 11.445 65.625 Z" fill="#000"></path><path d="M 39.918 102.148 C 40.396 102.148 40.774 102.525 40.774 102.978 C 40.774 103.456 40.396 103.833 39.944 103.833 L 39.893 103.833 C 39.415 103.833 39.063 103.431 39.063 102.978 C 39.088 102.525 39.466 102.148 39.918 102.148 Z M 39.918 102.299 C 39.541 102.299 39.214 102.601 39.189 102.978 C 39.189 103.355 39.491 103.682 39.868 103.707 C 40.245 103.707 40.572 103.406 40.598 103.028 L 40.598 103.003 C 40.623 102.626 40.321 102.299 39.918 102.299 C 39.944 102.299 39.944 102.299 39.918 102.299 Z M 39.742 103.481 L 39.591 103.481 L 39.591 102.5 L 39.969 102.5 C 40.195 102.5 40.321 102.575 40.321 102.777 C 40.321 102.928 40.22 103.028 40.094 103.053 L 40.069 103.053 L 40.346 103.481 L 40.195 103.481 L 39.944 103.053 L 39.742 103.053 Z M 39.742 102.928 L 39.918 102.928 C 40.094 102.928 40.17 102.877 40.17 102.777 C 40.17 102.676 40.12 102.626 39.944 102.626 L 39.742 102.626 Z" fill="hsl(0, 0.00%, 0.00%)"></path></svg>