<?xml version="1.0" encoding="UTF-8"?>
<svg xmlns="http://www.w3.org/2000/svg" viewBox="0 0 164 164">
  <path d="M 42.61 74.429 C 42.61 74.278 42.56 74.152 42.459 74.052 C 42.283 73.901 42.082 73.775 41.83 73.75 C 41.503 73.725 40.975 73.875 40.95 74.253 L 40.95 74.479 C 39.239 74.479 37.302 74.278 36.296 73.523 C 37.076 73.398 37.856 73.171 38.61 72.92 C 38.61 73.045 38.636 73.171 38.711 73.297 C 38.937 73.599 39.34 73.75 39.717 73.674 C 40.019 73.649 40.271 73.423 40.396 73.146 C 40.421 72.97 40.396 72.819 40.296 72.668 C 40.195 72.567 40.094 72.467 39.969 72.417 C 41.478 71.788 42.811 71.134 43.339 70.933 C 43.591 71.612 44.044 73.624 44.144 74.152 C 44.169 74.202 44.119 74.278 44.069 74.278 L 44.044 74.278 C 43.742 74.328 43.239 74.379 42.61 74.429 Z" fill="currentColor"/>
  <path d="M 24.298 62.406 C 23.04 64.871 20.248 65.424 18.085 66.329 C 16.299 67.084 14.69 68.216 13.407 69.675 C 12.225 71.033 11.42 73.272 9.407 73.599 C 7.772 73.85 7.345 72.165 7.546 70.756 C 7.747 69.021 8.955 66.279 11.294 64.242 C 12.552 63.135 13.96 62.154 15.444 61.374 C 15.318 62.229 15.193 62.984 15.142 63.286 C 14.941 63.437 14.79 63.638 14.664 63.864 C 14.614 63.965 14.639 64.091 14.715 64.191 C 14.815 64.292 14.966 64.317 15.092 64.242 C 15.494 63.94 15.922 63.713 16.425 63.563 C 16.853 63.462 17.306 63.437 17.456 63.387 C 17.658 63.361 17.783 63.185 17.758 62.984 C 17.733 62.858 17.633 62.733 17.507 62.682 C 17.431 62.657 17.356 62.632 17.255 62.632 L 16.979 60.594 C 18.287 59.991 19.67 59.563 21.079 59.312 C 20.198 60.192 19.544 61.274 19.192 62.456 C 20.928 63.185 22.965 62.682 24.298 62.406 Z" fill="currentColor"/>
  <path d="M 24.55 97.167 L 24.625 88.49 C 26.059 88.64 27.14 88.364 28.801 87.584 C 31.09 86.502 34.158 83.887 36.699 80.365 L 37.604 79.133 C 37.001 82.931 33.504 87.408 31.844 89.848 C 31.718 90.024 31.618 90.225 31.593 90.426 C 31.593 90.527 31.567 90.703 31.693 90.753 C 31.794 90.779 31.869 90.753 31.945 90.703 C 32.045 90.628 32.146 90.527 32.221 90.426 C 32.322 90.301 32.448 90.175 32.548 90.049 C 32.901 89.647 33.228 89.244 33.529 88.817 C 35.894 85.421 37.504 82.956 38.183 79.937 C 38.208 80.038 38.233 80.139 38.233 80.239 C 38.837 83.61 37.956 84.968 36.925 86.955 C 36.774 87.207 36.699 87.483 36.724 87.785 C 36.799 88.163 37.001 88.087 37.353 87.76 C 38.158 86.729 38.761 85.521 39.063 84.239 L 41.126 96.036 C 41.101 96.086 24.55 97.167 24.55 97.167 Z" fill="currentColor"/>
  <path d="M 156.404 78.906 C 155.85 78.906 155.423 79.359 155.423 79.912 C 155.423 80.466 155.875 80.893 156.429 80.893 C 156.982 80.893 157.41 80.44 157.41 79.887 C 157.41 79.334 156.957 78.906 156.404 78.906 Z" fill="currentColor"/>
  <!-- Additional paths omitted for brevity -->
</svg>