<?xml version="1.0" encoding="UTF-8"?>
<svg id="Layer_2" data-name="Layer 2" xmlns="http://www.w3.org/2000/svg" viewBox="0 0 257.67 68.51">
  <defs>
    <style>
      .cls-1 {
        fill: #1d1d1b;
        fill-rule: evenodd;
      }
    </style>
  </defs>
  <g id="Layer_1-2" data-name="Layer 1">
    <path class="cls-1" d="M182.37,43.88h-6.48l19.02-37.38h7.47l19.02,37.38h-6.55l-5-9.83h-22.46l-5,9.83h0ZM207.47,29.42l-8.87-17.45-8.87,17.45h17.75ZM152.7,5.52l4.43-5.11h9.85l-14.29,5.11h0ZM140.04,43.96h33.43v-4.24h-27.67v-12.91h20.54v-4.39h-20.54v-11.71h27.49v-4.16h-33.25v37.42h0ZM94.62,6.5h24.63c6.57,0,11.94,4.88,11.94,10.84h0c0,5.2-4.08,9.57-9.48,10.61l11.56,15.93h-6.78l-11.39-15.69h-15.28v15.69h-5.2V6.5h0ZM119.52,10.95l.34.05.34.07.33.08.32.1.32.12.3.13.3.15.29.16.28.17.27.19.26.2.25.21.23.22.22.23.21.23.2.25.18.25.17.25.16.26.14.27.13.27.12.27.1.27.09.28.07.28.06.28.05.29.03.29.02.3v.3s0,.3,0,.3l-.02.29-.03.29-.05.29-.06.28-.07.28-.09.28-.1.27-.12.27-.13.27-.14.27-.16.26-.17.26-.18.25-.2.24-.21.24-.22.23-.23.22-.25.21-.26.2-.27.18-.28.17-.29.16-.3.14-.3.13-.32.12-.32.1-.33.08-.34.06-.34.05-.35.03h-.4s-18.67.01-18.67.01v-12.87h19.08s.35.04.35.04h0ZM62.64,4.31c-10.56,0-19.12,8.56-19.12,19.11s8.56,19.11,19.12,19.11,19.12-8.56,19.12-19.11-8.56-19.11-19.12-19.11h0ZM62.64,0c-14.05,0-25.45,10.49-25.45,23.42s11.4,23.42,25.45,23.42,25.45-10.49,25.45-23.42S76.69,0,62.64,0h0ZM0,43.96V6.54h4.77v33.32h28.28v4.09H0ZM224.14,43.96h33.53v-4.26h-28.28V6.54h-5.25v37.42h0ZM103.77,68.26h-2.85l8.36-14.55h3.28l8.36,14.55h-2.88l-2.2-3.83h-9.87l-2.2,3.83h0ZM114.81,62.63l-3.9-6.79-3.9,6.79h7.8ZM126.33,53.72h10.35c2.76,0,5.02,1.9,5.02,4.22h0c0,2.02-1.72,3.72-3.98,4.13l4.86,6.2h-2.85l-4.79-6.11h-5.87v6.11h-2.74v-14.55h0ZM136.8,55.45l.14.02.14.03.14.03.14.04.13.04.13.05.13.06.12.06.12.07.11.07.11.08.1.08.1.09.09.09.09.09.08.1.08.1.07.1.07.1.06.1.05.1.05.11.04.11.04.11.03.11.03.11.02.11v.11s.02.11.02.11v.12s0,.12,0,.12v.11s-.02.11-.02.11l-.02.11-.03.11-.03.11-.04.11-.04.11-.05.11-.05.11-.06.1-.07.1-.07.1-.08.1-.08.09-.09.09-.09.09-.1.08-.1.08-.11.08-.11.07-.12.07-.12.06-.13.06-.13.05-.13.04-.14.04-.14.03-.14.02-.14.02h-.15s-.17.01-.17.01h-7.3v-5.01h7.47s.15.02.15.02h0ZM84.45,53.72h10.35c2.76,0,5.02,1.9,5.02,4.22h0c0,1.45-.89,2.74-2.23,3.5-.92.52-1.83.66-2.89.71-.53.02-1.09.02-1.65.01h-5.87v6.11h-2.74v-14.55h0ZM94.92,55.45l.15.02.14.03.14.03.14.04.13.04.13.05.12.06.12.06.12.07.11.07.11.08.1.08.1.09.09.09.09.09.08.1.08.1.07.1.07.1.06.1.05.1.05.11.04.11.04.11.03.11.03.11.02.11v.11s.02.11.02.11v.12s0,.12,0,.12v.11s-.02.11-.02.11l-.02.11-.03.11-.03.11-.04.11-.04.11-.05.11-.05.11-.06.1-.07.1-.07.1-.08.1-.08.09-.09.09-.09.09-.1.08-.1.08-.11.08-.11.07-.12.07-.12.06-.12.06-.13.05-.13.04-.14.04-.14.03-.14.02-.15.02h-.15s-.17.01-.17.01h-7.3v-5.01h7.47s.15.02.15.02h0ZM158.22,63.59l2.51-.16c.12.73.39,1.32.83,1.79.44.47,1.11.84,2.02,1.13.91.29,1.94.43,3.09.43,1.02,0,1.91-.11,2.69-.33.78-.22,1.36-.52,1.74-.9.38-.38.57-.8.57-1.25s-.18-.85-.55-1.2c-.37-.34-.97-.63-1.81-.86-.54-.15-1.73-.39-3.59-.71-1.85-.32-3.14-.62-3.89-.91-.96-.36-1.68-.82-2.15-1.35-.47-.54-.7-1.14-.7-1.81,0-.73.29-1.42.86-2.06.58-.64,1.42-1.12,2.53-1.46,1.11-.33,2.34-.5,3.69-.5,1.5,0,2.81.17,3.95.52,1.14.34,2.02.86,2.63,1.53.61.67.94,1.44.99,2.29l-2.55.14c-.14-.92-.6-1.62-1.4-2.08-.79-.47-1.96-.7-3.51-.7s-2.78.21-3.53.64c-.74.43-1.11.94-1.11,1.54,0,.52.26.95.78,1.29.52.34,1.85.68,4.02,1.04,2.17.36,3.65.66,4.46.93,1.17.39,2.04.89,2.6,1.48.56.6.83,1.29.83,2.07s-.3,1.5-.92,2.19c-.61.68-1.5,1.22-2.64,1.6-1.15.38-2.44.57-3.88.57-1.82,0-3.35-.19-4.58-.58-1.23-.38-2.2-.96-2.9-1.73-.7-.77-1.07-1.64-1.1-2.61h0ZM149.23,68.26v-10.28h2.68v10.28h-2.68ZM149.23,56.44v-2.72h2.68v2.72h-2.68ZM23.31,19.65h4.41l6.61-12.84h-5.61l-5.41,12.84h0Z"/>
  </g>
</svg>