<svg width="432" height="87" fill="none" xmlns="http://www.w3.org/2000/svg"><path d="M180.06 64.788c-3.154 1.63-7.429 2.551-11.304 2.551-8.874 0-13.141-5.416-13.141-13.19 0-9.598 7.097-20.05 18.138-20.05 6.307 0 10.318 3.592 10.318 8.948 0 8.163-8.61 10.773-20.96 10.512-.128 1.107.128 3.261.858 4.503 1.249 2.155 3.545 3.27 6.57 3.27 3.613 0 6.51-.913 8.806-2.088l.722 5.552-.007-.008Zm-7.293-25.01c-4.794 0-7.955 4.25-8.873 8.102 7.887.068 12.944-.98 12.944-4.833 0-2.027-1.64-3.269-4.071-3.269Zm12.681 26.842 8.873-46.36h7.692l-8.941 46.36h-7.624Zm40.475-1.832c-3.153 1.63-7.428 2.551-11.304 2.551-8.873 0-13.14-5.416-13.14-13.19 0-9.598 7.097-20.05 18.137-20.05 6.307 0 10.318 3.592 10.318 8.948 0 8.163-8.609 10.773-20.967 10.512-.128 1.107.128 3.261.85 4.503 1.25 2.155 3.553 3.27 6.571 3.27 3.612 0 6.502-.913 8.805-2.088l.723 5.552.007-.008Zm-7.293-25.01c-4.794 0-7.947 4.25-8.873 8.102 7.887.068 12.945-.98 12.945-4.833 0-2.027-1.641-3.269-4.072-3.269Zm34.229 25.668c-1.904.913-5.126 1.826-9.197 1.826-8.015 0-12.945-5.095-12.945-12.666 0-11.102 8.474-20.439 20.305-20.439 2.83 0 5.321.651 6.57 1.175l-1.971 5.94c-1.182-.524-2.695-.98-4.862-.98-7.361 0-12.027 6.725-12.027 13.384 0 4.765 2.762 7.444 7.03 7.444 2.957 0 5.193-.786 6.765-1.504l.332 5.813v.007Zm3.085 1.174 4.072-21.942c.722-3.785 1.181-7.114 1.573-9.86h6.638l-.723 5.551h.136c2.957-4.242 6.969-6.27 11.168-6.27 4.998 0 7.225 3.203 7.489 6.532 2.89-4.31 6.901-6.464 11.371-6.531 4.335 0 7.752 2.805 7.752 8.491 0 1.37-.263 3.726-.527 5.424l-3.484 18.613h-7.428l3.281-17.76c.263-1.242.459-2.746.459-3.98 0-2.746-1.114-4.571-3.876-4.571-3.552 0-7.428 4.376-8.677 11.102l-2.823 15.217h-7.428l3.485-18.022c.196-1.31.399-2.544.399-3.719 0-2.349-.723-4.57-3.876-4.57-3.545 0-7.624 4.832-8.806 11.296l-2.762 15.022h-7.428l.015-.022Zm78.06-1.832c-3.154 1.63-7.428 2.551-11.304 2.551-8.873 0-13.141-5.416-13.141-13.19 0-9.598 7.097-20.05 18.138-20.05 6.307 0 10.318 3.592 10.318 8.948 0 8.163-8.609 10.773-20.967 10.512-.128 1.107.135 3.261.858 4.503 1.249 2.155 3.545 3.27 6.57 3.27 3.612 0 6.51-.913 8.805-2.088l.723 5.552v-.008Zm-7.293-25.01c-4.794 0-7.947 4.25-8.873 8.102 7.887.068 12.945-.98 12.945-4.833 0-2.027-1.641-3.269-4.072-3.269Zm27.591-13.122-1.513 8.162h7.165l-1.182 5.88h-7.165l-2.498 12.8c-.331 1.505-.595 3.135-.595 4.505 0 1.765.79 2.872 2.822 2.872a16.9 16.9 0 0 0 2.627-.194l-.723 5.94c-1.113.456-3.153.65-4.997.65-5.253 0-7.556-2.872-7.556-6.53 0-1.766.196-3.532.655-5.88l2.762-14.17h-4.275l1.114-5.88h4.275l1.181-5.94 7.888-2.223.015.008Zm25.761 39.965c0-1.893.263-4.444.527-7.115h-.128c-3.154 5.813-7.428 7.84-11.5 7.84-5.72 0-9.46-4.443-9.46-10.84 0-10.84 7.624-22.399 22.54-22.399 3.485 0 7.225.651 9.724 1.437l-3.349 16.586c-.918 4.698-1.445 10.705-1.317 14.498h-7.029l-.008-.007Zm3.086-26.32c-.791-.194-1.776-.328-3.154-.328-7.029 0-12.553 7.9-12.553 15.15 0 3.328 1.249 6.074 4.606 6.074 3.612 0 7.947-4.444 9.46-12.539l1.641-8.356Zm10.31 26.319 8.874-46.36h7.691l-8.941 46.36h-7.624ZM45.758 7.077c-15.925 0-23.872 5.918-26.574 19.78L8.662 79.924H117.24l1.972-.03c16.181 0 24.249-10.347 26.416-21.457l10.123-51.359H45.758Zm-9.724 59.626h-12.01L31.572 27c.684-3.613 4.816-6.539 9.211-6.539h4.05l-8.798 46.25v-.008Zm20.915 0H44.938l8.79-46.25h12.02l-8.799 46.25ZM86.097 27l-7.556 39.703H66.53l8.79-46.25h4.05c4.394 0 7.405 2.926 6.72 6.54l.007.007Zm45.457 31.646c-.925 5.005-4.425 8.057-7.458 8.057H93.533c-4.403 0-7.3-2.932-6.615-6.553l.534-2.993h44.328l-.233 1.489h.007Zm1.844-9.846H89.085l1.844-9.822h44.291l-1.822 9.822Zm3.507-18.261H92.532l.264-1.43c.684-3.613 5.14-8.64 9.543-8.64h36.365l-1.791 10.07h-.008Z" fill="#fff"/></svg>