<svg xmlns="http://www.w3.org/2000/svg" width="161" height="45"><path d="M 41.399 27.842 L 45.123 27.842 C 46.576 27.842 47.128 28.342 47.128 29.566 C 47.128 30.745 46.575 31.244 45.123 31.244 L 41.399 31.244 Z M 35.63 40.22 L 41.399 40.22 L 41.399 35.187 L 47.579 35.187 C 51.67 35.187 53.143 32.785 53.143 29.68 C 53.143 26.075 51.628 24.035 47.537 24.035 L 35.629 24.035 L 35.629 40.22 Z M 55.045 24.035 L 70.572 24.035 L 70.572 27.979 L 60.815 27.979 L 60.815 30.155 L 69.879 30.155 L 69.879 34.1 L 60.815 34.1 L 60.815 36.276 L 70.574 36.276 L 70.574 40.22 L 55.045 40.22 Z M 78.756 27.842 L 82.479 27.842 C 83.933 27.842 84.486 28.342 84.486 29.566 C 84.486 30.745 83.933 31.244 82.479 31.244 L 78.756 31.244 Z M 72.987 40.22 L 78.756 40.22 L 78.756 35.187 L 84.935 35.187 C 89.027 35.187 90.501 32.785 90.501 29.68 C 90.501 26.075 88.986 24.035 84.894 24.035 L 72.988 24.035 L 72.988 40.22 Z M 96.085 33.351 C 93.262 32.875 92.096 31.061 92.096 28.795 C 92.096 24.601 95.799 23.468 100.545 23.468 C 107.05 23.468 109.73 25.349 109.935 28.772 L 103.224 28.772 C 103.224 28.115 102.877 27.706 102.345 27.48 C 101.834 27.231 101.18 27.141 100.545 27.141 C 98.826 27.141 98.233 27.616 98.233 28.297 C 98.233 28.749 98.417 29.044 98.99 29.135 L 105.884 30.268 C 108.789 30.745 110.59 32.24 110.59 34.983 C 110.59 38.928 107.685 40.787 101.199 40.787 C 96.76 40.787 91.911 40.107 91.891 35.347 L 98.847 35.347 C 98.866 35.89 99.051 36.252 99.461 36.502 C 99.889 36.73 100.524 36.843 101.424 36.843 C 103.224 36.843 103.715 36.298 103.715 35.528 C 103.715 35.052 103.449 34.576 102.673 34.44 Z M 112.471 24.035 L 118.24 24.035 L 118.24 40.22 L 112.471 40.22 Z M 139.621 33.919 C 139.252 36.049 138.597 37.772 137.165 38.951 C 135.754 40.13 133.544 40.787 130.025 40.787 C 126.527 40.787 120.042 40.514 120.042 32.128 C 120.042 23.74 126.527 23.468 130.025 23.468 C 133.503 23.468 138.863 23.967 139.621 30.382 L 133.115 30.382 C 132.951 29.225 132.254 27.548 130.025 27.548 C 127.671 27.548 126.179 28.84 126.179 32.128 C 126.179 35.415 127.631 36.706 129.739 36.706 C 131.56 36.706 132.644 35.867 133.115 33.918 L 139.621 33.918 Z M 147.169 32.128 C 147.169 28.84 148.663 27.548 151.016 27.548 C 153.369 27.548 154.863 28.841 154.863 32.128 C 154.863 35.415 153.369 36.706 151.016 36.706 C 148.663 36.706 147.169 35.415 147.169 32.128 Z M 141.031 32.128 C 141.031 40.514 147.516 40.788 151.016 40.788 C 154.515 40.788 161 40.514 161 32.128 C 161 23.741 154.515 23.468 151.016 23.468 C 147.516 23.468 141.031 23.74 141.031 32.128 Z M 26.913 24.196 C 27.285 16.431 20.565 7.685 11.405 6.605 L 11.421 6.498 C 20.452 6.498 27.375 14.831 27.375 21.404 C 27.366 22.772 27.257 23.62 27.064 24.236 Z M 26.365 25.182 C 25.697 25.982 24.946 26.709 24.123 27.35 C 22.495 18.014 15.611 9.852 10.744 7.468 L 10.64 7.541 C 15.535 11.544 21.372 19.319 23.642 27.717 C 22.484 28.565 21.233 29.278 19.914 29.845 C 15.295 24.596 10.99 14.472 9.602 8.049 L 9.461 8.091 C 9.493 14.327 13.935 24.912 19.351 30.077 C 18.109 30.567 16.817 30.922 15.499 31.138 C 10.306 29.088 6.611 22.522 6.611 15.795 C 6.611 11.404 7.953 8.687 8.213 8.131 L 8.103 8.088 C 7.789 8.562 5.82 11.277 5.82 16.018 C 5.82 23.621 9.583 29.432 14.579 31.262 C 12.792 31.458 10.986 31.373 9.225 31.011 L 9.188 31.128 C 9.723 31.324 11.536 32.083 14.302 32.083 C 20.556 32.083 24.785 28.209 26.487 25.265 Z" fill="hsl(0, 0%, 100%)"></path><path d="M 13.676 3.755 C 8.935 3.755 3.374 7.165 3.374 10.283 C 3.374 11.489 4.481 12.508 6.772 12.508 C 12.09 12.508 17.031 8.867 17.031 6.035 C 17.031 4.545 15.595 3.755 13.676 3.755 Z M 15.569 5.946 C 15.569 8.333 10.97 11.25 7.125 11.25 C 5.427 11.25 4.509 10.585 4.509 9.485 C 4.509 7.064 9.16 4.196 12.766 4.196 C 15.117 4.196 15.569 5.388 15.569 5.946 Z" fill="hsl(0, 0%, 100%)"></path><path d="M 1.484 11.727 C 1.352 11.957 0.818 12.999 0.818 14.066 C 0.818 16.045 2.825 17.883 6.516 17.883 C 13.616 17.883 21.82 12.674 21.82 7.838 C 21.82 5.668 19.759 4.487 18.327 4.244 L 18.3 4.329 C 18.745 4.469 20.377 5.225 20.377 7.157 C 20.377 11.011 13.133 16.26 5.918 16.26 C 3.156 16.26 1.416 14.901 1.416 12.922 C 1.416 12.295 1.546 11.883 1.581 11.763 Z" fill="hsl(0, 0%, 100%)"></path><path d="M 24.748 8.2 C 24.943 8.347 26.112 9.318 26.112 11.155 C 26.112 17.419 16.264 23.578 7.558 23.578 C 2.367 23.578 0 21.024 0.105 18.755 L 0.198 18.755 C 0.402 19.933 2.087 22.042 6.631 22.042 C 15.348 22.042 25.081 15.668 25.081 10.085 C 25.081 9.127 24.82 8.53 24.672 8.264 Z" fill="hsl(0, 0%, 100%)"></path><path d="M 28.039 14.047 C 28.08 14.181 28.292 14.781 28.292 15.719 C 28.292 22.687 18.326 28.653 9.659 28.653 C 5.198 28.653 2.868 26.493 2.376 25.616 L 2.456 25.558 C 3.69 26.634 6.121 27.451 8.959 27.451 C 16.614 27.451 28.037 21.647 27.934 14.073 Z" fill="hsl(0, 0%, 100%)"></path></svg>