<?xml version="1.0" encoding="UTF-8"?>
<svg id="Layer_2" data-name="Layer 2" xmlns="http://www.w3.org/2000/svg" viewBox="0 0 382.25 70.09">
  <defs>
    <style>
      .cls-1 {
        fill: #0079c1;
      }
    </style>
  </defs>
  <g id="Layer_1-2" data-name="Layer 1">
    <path class="cls-1" d="M129.67,1.41h-20.54v26.74h-21.37V1.41h-20.53v67.27h20.53v-26.46h21.37v26.46h20.54V1.41ZM201.11,55.17V1.41h-20.53v67.27h37.13l3.09-13.51h-19.69ZM165.39,1.41h-20.53v67.27h20.53V1.41ZM248.65,1.41h-20.53v67.27h20.53V1.41ZM349.91,18.58c0-3.66,3.65-5.35,9.56-5.35,6.47,0,13.5,1.41,18.28,3.38l-1.69-14.64c-5.34-1.13-10.13-1.97-18.85-1.97-16.6,0-27.85,6.54-27.85,20.26,0,23.65,32.07,18.86,32.07,29.84,0,4.23-3.09,6.48-10.69,6.48-6.75,0-17.16-2.25-23.35-5.35l2.25,15.48c6.19,2.25,14.63,3.38,21.38,3.38,17.16,0,31.22-5.63,31.22-22.52,0-22.52-32.34-18.3-32.34-28.99M291.96,52.64c19.12,0,31.22-9.85,31.22-27.02,0-18.86-12.94-25.61-34.04-25.61-8.16,0-18,.56-25.03,1.41v67.27h20.53v-16.04h7.31ZM302.93,25.89c0,8.73-4.22,14.64-14.91,14.64h-3.38V12.74c1.2-.07,2.32-.07,3.38-.07,10.13,0,14.91,4.79,14.91,13.23M27.85,52.64c19.12,0,31.22-9.85,31.22-27.02C59.07,6.75,46.13,0,25.03,0,16.87,0,7.03.56,0,1.41v67.27h20.53v-16.04h7.32ZM38.82,25.89c0,8.73-4.22,14.64-14.91,14.64h-3.38V12.74c1.2-.07,2.32-.07,3.38-.07,10.13,0,14.91,4.79,14.91,13.23"/>
  </g>
</svg>