<svg xmlns="http://www.w3.org/2000/svg" width="150" height="28"><g transform="translate(-0.003 -0.002)"><path d="M 0.003 0.002 L 150.003 0.002 L 150.003 27.453 L 0.003 27.453 Z" fill="transparent"></path><path d="M 50.886 0.551 L 42.827 0.551 L 42.827 11.024 L 34.438 11.024 L 34.438 0.552 L 26.379 0.552 L 26.379 26.902 L 34.439 26.902 L 34.439 16.536 L 42.827 16.536 L 42.827 26.902 L 50.887 26.902 L 50.887 0.552 Z M 78.92 21.606 L 78.92 0.552 L 70.86 0.552 L 70.86 26.902 L 85.433 26.902 L 86.645 21.607 L 78.92 21.607 Z M 64.903 0.552 L 56.844 0.552 L 56.844 26.902 L 64.903 26.902 Z M 97.573 0.552 L 89.519 0.552 L 89.519 26.902 L 97.574 26.902 L 97.574 0.552 Z M 137.305 7.277 C 137.305 5.843 138.742 5.18 141.057 5.18 C 143.597 5.18 146.358 5.734 148.234 6.51 L 147.574 0.773 C 145.473 0.331 143.597 0.001 140.179 0.001 C 133.666 0.001 129.25 2.566 129.25 7.94 C 129.25 17.2 141.837 15.328 141.837 19.627 C 141.837 21.277 140.618 22.157 137.639 22.157 C 134.994 22.157 130.905 21.277 128.477 20.065 L 129.363 26.131 C 131.79 27.015 135.099 27.453 137.752 27.453 C 144.482 27.453 150.001 25.247 150.001 18.631 C 150.001 9.816 137.305 11.467 137.305 7.277 Z M 114.573 20.618 C 122.073 20.618 126.823 16.758 126.823 10.032 C 126.823 2.648 121.746 0 113.466 0 C 110.266 0 106.402 0.221 103.644 0.55 L 103.644 26.902 L 111.703 26.902 L 111.703 20.619 L 114.573 20.619 Z M 118.876 10.144 C 118.876 13.559 117.222 15.877 113.024 15.877 L 111.703 15.877 L 111.703 4.988 C 112.143 4.967 112.584 4.958 113.024 4.962 C 116.997 4.962 118.876 6.834 118.876 10.144 Z M 10.93 20.618 C 18.433 20.618 23.18 16.758 23.18 10.032 C 23.179 2.648 18.103 0 9.826 0 C 6.621 0 2.761 0.221 0 0.55 L 0 26.902 L 8.058 26.902 L 8.058 20.619 L 10.928 20.619 Z M 15.237 10.144 C 15.237 13.559 13.578 15.877 9.384 15.877 L 8.059 15.877 L 8.059 4.988 C 8.529 4.962 8.971 4.962 9.384 4.962 C 13.357 4.962 15.237 6.834 15.237 10.144 Z" fill="rgb(0, 0, 0)"></path></g></svg>