<?xml version="1.0" encoding="UTF-8"?>
<svg xmlns="http://www.w3.org/2000/svg" viewBox="0 0 162 50">
  <path d="M 93.182 18.965 C 94.677 18.967 95.891 17.743 95.893 16.23 C 95.891 14.716 94.677 13.492 93.182 13.494 C 91.686 13.492 90.472 14.716 90.469 16.23 C 90.469 17.74 91.684 18.965 93.182 18.965 Z M 95.759 13.189 C 97.254 13.191 98.468 11.966 98.471 10.453 C 98.468 8.94 97.254 7.716 95.759 7.718 C 95.041 7.717 94.352 8.004 93.843 8.517 C 93.334 9.03 93.048 9.727 93.046 10.453 C 93.047 11.18 93.334 11.877 93.843 12.39 C 94.351 12.903 95.041 13.191 95.759 13.189 Z M 36.349 37.347 C 36.349 42.916 31.873 47.429 26.349 47.429 C 20.828 47.429 16.354 42.916 16.354 37.347 C 16.354 31.776 20.828 27.262 26.349 27.262 C 31.871 27.262 36.349 31.776 36.349 37.347 Z M 26.386 31.934 C 23.423 31.934 21.02 34.358 21.02 37.347 C 21.02 40.335 23.423 42.758 26.386 42.758 C 29.349 42.758 31.752 40.335 31.752 37.347 C 31.752 34.358 29.349 31.934 26.386 31.934 Z M 118.267 45.359 C 118.267 45.359 118.009 47.126 120.443 47.341 C 120.443 47.341 122.363 47.414 122.613 45.357 L 122.613 35.953 C 122.615 35.85 122.791 35.729 122.849 35.825 L 128.676 46.367 C 128.676 46.367 129.356 47.359 130.754 47.307 C 130.754 47.307 133.008 47.504 133.67 45.357 L 133.712 44.671 L 133.712 28.87 C 132.893 26.645 130.129 26.633 129.432 28.859 L 129.432 38.118 C 129.432 38.118 129.445 38.443 129.249 38.408 C 127.353 35.18 125.687 31.782 123.688 28.471 C 123.08 27.467 121.376 26.877 120.203 27.37 C 118.977 27.886 118.651 28.68 118.46 29.039 C 118.46 29.039 118.222 29.399 118.222 29.868 L 118.222 45.248 M 101.612 45.072 L 101.612 28.793 C 101.772 26.996 103.715 27.039 103.666 27.036 C 104.372 27.052 105.039 27.085 105.807 28.07 C 107.306 29.996 108.604 31.766 110.068 33.761 C 112.712 37.375 115.02 40.488 117.585 44.21 C 117.957 44.752 117.765 45.373 117.569 45.903 C 117.248 46.783 116.316 47.233 115.465 47.284 C 115.121 47.308 114.649 47.227 114.334 46.921 C 113.459 46.07 112.52 44.555 111.567 43.302 C 111.565 43.302 106.115 43.267 106.109 43.316 C 106.086 43.509 106.052 44.792 105.89 45.634 C 105.635 46.95 104.522 47.165 103.942 47.27 C 103.857 47.287 104.062 47.258 103.946 47.266 C 103.13 47.325 101.795 46.93 101.611 45.08 L 101.612 45.071 Z M 108.18 38.915 C 108.399 38.902 108.354 38.677 108.279 38.578 C 107.528 37.561 106.888 36.643 106.108 35.604 C 106.088 36.625 106.054 37.878 106.092 38.932 C 106.095 38.967 107.024 38.934 107.047 38.929 C 107.256 38.898 107.781 38.939 108.18 38.915 Z M 144.495 45.234 C 144.495 45.234 144.234 47.002 146.669 47.218 C 146.669 47.218 148.588 47.289 148.84 45.23 L 148.84 35.828 C 148.843 35.726 149.017 35.604 149.077 35.702 L 154.904 46.242 C 154.904 46.242 155.584 47.236 156.98 47.183 C 156.98 47.183 159.235 47.38 159.896 45.232 L 159.939 44.546 L 159.939 28.746 C 159.12 26.522 156.357 26.508 155.656 28.734 L 155.656 37.993 C 155.656 37.993 155.672 38.317 155.475 38.283 C 153.578 35.055 151.913 31.657 149.914 28.348 C 149.307 27.343 147.601 26.753 146.428 27.246 C 145.204 27.761 144.878 28.557 144.686 28.913 C 144.686 28.913 144.45 29.274 144.45 29.743 L 144.45 45.123 M 136.623 29.507 L 136.623 44.959 C 136.623 44.959 136.516 47.234 138.878 47.234 C 141.241 47.234 141.277 45.032 141.277 45.032 M 141.295 45.049 L 141.295 29.598 C 141.295 29.598 141.401 27.322 139.037 27.322 C 136.676 27.322 136.64 29.525 136.64 29.525" fill="currentColor"/>
  <path d="M 4.572 30.041 C 5.487 28.829 7.396 27.697 9.159 27.461 C 10.842 27.238 11.905 27.805 12.119 27.877 C 14.764 28.774 16.555 31.848 16.202 34.888 C 15.991 36.698 14.929 38.332 13.606 39.512 C 14.88 42.361 17.268 44.224 16.89 45.635 C 16.628 46.615 16.361 46.867 15.505 47.242 C 14.962 47.481 14.173 47.418 13.717 47.026 C 11.498 45.122 10.329 42.37 8.462 40.402 C 7.998 39.916 7.79 40.133 7.791 40.398 C 7.799 42.704 7.816 44.42 7.7 45.547 C 7.628 46.222 6.995 47.002 6.566 47.219 C 5.372 47.821 3.753 47.094 3.543 45.739 C 3.505 45.499 3.199 44.452 3.178 39.689 C 3.17 37.329 2.986 36.811 3.129 33.071 C 3.164 32.245 3.738 31.144 4.571 30.042 Z M 9.651 36.131 C 10.923 36.131 11.954 35.172 11.954 33.987 C 11.954 32.803 10.924 31.844 9.652 31.844 C 8.379 31.844 7.347 32.803 7.347 33.987 C 7.347 35.173 8.379 36.132 9.651 36.132 Z M 69.036 23.708 C 68.655 23.919 68.217 24.164 67.779 23.998 C 67.228 23.79 67.231 22.976 67.59 22.775 C 76.29 17.933 85.841 19.355 91.325 22.864 C 91.451 22.943 91.97 23.479 91.565 23.934 C 91.357 24.173 90.856 24.189 90.426 23.963 C 82.648 19.88 75.571 20.12 69.037 23.708 Z" fill="currentColor"/>
  <path d="M 69.194 18.842 C 71.773 17.711 74.448 17.104 77.221 16.885 C 79.523 16.703 81.747 16.841 84.095 17.22 C 86.463 17.603 88.535 18.363 90.65 19.339 C 91.363 19.667 92.06 19.995 92.723 20.525 C 93.207 20.913 93.168 21.337 93.057 21.721 C 92.837 22.485 91.954 22.416 91.426 22.108 C 83.952 17.743 74.969 18.197 67.436 22.084 C 66.976 22.322 66.181 22.358 65.937 21.724 C 65.585 20.813 66.345 20.206 67.063 19.738 C 67.168 19.67 66.963 19.799 67.065 19.743 C 68.183 19.137 68.595 19.104 69.195 18.842 Z M 62.799 13.189 C 64.293 13.19 65.506 11.967 65.51 10.455 C 65.508 9.728 65.222 9.032 64.714 8.519 C 64.205 8.006 63.516 7.719 62.798 7.72 C 62.081 7.719 61.392 8.006 60.883 8.519 C 60.375 9.032 60.088 9.728 60.087 10.455 C 60.09 11.967 61.304 13.192 62.798 13.189 Z M 65.618 18.965 C 66.336 18.966 67.026 18.679 67.535 18.166 C 68.044 17.653 68.33 16.956 68.332 16.23 C 68.332 14.719 67.117 13.494 65.619 13.494 C 64.124 13.492 62.91 14.716 62.907 16.23 C 62.91 17.743 64.124 18.967 65.619 18.965 Z M 72.205 16.655 C 72.923 16.656 73.612 16.368 74.121 15.855 C 74.63 15.342 74.916 14.646 74.917 13.919 C 74.914 12.406 73.7 11.181 72.205 11.184 C 71.487 11.182 70.798 11.47 70.289 11.983 C 69.78 12.496 69.494 13.192 69.492 13.919 C 69.492 15.43 70.707 16.655 72.205 16.655 Z M 70.774 10.302 C 72.269 10.304 73.483 9.079 73.486 7.566 C 73.483 6.053 72.269 4.829 70.774 4.831 C 70.056 4.83 69.366 5.117 68.858 5.63 C 68.349 6.143 68.062 6.84 68.061 7.566 C 68.061 9.077 69.276 10.302 70.774 10.302 Z M 79.222 15.501 C 80.721 15.501 81.935 14.276 81.935 12.765 C 81.935 11.253 80.72 10.028 79.221 10.028 C 78.503 10.027 77.813 10.314 77.304 10.827 C 76.795 11.341 76.509 12.038 76.508 12.765 C 76.508 14.276 77.723 15.501 79.221 15.501 Z M 79.222 9.292 C 79.94 9.293 80.63 9.005 81.139 8.492 C 81.647 7.979 81.934 7.282 81.935 6.555 C 81.935 5.043 80.72 3.819 79.221 3.819 C 78.503 3.818 77.813 4.105 77.305 4.618 C 76.796 5.131 76.509 5.828 76.508 6.555 C 76.508 8.066 77.723 9.292 79.221 9.292 Z M 86.381 16.367 C 87.099 16.369 87.788 16.081 88.297 15.568 C 88.806 15.055 89.092 14.359 89.094 13.632 C 89.092 12.905 88.806 12.208 88.297 11.695 C 87.789 11.182 87.099 10.895 86.381 10.896 C 85.663 10.895 84.973 11.182 84.465 11.696 C 83.956 12.209 83.67 12.905 83.669 13.632 C 83.672 15.145 84.886 16.369 86.381 16.367 Z M 87.669 10.302 C 89.164 10.304 90.378 9.08 90.381 7.566 C 90.381 6.056 89.166 4.831 87.669 4.831 C 86.174 4.829 84.96 6.053 84.957 7.566 C 84.96 9.079 86.174 10.304 87.669 10.302 Z M 37.287 27.47 C 38.335 27.88 38.834 28.718 39.52 29.443 C 40.707 30.701 41.729 31.973 43.017 33.133 C 43.098 33.207 43.335 33.207 43.397 33.133 C 45.033 31.173 46.344 29.186 48.351 27.602 C 49.445 26.737 51.23 27.366 51.569 28.83 C 51.735 29.543 51.498 30.202 51.113 30.714 C 49.203 33.255 47.35 35.352 45.43 37.743 C 45.377 40.379 45.74 43.047 45.372 45.708 C 45.237 46.695 44.177 47.257 43.286 47.226 C 42.604 47.197 41.976 46.848 41.587 46.281 C 41.375 45.971 41.212 45.603 41.198 45.285 C 41.101 42.781 40.986 40.285 40.992 37.779 C 38.243 34.241 34.602 31.127 34.453 29.825 C 34.278 28.335 35.378 26.725 37.288 27.47 Z M 69.744 42.471 L 69.744 29.315 C 69.73 25.958 65.158 26.503 65.314 29.237 L 65.314 45.611 C 65.314 45.611 65.314 46.977 66.944 46.849 L 74.173 46.849 C 74.173 46.849 76.25 46.894 76.376 44.818 C 76.376 44.818 76.358 43.012 74.659 42.634 L 69.969 42.615 C 69.969 42.615 69.663 42.543 69.736 42.219 M 62.581 45.026 C 62.398 46.875 61.061 47.27 60.248 47.214 C 60.13 47.206 60.337 47.234 60.249 47.219 C 59.668 47.112 58.557 46.897 58.301 45.582 C 58.138 44.739 58.106 43.456 58.083 43.264 C 58.076 43.216 52.628 43.25 52.623 43.25 C 51.671 44.502 50.733 46.017 49.859 46.867 C 49.544 47.174 49.073 47.256 48.728 47.234 C 47.877 47.179 46.944 46.73 46.622 45.849 C 46.428 45.32 46.236 44.698 46.608 44.157 C 49.173 40.436 51.48 37.324 54.127 33.709 C 55.588 31.712 56.888 29.944 58.387 28.017 C 59.154 27.031 59.823 26.998 60.526 26.985 C 60.478 26.985 62.42 26.944 62.582 28.74 L 62.582 45.02 L 62.581 45.026 Z M 57.142 38.876 C 57.166 38.88 58.095 38.912 58.097 38.879 C 58.135 37.823 58.101 36.567 58.082 35.551 C 57.301 36.589 56.661 37.508 55.911 38.524 C 55.836 38.624 55.791 38.848 56.009 38.861 C 56.41 38.885 56.934 38.843 57.143 38.877 Z M 83.142 36.07 C 83.586 32.514 85.95 29.508 89.094 28.157 C 92.884 26.53 97.42 27.444 100.065 30.77 C 100.638 31.489 100.465 32.443 99.933 33.164 C 99.378 33.914 98.495 34.301 97.701 33.989 C 96.358 33.462 95.433 32.251 93.941 31.938 C 90.871 31.293 87.978 33.357 87.536 36.37 C 87.096 39.37 88.795 42.244 91.813 42.823 C 93.932 43.229 95.599 42.072 97.34 40.834 C 98.164 40.248 99.547 40.542 100.059 41.589 C 100.367 42.218 100.603 42.895 100.224 43.571 C 98.797 46.11 95.902 47.02 93.229 47.281 C 91.18 47.481 89.307 46.761 87.552 45.683 C 84.335 43.703 82.66 39.93 83.142 36.07 Z" fill="currentColor"/>
</svg>